<?xml version="1.0" encoding="utf-8"?>
<!-- Generator: Adobe Illustrator 25.1.0, SVG Export Plug-In . SVG Version: 6.00 Build 0)  -->
<svg version="1.1" id="Capa_1" xmlns="http://www.w3.org/2000/svg" xmlns:xlink="http://www.w3.org/1999/xlink" x="0px" y="0px"
	 viewBox="0 0 500 500" style="enable-background:new 0 0 500 500;" xml:space="preserve">
<style type="text/css">
	.st0{display:none;fill:url(#SVGID_1_);}
	.st1{fill:#BDD0FB;}
	.st2{fill:#FFFFFF;}
	.st3{fill:#7D97F4;}
	.st4{fill:url(#SVGID_2_);}
	.st5{fill:url(#SVGID_3_);}
	.st6{fill:url(#SVGID_4_);}
	.st7{opacity:0.17;fill:#FFFFFF;}
	.st8{opacity:0.68;}
	.st9{fill:url(#SVGID_5_);}
	.st10{fill:#91B3FA;}
	.st11{fill:url(#SVGID_6_);}
	.st12{fill:url(#SVGID_7_);}
	.st13{fill:url(#SVGID_8_);}
	.st14{fill:url(#SVGID_9_);}
	.st15{fill:url(#SVGID_10_);}
	.st16{fill:url(#SVGID_11_);}
	.st17{fill:url(#SVGID_12_);}
	.st18{fill:url(#SVGID_13_);}
	.st19{fill:url(#SVGID_14_);}
	.st20{fill:url(#SVGID_15_);}
	.st21{fill:url(#SVGID_16_);}
	.st22{fill:url(#SVGID_17_);}
	.st23{fill:url(#SVGID_18_);}
	.st24{fill:url(#SVGID_19_);}
	.st25{fill:url(#SVGID_20_);}
	.st26{fill:url(#SVGID_21_);}
	.st27{fill:url(#SVGID_22_);}
	.st28{fill:url(#SVGID_23_);}
	.st29{fill:url(#SVGID_24_);}
	.st30{fill:url(#SVGID_25_);}
	.st31{fill:url(#SVGID_26_);}
	.st32{fill:url(#SVGID_27_);}
	.st33{fill:url(#SVGID_28_);}
	.st34{fill:url(#SVGID_29_);}
	.st35{fill:url(#SVGID_30_);}
	.st36{fill:url(#SVGID_31_);}
	.st37{fill:url(#SVGID_32_);}
	.st38{fill:url(#SVGID_33_);}
	.st39{fill:url(#SVGID_34_);}
	.st40{fill:url(#SVGID_35_);}
	.st41{fill:url(#SVGID_36_);}
	.st42{fill:url(#SVGID_37_);}
	.st43{fill:url(#SVGID_38_);}
	.st44{fill:url(#SVGID_39_);}
	.st45{fill:url(#SVGID_40_);}
	.st46{fill:url(#SVGID_41_);}
	.st47{fill:url(#SVGID_42_);}
	.st48{fill:url(#SVGID_43_);}
	.st49{fill:url(#SVGID_44_);}
	.st50{fill:url(#SVGID_45_);}
	.st51{fill:url(#SVGID_46_);}
	.st52{fill:url(#SVGID_47_);}
	.st53{fill:url(#SVGID_48_);}
	.st54{fill:url(#SVGID_49_);}
	.st55{fill:url(#SVGID_50_);}
	.st56{fill:url(#SVGID_51_);}
	.st57{fill:url(#SVGID_52_);}
	.st58{fill:url(#SVGID_53_);}
	.st59{fill:url(#SVGID_54_);}
	.st60{fill:url(#SVGID_55_);}
	.st61{fill:url(#SVGID_56_);}
	.st62{fill:url(#SVGID_57_);}
	.st63{fill:url(#SVGID_58_);}
	.st64{fill:url(#SVGID_59_);}
	.st65{fill:url(#SVGID_60_);}
	.st66{fill:url(#SVGID_61_);}
	.st67{fill:url(#SVGID_62_);}
	.st68{fill:url(#SVGID_63_);}
	.st69{fill:url(#SVGID_64_);}
	.st70{fill:url(#SVGID_65_);}
	.st71{fill:url(#SVGID_66_);}
	.st72{fill:url(#SVGID_67_);}
	.st73{fill:url(#SVGID_68_);}
	.st74{fill:url(#SVGID_69_);}
	.st75{fill:url(#SVGID_70_);}
	.st76{fill:url(#SVGID_71_);}
	.st77{fill:url(#SVGID_72_);}
</style>
<g>
	<linearGradient id="SVGID_1_" gradientUnits="userSpaceOnUse" x1="1854.3698" y1="1998.0519" x2="-193.4156" y2="-212.2563">
		<stop  offset="0" style="stop-color:#DAE3FE"/>
		<stop  offset="1" style="stop-color:#E9EFFD"/>
	</linearGradient>
	<path class="st0" d="M1573.7,736.77c-282.45,655.53-1028.01,937.1-1612.18,889.09c-159.5-13.11-480.42-39.48-731-274.77
		c-481.21-451.86-407.1-1396.38,53.56-1952.46c59.32-71.61,469.95-551.4,1109.84-544.98c468.49,4.7,797.32,267.48,837.3,300.22
		c50.51,41.36,161.92,139.63,262.32,295.54C1729.47-184.27,1750.2,327.13,1573.7,736.77z"/>
	<g>
		<path class="st1" d="M81.27,18.8c-0.42-2.34,2.44-3.84,4.15-2.17c17.29,16.93,58.62,67.42,46.23,153.86
			c-15.54,108.46,6.28,148.61,33.96,173.41c0,0-38.48-12.2-62-52.97C45.88,190.83,88.82,60.5,81.27,18.8z"/>
		<path class="st2" d="M93.98,53.05c1.95,12.15,3.66,24.34,4.93,36.56c1.33,12.22,2.28,24.47,2.86,36.74
			c0.53,12.27,0.82,24.54,0.59,36.81c-0.17,12.27-0.87,24.52-1.61,36.82c-0.68,12.29-1.43,24.67-0.91,37.17
			c0.5,12.47,2.5,25.08,6.75,36.95c1.06,2.96,2.18,5.91,3.46,8.76c1.23,2.88,2.59,5.71,3.99,8.51c2.84,5.59,6.06,11,9.67,16.15
			c7.24,10.28,16.04,19.44,25.78,27.25c1.03,0.82,2.52,0.66,3.34-0.37c0.81-1.01,0.66-2.47-0.31-3.3l-0.01-0.01
			c-2.32-1.97-4.61-3.96-6.8-6.04c-1.11-1.03-2.18-2.1-3.27-3.15c-1.04-1.09-2.13-2.14-3.14-3.27c-4.11-4.42-7.91-9.13-11.34-14.09
			c-6.9-9.88-12.36-20.85-16.44-32.18c-1.97-5.69-3.52-11.52-4.62-17.44c-1.09-5.93-1.73-11.95-2.03-18.01
			c-0.59-12.13,0.05-24.39,0.64-36.69c0.57-12.3,1.06-24.67,1.04-37.03c0.01-6.18-0.1-12.36-0.31-18.54
			c-0.09-3.09-0.24-6.18-0.38-9.26c-0.17-3.08-0.36-6.17-0.58-9.25c-0.89-12.32-2.15-24.62-3.8-36.85
			c-1.71-12.23-3.74-24.4-6.23-36.48c-0.07-0.35-0.41-0.57-0.75-0.5C94.14,52.39,93.92,52.72,93.98,53.05z"/>
	</g>
	<g>
		<g>
			<path class="st1" d="M101.02,340.01c-1.33,4.18-6.51,5.65-9.87,2.82c-18.56-15.57-67.04-64.35-65.72-147.98
				c1.12-70.62-4.99-109.02-8.97-126.25c-0.84-3.65,3.46-6.25,6.3-3.81C54.12,91.63,149.33,188.42,101.02,340.01z"/>
			<path class="st2" d="M95.08,340.28c-0.09,0.06-0.18,0.12-0.29,0.17c-0.86,0.4-1.88,0.02-2.27-0.84
				c-0.45-0.97-44.96-98.6-47.84-196.85c-0.03-0.95,0.72-1.74,1.66-1.76c0.95-0.03,1.74,0.72,1.76,1.66
				c2.86,97.54,47.08,194.55,47.53,195.52C95.98,338.93,95.73,339.81,95.08,340.28z"/>
		</g>
	</g>
	<g>
		
			<ellipse transform="matrix(0.0439 -0.999 0.999 0.0439 18.5246 459.9905)" class="st3" cx="249.58" cy="220.32" rx="193.8" ry="209.19"/>
		<linearGradient id="SVGID_2_" gradientUnits="userSpaceOnUse" x1="437.6497" y1="29.324" x2="616.5161" y2="-114.0985">
			<stop  offset="0" style="stop-color:#4F52FF"/>
			<stop  offset="1" style="stop-color:#4042E2"/>
		</linearGradient>
		<path class="st4" d="M91.77,91.92c-4.59,7.37-8.13,15.67-7.47,24.33c0.77,10.03,5.84,19.42,6.1,29.47
			c0.44,17.05-12.72,31.32-16.82,47.87c-4.59,18.5,12.71,39.58,19.61,49.91c6.89,10.33,3.93-8.38,8.11-15.67
			c4.18-7.29,13.19,30.69,27.27,39.03c7.55,4.47,16.42,7.45,21.85,14.35c7.92,10.06,5.73,24.37,4.54,37.12s0.59,28.28,12.07,33.95
			c6.76,3.34,15.35,2.21,21.45,6.64c10.71,7.78,5.6,24.74,9.84,37.28c4.62,13.64,13.77,13.82,27.93,16.71
			c14.16,2.89-1.78-28.22,4.85-39.1c3.49-5.72,8.81-10.26,11.56-16.37c3.81-8.47,2.74-19.78,10.14-25.39
			c5.55-4.21,13.27-3.07,20.23-3.13c6.96-0.06,15.43-3.08,16.22-10c0.7-6.14-5.44-11.03-11.45-12.45
			c-6.01-1.42-12.41-0.74-18.32-2.56c-16.88-5.2-24.76-28.82-42.39-29.93c-15.07-0.94-27.69,15.97-42.5,13.02
			c-8.26-1.65-13.91-8.96-20.03-14.73c-7.87-7.41-17.64-12.98-23.89-21.8c-6.25-8.83-7.31-22.93,1.58-29.09
			c6.6-4.57,15.99-2.72,22.51,1.97c6.52,4.69,10.97,11.64,15.76,18.09c1.48,1.99,3.15,4.05,5.52,4.8c6.37,1.99,11.02-6.97,9.5-13.47
			c-1.52-6.5-6.12-12.22-6.33-18.89c-0.38-11.76,12.28-19.22,23.39-23.1c11.11-3.88,24.21-8.5,27.47-19.8
			c1.15-3.99,0.85-8.39,2.61-12.15c5.84-12.48,36.63-18.71,29.27-25.94c-7.36-7.23-30.72-8.81-35.27-23.38
			c-1.63-5.22-3.31-12.11-8.75-12.62c-8.86-0.82-13.92,10.15-21.36,12.03c-3.53,0.89-3.87,6.89-3.73,14.26
			c0.1,5.35-4.16,9.77-9.51,9.87c-5.35,0.1-9.77-4.15-9.87-9.5c-0.04-1.99,0.31-3.99,1.13-6c1.43-3.51,4.15-6.31,6.89-8.93
			c11.43-10.92,45.55-22.91,38.41-27.56c-7.14-4.65-41.44-17.47-46.55-10.4c-5.12,7.08,3.34,1.08,5.41,9.48
			c2.06,8.39-25.37,7.27-38.05,10.9c-2.09,0.6-4.42,1.18-6.38,0.24c-2.19-1.06-3.11-3.61-4.3-5.74
			c-6.37-11.38-27.56-3.99-27.56-3.99S95.87,85.33,91.77,91.92z"/>
		<linearGradient id="SVGID_3_" gradientUnits="userSpaceOnUse" x1="367.8721" y1="-57.6994" x2="546.739" y2="-201.1224">
			<stop  offset="0" style="stop-color:#4F52FF"/>
			<stop  offset="1" style="stop-color:#4042E2"/>
		</linearGradient>
		<path class="st5" d="M187.6,40.27c-3.08,5.74,6.08,5.65,6.99,12.1c8.24,0.9,11.63-12.1,19.78-13.62c4.6-0.86,9.06,2.44,11.56,6.4
			c2.5,3.96,3.67,8.6,5.79,12.77c4.75,9.35,14.55,15.93,25.01,16.78c2.27,0.19,4.78,0.04,6.49-1.47c4.97-4.38-2.14-12.6-0.29-18.97
			c2.11-7.27,12.59-6.17,19.67-8.83c1.95-0.74,16.98-4.74,17.22-6.82c0.43-3.68-6.54-6.02-14.34-8.02
			c-13.21-3.4-36.46-3.26-47.82-2.23C222.53,29.75,197.35,28.64,187.6,40.27L187.6,40.27z"/>
		<g>
			<linearGradient id="SVGID_4_" gradientUnits="userSpaceOnUse" x1="512.3732" y1="122.5108" x2="691.2403" y2="-20.9123">
				<stop  offset="0" style="stop-color:#4F52FF"/>
				<stop  offset="1" style="stop-color:#4042E2"/>
			</linearGradient>
			<path class="st6" d="M439.72,287.18c3.43-21.44,3.14-43.48-0.84-64.83c-1.06-5.7-3.55-12.48-9.28-13.3
				c-6.63-0.95-14.75,6.67-18.91,1.41c-1.83-2.32-1.1-5.7-0.06-8.47c2.74-7.3,7.03-14.02,12.5-19.59c3.4-3.46,7.29-6.52,9.9-10.6
				c5.6-8.72,1.67-21.47-6.25-28.16c-7.92-6.68-18.14,5.3-26.47,0.54c-8.33-4.76-8.59-16.3-10.15-25.77
				c-1.16-7.01-6.32-26-12.03-16.75c-5.7,9.25,7.61,46.06,22.59,63.71c1.81,2.13,3.8,4.51,3.65,7.3
				c-0.36,6.66-10.07,6.36-16.59,7.72c-8.08,1.69-20.46-2.64-13.63,11.44c3.6,7.43,20.82,17.59,16.19,22.56s-18.85,19.36-25.52,31
				c-6.67,11.64-9.91,26.14-4.87,38.57c5.03,12.44,20.16,21.03,32.52,15.79c5.78-2.45,12.08-7.55,17.46-4.3
				c4.87,2.94,4.15,10,3.91,15.69c-0.24,5.68,3.03,13.22,8.56,11.89c1.82-0.44,3.25-1.82,4.48-3.23
				C434.64,310.87,437.85,298.88,439.72,287.18z"/>
		</g>
		<ellipse class="st7" cx="238.25" cy="206.33" rx="164.15" ry="155.07"/>
		<g class="st8">
			<path class="st2" d="M307.97,223.64c-0.05,34.17-2.39,68.41-8.38,102.1c-1.52,8.41-3.28,16.79-5.38,25.08
				c-2.11,8.29-4.54,16.51-7.52,24.54c-1.49,4.01-3.13,7.98-4.96,11.86c-1.84,3.88-3.88,7.67-6.25,11.26
				c-2.38,3.58-5.08,7.01-8.41,9.82c-1.66,1.4-3.49,2.64-5.49,3.55c-2,0.9-4.19,1.47-6.4,1.51c-2.21,0.07-4.43-0.37-6.47-1.19
				c-2.05-0.82-3.92-2-5.62-3.35c-3.41-2.73-6.17-6.12-8.59-9.67c-2.42-3.57-4.48-7.35-6.35-11.21c-1.86-3.87-3.52-7.82-5.03-11.83
				c-3.02-8.02-5.47-16.23-7.6-24.52c-2.12-8.29-3.9-16.66-5.43-25.07c-3.06-16.83-5.14-33.82-6.54-50.85
				c-1.39-17.04-2.08-34.13-2.16-51.23c-0.04-8.55,0.18-17.09,0.48-25.63c0.31-8.54,0.77-17.08,1.39-25.6
				c1.25-17.05,3.12-34.05,5.91-50.92c1.4-8.43,3.03-16.83,5-25.15c1.97-8.32,4.27-16.57,7.11-24.65c1.43-4.03,2.99-8.02,4.78-11.92
				c1.78-3.89,3.78-7.7,6.12-11.3c2.35-3.58,5.05-7.01,8.41-9.74c1.68-1.36,3.53-2.54,5.56-3.34c2.02-0.81,4.21-1.22,6.38-1.14
				c2.18,0.06,4.33,0.61,6.31,1.48c1.99,0.88,3.81,2.08,5.49,3.43c3.35,2.73,6.13,6.07,8.59,9.58c2.45,3.52,4.6,7.25,6.53,11.07
				c1.94,3.82,3.66,7.74,5.26,11.71c3.17,7.95,5.79,16.11,8.07,24.35c2.27,8.25,4.2,16.58,5.86,24.97
				C305.21,155.22,307.88,189.47,307.97,223.64z M305.89,223.64c0.02-17.04-0.63-34.08-2.05-51.06c-1.41-16.98-3.54-33.9-6.7-50.64
				c-1.58-8.37-3.42-16.69-5.61-24.92c-2.2-8.22-4.73-16.37-7.81-24.3c-1.55-3.96-3.23-7.87-5.12-11.68
				c-1.88-3.81-3.97-7.52-6.37-11.02c-2.4-3.49-5.11-6.8-8.36-9.49c-1.63-1.34-3.39-2.52-5.3-3.38c-1.91-0.86-3.97-1.42-6.06-1.47
				c-2.09-0.07-4.18,0.35-6.11,1.14c-1.94,0.79-3.72,1.94-5.35,3.28c-3.25,2.69-5.88,6.08-8.16,9.64
				c-2.28,3.57-4.22,7.36-5.95,11.24c-1.73,3.88-3.25,7.86-4.64,11.88c-2.76,8.05-4.97,16.28-6.86,24.59
				c-1.88,8.31-3.44,16.69-4.76,25.1c-2.63,16.84-4.34,33.81-5.44,50.81c-1.1,17.01-1.5,34.05-1.47,51.09
				c-0.03,17.04,0.55,34.08,1.83,51.07c1.29,16.99,3.25,33.93,6.19,50.71c1.47,8.39,3.19,16.73,5.25,24.99
				c2.06,8.26,4.45,16.44,7.39,24.41c1.47,3.99,3.09,7.92,4.9,11.75c1.82,3.83,3.84,7.57,6.19,11.08c2.35,3.5,5.03,6.82,8.28,9.45
				c1.63,1.31,3.4,2.44,5.31,3.22c1.91,0.78,3.96,1.21,6.02,1.14c2.06-0.05,4.08-0.59,5.96-1.45c1.88-0.87,3.61-2.06,5.2-3.41
				c3.18-2.73,5.8-6.09,8.12-9.62c4.59-7.11,8-14.95,10.93-22.92c2.9-7.99,5.27-16.18,7.31-24.44c2.03-8.26,3.73-16.61,5.19-25
				c2.91-16.78,4.86-33.73,6.15-50.72C305.29,257.73,305.89,240.68,305.89,223.64z"/>
			<path class="st2" d="M394.16,223.64c-0.11,21.99-2.93,43.99-8.81,65.2c-5.98,21.16-14.99,41.52-27.23,59.8
				c-6.12,9.13-13.06,17.73-20.81,25.53c-7.75,7.8-16.32,14.8-25.63,20.66c-9.32,5.84-19.38,10.52-29.92,13.69
				c-10.53,3.18-21.52,4.84-32.52,4.86c-11-0.01-22-1.66-32.53-4.83c-10.54-3.17-20.61-7.84-29.94-13.67
				c-9.32-5.86-17.9-12.86-25.66-20.65c-7.76-7.8-14.71-16.39-20.85-25.52c-12.26-18.29-21.29-38.65-27.29-59.82
				c-5.92-21.21-8.74-43.23-8.83-65.24c0.05-11.01,0.79-22.01,2.24-32.91c1.46-10.91,3.66-21.72,6.62-32.32
				c6.01-21.16,15.05-41.52,27.32-59.79c6.14-9.12,13.09-17.71,20.85-25.5c7.76-7.79,16.34-14.78,25.65-20.62
				c9.32-5.82,19.39-10.46,29.92-13.63c10.52-3.18,21.5-4.84,32.49-4.85c10.99,0.02,21.97,1.69,32.48,4.87
				c10.52,3.17,20.58,7.82,29.9,13.65c9.31,5.85,17.87,12.85,25.62,20.63c7.75,7.79,14.69,16.38,20.81,25.51
				c12.25,18.27,21.27,38.62,27.26,59.77C391.21,179.66,394.04,201.65,394.16,223.64z M391.78,223.64
				c-0.04-21.78-2.76-43.59-8.52-64.62c-5.79-20.99-14.52-41.25-26.52-59.47c-6-9.1-12.8-17.67-20.42-25.47
				c-7.62-7.78-16.05-14.82-25.25-20.67c-9.22-5.82-19.17-10.5-29.6-13.67c-10.43-3.17-21.32-4.84-32.22-4.87
				c-10.91,0.04-21.79,1.72-32.22,4.89c-10.43,3.18-20.37,7.86-29.58,13.69c-9.2,5.86-17.61,12.9-25.22,20.68
				c-7.61,7.8-14.41,16.37-20.39,25.47c-11.98,18.21-20.69,38.47-26.46,59.45c-2.87,10.5-4.96,21.22-6.37,32.01
				c-1.41,10.79-2.11,21.68-2.14,32.57c0.03,10.89,0.74,21.77,2.15,32.57c1.42,10.79,3.51,21.5,6.38,32
				c5.78,20.98,14.51,41.22,26.49,59.42c5.99,9.09,12.78,17.66,20.39,25.45c7.61,7.77,16.02,14.81,25.22,20.65
				c9.21,5.81,19.15,10.47,29.56,13.65c10.41,3.18,21.28,4.86,32.17,4.91c10.89-0.04,21.77-1.71,32.18-4.89
				c10.42-3.17,20.37-7.82,29.58-13.63c9.2-5.84,17.62-12.87,25.25-20.64c7.62-7.78,14.43-16.35,20.43-25.44
				c12-18.2,20.74-38.45,26.55-59.43C388.99,267.23,391.73,245.43,391.78,223.64z"/>
			<path class="st2" d="M79.82,148.55l43.6-0.29l43.6-0.17l87.2-0.13l87.2,0.15l43.6,0.18l43.6,0.31c0.06,0,0.1,0.05,0.1,0.11
				c0,0.06-0.05,0.1-0.1,0.1l-43.6,0.31l-43.6,0.18l-87.2,0.15l-87.2-0.13l-43.6-0.17l-43.6-0.29c-0.09,0-0.16-0.07-0.16-0.16
				C79.67,148.62,79.74,148.55,79.82,148.55z"/>
			<path class="st2" d="M130.41,75.52l30.95-0.29l30.95-0.16c10.32-0.07,20.64-0.06,30.95-0.08l30.95-0.05l61.91,0.15l30.95,0.18
				c10.32,0.11,20.64,0.17,30.95,0.31c0.06,0,0.1,0.05,0.1,0.11c0,0.06-0.05,0.1-0.1,0.1c-10.32,0.14-20.64,0.21-30.95,0.31
				l-30.95,0.18l-61.91,0.15l-30.95-0.05c-10.32-0.02-20.64-0.01-30.95-0.08l-30.95-0.16l-30.95-0.29c-0.09,0-0.16-0.07-0.16-0.16
				C130.25,75.59,130.32,75.53,130.41,75.52z"/>
			<path class="st2" d="M64.67,221.58l47.39-0.29l47.39-0.17l94.78-0.13l94.78,0.15l47.39,0.18l47.39,0.31c0.06,0,0.1,0.05,0.1,0.11
				c0,0.06-0.05,0.1-0.1,0.1l-47.39,0.31L349,222.33l-94.78,0.15l-94.78-0.13l-47.39-0.17l-47.39-0.29c-0.09,0-0.16-0.07-0.16-0.16
				C64.52,221.65,64.59,221.58,64.67,221.58z"/>
			<path class="st2" d="M79.82,294.6l43.6-0.29l43.6-0.17l87.2-0.13l87.2,0.15l43.6,0.18l43.6,0.31c0.06,0,0.1,0.05,0.1,0.11
				c0,0.06-0.05,0.1-0.1,0.1l-43.6,0.31l-43.6,0.18l-87.2,0.15l-87.2-0.13l-43.6-0.17l-43.6-0.29c-0.09,0-0.16-0.07-0.16-0.16
				C79.67,294.67,79.74,294.6,79.82,294.6z"/>
			<path class="st2" d="M384.28,368.34H136.64c-0.3,0-0.55-0.25-0.55-0.55s0.25-0.55,0.55-0.55h247.64c0.3,0,0.55,0.25,0.55,0.55
				S384.59,368.34,384.28,368.34z"/>
		</g>
	</g>
	<g>
		<linearGradient id="SVGID_5_" gradientUnits="userSpaceOnUse" x1="138.3071" y1="234.0002" x2="116.037" y2="267.4053">
			<stop  offset="0" style="stop-color:#FEBBBA"/>
			<stop  offset="1" style="stop-color:#FF928E"/>
		</linearGradient>
		<path class="st9" d="M107.22,287.71l24.6,0.3l-8.61-8.1c-2.14-2.01-5.41-2.34-7.88-0.74c-1.45,0.94-3.02,2.21-4.37,3.9
			c0,0-15.35-5.61-22.79-18.16c-2.32,3.44-5.03,8.13-7.37,13.96C87.47,282.79,96.11,285.87,107.22,287.71z"/>
		<path class="st10" d="M139.21,463.16c-6.55,0.57-17.92,1.49-26.88,1.88c-5.39,0.24-8.49-0.29-10.27-1.01
			c0,0.2,0.01,0.39,0.02,0.57c0.04,0.94,0.81,1.7,1.76,1.75c16.93,0.95,30.4,0.33,35.19,0.04c0.99-0.06,1.58-1.14,1.08-1.98
			C139.85,463.98,139.54,463.57,139.21,463.16z"/>
		<linearGradient id="SVGID_6_" gradientUnits="userSpaceOnUse" x1="140.1631" y1="401.0484" x2="131.4589" y2="428.0772">
			<stop  offset="0" style="stop-color:#09005D"/>
			<stop  offset="1" style="stop-color:#1A0F91"/>
		</linearGradient>
		<path class="st11" d="M112.33,465.04c8.96-0.39,20.33-1.31,26.88-1.88c-6.44-7.9-26.88-13.23-26.88-13.23h-5.77
			c-3.97,5.72-4.55,11.17-4.5,14.1C103.84,464.75,106.95,465.28,112.33,465.04z"/>
		<linearGradient id="SVGID_7_" gradientUnits="userSpaceOnUse" x1="105.5879" y1="447.056" x2="116.3571" y2="447.056">
			<stop  offset="0" style="stop-color:#FEBBBA"/>
			<stop  offset="1" style="stop-color:#FF928E"/>
		</linearGradient>
		<path class="st12" d="M105.59,440.51l0.54,10.69c0.06,1.16,0.92,2.13,2.08,2.3c1.15,0.16,2.7,0.19,4.34-0.36
			c1.01-0.34,1.76-1.18,1.94-2.22l1.87-10.41H105.59z"/>
		<g>
			<path class="st10" d="M38.59,472.35c-2.84-0.46-4.13-2.18-4.66-4.02c0,0.02-0.01,0.03-0.01,0.05c-0.42,1.94,0.55,3.94,2.49,4.9
				c2.34,1.15,4.9,1.35,6.89,1.26c2.13-0.1,4.09-1.13,5.16-2.77l0.02-0.02C46.33,472.97,43.33,473.12,38.59,472.35z"/>
			<linearGradient id="SVGID_8_" gradientUnits="userSpaceOnUse" x1="70.9258" y1="378.7518" x2="62.2216" y2="405.7805">
				<stop  offset="0" style="stop-color:#09005D"/>
				<stop  offset="1" style="stop-color:#1A0F91"/>
			</linearGradient>
			<path class="st13" d="M51.98,443.81h-4.76c-7.25-0.17-11.8,17.63-13.3,24.53c0.54,1.84,1.82,3.55,4.66,4.02
				c4.74,0.77,7.74,0.62,9.88-0.61c3.92-6,5.86-14.79,6.79-19.92C56.33,445.98,51.98,443.81,51.98,443.81z"/>
		</g>
		<linearGradient id="SVGID_9_" gradientUnits="userSpaceOnUse" x1="45.1034" y1="441.4403" x2="57.9738" y2="441.4403">
			<stop  offset="0" style="stop-color:#FEBBBA"/>
			<stop  offset="1" style="stop-color:#FF928E"/>
		</linearGradient>
		<path class="st14" d="M47.83,433.88l-2.64,10.51c-0.32,1.29,0.29,2.62,1.48,3.23c1.48,0.76,3.56,1.56,5.47,1.33
			c0.9-0.11,1.65-0.74,1.94-1.59l3.88-11.06L47.83,433.88z"/>
		<linearGradient id="SVGID_10_" gradientUnits="userSpaceOnUse" x1="110.9534" y1="364.2095" x2="172.502" y2="240.0134">
			<stop  offset="0" style="stop-color:#4F52FF"/>
			<stop  offset="1" style="stop-color:#4042E2"/>
		</linearGradient>
		<path class="st15" d="M140.82,295.41c0,0-23.62,147.67-23.23,148.48c0,0-6.52,2.97-13.64,0.38c0,0,2.14-78.94,7.14-109.2
			c0,0-40.32,70.55-53.12,105.71c0,0-6.68-0.8-12.21-4.43c0,0,43.41-127,54.99-143.91L140.82,295.41z"/>
		<linearGradient id="SVGID_11_" gradientUnits="userSpaceOnUse" x1="169.1815" y1="175.5418" x2="147.7505" y2="240.6591">
			<stop  offset="0" style="stop-color:#09005D"/>
			<stop  offset="1" style="stop-color:#1A0F91"/>
		</linearGradient>
		<path class="st16" d="M112.04,334.74c-0.21,0-0.42-0.06-0.6-0.17c-0.53-0.33-0.7-1.04-0.36-1.57l8.83-14.1
			c0.17-0.27,0.43-0.45,0.74-0.51l6.5-1.31c0.62-0.13,1.22,0.28,1.34,0.89c0.12,0.62-0.28,1.22-0.89,1.34l-6.02,1.21l-8.57,13.68
			C112.79,334.55,112.42,334.74,112.04,334.74z"/>
		<linearGradient id="SVGID_12_" gradientUnits="userSpaceOnUse" x1="126.5403" y1="212.8033" x2="49.6048" y2="357.8819">
			<stop  offset="0" style="stop-color:#09005D"/>
			<stop  offset="1" style="stop-color:#1A0F91"/>
		</linearGradient>
		<path class="st17" d="M143.24,199.99c-3.97-8.33-38.28-9.21-63.41-0.91c-5.29,1.75-9.57,5.66-11.78,10.72
			c-6.8,15.6-17.8,51.13,12.75,69.07c2.35-5.83,5.06-10.51,7.37-13.96c-4.92-8.3-6.38-19.64,2.35-34.4
			c6.37,17.19,9.35,42.28,9.98,53.38c0.21,3.66-0.44,7.3-1.87,10.68l-0.16,0.37c-0.31,0.72,0.12,1.55,0.89,1.73
			c17.2,3.86,35.09,2.81,40.44,2.37c0.95-0.08,1.75-0.76,1.97-1.68C150.13,262.11,149.22,212.54,143.24,199.99z"/>
		<linearGradient id="SVGID_13_" gradientUnits="userSpaceOnUse" x1="108.5095" y1="213.202" x2="114.0861" y2="183.9249">
			<stop  offset="0" style="stop-color:#FEBBBA"/>
			<stop  offset="1" style="stop-color:#FF928E"/>
		</linearGradient>
		<path class="st18" d="M105.69,171.77c0,0-1.74,18.4-3.27,23.84c-0.23,0.83,0.13,1.7,0.88,2.12c2.6,1.49,8.84,3.91,17.37-0.27
			c1.38-0.68,2.21-2.12,2.15-3.64l-0.75-17.78L105.69,171.77z"/>
		<g>
			<linearGradient id="SVGID_14_" gradientUnits="userSpaceOnUse" x1="123.5989" y1="159.4878" x2="91.7812" y2="183.8333">
				<stop  offset="0" style="stop-color:#FEBBBA"/>
				<stop  offset="1" style="stop-color:#FF928E"/>
			</linearGradient>
			<path class="st19" d="M122.43,148.23c0,0,5.57,12.79,5.94,19.5c0.37,6.71,1.82,11.07-5.94,12.42c-7.76,1.35-14.3-2.51-17.84-9.2
				c0,0-5.55-10.3-4.3-14.52C101.54,152.21,122.43,148.23,122.43,148.23z"/>
			<linearGradient id="SVGID_15_" gradientUnits="userSpaceOnUse" x1="101.2006" y1="140.2115" x2="130.8339" y2="178.3644">
				<stop  offset="0" style="stop-color:#09005D"/>
				<stop  offset="1" style="stop-color:#1A0F91"/>
			</linearGradient>
			<path class="st20" d="M107.25,166.14l0.44-0.19c0.56-0.25,0.8-0.92,0.52-1.46c-1.09-2.11-3.23-6.96-0.47-8.09
				c3.55-1.46,17.62-4.33,20.65-9.32c2.92-4.8,0.33-10.99-3.55-12.75c-0.26-0.12-0.57-0.02-0.7,0.23l-0.32,0.61
				c-0.22,0.42-0.84,0.36-0.97-0.1l0,0c-0.13-0.44-0.71-0.52-0.95-0.14c-0.93,1.49-3.45,3.91-10.19,5.16
				c-9.57,1.77-15.9,5.64-16.06,12.26c-0.01,0.42-0.46,0.65-0.82,0.44c-0.71-0.43-1.84-0.63-3.35,0.64
				c-2.63,2.21-1.55,7.94,4.21,12.66c0.27,0.22,0.27,0.65-0.02,0.84c-1.04,0.68-2.6,2.3,1.43,4.46c4.17,2.23,7.29,2.05,8.49,1.85
				c0.3-0.05,0.49-0.34,0.43-0.63l-1.28-5.81c-0.07-0.33,0.18-0.64,0.51-0.64H107.25z"/>
			<linearGradient id="SVGID_16_" gradientUnits="userSpaceOnUse" x1="119.6523" y1="154.3299" x2="87.8346" y2="178.6753">
				<stop  offset="0" style="stop-color:#FEBBBA"/>
				<stop  offset="1" style="stop-color:#FF928E"/>
			</linearGradient>
			<path class="st21" d="M107.49,167.37c0,0-2.12-8.17-5.78-5.88c-3.66,2.29,1.9,9.15,4.84,9.46L107.49,167.37z"/>
		</g>
		<linearGradient id="SVGID_17_" gradientUnits="userSpaceOnUse" x1="111.7679" y1="271.3979" x2="97.0882" y2="293.4175">
			<stop  offset="0" style="stop-color:#FEBBBA"/>
			<stop  offset="1" style="stop-color:#FF928E"/>
		</linearGradient>
		<path class="st22" d="M96.91,277.81c0,0,2.09-3.49,6.98-3.49c4.88,0,10.47,9.07,10.47,9.07s-7.67,3.49-10.47,6.28
			C101.1,292.46,96.91,283.39,96.91,277.81z"/>
	</g>
	<g>
		
			<linearGradient id="SVGID_18_" gradientUnits="userSpaceOnUse" x1="-5827.0444" y1="536.8449" x2="-5825.6099" y2="493.8116" gradientTransform="matrix(-1 0 0 1 -5546.6519 0)">
			<stop  offset="0" style="stop-color:#7C27DD"/>
			<stop  offset="1" style="stop-color:#2B41D9"/>
		</linearGradient>
		<path class="st23" d="M265.91,464.14c0-0.18,0.01-0.37,0.06-0.55c2.74-10.88,13.97-16.46,13.97-16.46l5.4,0.42
			c3.1,9.59,5.11,14.27,4.61,16.89c-0.01,0.07-0.04,0.14-0.06,0.21C285.43,465.06,276.26,465.32,265.91,464.14z"/>
		<path class="st10" d="M289.88,464.66c-0.24,0.88-0.89,1.56-1.71,1.73c-6.33,1.33-16.4,0.26-20.63-0.29
			c-0.93-0.12-1.61-0.98-1.63-1.96C276.26,465.32,285.43,465.06,289.88,464.66z"/>
		
			<linearGradient id="SVGID_19_" gradientUnits="userSpaceOnUse" x1="7292.2495" y1="427.7756" x2="7287.437" y2="469.7761" gradientTransform="matrix(1 0 0 1 -7010.1484 0)">
			<stop  offset="0" style="stop-color:#A22B25"/>
			<stop  offset="1" style="stop-color:#C0423C"/>
		</linearGradient>
		<path class="st24" d="M275.48,438.73l2.36,11.38c0.17,0.83,0.81,1.46,1.59,1.53c0.95,0.09,2.3,0.14,3.66-0.06
			c1.22-0.18,2.07-1.42,1.85-2.75l-1.64-10.1H275.48z"/>
		<path class="st10" d="M335.75,464.57c-5.77-0.16-8.75-0.84-10.29-1.47c0,0.57,0,1.16,0.02,1.76c0.02,0.65,0.5,1.16,1.09,1.16
			l31.66-0.2c1.01-0.01,1.6-1.18,1.16-2.1C355.23,464.05,344.66,464.82,335.75,464.57z"/>
		
			<linearGradient id="SVGID_20_" gradientUnits="userSpaceOnUse" x1="7349.2271" y1="563.4558" x2="7350.6616" y2="520.4225" gradientTransform="matrix(1 0 0 1 -7010.1484 0)">
			<stop  offset="0" style="stop-color:#7C27DD"/>
			<stop  offset="1" style="stop-color:#2B41D9"/>
		</linearGradient>
		<path class="st25" d="M359.39,463.71c-0.04-0.08-0.07-0.16-0.13-0.24c-2.8-3.91-9.92-11.69-23.99-15.06l-6.75-0.21
			c0,0-3.01,5.22-3.06,14.9c1.54,0.63,4.52,1.31,10.29,1.47C344.66,464.82,355.23,464.05,359.39,463.71z"/>
		
			<linearGradient id="SVGID_21_" gradientUnits="userSpaceOnUse" x1="7342.9458" y1="433.1489" x2="7338.4438" y2="472.4382" gradientTransform="matrix(1 0 0 1 -7010.1484 0)">
			<stop  offset="0" style="stop-color:#A22B25"/>
			<stop  offset="1" style="stop-color:#C0423C"/>
		</linearGradient>
		<path class="st26" d="M327.27,437.96c0.08,0.5,1,8.15,1.36,11.12c0.09,0.7,0.6,1.25,1.24,1.33c1.15,0.14,3.01,0.26,4.64-0.07
			c0.88-0.18,1.51-1.02,1.51-2v-12L327.27,437.96z"/>
		
			<linearGradient id="SVGID_22_" gradientUnits="userSpaceOnUse" x1="5503.3193" y1="431.8928" x2="5508.7202" y2="262.6789" gradientTransform="matrix(1 0 0 1 -5198.3135 0)">
			<stop  offset="0" style="stop-color:#09005D"/>
			<stop  offset="1" style="stop-color:#1A0F91"/>
		</linearGradient>
		<path class="st27" d="M279.99,289.31c0,0-10.8,96.01-4.8,156.02c0,0,7.2,0,10.8-1.2c0,0,11.22-93.88,14.86-120.74
			c0.14-1.01,1.58-1.06,1.78-0.06c4.48,22.6,22.08,111.23,24.17,119.59c0,0,6,2.4,10.8,0c0,0-9.6-128.42-16.8-151.22L279.99,289.31z
			"/>
		<linearGradient id="SVGID_23_" gradientUnits="userSpaceOnUse" x1="308.1283" y1="198.4783" x2="232.4218" y2="346.4498">
			<stop  offset="0" style="stop-color:#FF928E"/>
			<stop  offset="1" style="stop-color:#FE7062"/>
		</linearGradient>
		<path class="st28" d="M258.39,177.69c0,0,45.61-7.2,81.61,2.4l-2.4,37.2c0,0-9.6,51.61-16.8,74.41c0,0-27.6,4.8-40.81-2.4
			c0,0-10.8-64.81-16.8-74.41C263.19,214.9,257.19,189.69,258.39,177.69z"/>
		
			<linearGradient id="SVGID_24_" gradientUnits="userSpaceOnUse" x1="5483.8442" y1="161.5204" x2="5505.4248" y2="161.5204" gradientTransform="matrix(1 0 0 1 -5198.3135 0)">
			<stop  offset="0" style="stop-color:#A22B25"/>
			<stop  offset="1" style="stop-color:#C0423C"/>
		</linearGradient>
		<path class="st29" d="M290.07,144.9l-4.54,30.72c0,0,12.69,5.83,21.58-0.25l-1.91-21.68L290.07,144.9z"/>
		<g>
			
				<linearGradient id="SVGID_25_" gradientUnits="userSpaceOnUse" x1="6551.23" y1="1755.6609" x2="6589.0361" y2="1746.4594" gradientTransform="matrix(0.8757 -0.4828 0.4828 0.8757 -4489.2461 120.7481)">
				<stop  offset="0" style="stop-color:#A22B25"/>
				<stop  offset="1" style="stop-color:#C0423C"/>
			</linearGradient>
			<path class="st30" d="M309.64,124.89c0.14,0.26,2.88,15.75,4.57,25.34c0.7,3.96-2.22,7.64-6.23,7.88l-3.68,0.22
				c-6.76,0.4-12.71-4.41-13.73-11.1l-2.66-17.37C287.9,129.86,306.16,118.59,309.64,124.89z"/>
			
				<linearGradient id="SVGID_26_" gradientUnits="userSpaceOnUse" x1="5968.229" y1="128.6262" x2="6002.3872" y2="128.6262" gradientTransform="matrix(1 0 0 1 -5686.8291 0)">
				<stop  offset="0" style="stop-color:#09005D"/>
				<stop  offset="1" style="stop-color:#1A0F91"/>
			</linearGradient>
			<path class="st31" d="M283.94,129.9c-1.41-1.75-2.64-4.59,0.36-7.57c3.04-3.02,6.49-2.27,8.68-1.25
				c0.97,0.45,2.16,0.25,2.85-0.57c0.31-0.36,0.76-0.61,1.44-0.53c1.27,0.14,2.41-0.7,2.56-1.97c0.26-2.18,1.42-4.74,5.27-5.49
				c7.07-1.37,10.59,5.7,10.46,10.67c-0.13,4.97-7.87,6.01-12.26,5.19c-3.23-0.61-6.02,2.23-7.27,3.78c-0.46,0.56-0.63,1.3-0.46,2
				l1.12,4.8c-0.77,1.49-1.53,3.02-2.62,4.29c-0.78,0.92-1.64,1.42-2.55,1.64c-1.32-2.45-5-2.87-6.71-2.92
				c-0.65-0.02-1.27-0.31-1.7-0.8c-1.29-1.48-3.31-4.79,0.56-8.03C284.61,132.33,284.72,130.88,283.94,129.9z"/>
			
				<linearGradient id="SVGID_27_" gradientUnits="userSpaceOnUse" x1="6549.8916" y1="1750.1858" x2="6587.6978" y2="1740.9843" gradientTransform="matrix(0.8757 -0.4828 0.4828 0.8757 -4489.2461 120.7481)">
				<stop  offset="0" style="stop-color:#A22B25"/>
				<stop  offset="1" style="stop-color:#C0423C"/>
			</linearGradient>
			<path class="st32" d="M292.78,150.04c0,0-0.15-8.67-3.66-9.48c-3.51-0.81-7.29,1.72-4.29,6.91
				C288.56,153.92,292.78,150.04,292.78,150.04z"/>
			<linearGradient id="SVGID_28_" gradientUnits="userSpaceOnUse" x1="309.8491" y1="121.2697" x2="313.4363" y2="121.2697">
				<stop  offset="0" style="stop-color:#DAE3FE"/>
				<stop  offset="1" style="stop-color:#E9EFFD"/>
			</linearGradient>
			<path class="st33" d="M310.11,127.13c-0.09,0-0.17-0.05-0.22-0.13c-0.07-0.12-0.03-0.28,0.09-0.35c1.67-0.96,2.64-2.23,2.88-3.75
				c0.54-3.39-2.65-7.02-2.68-7.06c-0.09-0.11-0.09-0.27,0.02-0.36c0.1-0.1,0.27-0.09,0.36,0.02c0.14,0.16,3.38,3.85,2.8,7.48
				c-0.27,1.68-1.32,3.06-3.13,4.11C310.19,127.11,310.15,127.13,310.11,127.13z"/>
		</g>
		<linearGradient id="SVGID_29_" gradientUnits="userSpaceOnUse" x1="284.9077" y1="186.598" x2="209.2013" y2="334.5694">
			<stop  offset="0" style="stop-color:#FF928E"/>
			<stop  offset="1" style="stop-color:#FE7062"/>
		</linearGradient>
		<path class="st34" d="M258.39,177.69c0,0-70.81,76.81,12.6,106.21v-6c0,0-31.2-26.4-7.2-62.41
			C263.79,215.5,260.79,181.29,258.39,177.69z"/>
		
			<linearGradient id="SVGID_30_" gradientUnits="userSpaceOnUse" x1="5489.0962" y1="271.646" x2="5450.6914" y2="304.4502" gradientTransform="matrix(1 0 0 1 -5198.3135 0)">
			<stop  offset="0" style="stop-color:#A22B25"/>
			<stop  offset="1" style="stop-color:#C0423C"/>
		</linearGradient>
		<path class="st35" d="M271.59,278.51c0,0,10.8-7.2,15.6-4.8c4.8,2.4,4.8,6,4.8,6s-2.4,4.8-6,3.6c-3.6-1.2-12,1.2-15.6,0
			C270.39,283.31,269.19,278.51,271.59,278.51z"/>
		<linearGradient id="SVGID_31_" gradientUnits="userSpaceOnUse" x1="351.8989" y1="220.8725" x2="276.1925" y2="368.8438">
			<stop  offset="0" style="stop-color:#FF928E"/>
			<stop  offset="1" style="stop-color:#FE7062"/>
		</linearGradient>
		<path class="st36" d="M340,180.09c0,0,73.81,74.41-9.6,103.81v-6c0,0,31.2-26.4,7.2-62.41C337.6,215.5,335.2,186.09,340,180.09z"
			/>
		
			<linearGradient id="SVGID_32_" gradientUnits="userSpaceOnUse" x1="5512.2041" y1="273.414" x2="5533.8071" y2="295.0168" gradientTransform="matrix(1 0 0 1 -5198.3135 0)">
			<stop  offset="0" style="stop-color:#A22B25"/>
			<stop  offset="1" style="stop-color:#C0423C"/>
		</linearGradient>
		<path class="st37" d="M329.8,278.51c0,0-10.8-7.2-15.6-4.8c-4.8,2.4-4.8,6-4.8,6s2.4,4.8,6,3.6c3.6-1.2,12,1.2,15.6,0
			C331,283.31,332.2,278.51,329.8,278.51z"/>
	</g>
	<g>
		
			<linearGradient id="SVGID_33_" gradientUnits="userSpaceOnUse" x1="-5188.4731" y1="164.0908" x2="-5098.6152" y2="291.7396" gradientTransform="matrix(-0.9999 0.0162 0.0162 0.9999 -4778.708 35.7094)">
			<stop  offset="0" style="stop-color:#09005D"/>
			<stop  offset="1" style="stop-color:#1A0F91"/>
		</linearGradient>
		<path class="st38" d="M368.08,141.45c-6.49,17.23-9.09,65.56-4.54,91.02c-6.83-22.18-16.68-77.66,3.29-94.62L368.08,141.45z"/>
		<g>
			<linearGradient id="SVGID_34_" gradientUnits="userSpaceOnUse" x1="459.5591" y1="477.8923" x2="461.2393" y2="458.2561">
				<stop  offset="0" style="stop-color:#09005D"/>
				<stop  offset="1" style="stop-color:#1A0F91"/>
			</linearGradient>
			<path class="st39" d="M451.6,467.04l-0.14,1.69c0.02,1.61,1.58,3.83,3.2,3.82l12.11-1.02c1.7-0.01,2.86-1.73,2.25-3.31l-0.4-1.02
				L451.6,467.04z"/>
			<linearGradient id="SVGID_35_" gradientUnits="userSpaceOnUse" x1="426.8276" y1="551.5941" x2="455.0371" y2="221.8956">
				<stop  offset="0" style="stop-color:#FEBBBA"/>
				<stop  offset="1" style="stop-color:#FF928E"/>
			</linearGradient>
			<path class="st40" d="M468.62,465.99c-1.05-3.32-2.98-8.3-5.76-11.23c-2.49-5.12-5.99-12.45-7.56-16.35
				c-2.56-6.4-8.07-35.38-11.1-45.45c-3.02-10.08-6.44-21.01-19.6-31.08c0,0-9.04-8.85-16.24,0c0,0,31.57,59.88,36.58,73.55
				c3.07,8.36,4.92,15.87,5.91,20.7c-0.35,0.55-0.53,1.22-0.44,1.93l1.05,8.59c0.2,1.63,0.97,4.52,2.61,4.7
				c2.75,0.31,7.68-0.96,12.01-1.42C467.97,469.73,469.2,467.81,468.62,465.99z"/>
			<linearGradient id="SVGID_36_" gradientUnits="userSpaceOnUse" x1="455.1257" y1="473.2751" x2="456.7846" y2="453.8863">
				<stop  offset="0" style="stop-color:#09005D"/>
				<stop  offset="1" style="stop-color:#1A0F91"/>
			</linearGradient>
			<path class="st41" d="M451.1,463.1c3.24,1.18,6.61,3.47,9.52,5.79l0.65-0.4c-3.05-2.74-6.46-5.17-10.63-6.92
				c-0.15-0.06-0.31,0.07-0.27,0.22l0.12,0.62C450.56,462.73,450.79,462.99,451.1,463.1z"/>
			<linearGradient id="SVGID_37_" gradientUnits="userSpaceOnUse" x1="463.6888" y1="476.6614" x2="466.1455" y2="447.9477">
				<stop  offset="0" style="stop-color:#09005D"/>
				<stop  offset="1" style="stop-color:#1A0F91"/>
			</linearGradient>
			<path class="st42" d="M461.88,468.24c0.82-2.65,2.37-5.35,4.43-8.03c0.1-0.14,0.32-0.12,0.4,0.03l0.74,1.38
				c0.08,0.15,0.04,0.32-0.09,0.42c-1.86,1.39-4.22,4.13-5.18,7.3L461.88,468.24z"/>
			<linearGradient id="SVGID_38_" gradientUnits="userSpaceOnUse" x1="461.2514" y1="473.6239" x2="462.0909" y2="463.813">
				<stop  offset="0" style="stop-color:#09005D"/>
				<stop  offset="1" style="stop-color:#1A0F91"/>
			</linearGradient>
			<path class="st43" d="M461,468.18l0.47-0.19c0.49-0.2,1.03,0.15,1.06,0.68l0.1,2.22l-1.05,0.3l-0.98-1.96
				C460.4,468.83,460.58,468.35,461,468.18z"/>
		</g>
		<g>
			<linearGradient id="SVGID_39_" gradientUnits="userSpaceOnUse" x1="376.4169" y1="471.5065" x2="378.2035" y2="450.6254">
				<stop  offset="0" style="stop-color:#09005D"/>
				<stop  offset="1" style="stop-color:#1A0F91"/>
			</linearGradient>
			<path class="st44" d="M360.31,464.27l0.01,0.21c0.02,0.72,0.62,1.28,1.34,1.27l30.02-0.53c1.35-0.02,2.38-1.23,2.17-2.57
				l-0.25-1.69l-31.84,1.75C360.92,462.75,360.28,463.44,360.31,464.27z"/>
			
				<linearGradient id="SVGID_40_" gradientUnits="userSpaceOnUse" x1="9011.0752" y1="530.3825" x2="9036.8945" y2="228.6208" gradientTransform="matrix(1 0 0 1 -8639.6797 0)">
				<stop  offset="0" style="stop-color:#FEBBBA"/>
				<stop  offset="1" style="stop-color:#FF928E"/>
			</linearGradient>
			<path class="st45" d="M378.15,357.38l-1.61,9.47c0,0,5.39,54.58,6.35,76.41c0.15,3.42-0.74,6.81-2.53,9.72L361.31,463
				c-0.87,0.46-0.52,1.78,0.46,1.74l29.14-0.97c1.51-0.06,2.7-1.3,2.68-2.81l-0.07-6.01l-2-2.1l4.95-68.12
				c0.3-3.59-0.44-7.19-2.13-10.38l-4.93-9.25L378.15,357.38z"/>
			<linearGradient id="SVGID_41_" gradientUnits="userSpaceOnUse" x1="370.5506" y1="466.257" x2="371.362" y2="456.7732">
				<stop  offset="0" style="stop-color:#09005D"/>
				<stop  offset="1" style="stop-color:#1A0F91"/>
			</linearGradient>
			<path class="st46" d="M366.12,460.82c2.55,0.76,5.04,1.99,7.47,3.66l2,0.1c-3.26-2.01-6.15-3.54-9.37-4.15L366.12,460.82z"/>
		</g>
		
			<linearGradient id="SVGID_42_" gradientUnits="userSpaceOnUse" x1="361.6398" y1="11.2419" x2="393.1763" y2="90.3506" gradientTransform="matrix(0.9999 -0.0162 0.0139 0.8593 -16.8181 111.184)">
			<stop  offset="0" style="stop-color:#09005D"/>
			<stop  offset="1" style="stop-color:#1A0F91"/>
		</linearGradient>
		<path class="st47" d="M389.92,141.98c9.86,12.28,22.01,61.37,25.68,107.29c-11.45,3.64-29.33,1.34-38.71-0.66l-3.84-89.44
			L389.92,141.98z"/>
		<linearGradient id="SVGID_43_" gradientUnits="userSpaceOnUse" x1="403.1444" y1="87.9752" x2="389.9561" y2="146.4984">
			<stop  offset="0" style="stop-color:#E1473D"/>
			<stop  offset="1" style="stop-color:#E9605A"/>
		</linearGradient>
		<path class="st48" d="M390.82,263.76c-8.14-34.5,12.49-54.02,12.49-54.02c-10.23-9.82-27.06-15.43-33.8-17.38
			c-1.85-0.54-4.45-0.03-5.94,1.19c-5.76,4.7-19.07,17.2-16.93,27.51c1.57,7.59,15.91,45.46,15.91,45.46
			S375.79,272.79,390.82,263.76z"/>
		<linearGradient id="SVGID_44_" gradientUnits="userSpaceOnUse" x1="474.3022" y1="104.0112" x2="461.1139" y2="162.5343">
			<stop  offset="0" style="stop-color:#E1473D"/>
			<stop  offset="1" style="stop-color:#E9605A"/>
		</linearGradient>
		<path class="st49" d="M408.88,280.84c-3.31-9.98-18.05-17.08-18.05-17.08c-15.03,9.03-28.28,2.76-28.28,2.76
			s-2.97,11.36-0.92,21.92c2.05,10.56,7.66,163.02,7.66,163.02c4.64,10.51,90.59,9.71,100.62,5.61
			C456.98,434.13,412.19,290.82,408.88,280.84z"/>
		<linearGradient id="SVGID_45_" gradientUnits="userSpaceOnUse" x1="393.7088" y1="273.1912" x2="421.6037" y2="273.1912">
			<stop  offset="0" style="stop-color:#FEBBBA"/>
			<stop  offset="1" style="stop-color:#FF928E"/>
		</linearGradient>
		<path class="st50" d="M411.49,260.22c-0.44,4.47-1.79,7.94-2.82,10.05c-0.61,1.24-2.21,1.6-3.3,0.75
			c-1.71-1.34-4.14-1.23-5.73,0.25l-5.72,12.1c-0.31,0.66-0.27,1.43,0.12,2.05c0.49,0.79,1.56,0.99,2.29,0.41
			c2.29-1.78,6.8-5.2,8.33-5.65c3.02-0.9,4.56-2.64,4.56-2.64c5.78-4.98,9.77-9.93,12.39-14.75
			C418.25,261.88,414.88,261.02,411.49,260.22z"/>
		<linearGradient id="SVGID_46_" gradientUnits="userSpaceOnUse" x1="363.5425" y1="464.8408" x2="364.2325" y2="456.7767">
			<stop  offset="0" style="stop-color:#7C27DD"/>
			<stop  offset="1" style="stop-color:#2B41D9"/>
		</linearGradient>
		<path class="st51" d="M361.43,462.93c1.86-0.87,4.2-2,4.71-2.12l0.08-0.38c-1.11,0.43-2.91,1.36-4.8,2.36L361.43,462.93z"/>
		<linearGradient id="SVGID_47_" gradientUnits="userSpaceOnUse" x1="444.7571" y1="97.3532" x2="431.5688" y2="155.8763">
			<stop  offset="0" style="stop-color:#E1473D"/>
			<stop  offset="1" style="stop-color:#E9605A"/>
		</linearGradient>
		<path class="st52" d="M392.43,227.44c0.8-10.21,3.31-15.48,9.62-18.79c18.74,16.11,31.64,39.39,24.48,74.28
			c-0.36,1.74-2.26,2.67-3.86,1.91c-12.41-5.96-20.72-12.31-22.42-19.29C407.42,248.81,408.95,235.39,392.43,227.44z"/>
		<path class="st2" d="M363.04,194.96l3.23,22.99l26.66-16.19c-7.12-4.64-16.01-8.27-24.32-9.86c-1.27-0.24-2.59-0.02-3.72,0.63
			l-0.92,0.53C363.3,193.44,362.93,194.19,363.04,194.96z"/>
		<linearGradient id="SVGID_48_" gradientUnits="userSpaceOnUse" x1="373.6375" y1="121.6331" x2="353.2731" y2="479.8864">
			<stop  offset="0" style="stop-color:#09005D"/>
			<stop  offset="1" style="stop-color:#1A0F91"/>
		</linearGradient>
		<path class="st53" d="M370.13,260.14c-3.84-14.33-5.77-29.38-6.36-45.9l-1.2-19.54c-0.05-0.77,0.72-1.24,1.39-1.62l0.31-0.18
			l1.5,21.15c0.14,16.84,2.73,32.05,6.97,45.42L370.13,260.14z"/>
		<linearGradient id="SVGID_49_" gradientUnits="userSpaceOnUse" x1="381.5664" y1="177.7842" x2="375.2274" y2="289.3006">
			<stop  offset="0" style="stop-color:#09005D"/>
			<stop  offset="1" style="stop-color:#1A0F91"/>
		</linearGradient>
		<path class="st54" d="M365.73,217.57c9.95-5.25,18.74-10.82,25.87-16.87c1,0.46,1.44,0.75,2.03,1.31
			c0.17,0.13,0.33,0.54,0.15,0.65c-7.83,5.99-17.18,11.7-27.56,17.24c-0.2,0.13-0.28,0.29-0.31,0.06l-0.31-2.08
			C365.58,217.76,365.63,217.64,365.73,217.57z"/>
		<linearGradient id="SVGID_50_" gradientUnits="userSpaceOnUse" x1="378.0014" y1="217.0147" x2="378.4208" y2="171.5133">
			<stop  offset="0" style="stop-color:#FEBBBA"/>
			<stop  offset="1" style="stop-color:#FF928E"/>
		</linearGradient>
		<path class="st55" d="M387.33,198.06c-0.3-0.42-0.69-0.78-0.8-1.28l-5.43-25.48c-0.54-1.99-3.32-1-5.44-0.17l-5.49,2.16
			c-1.51,0.59-2.39,2-2.17,3.45l2.3,14.75c0.04,0.23-0.12,0.44-0.35,0.48c-0.64,0.12-1.15,0.14-1.74,0.14
			c-0.13,0-0.23,0.11-0.21,0.24l1.91,13.7c0.08,0.55,0.66,0.88,1.17,0.66l17.48-7.53C388.17,198.77,387.67,198.53,387.33,198.06z"/>
		<g>
			<g>
				<linearGradient id="SVGID_51_" gradientUnits="userSpaceOnUse" x1="388.7798" y1="131.8288" x2="398.7151" y2="131.8288">
					<stop  offset="0" style="stop-color:#FF928E"/>
					<stop  offset="1" style="stop-color:#FE7062"/>
				</linearGradient>
				<path class="st56" d="M389.19,134.4c-0.12,0.06-0.26,0.01-0.32-0.11l-0.07-0.15c-0.06-0.12-0.01-0.26,0.11-0.32l9.39-4.57
					c0.12-0.06,0.26-0.01,0.32,0.11l0.07,0.15c0.06,0.12,0.01,0.26-0.11,0.32L389.19,134.4z"/>
				<linearGradient id="SVGID_52_" gradientUnits="userSpaceOnUse" x1="389.3547" y1="134.3365" x2="400.269" y2="134.3365">
					<stop  offset="0" style="stop-color:#FF928E"/>
					<stop  offset="1" style="stop-color:#FE7062"/>
				</linearGradient>
				<path class="st57" d="M389.61,134.86c-0.13,0.01-0.24-0.1-0.25-0.23l-0.01-0.17c-0.01-0.13,0.1-0.24,0.23-0.25l10.43-0.41
					c0.13-0.01,0.24,0.1,0.25,0.23l0.01,0.17c0.01,0.13-0.1,0.24-0.23,0.25L389.61,134.86z"/>
				<linearGradient id="SVGID_53_" gradientUnits="userSpaceOnUse" x1="397.1448" y1="129.4196" x2="399.3542" y2="129.4196">
					<stop  offset="0" style="stop-color:#FF928E"/>
					<stop  offset="1" style="stop-color:#FE7062"/>
				</linearGradient>
				<path class="st58" d="M399.27,129.83c-0.23,0.57-0.87,0.84-1.44,0.61s-0.84-0.87-0.61-1.44c0.23-0.57,0.87-0.84,1.44-0.61
					C399.23,128.62,399.5,129.27,399.27,129.83z"/>
				<linearGradient id="SVGID_54_" gradientUnits="userSpaceOnUse" x1="398.6782" y1="134.1945" x2="400.8876" y2="134.1945">
					<stop  offset="0" style="stop-color:#FF928E"/>
					<stop  offset="1" style="stop-color:#FE7062"/>
				</linearGradient>
				<path class="st59" d="M400.81,134.61c-0.23,0.57-0.87,0.84-1.44,0.61c-0.57-0.23-0.84-0.87-0.61-1.44
					c0.23-0.57,0.87-0.84,1.44-0.61C400.76,133.4,401.04,134.04,400.81,134.61z"/>
			</g>
			
				<linearGradient id="SVGID_55_" gradientUnits="userSpaceOnUse" x1="-767.2208" y1="-1662.0651" x2="-735.6995" y2="-1607.2665" gradientTransform="matrix(0.8009 0.5989 -0.5577 0.7458 74.6624 1819.2513)">
				<stop  offset="0" style="stop-color:#09005D"/>
				<stop  offset="1" style="stop-color:#1A0F91"/>
			</linearGradient>
			<path class="st60" d="M390.96,136.28c-2.14,2.87-7.44,3.92-9.53,2.36c-1.72-1.29-2.58-6.94-0.44-9.81
				c2.14-2.87,6.11-3.52,8.86-1.46C392.61,129.43,393.11,133.42,390.96,136.28z"/>
			
				<linearGradient id="SVGID_56_" gradientUnits="userSpaceOnUse" x1="9126.7363" y1="1502.8708" x2="9170.2373" y2="1425.4525" gradientTransform="matrix(0.9106 -0.4133 0.4133 0.9106 -8561.4844 2594.0508)">
				<stop  offset="0" style="stop-color:#FEBBBA"/>
				<stop  offset="1" style="stop-color:#FF928E"/>
			</linearGradient>
			<path class="st61" d="M365.66,145.63c0,0-5.77,6.26-5.94,18.78c-0.17,12.52,5.62,15.64,10.47,14.23
				c4.85-1.41,11.14-5.74,15.32-15.67C389.68,153.03,373.32,137.84,365.66,145.63z"/>
			
				<linearGradient id="SVGID_57_" gradientUnits="userSpaceOnUse" x1="9023.9541" y1="169.3202" x2="9045.0342" y2="222.1992" gradientTransform="matrix(0.9999 -0.0162 0.0162 0.9999 -8657.6455 98.2298)">
				<stop  offset="0" style="stop-color:#09005D"/>
				<stop  offset="1" style="stop-color:#1A0F91"/>
			</linearGradient>
			<path class="st62" d="M375.1,140.93l-9.64,8.24c0,0-3.47-8.61,1.77-11.72c5.56-3.3,19.99-2.87,25.39,8.41
				c5.79,12.08,3.96,20.3-2.22,26.1c-6.17,5.81-8.86-0.62-8.86-0.62s3.33-5.39,1.89-8.22C382,160.28,389.8,140.89,375.1,140.93z"/>
			
				<linearGradient id="SVGID_58_" gradientUnits="userSpaceOnUse" x1="9150.6074" y1="936.9928" x2="9193.9531" y2="859.8513" gradientTransform="matrix(0.9705 -0.2413 0.2413 0.9705 -8730.957 1491.8721)">
				<stop  offset="0" style="stop-color:#FEBBBA"/>
				<stop  offset="1" style="stop-color:#FF928E"/>
			</linearGradient>
			<path class="st63" d="M380.79,164.01c0,0,0.84-9.01,5.53-6.67c4.69,2.34-1.24,8.44-3.64,10.53L380.79,164.01z"/>
			
				<linearGradient id="SVGID_59_" gradientUnits="userSpaceOnUse" x1="-223.1846" y1="-972.8128" x2="-142.0092" y2="-857.498" gradientTransform="matrix(0.6897 0.4035 -0.5557 0.9497 -10.4569 1123.5964)">
				<stop  offset="0" style="stop-color:#09005D"/>
				<stop  offset="1" style="stop-color:#1A0F91"/>
			</linearGradient>
			<path class="st64" d="M368.46,139.78c-5.24,3.9-5.35,9.3-7.89,12.62c3.27-0.15,13.1,1.75,15.6,3.24
				c1.76-2.18,2.69-6.68,3.72-10.09c-0.64,3.39-0.96,8.85-2.36,11.14c3.48,1.76,2.71,1.51,5.67,5.39l4.15-15.94
				C382.52,138.8,376.2,136.77,368.46,139.78z"/>
		</g>
		<linearGradient id="SVGID_60_" gradientUnits="userSpaceOnUse" x1="367.0668" y1="243.161" x2="373.9246" y2="260.3636">
			<stop  offset="0" style="stop-color:#09005D"/>
			<stop  offset="1" style="stop-color:#1A0F91"/>
		</linearGradient>
		<path class="st65" d="M359.05,257.33c5.58,2.54,17.17-0.04,30.27-3.91c0.97,6.3,3.59,11.47,8.89,14.32
			c0.48,0.26,0.51,0.94,0.04,1.22c-11.42,6.93-24.03,13.71-37.7,10.72c-0.5-0.11-0.81-0.61-0.72-1.11
			c1.36-7.73,0.42-14.46-1.2-20.88C358.56,257.44,358.81,257.23,359.05,257.33z"/>
	</g>
	<g>
		<linearGradient id="SVGID_61_" gradientUnits="userSpaceOnUse" x1="257.4736" y1="229.1451" x2="224.2222" y2="270.1898">
			<stop  offset="0" style="stop-color:#09005D"/>
			<stop  offset="1" style="stop-color:#1A0F91"/>
		</linearGradient>
		<path class="st66" d="M247.33,227.33c0,0,22.86,44.68-14.55,51.96C195.38,286.56,231.75,208.63,247.33,227.33z"/>
		<linearGradient id="SVGID_62_" gradientUnits="userSpaceOnUse" x1="210.5639" y1="459.1664" x2="243.57" y2="459.1664">
			<stop  offset="0" style="stop-color:#09005D"/>
			<stop  offset="1" style="stop-color:#1A0F91"/>
		</linearGradient>
		<path class="st67" d="M212,452.82c-1.02,0.2-3.12,9.35,1.04,10.39c4.16,1.04,25.98,4.16,30.13,1.04S217.2,451.78,212,452.82z"/>
		<linearGradient id="SVGID_63_" gradientUnits="userSpaceOnUse" x1="235.99" y1="202.0216" x2="228.5716" y2="263.8418">
			<stop  offset="0" style="stop-color:#FF928E"/>
			<stop  offset="1" style="stop-color:#FE7062"/>
		</linearGradient>
		<path class="st68" d="M201.61,374.88c0,1.04,9.35,75.85,11.43,80.01c0,0,3.12,2.08,6.23,0c0,0,6.23-55.07,7.27-78.97
			L201.61,374.88z"/>
		<linearGradient id="SVGID_64_" gradientUnits="userSpaceOnUse" x1="165.9487" y1="461.1717" x2="198.9548" y2="461.1717">
			<stop  offset="0" style="stop-color:#09005D"/>
			<stop  offset="1" style="stop-color:#1A0F91"/>
		</linearGradient>
		<path class="st69" d="M167.39,454.82c-1.02,0.2-3.12,9.35,1.04,10.39c4.16,1.04,25.98,4.16,30.13,1.04
			C202.72,463.13,172.58,453.78,167.39,454.82z"/>
		<linearGradient id="SVGID_65_" gradientUnits="userSpaceOnUse" x1="192.2454" y1="196.7726" x2="184.827" y2="258.5928">
			<stop  offset="0" style="stop-color:#FF928E"/>
			<stop  offset="1" style="stop-color:#FE7062"/>
		</linearGradient>
		<path class="st70" d="M157,376.89c0,1.04,9.35,75.85,11.43,80.01c0,0,3.12,2.08,6.23,0c0,0,6.23-55.07,7.27-78.97L157,376.89z"/>
		<linearGradient id="SVGID_66_" gradientUnits="userSpaceOnUse" x1="225.7923" y1="264.9951" x2="152.0238" y2="378.7216">
			<stop  offset="0" style="stop-color:#09005D"/>
			<stop  offset="1" style="stop-color:#1A0F91"/>
		</linearGradient>
		<path class="st71" d="M186.03,200.31c0,0-7.27,6.23-10.39,9.35c-3.12,3.12-34.73,171.75-34.73,176.95c0,5.2,3.51,7.52,3.51,7.52
			s7.77,3.26,18.75,1.53c18.28-2.88,39.41,14.34,65.53-3.18c1.23-0.82,2-2.18,2.08-3.65c0.99-16.81,7.03-121.35,5.12-149.04
			c-2.08-30.13-6.23-32.21-6.23-32.21S191.22,198.23,186.03,200.31z"/>
		<linearGradient id="SVGID_67_" gradientUnits="userSpaceOnUse" x1="220.0219" y1="118.3163" x2="210.1307" y2="171.8938">
			<stop  offset="0" style="stop-color:#FF928E"/>
			<stop  offset="1" style="stop-color:#FE7062"/>
		</linearGradient>
		<path class="st72" d="M191.22,180.57c0,0-2.08,9.35-7.27,12.47c-5.2,3.12-13.17,12.31-5.55,15.51c7.63,3.2,11.78,4.24,31.53,6.31
			s21.17-0.24,22.02-4.28c0.84-4.03-8.51-12.35-7.47-22.74C225.51,177.45,195.38,171.22,191.22,180.57z"/>
		<linearGradient id="SVGID_68_" gradientUnits="userSpaceOnUse" x1="203.9549" y1="144.9783" x2="222.4535" y2="236.3837">
			<stop  offset="0" style="stop-color:#FF928E"/>
			<stop  offset="1" style="stop-color:#FE7062"/>
		</linearGradient>
		<path class="st73" d="M212,139.01c-6.22-0.39-19.74,7.27-22.86,20.78c-3.12,13.51-4.16,24.94,4.16,36.37s21.82,7.27,28.06-1.04
			c6.23-8.31,8.31-23.9,9.35-31.17C231.75,156.67,228.63,140.04,212,139.01z"/>
		<linearGradient id="SVGID_69_" gradientUnits="userSpaceOnUse" x1="204.7308" y1="171.6036" x2="227.9988" y2="171.6036">
			<stop  offset="0" style="stop-color:#A22B25"/>
			<stop  offset="1" style="stop-color:#C0423C"/>
		</linearGradient>
		<path class="st74" d="M205.77,167.06c0,0-4.16,12.47,4.16,18.7s13.51,1.04,15.59-4.16c2.08-5.2,3.12-14.55,2.08-20.78
			C226.55,154.59,213.04,148.36,205.77,167.06z"/>
		<g>
			<path class="st1" d="M209.93,214.86c6.23-8.31,22.86-22.86,40.53-16.63c17.66,6.23-17.66,64.42-23.9,73.78
				c-6.23,9.35-20.78,28.06-43.64,18.7C160.05,281.36,188.75,243.1,209.93,214.86z"/>
			<path class="st10" d="M255.3,205.89c-7.81,12.69-24.8,27.97-61.68,31.32c-14.8,21.45-26.11,43.07-14.02,51.7
				c26.54-6.25,48.37-26.84,62.51-43.9C249.29,231.06,255.93,215.25,255.3,205.89z"/>
		</g>
		<linearGradient id="SVGID_70_" gradientUnits="userSpaceOnUse" x1="245.064" y1="223.211" x2="255.0321" y2="223.211">
			<stop  offset="0" style="stop-color:#A22B25"/>
			<stop  offset="1" style="stop-color:#C0423C"/>
		</linearGradient>
		<path class="st75" d="M250.45,208.63c0,0,6.23,14.55,4.16,22.86c-2.08,8.31-9.54,6.02-9.54,6.02s3.31-10.18,3.31-12.25
			S245.26,208.63,250.45,208.63z"/>
		<linearGradient id="SVGID_71_" gradientUnits="userSpaceOnUse" x1="200.5743" y1="259.9566" x2="231.8197" y2="259.9566">
			<stop  offset="0" style="stop-color:#A22B25"/>
			<stop  offset="1" style="stop-color:#C0423C"/>
		</linearGradient>
		<path class="st76" d="M200.57,264.74c0,0,8.02-6.87,18.04-11.23c10.02-4.36,12.1-1.24,13.13,0.84c1.04,2.08-9.39,3.72-15.59,9.35
			C204.73,274.09,200.57,264.74,200.57,264.74z"/>
		<linearGradient id="SVGID_72_" gradientUnits="userSpaceOnUse" x1="167.1784" y1="287.3256" x2="187.441" y2="237.9679">
			<stop  offset="0" style="stop-color:#09005D"/>
			<stop  offset="1" style="stop-color:#1A0F91"/>
		</linearGradient>
		<path class="st77" d="M175.64,209.67c0,0-8.31,30.13-1.04,41.56c7.27,11.43,28.98,12.29,28.98,12.29l1.75,5.26
			c0,0-20.34,27.13-44.24,17.78C137.19,277.21,162.13,213.82,175.64,209.67z"/>
	</g>
</g>
</svg>
