<?xml version="1.0" encoding="utf-8"?>
<!-- Generator: Adobe Illustrator 25.1.0, SVG Export Plug-In . SVG Version: 6.00 Build 0)  -->
<svg version="1.1" id="Capa_1" xmlns="http://www.w3.org/2000/svg" xmlns:xlink="http://www.w3.org/1999/xlink" x="0px" y="0px"
	 viewBox="0 0 500 500" style="enable-background:new 0 0 500 500;" xml:space="preserve">
<style type="text/css">
	.st0{display:none;fill:#F4F7FA;}
	.st1{clip-path:url(#SVGID_2_);}
	.st2{fill:url(#SVGID_3_);}
	.st3{fill:#FFFFFF;}
	.st4{opacity:0.3;clip-path:url(#SVGID_2_);fill:url(#SVGID_4_);}
	.st5{fill:url(#SVGID_5_);}
	.st6{fill:url(#SVGID_6_);}
	.st7{fill:url(#SVGID_7_);}
	.st8{fill:url(#SVGID_8_);}
	.st9{fill:url(#SVGID_9_);}
	.st10{fill:url(#SVGID_10_);}
	.st11{fill:url(#SVGID_11_);}
	.st12{fill:url(#SVGID_12_);}
	.st13{fill:url(#SVGID_13_);}
	.st14{opacity:0.25;fill:url(#SVGID_14_);}
	.st15{fill:url(#SVGID_15_);}
	.st16{fill:url(#SVGID_16_);}
	.st17{fill:url(#SVGID_17_);}
	.st18{opacity:0.3;fill:url(#SVGID_18_);}
	.st19{fill:url(#SVGID_19_);}
	.st20{opacity:0.4;fill:url(#SVGID_20_);}
	.st21{fill:url(#SVGID_21_);}
	.st22{fill:url(#SVGID_22_);}
	.st23{fill:#EA645E;}
	.st24{fill:url(#SVGID_23_);}
	.st25{fill:#FFC244;}
	.st26{fill:#4C53A5;}
	.st27{fill:url(#SVGID_24_);}
	.st28{fill:url(#SVGID_25_);}
	.st29{fill:url(#SVGID_26_);}
	.st30{fill:#26264F;}
	.st31{fill:url(#SVGID_27_);}
	.st32{opacity:0.75;fill:#F4F7FA;}
	.st33{fill:url(#SVGID_28_);}
	.st34{fill:url(#SVGID_29_);}
	.st35{fill:url(#SVGID_30_);}
	.st36{fill:url(#SVGID_31_);}
	.st37{fill:url(#SVGID_32_);}
	.st38{fill:url(#SVGID_33_);}
	.st39{fill:url(#SVGID_34_);}
	.st40{fill:url(#SVGID_35_);}
	.st41{opacity:0.3;fill:url(#SVGID_36_);}
	.st42{fill:url(#SVGID_37_);}
	.st43{fill:url(#SVGID_38_);}
</style>
<g>
	<path class="st0" d="M70.14,59.99C19,83.05,13.94,194.86,34.59,272.28c6.61,24.78,36.36,136.32,146.65,183.54
		c13.43,5.75,130.42,53.67,219.98-14.37c74.74-56.79,75.31-152.52,75.55-192.39c0.43-72.37-25.01-195.49-96.66-217.82
		c-64.85-20.21-107.42,60.88-215.53,46.44C111.92,70.65,96.68,48.02,70.14,59.99z"/>
	<g>
		<defs>
			<ellipse id="SVGID_1_" cx="278.92" cy="184.29" rx="160.02" ry="160.26"/>
		</defs>
		<clipPath id="SVGID_2_">
			<use xlink:href="#SVGID_1_"  style="overflow:visible;"/>
		</clipPath>
		<g class="st1">
			<linearGradient id="SVGID_3_" gradientUnits="userSpaceOnUse" x1="321.8276" y1="287.0675" x2="207.5201" y2="12.7301">
				<stop  offset="0" style="stop-color:#24ABB5"/>
				<stop  offset="1" style="stop-color:#40CF9F"/>
			</linearGradient>
			<path class="st2" d="M440.9,184.43c0,34.34-10.77,66.2-29.03,92.42c-0.07,0.11-0.33,0.21-0.33,0.32v0
				c-28.65,42.04-77.74,69.28-132.82,69.28c-4.5,0-8.82-0.21-13.23-0.82c0,0,0,0,0,0c-0.02,0-0.03,0.27-0.04,0.27
				c-2.17-0.18-4.32-0.26-6.47-0.53c-0.76-0.09-1.53-0.12-2.28-0.23c-0.67-0.09-1.34-0.15-2.01-0.25c-0.58-0.09-1.16-0.16-1.74-0.25
				c-0.13-0.02-0.26-0.04-0.39-0.05c-1.41-0.23-2.82-0.48-4.23-0.75c-0.01,0-0.01,0-0.02,0c-74.88-14.32-131.45-80.25-131.45-159.41
				c0-16.74,2.43-32.89,7.13-48.08c0.74-2.38,1.65-4.74,2.26-7.07v0c1.83-3.89,3.05-7.7,4.74-11.44c0.68-1.5,1.43-2.98,2.14-4.46
				c3.94-8.1,8.56-15.82,13.75-23.09c0.47-0.66,0.96-1.32,1.44-1.97c1.92-2.62,3.92-5.17,6-7.66c3.11-3.74,6.38-7.34,9.81-10.78
				c8.92-8.97,18.89-16.9,29.7-23.59c3.34-2.07,6.77-4.03,10.27-5.85c8.48-4.43,17.39-8.13,26.66-11.01
				c15.22-4.74,31.4-7.29,48.17-7.29c38.58,0,74.01,13.5,101.83,36.04c20.47,16.58,37.11,38.04,47.58,62.63
				c2.34,5.49,3.92,11.13,6.36,16.91v0c0,0.03-0.28,0.04-0.27,0.07C438.86,152.55,440.9,168.21,440.9,184.43z"/>
			<g>
				<path class="st3" d="M265.49,346.18L265.49,346.18l0.01,0L265.49,346.18C265.49,346.18,265.49,346.18,265.49,346.18z"/>
				<path class="st3" d="M314.22,239.15c-3.48,4.91-14.24,11.21-6.94,23.58c7.24,12.34-0.5,14.66-5.48,13.5
					c-5-1.14-20.55-1.78-17.96,5.3c2.58,7.09,7.04,9.74,1.34,12.48c-5.69,2.72-8.1,9.84-13.93,19.63
					c-5.79,9.81-19.54,1.33-15.47,11.16c4.06,9.84,7.24,8.88,6.86,15.74c-0.09,1.88,1.16,3.81,2.84,5.65
					c-2.17-0.18-4.35-0.4-6.51-0.67c-0.76-0.09-1.53-0.19-2.28-0.3c-0.67-0.09-1.34-0.18-2.01-0.29c-0.58-0.09-1.16-0.18-1.74-0.27
					c-0.13-0.02-0.1-0.05-0.23-0.06c-1.39-0.23-2.11-0.49-3.94-0.75v0c-1.22-1.16-0.46-2.42-0.27-3.77
					c1.82-12.65-15.61-21.35-18.53-30.21c-2.87-8.84-0.04-14.12-0.7-21.45c-0.68-7.32,1.71-17.02-2.5-23.18
					c-4.2-6.14-21.15-8.2-24.38-20.6c-3.25-12.37,4.31-30.9,7.24-34.05c2.9-3.15-14.03-17.51-22.09-17.96
					c-8.09-0.49-4.86-16.81-18.54-14.33c-13.71,2.41-38.34-5.25-33.25-13.49c4.2-6.79,11.25-21.77-11.76-28.44
					c0.74-2.38,1.65-4.74,2.26-7.07v0c1.83-3.89,3.05-7.7,4.74-11.44c0.68-1.5,1.43-2.98,2.14-4.46c3.95-8.1,8.57-15.82,13.75-23.09
					c0.47-0.66,0.96-1.32,1.44-1.97c1.92-2.62,3.93-5.17,6-7.66c3.11-3.74,6.38-7.34,9.81-10.78c8.92-8.97,18.89-16.9,29.7-23.59
					c4.56,3.2,9.76,5.17,14.26,2.74c11.02-6.18,3.76-7.13-0.76-7.36c-1.18-0.06-2.31-0.53-3.23-1.24
					c8.48-4.43,17.39-8.13,26.66-11.01c-0.69,6.23-9.14,16.24-2.92,15.02c7.24-1.38,10.2-20.97,15.51-14.46
					c5.39,6.54-5.9,15.11,4.71,10.14c10.62-4.92,12.04-15.89,23.87-10.55c11.89,5.41,10.81,11.8,14.13,11.17
					c3.31-0.62,14,6.57,7.53,12.5c-6.53,5.94-12.51-1.63-22.3-3.91c-9.79-2.26-9.55,5.76-14.06,7.6c-4.58,1.77-26.68-8.92-32.1,0.74
					c-5.48,9.59-7.82,16.28,0.32,16.03c8.13-0.23,8.65-2.34,8.02,3.68c-0.65,6.03,0.83,10.54,8.2,4.87
					c7.34-5.66,5.7-11.17,11.44-8.48c5.75,2.7,6.42,0.26,12.54-4.19c6.11-4.44,14.14-4.91,16.25,5.06
					c2.11,9.98-1.49,12.21-12.23,12.72c-10.75,0.52-11.96-2.87-15.38,6.12c-3.41,9-17.62,20.56-30.1,25.32
					c-12.45,4.77-17.34,11.82-17.05,21.33c0.3,9.53-4.39,19.58-7.51,11.73c-3.14-7.88-11.94-21.14-20.93-12.28
					c-9,8.88-24.66,24.59-7.35,27.46c17.27,2.93,8.26-13.28,16.99-10.04c8.72,3.26-5.52,10.41,0.31,12.99
					c5.84,2.6,8.28,1.38,8.24,9.35c-0.04,7.96,1.93,15.69,9.02,12.32c7.08-3.37,16.17-18.98,26.42-9.74
					c10.26,9.26,9.53,8.05,14.91,5.36c5.37-2.69,8.8,5.38,11,9.05c2.2,3.67,10.84-0.08,17.85,10.86c7,10.94,9.74,12.89,17.73,8.95
					c7.99-3.93,11.23-1.01,13.32,4.51c2.07,5.52,6.99,0.13,9.36,7.42C318.81,235.37,317.68,234.23,314.22,239.15z"/>
				<g>
					<path class="st3" d="M341.56,106.64c-5.66-12.16,22.37-10.79,27.33-9.86c4.98,0.83,16.68-8.32,18.16-12.58
						c1.53-4.29,4.03-2.25,12.9-2.37c8.87-0.09,1.03-2.1-8.73-5.32c-9.74-3.21-1.41-3.54-10.39-10.64
						c-3.86-3.11-2.65-5.75-0.07-7.71c20.47,16.58,36.82,38.04,47.29,62.63c-0.3-0.09-0.57-0.14-0.83-0.14
						c-6.21-0.04-7.58-13.79-10.78-16.46c-3.15-2.67,0.09,7.55,0.86,11.75c0.78,4.21-1.7,0.67-4.8,4.53
						c-3.11,3.86-8.72,3.94-9.23-1.86c-0.52-5.78-4.59-11.46-12.84-14.1c-8.26-2.64-15.41-0.47-22.12,2.12
						C361.63,109.17,347.25,118.71,341.56,106.64z"/>
					<path class="st3" d="M411.93,277.17c0.56-4.17,1.48-8.49-0.26-10.06c-4.23-3.93-5.15-14.64-3.69-20.07
						c1.46-5.44,12.86-5.13,5.13-14.17c-7.76-9.06-14.75-19.82-11.49-25.97c3.26-6.14,2.27-6.59-3.84-6.56
						c-6.12,0.04-8.79,0.31-14.88-5.14c-6.09-5.52-14.47,13.02-37.4-1.85c-22.93-15.02-9.87-40.33-1.28-40.39
						c8.65-0.14,18.74-4.52,11.66-15.07c-7.06-10.6,3.98-12.1,9.37-9.69c5.4,2.38,14.98-4.02,24.74-6.9
						c9.79-2.87,9.35,13.09,14.79,16.29c5.46,3.2,15.7,0.66,21.02-4.45c3.8-3.65,4.63,0.61,8.39,4.65
						c4.42,14.77,6.8,30.43,6.8,46.65C440.98,218.91,430.25,250.88,411.93,277.17z"/>
					<path class="st3" d="M370.92,86.41c0.01-0.01,7.15-3.24,4.56-8.44c-2.57-5.21-6.64-21.16-9.61-16.13
						c-2.99,5.05,1.42,14.85,0.46,19.09C365.35,85.16,365.33,87.38,370.92,86.41z"/>
					<path class="st3" d="M363.78,81.54c-0.1-1.68,0.95-8.49-4.4-8.27c0.01-0.01-7.74,3.23-3.21,8.73
						C360.73,87.48,363.9,83.21,363.78,81.54z"/>
				</g>
			</g>
		</g>
		<linearGradient id="SVGID_4_" gradientUnits="userSpaceOnUse" x1="117.3704" y1="184.2897" x2="440.4655" y2="184.2897">
			<stop  offset="0" style="stop-color:#24ABB5"/>
			<stop  offset="1" style="stop-color:#40CF9F"/>
		</linearGradient>
		<path class="st4" d="M440.47,184.14c0,34.34-10.55,66.2-28.81,92.42c-0.07,0.11-0.11,0.21-0.11,0.32v0
			c-29.26,42.04-77.96,69.15-133.03,69.15c-4.5,0-9.03-0.34-13.44-0.95c0,0,0,0,0,0c-0.02,0-0.03,0.4-0.04,0.4
			c-2.17-0.18-4.32-0.2-6.47-0.47c-0.76-0.09-1.53-0.09-2.28-0.2c-0.67-0.09-1.34-0.13-2.01-0.24c-0.58-0.09-1.16-0.15-1.74-0.24
			c-0.13-0.02-0.26-0.03-0.39-0.05c-1.41-0.23-2.82-0.48-4.23-0.74c-0.01,0-0.01,0-0.02,0c-69.24-13.25-122.83-70.66-130.5-141.82
			c16.24,46.64,56.39,81.69,105.75,91.46h0.02c1.21,0.61,2.43,0.49,3.65,0.69c0.11,0.01,0.23,0.05,0.34,0.07
			c0.49,0.08,1,0.16,1.5,0.24c0.57,0.09,1.15,0.16,1.74,0.24c0.66,0.09,1.31,0.15,1.97,0.23c1.85,0.23,3.71,0.65,5.59,0.8
			c0.02,0,0.03,0.18,0.04,0.18c0,0,0,0,0,0c3.81,0,7.6,0.31,11.49,0.31c23.78,0,46.19-6.05,65.79-16.5
			c19.61-10.45,36.41-25.51,48.97-43.66c0-0.09,0.15-0.22,0.21-0.31c15.77-22.64,25-50.17,25-79.83c0-14-2.05-27.53-5.87-40.29
			c0-0.02-0.06-0.05-0.06-0.07v0c-1.22-4.99-3.18-9.86-5.2-14.6c-9.04-21.23-23.13-39.77-40.81-54.08
			c-12.94-10.48-27.78-18.7-43.93-24.05c32.71,3.01,62.6,15.77,86.76,35.34c20.47,16.58,37.02,38.04,47.5,62.63
			c2.34,5.49,3.84,11.13,6.27,16.91v0c0,0.03-0.19,0.04-0.18,0.07C438.34,152.27,440.47,167.93,440.47,184.14z"/>
	</g>
	<g>
		<linearGradient id="SVGID_5_" gradientUnits="userSpaceOnUse" x1="340.4002" y1="76.4997" x2="258.722" y2="155.0061">
			<stop  offset="0" style="stop-color:#FFC444"/>
			<stop  offset="0.9964" style="stop-color:#F36F56"/>
		</linearGradient>
		<path class="st5" d="M177.42,443.71c-7.2,0.21-14.22-1.61-20.3-5.26c-18.53-11.13-45.92-29.5-70.55-53.55
			c-31.26-30.52-49.22-61.54-53.15-92.01l-0.06-0.48l-0.76-129.99c0-25.69,16.73-46.54,48.14-60.25
			c25.95-11.32,60.35-16.93,96.69-15.88c35.92,1.04,69.15,8.46,93.75,20.83c29.24,14.7,44.58,35.36,44.58,59.85l-0.7,124.21
			l-0.06,0.46c-3.59,29.17-20.12,59.33-49.32,89.82c-23.43,24.46-49.9,43.84-68.08,55.85C191.58,441.29,184.6,443.5,177.42,443.71z"
			/>
		<linearGradient id="SVGID_6_" gradientUnits="userSpaceOnUse" x1="97.6086" y1="94.3352" x2="375.3708" y2="548.6336">
			<stop  offset="0" style="stop-color:#FFC444"/>
			<stop  offset="0.9964" style="stop-color:#F36F56"/>
		</linearGradient>
		<path class="st6" d="M184.55,443.71c-7.1,0.21-14.03-1.61-20.04-5.26c-18.29-11.13-45.31-29.5-69.62-53.55
			c-30.85-30.52-48.57-61.54-52.45-92.01l-0.06-0.48l-0.75-129.99c0-25.69,16.51-46.54,47.51-60.25
			c25.61-11.32,59.55-16.93,95.41-15.88c35.44,1.04,68.24,8.46,92.51,20.83c28.85,14.7,43.99,35.36,43.99,59.85l-0.69,124.21
			l-0.06,0.46c-3.54,29.17-19.85,59.33-48.67,89.82c-23.12,24.46-49.24,43.84-67.18,55.85C198.52,441.29,191.64,443.5,184.55,443.71
			z"/>
		<linearGradient id="SVGID_7_" gradientUnits="userSpaceOnUse" x1="244.893" y1="352.9972" x2="19.2942" y2="-100.6354">
			<stop  offset="0" style="stop-color:#FFC444"/>
			<stop  offset="0.9964" style="stop-color:#F36F56"/>
		</linearGradient>
		<path class="st7" d="M50.2,162.52l0.76,129.33c8.5,65.99,85.94,119.42,119.66,139.71c9.66,5.81,22.01,5.47,31.61-0.85
			c33.02-21.76,106.22-76.55,114.04-139.99l0.69-123.86C316.96,74.96,50.2,66.56,50.2,162.52z"/>
		<linearGradient id="SVGID_8_" gradientUnits="userSpaceOnUse" x1="75.7704" y1="264.9707" x2="293.318" y2="264.9707">
			<stop  offset="0" style="stop-color:#311944"/>
			<stop  offset="1" style="stop-color:#893976"/>
		</linearGradient>
		<path class="st8" d="M186.46,411.63c-0.62,0.01-1.55-0.09-2.5-0.66c-13.89-8.42-40.8-26.06-64.22-49.1
			c-25.29-24.88-39.88-49.08-43.23-71.8l-0.74-127.19c0.03-12.2,9.68-22.65,28.59-31.01c21.11-9.33,51.08-14.23,82.11-13.49
			c30.71,0.73,59.82,6.92,79.98,16.94c17.83,8.86,26.85,19.31,26.88,31.09l-0.69,122.79c-3.12,21.99-16.81,45.69-40.86,70.61
			c-22.6,23.43-49.01,42-62.81,51.03C188.02,411.47,187.08,411.62,186.46,411.63z"/>
		<linearGradient id="SVGID_9_" gradientUnits="userSpaceOnUse" x1="219.5401" y1="431.7713" x2="156.6366" y2="88.9458">
			<stop  offset="0" style="stop-color:#FF9085"/>
			<stop  offset="1" style="stop-color:#FB6FBB"/>
		</linearGradient>
		<path class="st9" d="M183.29,402.94c-14.02-8.65-38.96-25.35-60.72-46.8c-23.77-23.43-37.53-45.91-40.76-66.72l-0.74-126.45
			c0.02-8.73,8.03-16.73,23.74-23.7c20-8.87,48.64-13.54,78.47-12.87c29.54,0.66,57.39,6.51,76.52,15.99
			c14.87,7.37,22.39,15.4,22.41,23.91l-0.69,122.34c-3.03,20.18-16.01,42.26-38.7,65.73C221.77,376.17,197.25,393.7,183.29,402.94z"
			/>
		<g>
			<path class="st3" d="M233.47,237.38l-94.43,0.84c-7.26,0.06-13.17,5.73-13.17,12.66v60.6c0,6.88,5.89,12.22,13.13,11.92
				l94.1-3.86c6.69-0.27,12.12-5.82,12.16-12.4l0.3-57.89C245.58,242.63,240.19,237.32,233.47,237.38z"/>
			<path class="st3" d="M232.15,231.37c-2.84,0.02-5.13-2.24-5.12-5.04l0.06-13.2c0.06-13.26-10.89-24.16-24.52-24.3l-30.82-0.31
				c-14.12-0.14-25.72,10.88-25.73,24.56l-0.01,13.62c0,2.89-2.46,5.25-5.5,5.27c-3.04,0.02-5.51-2.32-5.51-5.22l0.01-13.67
				c0.01-19.55,16.63-35.24,36.77-34.96l30.84,0.43c19.37,0.27,34.85,15.8,34.76,34.59l-0.06,13.15
				C237.28,229.07,234.98,231.35,232.15,231.37z"/>
			<linearGradient id="SVGID_10_" gradientUnits="userSpaceOnUse" x1="174.7477" y1="283.3708" x2="199.1768" y2="283.3708">
				<stop  offset="0" style="stop-color:#311944"/>
				<stop  offset="1" style="stop-color:#893976"/>
			</linearGradient>
			<path class="st10" d="M199.18,272.12c0.02-6.69-5.71-11.98-12.72-11.54c-6.2,0.39-11.34,5.41-11.69,11.43
				c-0.27,4.67,2.25,8.71,6.09,10.76c1.63,0.87,2.44,2.7,2.12,4.51l-2.73,15.31c-0.35,1.95,1.19,3.66,3.23,3.59l6.91-0.24
				c2.02-0.07,3.56-1.88,3.22-3.8l-2.64-15.16c-0.32-1.81,0.62-3.61,2.25-4.59C196.77,280.24,199.16,276.43,199.18,272.12z"/>
		</g>
	</g>
	<g>
		<g>
			
				<linearGradient id="SVGID_11_" gradientUnits="userSpaceOnUse" x1="-1124.4922" y1="461.3343" x2="-1116.766" y2="461.3343" gradientTransform="matrix(0.9987 -0.0516 0.0516 0.9987 1484.4592 -64.5087)">
				<stop  offset="0" style="stop-color:#AA80F9"/>
				<stop  offset="0.9964" style="stop-color:#6165D7"/>
			</linearGradient>
			<path class="st11" d="M391.27,450.83c0.53,0.77,1.16,1.93,1.53,3.44c0.16,0.66,0.23,1.27,0.27,1.8c-0.33,0.7-1.99,3.21-4.62,4.19
				c-1.63,0.6-4.58-0.39-1.8-2.82c2.78-2.43,3.17-2.97,1.47-7.76c-0.44-1.23-0.42-1.71-0.23-1.83
				C388.3,447.56,389.94,449.3,391.27,450.83z"/>
			
				<linearGradient id="SVGID_12_" gradientUnits="userSpaceOnUse" x1="-1109.7407" y1="463.583" x2="-1102.0145" y2="463.583" gradientTransform="matrix(0.9987 -0.0516 0.0516 0.9987 1484.4592 -64.5087)">
				<stop  offset="0" style="stop-color:#AA80F9"/>
				<stop  offset="0.9964" style="stop-color:#6165D7"/>
			</linearGradient>
			<path class="st12" d="M406.12,452.31c0.53,0.77,1.16,1.93,1.53,3.44c0.16,0.66,0.23,1.27,0.27,1.8c-0.33,0.7-1.99,3.21-4.62,4.19
				c-1.63,0.6-4.58-0.39-1.8-2.82c2.78-2.43,3.17-2.97,1.47-7.76c-0.44-1.23-0.42-1.71-0.23-1.83
				C403.15,449.04,404.79,450.78,406.12,452.31z"/>
			
				<linearGradient id="SVGID_13_" gradientUnits="userSpaceOnUse" x1="-1137.1205" y1="405.6953" x2="-1090.15" y2="405.6953" gradientTransform="matrix(0.9987 -0.0516 0.0516 0.9987 1484.4592 -64.5087)">
				<stop  offset="0" style="stop-color:#444B8C"/>
				<stop  offset="0.9964" style="stop-color:#26264F"/>
			</linearGradient>
			<path class="st13" d="M411.42,349.11c1.25,6.27,2.5,12.54,3.75,18.81c-2.06,6.04-3.94,12.61-5.49,19.69
				c-5.58,25.57-4.67,48.35-2.19,65.68c-1.32,0.73-2.64,1.47-3.96,2.2c-4.03-9.09-9.1-22.65-11.95-39.71
				c-3.36-20.15-2.09-36.04-3.02-36.07c-0.89-0.02-2.89,14.55-2.33,31.1c0.59,17.49,3.86,31.79,6.74,41.57
				c-1.66,0.37-3.33,0.74-4.99,1.11c-6.77-12.46-13.9-29.56-17-50.54c-2.15-14.57-4.77-33.93,4.3-54.31
				c0.91-2.04,4.16-6.6,4.76-7.72C391.3,342.67,400.15,347.35,411.42,349.11z"/>
			
				<linearGradient id="SVGID_14_" gradientUnits="userSpaceOnUse" x1="-1137.8079" y1="445.2056" x2="-1092.4377" y2="445.2056" gradientTransform="matrix(0.9976 0.069 -0.069 0.9976 1533.5667 29.9567)">
				<stop  offset="0" style="stop-color:#444B8C"/>
				<stop  offset="0.9964" style="stop-color:#26264F"/>
			</linearGradient>
			<path class="st14" d="M409.67,387.6c1.54-7.08,3.43-13.65,5.49-19.69c-1.25-6.27-2.5-12.54-3.75-18.81
				c-11.26-1.76-20.12-6.44-31.38-8.2c-0.6,1.12-3.85,5.68-4.76,7.72c-3.06,6.87-4.78,13.62-5.65,20.12
				c21.64-0.98,28.06,3.32,29.92,7.42c2.97,6.53-5.15,13.53-1.74,26.84c1.03,4,2.42,5.94,2.75,10.99c0.43,6.62-1.71,7.34-1.82,14.09
				c-0.12,7.39,2.33,13.45,4.34,18.43c1.25,3.09,2.53,5.57,3.48,7.27c0.3-0.17,0.61-0.34,0.91-0.51
				C405,435.96,404.1,413.17,409.67,387.6z"/>
		</g>
		
			<linearGradient id="SVGID_15_" gradientUnits="userSpaceOnUse" x1="-1046.306" y1="316.3325" x2="-1134.5436" y2="269.8327" gradientTransform="matrix(1 0 0 1 1509.5374 0)">
			<stop  offset="0" style="stop-color:#311944"/>
			<stop  offset="1" style="stop-color:#6B3976"/>
		</linearGradient>
		<path class="st15" d="M392.28,261.94c0.79,0.85-0.11,2.2,0.15,6.74c0.12,2.08,0.42,3.79,0.69,5.01c0.15,1.11,0.32,2.13,0.5,3.04
			c0.13,0.66,0.26,1.18,0.41,1.72c0.28,1.01,0.65,2.01,1.07,2.96c0.03,0.06,0,0.14-0.06,0.17c0,0-0.01,0-0.01,0.01
			c-0.07,0.03-0.14,0-0.17-0.07c-0.43-0.96-0.8-1.97-1.08-3c-0.16-0.55-0.28-1.07-0.41-1.74c-0.1-0.48-0.19-0.99-0.28-1.52
			c0,1.44,0.13,3.01,0.85,5.06c2.19,6.21-2.31,10.92-6.19,11.49c-4.47,0.66-7.88-2.59-8.94-3.65c-4.28-4.31-5.8-11.89-2.81-17.86
			C379.91,262.47,390.35,259.85,392.28,261.94z"/>
		
			<linearGradient id="SVGID_16_" gradientUnits="userSpaceOnUse" x1="-1047.333" y1="318.2501" x2="-1135.5613" y2="271.7552" gradientTransform="matrix(1 0 0 1 1509.5374 0)">
			<stop  offset="0" style="stop-color:#311944"/>
			<stop  offset="1" style="stop-color:#6B3976"/>
		</linearGradient>
		<path class="st16" d="M381.56,269.25c0.12-0.73,0.69-3.73,3.15-5.82c4.68-3.98,13.04-2.04,18.09,1.54
			c5.28,3.75,3.57,6.91,8.82,11.14c5.7,4.6,9.1,1.98,16.8,6.19c3.03,1.66,11.19,6.12,12.55,14.27c1.17,7.04-3.1,14.66-8.94,18.03
			c-10,5.77-23.99-1.23-30.98-8.29c-6.7-6.77-2.88-8.99-12.8-22.37C384.66,279.11,380.68,274.72,381.56,269.25z"/>
		
			<linearGradient id="SVGID_17_" gradientUnits="userSpaceOnUse" x1="-944.7958" y1="370.1746" x2="-867.9991" y2="418.8377" gradientTransform="matrix(0.9893 0.146 -0.146 0.9893 1368.3322 88.7303)">
			<stop  offset="0" style="stop-color:#AA80F9"/>
			<stop  offset="0.9964" style="stop-color:#6165D7"/>
		</linearGradient>
		<path class="st17" d="M376.14,290.7c-3.43,4.28-3.98,9.05-4.06,11.17c-0.27,6.59,2.83,11.61,3.57,12.94
			c3.5,6.28,3.8,19.33-9.77,48.92c1.7,1.14,8.09,10.25,10.17,5.35c2.82-6.68,14-52.79,4.24,1.49c-0.13,0.72,1.41,0.41,2.14,0.6
			c5.25,1.37,11.46,2.11,18.35,1.31c10.8-1.26,18.66-5.78,22.77-8.59c-3.67-6.59-7.72-15.6-10.22-26.79
			c-4.76-21.35-1.31-39.32,1.38-49.09c-3.58-1.96-14.84-7.56-27.12-4.1C384.52,284.78,379.75,286.19,376.14,290.7z"/>
		
			<linearGradient id="SVGID_18_" gradientUnits="userSpaceOnUse" x1="-1125.0161" y1="312.3386" x2="-1052.2355" y2="358.457" gradientTransform="matrix(1 0 0 1 1509.5374 0)">
			<stop  offset="0" style="stop-color:#AA80F9"/>
			<stop  offset="0.9964" style="stop-color:#6165D7"/>
		</linearGradient>
		<path class="st18" d="M413.32,337.11c-4.76-21.35-1.31-39.32,1.38-49.09c-3.58-1.96-14.84-7.56-27.12-4.1
			c-3.06,0.86-7.83,2.28-11.44,6.78c-2.73,3.41-3.63,7.12-3.93,9.57c0.09-0.03,0.22-0.06,0.37-0.1c7.59-1.86,17.13,3.42,20.77,8.97
			c6.09,9.27-4.76,18.48-2.86,33.98c1.03,8.38,5.69,17.92,17.97,27.84c6.87-1.94,12.01-4.97,15.07-7.07
			C419.87,357.31,415.82,348.3,413.32,337.11z"/>
		
			<linearGradient id="SVGID_19_" gradientUnits="userSpaceOnUse" x1="1073.8218" y1="161.1158" x2="1075.2307" y2="123.5879" gradientTransform="matrix(-0.9962 0.0867 0.0867 0.9962 1446.9857 51.2667)">
			<stop  offset="0" style="stop-color:#FFC444"/>
			<stop  offset="0.9964" style="stop-color:#F36F56"/>
		</linearGradient>
		<path class="st19" d="M389.7,275.84c-0.87,2.34-1.5,5.23-0.1,6.98c0.85,1.06,2.14,1.57,3.4,2.05c2.99,1.12,4.25,0.41,4.9,1.21
			c1.43,1.76-1.32,9.33-6.96,10.55c-5.61,1.21-11.39-4.45-10.81-7.15c0.53-2.44,6.19-2.28,6.88-5.37c0.35-1.55-0.75-3.13-1.67-4.17
			l-0.66,0.13L389.7,275.84z"/>
		
			<linearGradient id="SVGID_20_" gradientUnits="userSpaceOnUse" x1="-1118.6555" y1="299.6474" x2="-1117.5017" y2="268.9136" gradientTransform="matrix(1 0 0 1 1509.5374 0)">
			<stop  offset="0" style="stop-color:#FFC444"/>
			<stop  offset="0.9964" style="stop-color:#F36F56"/>
		</linearGradient>
		<path class="st20" d="M397.9,286.07c-0.65-0.8-1.91-0.09-4.9-1.21c-1.26-0.47-2.55-0.98-3.4-2.05c-1.4-1.75-0.76-4.63,0.1-6.98
			l-5.02,4.21l0.66-0.13c0.73,0.83,1.56,1.99,1.7,3.21c0.42,0.23,0.78,0.49,1.05,0.76c-0.58,1.69-0.69,3.1-0.69,4.01
			c-0.01,1.42-0.01,2.47,0.69,3.39c0.77,1,1.92,1.26,2.93,1.49c2.25,0.5,4.25,0.05,5.55-0.41
			C398.19,289.88,398.7,287.06,397.9,286.07z"/>
		
			<linearGradient id="SVGID_21_" gradientUnits="userSpaceOnUse" x1="774.7059" y1="245.5792" x2="774.3259" y2="276.192" gradientTransform="matrix(-1 -4.100000e-03 -4.300000e-03 1.043 1161.4117 19.8061)">
			<stop  offset="0" style="stop-color:#FFC444"/>
			<stop  offset="0.9964" style="stop-color:#F36F56"/>
		</linearGradient>
		<path class="st21" d="M388.26,278.24c0,0-0.29,2.87-3.12,2.89c-3.5,0.02-3.89-9.22-3.03-9.75c0.99-0.61,1.85,0.89,4.14,0.36
			c0.97-0.22,1.8-1.47,2.29-0.12c0.56,1.53,0.09,4.23,0.09,4.23s0.83-0.69,0.96,0.14C389.75,277.06,388.94,277.74,388.26,278.24z"/>
		
			<linearGradient id="SVGID_22_" gradientUnits="userSpaceOnUse" x1="-1044.3629" y1="312.6449" x2="-1132.6029" y2="266.1439" gradientTransform="matrix(1 0 0 1 1509.5374 0)">
			<stop  offset="0" style="stop-color:#311944"/>
			<stop  offset="1" style="stop-color:#6B3976"/>
		</linearGradient>
		<path class="st22" d="M382.73,268.2c-1.11,1.13-1.72,3.33-0.95,4.44c1.11,1.59,4.37-0.07,5.71,1.87c0.59,0.85,0.55,2.03,0.86,2.01
			c0.25-0.02,0.4-0.84,0.55-1.51c0.8-3.72,1.72-4.13,1.44-5.2C389.76,267.66,385.01,265.87,382.73,268.2z"/>
		<g>
			<path class="st23" d="M446.63,333.56l-62.03,25.02c-1.61,0.65-3.45-0.13-4.1-1.75l-14.04-35.3c-0.65-1.62,0.13-3.45,1.75-4.1
				l62.03-25.02c1.61-0.65,3.45,0.13,4.1,1.75l14.04,35.3C449.03,331.07,448.25,332.91,446.63,333.56z"/>
			
				<linearGradient id="SVGID_23_" gradientUnits="userSpaceOnUse" x1="-833.2933" y1="325.8572" x2="-750.9244" y2="325.8572" gradientTransform="matrix(1 0 0 1 1200.6945 0)">
				<stop  offset="0" style="stop-color:#FF9085"/>
				<stop  offset="1" style="stop-color:#FB6FBB"/>
			</linearGradient>
			<path class="st24" d="M447.8,333.93l-62.03,25.02c-1.61,0.65-3.45-0.13-4.1-1.75l-14.04-35.3c-0.65-1.62,0.13-3.45,1.75-4.1
				l62.03-25.02c1.61-0.65,3.45,0.13,4.1,1.75l14.04,35.3C450.19,331.44,449.41,333.27,447.8,333.93z"/>
			<g>
				<path class="st3" d="M394.73,325.67c3.37,0.06,6.41,2.88,6.8,6.28c0.11,0.96-0.01,1.85-0.3,2.66l7.49,3.47
					c0.64-1.82,0.88-3.86,0.64-6.01c-0.89-7.78-7.85-14.24-15.55-14.41c-0.02,0-0.04,0-0.06,0l0.92,8.01
					C394.69,325.67,394.71,325.67,394.73,325.67z"/>
				<path class="st25" d="M401.24,334.61c-0.74,2.06-2.66,3.47-5.08,3.45c-3.37-0.04-6.45-2.86-6.84-6.28
					c-0.39-3.41,2.01-6.13,5.36-6.1l-0.92-8.01c-7.73-0.13-13.32,6.13-12.42,14c0.91,7.89,8,14.35,15.75,14.41
					c5.56,0.04,9.97-3.24,11.64-7.99L401.24,334.61z"/>
			</g>
			<g>
				<path class="st26" d="M439.1,314.05l-25.87,10.61c-0.12,0.05-0.26-0.01-0.31-0.13l-1-2.47c-0.05-0.12,0.01-0.27,0.13-0.32
					l25.89-10.57c0.12-0.05,0.26,0.01,0.31,0.13l0.98,2.44C439.27,313.87,439.22,314,439.1,314.05z"/>
			</g>
			<g>
				<path class="st26" d="M436.92,308.81l-25.87,10.61c-0.12,0.05-0.26-0.01-0.31-0.13l-1-2.47c-0.05-0.12,0.01-0.27,0.13-0.32
					l25.89-10.57c0.12-0.05,0.26,0.01,0.31,0.13l0.98,2.44C437.09,308.62,437.03,308.76,436.92,308.81z"/>
			</g>
			<g>
				<path class="st26" d="M443.35,324.87l-25.87,10.61c-0.12,0.05-0.26-0.01-0.31-0.13l-1-2.47c-0.05-0.12,0.01-0.27,0.13-0.32
					l25.89-10.57c0.12-0.05,0.26,0.01,0.31,0.13l0.98,2.44C443.53,324.68,443.47,324.82,443.35,324.87z"/>
			</g>
			<g>
				<path class="st26" d="M441.17,319.63l-25.87,10.61c-0.12,0.05-0.26-0.01-0.31-0.13l-1-2.47c-0.05-0.12,0.01-0.27,0.13-0.32
					l25.89-10.57c0.12-0.05,0.26,0.01,0.31,0.13l0.98,2.44C441.35,319.44,441.29,319.58,441.17,319.63z"/>
			</g>
		</g>
		<g>
			
				<linearGradient id="SVGID_24_" gradientUnits="userSpaceOnUse" x1="-1939.7275" y1="-702.5621" x2="-1924.3667" y2="-702.5621" gradientTransform="matrix(0.7945 -0.6073 0.6073 0.7945 2376.0635 -268.2373)">
				<stop  offset="0" style="stop-color:#FFC444"/>
				<stop  offset="0.9964" style="stop-color:#F36F56"/>
			</linearGradient>
			<path class="st27" d="M412.9,345.07l-0.99,1.02c0,0-2.04,1.43-3.03,2.52c-1,1.09-1.21,2.17-0.3,3.36c0.91,1.2,2.48,0.23,3.85-0.6
				c0.83-0.5,1.38-1.95,1.72-3.16c0.24-0.85,1.38-2.32,1.38-2.32L412.9,345.07z"/>
			
				<linearGradient id="SVGID_25_" gradientUnits="userSpaceOnUse" x1="-987.6613" y1="-158.6984" x2="-963.1404" y2="-130.6552" gradientTransform="matrix(0.9748 -0.2305 0.2895 1.0913 1412.9209 253.2109)">
				<stop  offset="0" style="stop-color:#AA80F9"/>
				<stop  offset="0.9964" style="stop-color:#6165D7"/>
			</linearGradient>
			<path class="st28" d="M400.09,291.21c2.51-5.36,21.13-0.99,34.78,8.66c4.33,3.06,4.79,12.77,3.27,20.25
				c-1.77,8.73-6.82,14.59-9.34,17.52c-4.45,5.17-9.05,8.15-11.97,9.75c-0.94-0.25-2.04-0.62-3.21-1.18
				c-1.07-0.51-1.98-1.08-2.73-1.61c-0.34-3.42-0.44-8.59,1.16-14.5c1.02-3.75,2.1-5.52,4.25-10.43c1.96-4.47,3.64-6.35,4.78-7.34
				c0.54-0.46,1.53-1.23,1.72-2.48c0.26-1.65-1.05-3.12-1.5-3.62c-4.44-4.98-14.99-2.48-19.58-8.26
				C400.37,296.28,399.12,293.26,400.09,291.21z"/>
		</g>
		
			<linearGradient id="SVGID_26_" gradientUnits="userSpaceOnUse" x1="-1054.9769" y1="310.0125" x2="-1132.4436" y2="269.1888" gradientTransform="matrix(1 0 0 1 1509.5374 0)">
			<stop  offset="0" style="stop-color:#311944"/>
			<stop  offset="1" style="stop-color:#6B3976"/>
		</linearGradient>
		<path class="st29" d="M388.54,271.61c-0.77,0.85,0.92,3.65,4.35,9.23c2.11,3.43,3.16,5.15,3.84,5.89
			c3.65,3.99,9.81,7.07,16.03,6.72c4.27-0.24,4.9-1.88,8.4-1.3c5.28,0.88,3.75-9.4,6.47-3.81c0.16,0.33-1.08,2.94-7.93-1.85
			c-5.61-3.92-7.13-2.74-15.94-8.16c-0.64-0.39-3.35-2.07-7.14-3.96C392.16,272.16,389.31,270.77,388.54,271.61z"/>
	</g>
	<g>
		<path class="st30" d="M363.78,280.28c0.34,0.09,0.62,0.32,0.79,0.63c0.17,0.31,0.2,0.67,0.1,1.01l-7.36,23.45
			c-0.21,0.67-0.92,1.05-1.59,0.85l-17.08-4.99c-0.68-0.2-1.07-0.91-0.88-1.59l6.62-23.34c0.19-0.68,0.9-1.08,1.58-0.89
			L363.78,280.28z"/>
		
			<linearGradient id="SVGID_27_" gradientUnits="userSpaceOnUse" x1="422.1898" y1="263.0466" x2="459.5123" y2="323.7125" gradientTransform="matrix(-1 0 0 1 790.1643 0)">
			<stop  offset="0" style="stop-color:#FF9085"/>
			<stop  offset="1" style="stop-color:#FB6FBB"/>
		</linearGradient>
		<path class="st31" d="M362.42,281.42c0.3,0.08,0.56,0.28,0.71,0.56c0.15,0.27,0.18,0.6,0.09,0.9l-6.56,20.91
			c-0.19,0.6-0.82,0.94-1.42,0.76L340,300.1c-0.61-0.18-0.96-0.81-0.78-1.42l5.91-20.81c0.17-0.61,0.8-0.96,1.41-0.8L362.42,281.42z
			"/>
		<path class="st32" d="M360.14,282.59c0.23,0.06,0.43,0.22,0.54,0.43c0.12,0.21,0.14,0.46,0.07,0.69l-2.08,6.82
			c-0.14,0.46-0.62,0.73-1.08,0.6l-12.16-3.27c-0.23-0.06-0.43-0.21-0.54-0.42c-0.12-0.21-0.15-0.45-0.08-0.68l1.93-6.92
			c0.13-0.47,0.62-0.75,1.09-0.62L360.14,282.59z"/>
		<path class="st32" d="M357.05,293.47c0.24,0.07,0.44,0.23,0.56,0.44c0.12,0.22,0.15,0.47,0.07,0.71l-2.14,7.04
			c-0.14,0.47-0.64,0.75-1.12,0.62l-12.54-3.37c-0.24-0.06-0.44-0.22-0.56-0.43c-0.12-0.21-0.15-0.47-0.09-0.7l1.99-7.14
			c0.14-0.49,0.64-0.77,1.13-0.64L357.05,293.47z"/>
		
			<linearGradient id="SVGID_28_" gradientUnits="userSpaceOnUse" x1="517.7266" y1="342.8179" x2="530.4101" y2="292.0836" gradientTransform="matrix(-1 0 0 1 790.1643 0)">
			<stop  offset="0" style="stop-color:#AA80F9"/>
			<stop  offset="0.9964" style="stop-color:#6165D7"/>
		</linearGradient>
		<path class="st33" d="M264.36,292.31c-0.96,0.36-15.62,6.2-18.63,21.53c-0.24,1.24-2.6,14.4,6.32,23.7
			c10,10.43,29.24,10.17,36.88,1.45c1.78-2.03,2.72-4.29,3.25-6.18l0,0l-2.01-5.36c-2.46-2.97-5.8-3.67-7.59-4.11
			c-4.4-1.09-7.73,0.88-10.25-1.25c-1.4-1.18-1.67-2.87-1.92-4.38c-0.84-5.15,2.06-8.32,2.27-11.5c0.16-2.38,0.99-7.58-2.11-10.97
			C268.61,293.09,265.9,292.5,264.36,292.31z"/>
		
			<linearGradient id="SVGID_29_" gradientUnits="userSpaceOnUse" x1="350.369" y1="548.2792" x2="356.3794" y2="553.6254" gradientTransform="matrix(-0.9902 -0.14 -0.14 0.9902 684.0361 -33.4906)">
			<stop  offset="0" style="stop-color:#444B8C"/>
			<stop  offset="0.9964" style="stop-color:#26264F"/>
		</linearGradient>
		<path class="st34" d="M258.65,463.08c-0.17-0.94-3.21-1.8-4.72-0.53c-0.75,0.63-1.26,1.9-0.83,2.47c0.16,0.21-0.49,0.58,0.13,0.58
			C255.28,465.63,258.82,464.02,258.65,463.08z"/>
		
			<linearGradient id="SVGID_30_" gradientUnits="userSpaceOnUse" x1="-569.1074" y1="553.6165" x2="-569.1074" y2="543.1333" gradientTransform="matrix(-0.9902 -0.14 -0.14 0.9902 -232.165 -163.0066)">
			<stop  offset="0" style="stop-color:#FFC444"/>
			<stop  offset="0.9964" style="stop-color:#F36F56"/>
		</linearGradient>
		<path class="st35" d="M255.46,463.43l-3.13-0.44c1.45-1.75,1.18-7.31,1.18-7.31l3.33,0.74c0,0-0.38,1.53-1.02,3.78
			C255.6,460.97,255.5,462.17,255.46,463.43z"/>
		
			<linearGradient id="SVGID_31_" gradientUnits="userSpaceOnUse" x1="350.972" y1="547.6005" x2="356.9822" y2="552.9467" gradientTransform="matrix(-0.9902 -0.14 -0.14 0.9902 684.0361 -33.4906)">
			<stop  offset="0" style="stop-color:#444B8C"/>
			<stop  offset="0.9964" style="stop-color:#26264F"/>
		</linearGradient>
		<path class="st36" d="M255.74,463.04c0,0-3.77-0.87-4.17-0.12c-0.41,0.75-0.72,2.75,1.67,2.69
			C255.62,465.54,255.95,463.67,255.74,463.04z"/>
		
			<linearGradient id="SVGID_32_" gradientUnits="userSpaceOnUse" x1="487.2962" y1="463.6909" x2="493.308" y2="469.0385" gradientTransform="matrix(-1 0 0 1 790.1643 0)">
			<stop  offset="0" style="stop-color:#444B8C"/>
			<stop  offset="0.9964" style="stop-color:#26264F"/>
		</linearGradient>
		<path class="st37" d="M301.57,466.62c-0.3-0.91-3.43-1.33-4.75,0.13c-0.65,0.73-0.98,2.06-0.48,2.57c0.19,0.18-0.4,0.64,0.21,0.56
			C298.59,469.61,301.87,467.52,301.57,466.62z"/>
		<path class="st3" d="M355.73,306.97l2.86-1.37c0.44-0.36,1.12-0.99,1.64-1.95c0.85-1.59,0.83-3.32,0.82-3.32
			c-0.01,0,0.13-2.32-0.85-2.71c-0.13-0.05-0.28-0.07-0.45-0.04l-1.02,2.68c0,0-0.16,1.17-2,2.38c-1.82,1.59-2.56,3.04-2.56,3.04
			L355.73,306.97z"/>
		
			<linearGradient id="SVGID_33_" gradientUnits="userSpaceOnUse" x1="-432.2245" y1="469.0506" x2="-432.2245" y2="458.5674" gradientTransform="matrix(-1 0 0 1 -135.1458 0)">
			<stop  offset="0" style="stop-color:#FFC444"/>
			<stop  offset="0.9964" style="stop-color:#F36F56"/>
		</linearGradient>
		<path class="st38" d="M298.47,467.41h-3.16c1.19-1.93,0.15-7.41,0.15-7.41l3.4,0.27c0,0-0.16,1.57-0.49,3.89
			C298.26,464.95,298.33,466.16,298.47,467.41z"/>
		
			<linearGradient id="SVGID_34_" gradientUnits="userSpaceOnUse" x1="-1426.8219" y1="473.8504" x2="-1466.0571" y2="315.4387" gradientTransform="matrix(1 0 0 1 1724.4171 0)">
			<stop  offset="0" style="stop-color:#444B8C"/>
			<stop  offset="0.9964" style="stop-color:#26264F"/>
		</linearGradient>
		<path class="st39" d="M306.65,347.75c1.46,4.84,3.55,12.65,4.9,22.45c3.84,27.96-4.32,28.85-2.8,59.83
			c0.49,9.89-8.55,32.69-9.35,33.2c-0.39,0.04-0.8,0.06-1.25,0.05c-0.79-0.02-1.89-0.14-3.18-0.53c-1.43-0.25-6.6-14.25-5.4-22.58
			c0.85-5.89,0.6-12.22,0.11-24.87c-0.08-2.05-5.32-39.88-5.32-39.88l0,0c-1.59,14-3.42,25.9-5.01,35.12
			c-5.1,29.64-21.69,47.57-22.56,47.86c-0.17,0.07-1.73,0.64-3-0.21c-0.57-0.37-0.76-0.86-0.76-0.86
			c-0.44-0.35,0.13-29.59,5.19-51.6c7.34-31.94,4.15-39.42,6.47-53.68C266.71,339.72,306.65,347.75,306.65,347.75z"/>
		
			<linearGradient id="SVGID_35_" gradientUnits="userSpaceOnUse" x1="468.8345" y1="294.4101" x2="544.8932" y2="354.7741" gradientTransform="matrix(-1 0 0 1 790.1643 0)">
			<stop  offset="0" style="stop-color:#AA80F9"/>
			<stop  offset="0.9964" style="stop-color:#6165D7"/>
		</linearGradient>
		<path class="st40" d="M276.99,289.82c4.88-0.14,14.32-1.74,20.49,3.82c0.11,0.1,0.61,0.64,1.23,1.37
			c0.58,0.68,2.56,3.05,4.36,6.26c1.3,2.33,2.48,5.04,3.66,9.08c2.09,7.12,2.69,13.19,2.89,15.83c1.13,14.86,0.01,21.72-1.01,26.38
			c-4.41,2.27-15.77,6.33-29.31,4.31c-6.18-0.92-11.13-2.98-14.61-4.82c3.51-10.65,0.76-16.35-0.54-21.6
			c-1.85-7.49-1.88-6.92-3.41-12.87c-2.52-9.82-2.93-19.85-1.2-21.9C264.21,290.15,272.62,289.95,276.99,289.82z"/>
		
			<linearGradient id="SVGID_36_" gradientUnits="userSpaceOnUse" x1="489.083" y1="310.4803" x2="540.6262" y2="351.3876" gradientTransform="matrix(-1 0 0 1 790.1643 0)">
			<stop  offset="0" style="stop-color:#AA80F9"/>
			<stop  offset="0.9964" style="stop-color:#6165D7"/>
		</linearGradient>
		<path class="st41" d="M259.55,295.69c2.62-3.11,6.42-4.53,10.02-5.21c-1.69,7.55,2.15,16.79,7.35,21.69
			c4.86,4.58,9.32,1.54,12.54,5.35c2.66,3.15,2.74,8.27,1.4,11.79c-1.81,4.75-5.72,5.21-5.52,7.89c0.27,3.55,7.4,6.2,12.65,6.69
			c5.48,0.52,9.85-1.22,12.02-2.27c-0.22,5.03-0.82,8.34-1.39,10.96c-4.41,2.27-15.77,6.33-29.31,4.31
			c-6.18-0.92-11.13-2.98-14.61-4.82c3.51-10.65,0.76-16.35-0.54-21.6c-1.85-7.49-1.88-6.92-3.41-12.88
			C258.23,307.77,257.82,297.74,259.55,295.69z"/>
		
			<linearGradient id="SVGID_37_" gradientUnits="userSpaceOnUse" x1="487.8989" y1="463.0123" x2="493.9106" y2="468.3598" gradientTransform="matrix(-1 0 0 1 790.1643 0)">
			<stop  offset="0" style="stop-color:#444B8C"/>
			<stop  offset="0.9964" style="stop-color:#26264F"/>
		</linearGradient>
		<path class="st42" d="M298.69,466.99c0,0-3.85-0.33-4.15,0.47c-0.3,0.8-0.33,2.83,2.02,2.43
			C298.92,469.48,298.98,467.58,298.69,466.99z"/>
		
			<linearGradient id="SVGID_38_" gradientUnits="userSpaceOnUse" x1="460.1821" y1="305.3612" x2="536.1938" y2="365.6879" gradientTransform="matrix(-1 0 0 1 790.1643 0)">
			<stop  offset="0" style="stop-color:#AA80F9"/>
			<stop  offset="0.9964" style="stop-color:#6165D7"/>
		</linearGradient>
		<path class="st43" d="M289.89,291.6c5.33-3.48,19.28,7.41,23.5,10.42c16.37,11.64,14.41,18.91,21.85,15.28
			c5.03-2.45,5.71-9.84,14.3-12.62c1.52-0.49,2.83-0.69,3.67-0.78c0.01,0.01,2.84,1.51,2.85,1.52c1,0.33,2.01,0.65,2.85,1.52
			c0.83,1.72,1.58,3.81,1.96,6.25c-0.08,0.87-0.25,2.3-0.64,4.04c-0.32,1.44-4.1,17.15-17.22,21.99c-2.41,0.89-4.41,1.14-5.42,1.27
			c-4.31,0.52-8.22-0.12-14.9-2.42c-11.32-3.91-19.96-7.57-27.6-16.52c-0.36-0.43-0.66-0.85-0.95-1.3
			C288.46,311.51,284.74,294.96,289.89,291.6z"/>
		<g>
			<path class="st3" d="M290.71,284.22c1.51-2.56,0.84-5.48,0.69-6.11c-0.64-2.64-0.87-3.04-1.36-3.6l-0.69-0.73
				c0,0-0.04-0.03-0.09-0.06c-0.48-0.33-2.28-0.87-2.67-0.89c-1.24-0.06-3.76,4.39-5.21,11.26c-0.12,0.25-0.23,0.49-0.35,0.74
				c-0.72,1.56-1.33,3.09-1.86,4.58c-8.38,0.71-9.55,1.69-9.58,2.26c-0.08,1.2,4.7,2.58,8.29,3.11c7.83,1.15,15.89-0.92,15.85-2.38
				c-0.02-0.64-1.57-1.47-8.21-2.34c0.16-1.1,0.31-2.2,0.47-3.3C286.51,286.63,289.6,286.11,290.71,284.22z"/>
			<path class="st30" d="M292.29,272.5c-0.57,2.1-2.15,4.07-2.75,4.3c-0.08,0.03-0.52,0.22-0.98,0.63
				c-0.06,0.06-0.12,0.12-0.19,0.22c-0.81,1.2,0.87,3.31,0.31,3.8c-0.41,0.35-1.68-0.6-1.95-0.28c-0.25,0.31,0.74,1.35,0.45,1.71
				c-0.22,0.28-0.87-0.2-1.46,0.16c-0.29,0.18-0.28,0.39-0.72,1.06c-0.25,0.38-0.56,0.78-0.78,1c-1.05,1.04-3.22,0.94-3.48,0.34
				c-0.07-0.17,0.05-0.26,0.06-0.75c0,0,0.01-0.45-0.16-1.03c-0.24-0.82-1.13-1.6-1.96-2.62c-1.55-1.89-1.75-3.2-1.8-3.64
				c-0.02-0.16-0.02-0.27-0.03-0.36c-0.09-1.68,0.52-3.95,1.58-5.16c1.79-2.03,4.11-0.22,6.87-1.96c3.19-2.01,2.69-6.06,4.14-6.11
				C291.05,263.76,293.33,268.63,292.29,272.5z"/>
			<path class="st3" d="M288.06,280.74c-0.33-0.84-1.4-0.42-1.65,0.49c-0.25,0.91,0.38,2.1,1.29,2.15
				C288.61,283.43,288.5,281.88,288.06,280.74z"/>
		</g>
		<path class="st30" d="M288.05,279.11l0.78,1.87c0,0,0.78,2.24,1.8,1.4c0.84-0.69,0.99-0.63,1.02-0.58c0.01,0.01,0,0.02,0.01,0.02
			c0.01,0,0.02-0.45,0.03-0.84c0.2,0.54,0.44,1.4,0.44,2.46c0,1.03,0,2.14-0.81,2.99c-0.05,0.05-0.93,0.95-2.12,0.9
			c0,0-0.47-0.02-2.24-0.84c0,0,2.43-0.93,2.55-1.28c0.34-0.93-0.85-1.8-1.31-4.02C288.03,280.34,288.03,279.6,288.05,279.11z"/>
	</g>
</g>
</svg>
