<?xml version="1.0" encoding="utf-8"?>
<!-- Generator: Adobe Illustrator 25.1.0, SVG Export Plug-In . SVG Version: 6.00 Build 0)  -->
<svg version="1.1" xmlns="http://www.w3.org/2000/svg" xmlns:xlink="http://www.w3.org/1999/xlink" x="0px" y="0px"
	 viewBox="0 0 500 500" style="enable-background:new 0 0 500 500;" xml:space="preserve">
<style type="text/css">
	.st0{fill:#F0C8B2;}
	.st1{fill:#BDC892;}
	.st2{fill:#7EA78B;}
	.st3{fill:#473220;}
	.st4{fill:#B34B30;}
	.st5{fill:#8DA6BC;}
	.st6{fill:#B7CCDA;}
	.st7{fill:#758B9B;}
	.st8{fill:#61809B;}
	.st9{fill:#E69560;}
	.st10{fill:#F0C8B8;}
	.st11{fill:#ECB896;}
	.st12{fill:#D1684A;}
	.st13{fill:#D5826D;}
	.st14{fill:#435C72;}
	.st15{fill:#B23F21;}
	.st16{fill:#F5DED0;}
	.st17{fill:#5E806D;}
	.st18{fill:#BE4E36;}
	.st19{fill:#AC5F43;}
	.st20{fill:none;stroke:#473220;stroke-width:1.5;stroke-linecap:round;stroke-linejoin:round;stroke-miterlimit:10;}
</style>
<g id="BACKGROUND">
</g>
<g id="OBJECTS">
	<g>
		<path class="st0" d="M13.43,402.7h449.59c0,0-45.34,55.97-224.79,55.97S13.43,402.7,13.43,402.7z"/>
	</g>
	<g>
		<path class="st1" d="M323.81,395.22c-9.01-19.02-36.2-124.01-8.58-129.77c13.19,2.46,20.5,30.29,25.25,41.75
			c-0.17-19.06,12.47-105.59,40.19-96.83c12.43,5.77,2.9,50.12,4.15,64.09c8.19-14.64,40.93-54.36,58.83-40.07
			c9.44,9.56-20.67,53.01-25.25,66.73c45.35-45.53,112.79-11.35,14.57,42.89c15.03-4.97,39.47-6.08,43.64,13.19
			c-0.18,27.4-42.38,41.64-65.24,45.03h-85.39L323.81,395.22z"/>
	</g>
	<g>
		<path class="st1" d="M166.56,388.83c9.01-19.02,36.2-124.01,8.58-129.77c-13.19,2.46-20.5,30.29-25.25,41.75
			c0.17-19.06-12.47-105.59-40.19-96.83c-12.43,5.77-2.9,50.12-4.15,64.09c-8.19-14.64-40.93-54.36-58.83-40.07
			c-9.44,9.56,20.67,53.01,25.25,66.73c-45.35-45.53-112.79-11.35-14.57,42.89c-15.03-4.97-39.47-6.08-43.64,13.18
			c0.18,27.4,42.38,41.64,65.24,45.03h85.39L166.56,388.83z"/>
	</g>
	<g>
		<g>
			<path class="st2" d="M71.11,108.4c0,0,3.23-12.37-1.76-29.59C64.36,61.58,52.06,59.9,47.61,66.14s0.77,13.56,4.27,17.81
				C55.38,88.2,66.52,96.93,71.11,108.4z"/>
		</g>
		<g>
			<path class="st2" d="M55.3,119.44c0,0-3.5-19.97-12.25-31.88c-8.75-11.9-23.82-3.45-21.24,6.82S46.37,107.02,55.3,119.44z"/>
		</g>
		<g>
			<path class="st3" d="M80.8,188.38c-0.36,0-0.68-0.26-0.74-0.62c-3.47-19.96-9.2-37.93-17.01-53.42
				C54.2,116.8,42.2,101.72,28.36,90.72c-0.32-0.26-0.38-0.73-0.12-1.05c0.26-0.32,0.73-0.38,1.05-0.12
				c14.01,11.13,26.14,26.39,35.09,44.12c7.03,13.93,12.38,29.85,15.94,47.4c1.02-37.1-7.2-74.04-23.91-107.23
				c-0.19-0.37-0.04-0.82,0.33-1.01c0.37-0.18,0.82-0.04,1.01,0.33c17.81,35.38,26.04,74.98,23.8,114.52
				c-0.02,0.38-0.33,0.68-0.71,0.71C80.82,188.38,80.81,188.38,80.8,188.38z"/>
		</g>
	</g>
	<g>
		<g>
			<g>
				<path class="st0" d="M311.01,127.1l16.47-9.36c4.72,2.93,10.28,4.62,16.24,4.62c17.03,0,30.84-13.8,30.84-30.83
					c0-17.04-13.81-30.84-30.84-30.84c-17.03,0-30.84,13.8-30.84,30.84c0,7.06,2.38,13.57,6.37,18.77L311.01,127.1z"/>
			</g>
		</g>
		<g>
			<g>
				<g>
					<path class="st3" d="M354.58,107.21c-1.6,2.38-4.61,2.53-5.35,2.42c-0.73-0.1-3.14-1.8-5.64-1.88c-2.5-0.08-5,1.46-5.74,1.52
						c-0.74,0.06-3.73-0.28-5.18-2.75c-1.44-2.47-2.15-5.63,1.51-7.84c3.66-2.21,3.66-2.96,5.25-6.43c1.59-3.47,4.76-3.33,4.76-3.33
						s3.18,0.06,4.54,3.62c1.37,3.56,1.32,4.31,4.83,6.75C357.08,101.72,356.18,104.83,354.58,107.21z"/>
				</g>
			</g>
			<g>
				<path class="st3" d="M335.57,90.51c1.24,2.86,0.39,5.13-1.52,5.95c-1.9,0.82-4.13-0.12-5.36-2.99
					c-0.76-1.76-0.85-3.56-0.36-4.87c0.35-0.96,0.53-1.96,0.4-2.97l-0.25-1.86c-0.06-0.39,0.45-0.57,0.67-0.24l1.01,1.59
					c0.53,0.82,1.33,1.41,2.21,1.82C333.63,87.52,334.84,88.79,335.57,90.51z"/>
			</g>
			<g>
				<path class="st3" d="M347.6,88.49c-2.25-0.69-3.48-3.15-2.43-6.54c0.71-2.29,2.15-4.02,3.71-4.7c1.15-0.49,2.16-1.24,2.83-2.3
					l0.26-0.42c0.21-0.32,0.69-0.16,0.68,0.21l-0.07,1.44c-0.04,0.95,0.15,1.89,0.56,2.74c0.7,1.43,0.81,3.47,0.17,5.55
					C352.26,87.85,349.85,89.19,347.6,88.49z"/>
			</g>
			<g>
				<path class="st3" d="M359.61,89.46c0.45,1.36,0.26,3.21-0.63,4.97c-1.41,2.78-3.7,3.58-5.54,2.64
					c-1.85-0.93-2.55-3.25-1.14-6.03c1.13-2.22,3.03-3.61,4.7-3.62H357l2.17-3.4c0.21-0.33,0.72-0.15,0.67,0.24l-0.39,2.92
					C359.34,87.94,359.37,88.73,359.61,89.46z"/>
			</g>
			<g>
				<path class="st3" d="M343.27,81.89c0.83,3.44-0.56,5.83-2.84,6.38c-2.29,0.54-4.61-0.94-5.44-4.38
					c-0.52-2.16-0.25-4.23,0.59-5.62c0.55-0.92,0.75-2.01,0.7-3.09l-0.05-0.93c-0.02-0.37,0.47-0.53,0.68-0.21l0.62,0.98
					c0.54,0.86,1.36,1.47,2.27,1.92C341.33,77.68,342.7,79.52,343.27,81.89z"/>
			</g>
		</g>
		<g>
			<g>
				<path class="st4" d="M343.75,117.08c-14.11,0-25.59-11.48-25.59-25.59s11.48-25.59,25.59-25.59s25.59,11.48,25.59,25.59
					S357.86,117.08,343.75,117.08z M343.75,69.7c-12.02,0-21.79,9.78-21.79,21.79s9.78,21.79,21.79,21.79
					c12.02,0,21.79-9.78,21.79-21.79S355.76,69.7,343.75,69.7z"/>
			</g>
		</g>
		<g>
			<g>
				
					<rect x="318.89" y="88.43" transform="matrix(0.7071 -0.7071 0.7071 0.7071 36.4537 268.6674)" class="st4" width="47.31" height="3.8"/>
			</g>
		</g>
	</g>
	<g>
		<g>
			
				<rect x="220.46" y="260.61" transform="matrix(-1 -1.224647e-16 1.224647e-16 -1 665.0822 526.6645)" class="st4" width="224.17" height="5.44"/>
		</g>
		<g>
			
				<rect x="220.46" y="266.05" transform="matrix(-1 -1.224647e-16 1.224647e-16 -1 665.0822 542.8332)" class="st5" width="224.17" height="10.73"/>
		</g>
		<g>
			
				<rect x="220.46" y="266.05" transform="matrix(-1 -1.224647e-16 1.224647e-16 -1 665.0822 537.468)" class="st6" width="224.17" height="5.37"/>
		</g>
		<g>
			<g>
				<rect x="434.34" y="276.78" class="st5" width="4.99" height="119.42"/>
			</g>
			<g>
				<rect x="408.26" y="276.78" class="st5" width="4.99" height="119.42"/>
			</g>
			<g>
				<rect x="382.19" y="276.78" class="st5" width="4.99" height="119.42"/>
			</g>
			<g>
				<rect x="356.12" y="276.78" class="st5" width="4.99" height="119.42"/>
			</g>
			<g>
				<rect x="330.05" y="276.78" class="st5" width="4.99" height="119.42"/>
			</g>
			<g>
				<rect x="303.97" y="276.78" class="st5" width="4.99" height="119.42"/>
			</g>
			<g>
				<rect x="277.9" y="276.78" class="st5" width="4.99" height="119.42"/>
			</g>
			<g>
				<rect x="251.83" y="276.78" class="st5" width="4.99" height="119.42"/>
			</g>
			<g>
				<rect x="225.76" y="276.78" class="st5" width="4.99" height="119.42"/>
			</g>
		</g>
		<g>
			<rect x="220.94" y="396.21" class="st5" width="224.17" height="10.73"/>
		</g>
		<g>
			<g>
				<rect x="426.45" y="276.78" class="st7" width="4.99" height="119.42"/>
			</g>
			<g>
				<rect x="400.38" y="276.78" class="st7" width="4.99" height="119.42"/>
			</g>
			<g>
				<rect x="374.31" y="276.78" class="st7" width="4.99" height="119.42"/>
			</g>
			<g>
				<rect x="348.24" y="276.78" class="st7" width="4.99" height="119.42"/>
			</g>
			<g>
				<rect x="322.16" y="276.78" class="st7" width="4.99" height="119.42"/>
			</g>
			<g>
				<rect x="296.09" y="276.78" class="st7" width="4.99" height="119.42"/>
			</g>
			<g>
				<rect x="270.02" y="276.78" class="st7" width="4.99" height="119.42"/>
			</g>
			<g>
				<rect x="243.95" y="276.78" class="st7" width="4.99" height="119.42"/>
			</g>
		</g>
	</g>
	<g>
		<g>
			<g>
				<path class="st4" d="M420.21,253.88c0,0,4.74,10.69,3.47,10.79c-1.27,0.11-7.36-2.12-10.37-4.97
					c-2.41-2.29-6.91-10.59-8.62-13.83c1.92-0.12,3.99-0.5,5.42-1.47c4.37,6.38,9.51,13.2,9.97,10.74
					C420.15,254.76,420.19,254.33,420.21,253.88L420.21,253.88z"/>
			</g>
			<g>
				<path class="st7" d="M410.11,244.41c-3.23-4.71-6.04-9.17-6.22-9.46c-0.01-0.01-0.01-0.01-0.01-0.02c0,0-6.67-2.23-9.77-5.02
					c-0.9-0.8-1.49-1.65-1.55-2.5c0,0-5.93-6.14-4.98-13.44c0,0-5.24-18.64,6.89-22.34c0,0,0.43,0.01,1.15,0.17
					c2.7,0.59,9.54,3.22,13.89,15.07c5.5,15.04,10.63,33.88,10.58,36.32c-0.05,2.44-2.22-1.17-2.22-1.17s2.5,7.29,2.35,11.86
					c-0.02,0.45-0.05,0.88-0.12,1.26C419.63,257.61,414.48,250.78,410.11,244.41z"/>
			</g>
			<g>
				<path class="st3" d="M410.34,171.3c0,0,2.7,4.97,2.43,9.42c-0.25,4.38-6.67,7.42-6.87,7.51c0.09-0.21,1.73-3.6,1.58-5.5
					c0,0-5.71,3.6-9.42-1.9c0,0,9.32-4.4,9.96-4.77C408.64,175.69,410.34,171.3,410.34,171.3z"/>
			</g>
			<g>
				<path class="st5" d="M410.34,171.3c0,0-1.7,4.4-2.33,4.76c-0.63,0.37-9.96,4.77-9.96,4.77s-3.6,4.56-3.38,6.67
					c0.11,1.07,0.53,2.83,0.94,4.3c-0.72-0.16-1.15-0.17-1.15-0.17c-12.13,3.7-6.89,22.34-6.89,22.34
					c-0.95,7.31,4.98,13.44,4.98,13.44c0.06,0.85,0.66,1.7,1.55,2.5c-5.7,1.07-4.31,6.6-4.31,6.6s2.28,4.85,3.64,9.06l-0.46,0.15
					c0,0-2-0.5-4.68-1.48c-4.33-1.58-10.46-4.4-12.78-8.36c-3.76-6.41-12.29-23.83-12.81-32.08c-0.53-8.26,5.13-22.81,9.32-31.87
					c4.18-9.05,18.9-12.55,25.52-12.91C404.15,158.64,410.34,171.3,410.34,171.3z"/>
			</g>
			<g>
				<path class="st3" d="M406.42,256.74c0.8,1.06-1.42,1.9-3.08,1.49c-1.66-0.43-5.54-4.14-7.6-4.14c-2.06,0-12.6,5.77-15.78,5.09
					c-3.18-0.69-4.56,0-4.56,0c-0.43-2.54,4.4-2.7,6.88-3.51c1.81-0.59,7.45-3.18,10.37-4.54c1.09-0.51,1.81-0.85,1.81-0.85
					s0.9,1.9,3.39,0.85C397.85,251.12,405.62,255.68,406.42,256.74z"/>
			</g>
			<g>
				<path class="st5" d="M404.69,245.88c-1.32,0.08-2.55,0.05-3.46-0.02c1.77-4.15,3.22-9.45,2.66-10.92
					c0.18,0.29,2.99,4.75,6.22,9.46C408.68,245.37,406.61,245.75,404.69,245.88z"/>
			</g>
			<g>
				<path class="st5" d="M401.23,245.86c-1.14,2.67-2.41,4.85-3.38,5.26c-2.49,1.06-3.39-0.85-3.39-0.85
					c0.02-1.13-0.41-2.86-1.02-4.71c-1.36-4.2-3.64-9.06-3.64-9.06s-1.39-5.53,4.31-6.6c3.1,2.79,9.77,5.02,9.77,5.02
					c0,0.01,0,0.01,0.01,0.02C404.45,236.42,403,241.71,401.23,245.86z"/>
			</g>
			<g>
				<path class="st7" d="M393.44,245.57c0.61,1.85,1.04,3.58,1.02,4.71c0,0-0.72,0.34-1.81,0.85l-4.36-6.88
					c2.68,0.98,4.68,1.48,4.68,1.48L393.44,245.57z"/>
			</g>
			<g>
				<path class="st3" d="M393.44,246.32c-0.32,0-0.61-0.2-0.71-0.52c-1.33-4.11-3.58-8.92-3.61-8.97c-0.02-0.04-0.04-0.09-0.05-0.14
					c-0.03-0.11-0.67-2.77,0.74-4.97c0.85-1.34,2.26-2.2,4.16-2.56c0.41-0.08,0.8,0.19,0.88,0.6c0.08,0.41-0.19,0.8-0.6,0.88
					c-1.48,0.28-2.55,0.91-3.17,1.88c-0.96,1.49-0.64,3.38-0.56,3.74c0.3,0.64,2.37,5.16,3.64,9.07c0.13,0.39-0.09,0.82-0.48,0.95
					C393.59,246.31,393.51,246.32,393.44,246.32z"/>
			</g>
			<g>
				<ellipse class="st3" cx="400.55" cy="170.21" rx="1.85" ry="2.4"/>
			</g>
			<g>
				<path class="st3" d="M401.23,246.61c-0.1,0-0.2-0.02-0.29-0.06c-0.38-0.16-0.56-0.6-0.39-0.98c1.96-4.59,3.04-9.34,2.65-10.35
					c-3.94-8.02-7.86-22.88-7.9-23.03c-0.1-0.4,0.13-0.81,0.54-0.92c0.4-0.1,0.81,0.13,0.92,0.54c0.04,0.15,3.92,14.86,7.82,22.81
					c0.8,2.07-1.2,8.17-2.64,11.54C401.8,246.44,401.52,246.61,401.23,246.61z"/>
			</g>
			<g>
				<path class="st3" d="M417.86,242.77c-0.21,0-0.42-0.09-0.57-0.26c-6.48-7.62-13.04-27.32-13.31-28.16
					c-0.13-0.39,0.08-0.82,0.48-0.95c0.39-0.13,0.82,0.08,0.95,0.48c0.07,0.2,6.74,20.26,13.03,27.66c0.27,0.32,0.23,0.79-0.08,1.06
					C418.2,242.71,418.03,242.77,417.86,242.77z"/>
			</g>
		</g>
		<g>
			<g>
				<rect x="354.54" y="256.54" class="st8" width="86.9" height="4.03"/>
			</g>
			<g>
				<g>
					<path class="st3" d="M441.44,257.29h-86.9c-0.41,0-0.75-0.34-0.75-0.75V154.59c0-24.37,19.83-44.2,44.2-44.2
						s44.2,19.83,44.2,44.2v101.95C442.19,256.96,441.85,257.29,441.44,257.29z M355.29,255.79h85.4v-101.2
						c0-23.54-19.16-42.7-42.7-42.7c-23.54,0-42.7,19.15-42.7,42.7V255.79z"/>
				</g>
				<g>
					<path class="st3" d="M397.99,257.29c-0.41,0-0.75-0.34-0.75-0.75V112.28c-4.46,2.09-22.1,12.01-22.1,37.61v106.65
						c0,0.41-0.34,0.75-0.75,0.75c-0.41,0-0.75-0.34-0.75-0.75V149.89c0-30.22,23.85-39.36,24.09-39.45
						c0.23-0.08,0.49-0.05,0.69,0.09c0.2,0.14,0.32,0.37,0.32,0.62v145.4C398.74,256.96,398.41,257.29,397.99,257.29z"/>
				</g>
				<g>
					<path class="st3" d="M421.21,257.29c-0.41,0-0.75-0.34-0.75-0.75V151.02c-0.01-0.37-1.38-39.14-22.47-39.14
						c-0.41,0-0.75-0.34-0.75-0.75s0.34-0.75,0.75-0.75c22.55,0,23.92,38.96,23.97,40.61v105.54
						C421.96,256.96,421.62,257.29,421.21,257.29z"/>
				</g>
				<g>
					<path class="st3" d="M441.44,214.86h-86.9c-0.41,0-0.75-0.34-0.75-0.75c0-0.41,0.34-0.75,0.75-0.75h86.9
						c0.41,0,0.75,0.34,0.75,0.75C442.19,214.53,441.85,214.86,441.44,214.86z"/>
				</g>
			</g>
		</g>
	</g>
	<g>
		<g>
			<g>
				<rect x="245.62" y="199.37" class="st7" width="5.27" height="190.45"/>
			</g>
			<g>
				<rect x="218.08" y="199.37" class="st7" width="5.27" height="190.45"/>
			</g>
			<g>
				<rect x="190.54" y="199.37" class="st7" width="5.27" height="190.45"/>
			</g>
			<g>
				<rect x="163.01" y="199.37" class="st7" width="5.27" height="190.45"/>
			</g>
			<g>
				<rect x="135.47" y="199.37" class="st7" width="5.27" height="190.45"/>
			</g>
			<g>
				<rect x="107.93" y="199.37" class="st7" width="5.27" height="190.45"/>
			</g>
			<g>
				<rect x="80.39" y="199.37" class="st7" width="5.27" height="190.45"/>
			</g>
			<g>
				<rect x="52.86" y="199.37" class="st7" width="5.27" height="190.45"/>
			</g>
		</g>
		<g>
			
				<rect x="28.04" y="173.59" transform="matrix(-1 -1.224647e-16 1.224647e-16 -1 292.8583 355.8498)" class="st4" width="236.77" height="8.67"/>
		</g>
		<g>
			
				<rect x="28.04" y="182.26" transform="matrix(-1 -1.224647e-16 1.224647e-16 -1 292.8583 381.6346)" class="st5" width="236.77" height="17.11"/>
		</g>
		<g>
			
				<rect x="28.04" y="182.26" transform="matrix(-1 -1.224647e-16 1.224647e-16 -1 292.8583 373.0786)" class="st6" width="236.77" height="8.56"/>
		</g>
		<g>
			<g>
				<rect x="253.95" y="199.37" class="st5" width="5.27" height="190.45"/>
			</g>
			<g>
				<rect x="226.41" y="199.37" class="st5" width="5.27" height="190.45"/>
			</g>
			<g>
				<rect x="198.87" y="199.37" class="st5" width="5.27" height="190.45"/>
			</g>
			<g>
				<rect x="171.33" y="199.37" class="st5" width="5.27" height="190.45"/>
			</g>
			<g>
				<rect x="143.8" y="199.37" class="st5" width="5.27" height="190.45"/>
			</g>
			<g>
				<rect x="116.26" y="199.37" class="st5" width="5.27" height="190.45"/>
			</g>
			<g>
				<rect x="88.72" y="199.37" class="st5" width="5.27" height="190.45"/>
			</g>
			<g>
				<rect x="61.18" y="199.37" class="st5" width="5.27" height="190.45"/>
			</g>
			<g>
				<rect x="33.64" y="199.37" class="st5" width="5.27" height="190.45"/>
			</g>
		</g>
		<g>
			<rect x="28.56" y="389.82" class="st5" width="236.77" height="17.11"/>
		</g>
	</g>
	<g>
		<g>
			<path class="st9" d="M375.01,377.07c0.11-6.89-2.01-14.87-7.03-23.24"/>
		</g>
		<g>
			<path class="st9" d="M75.93,404.79c0,0-9-8.3-5.29-13.46"/>
		</g>
		<g>
			<path class="st9" d="M66.61,405.86c-11.59-4.32-8.11-13.53-8.11-13.53"/>
		</g>
		<g>
			<path class="st9" d="M53.71,401.24c-0.19-0.5-0.26-0.82-0.26-0.82"/>
		</g>
		<g>
			<path class="st9" d="M50.42,427.43c0,0-1.79-10.59,6.7-12.07"/>
		</g>
		<g>
			<path class="st9" d="M41.13,425.28c0,0-2.73-12.78,5.22-14.37"/>
		</g>
		<g>
			<path class="st9" d="M154.49,355.4c0,0,12.74-0.43,18.47,5.31"/>
		</g>
		<g>
			<path class="st9" d="M111.41,388.57c-0.03-0.03-0.06-0.06-0.09-0.09"/>
		</g>
		<g>
			<path class="st9" d="M378.67,413.55c-5.49,5.23-12.76,11.59-55.89,9.98c-5.01-0.19-9.92-0.74-14.64-1.04
				c-7.19-0.45-13.91-0.76-19.67-0.75c-2.32,0-4.49,0.04-6.46,0.15c-0.95,0.05-1.87,0.09-2.76,0.13c-0.48,0.77-1.14,1.51-1.97,1.89
				c-1.39,0.64-20.35,0.97-33.27,1.13c-6.82,0.08-11.96,0.11-11.96,0.11l-6.94-0.4c-2.48,1.7-7.72,0.4-7.72,0.4
				c-2.76,0.62-5.71-0.71-5.71-0.71c-0.39-0.37-0.86-1.02-1.33-1.88c-11.81,1.76-30.35-1.01-30.35-1.01
				c-4.84,4.47-11.51,6.91-21.99,6.17c-4.45-0.31-12.27-0.49-21.04-0.61c-2.13-0.03-4.33-0.05-6.54-0.08
				c-7.78-0.07-15.83-0.13-22.58-0.19c-9.12-0.07-15.9-0.17-16.55-0.4c-1.82-0.64-7.23-4.12-10.62-3.25
				c-3.37,0.87-5.86,6.1-12.11,6.03c-6.26-0.08-17.09,1.05-18.15-1.78c0,0-8.21,0.75-9.29-2.15c0,0-7.13-3.27-7.27-8.8
				c-0.14-5.44,7.92-15.35,19.85-15.24c0.06-0.01,0.12,0,0.18,0c-1.65-2.9-2.71-6.61-2.81-9.23c-0.13-3.22,6.89-9.59,13.74-15.63
				c2.65-2.33,5.28-4.6,7.46-6.62c5.59-5.18,18.34-12.12,25.2-15.67c0.79-14.43,14.34-35.45,14.34-35.45
				c-2.23-2.38-3.73-4.48-3.73-4.48l-1.58,7.38c0,0-3.89-3.31-5.42-9.64c-1.53-6.32,3.59-18.34,3.59-18.34l-6.72,4.15
				c0,0,0.32-4.3,3.4-17.08c1.61-6.68,6.71-12.65,11.21-16.82c0.66-3.31,5.82-9.85,5.82-9.85s-5.93,0.5-8.58-10.4
				c-2.65-10.9,12.87-23.64,15.64-16.98c2.77,6.66,13.03,13.65,13.03,13.65c4.89-1.78,12.59-1.22,15.53-0.93
				c2.96-0.03,10.68,0.1,15.38,2.3c0,0,10.85-6.06,14.18-12.44c3.35-6.4,17.68,7.67,14.08,18.29c-3.6,10.62-9.47,9.6-9.47,9.6
				s4.56,6.96,4.93,10.32c4.12,4.56,8.68,10.96,9.69,17.76c0.83,5.6,1.3,9.59,1.55,12.31c0,0,1.07-0.23,2.9-0.52
				c1.89-0.32,4.57-0.71,7.68-1.01c0.24-0.02,0.48-0.04,0.73-0.06c0.57-0.05,1.17-0.1,1.77-0.14c5.45-0.39,11.81-0.41,17.44,0.72
				c0.79,0.16,1.6,0.32,2.4,0.49c0.93,0.2,1.86,0.39,2.81,0.6c3.41,0.73,6.84,1.52,10,2.28c1.57,0.38,3.08,0.74,4.48,1.09
				c5.58,1.37,9.51,2.41,9.51,2.41s0.17-0.01,0.49-0.04l0.01,0c0.6-0.05,1.76-0.14,3.35-0.25c2.57-0.17,6.27-0.36,10.72-0.5l0.01,0
				c0.88-0.02,1.78-0.04,2.72-0.05c8.49-0.16,19.1,0,29.48,1.12c0,0,0,0,0.01,0c1.82,0.2,3.62,0.43,5.41,0.69
				c3.29,0.49,6.51,1.07,9.59,1.8c1.74,0.41,3.44,0.86,5.07,1.37c5.04,1.53,9.51,3.5,13,6.04c21.38,15.54,44.96,39.55,49.77,61.6
				C395.93,385.2,391.5,401.33,378.67,413.55z"/>
		</g>
		<g>
			<path class="st9" d="M224.55,410.54c0,0-7.09,3.95,0.57,14.22"/>
		</g>
		<g>
			<path class="st9" d="M215.74,408.48c0,0-11.01,6.65,1.67,16.67"/>
		</g>
		<g id="XMLID_00000134207952461340277120000000811520403564683706_">
			<g>
				<g>
					<path class="st3" d="M330.91,380.88l6.44,14.79l-13.75-8.78c-0.93-0.56-1.78-1.21-2.57-1.94l0.69-0.36l7.29-6l1.18-0.14
						C330.36,379.27,330.6,380.07,330.91,380.88z"/>
				</g>
				<g>
					<path class="st3" d="M339.4,333.39c4.96,15.27-12.06,31.16-9.2,45.07l-1.18,0.14c-5.02-3.48-5.13-9.36-5.48-15.17
						c1.23-2.65,2.71-5.15,4.24-7.38C332.55,348.66,338.18,342.38,339.4,333.39z"/>
				</g>
				<g>
					<path class="st3" d="M329.02,378.59l-7.29,6c-2.88-6.94-1.3-14.53,1.81-21.17C323.89,369.24,324,375.12,329.02,378.59z"/>
				</g>
				<g>
					<path class="st3" d="M325.89,306.07c1.74,0.41,3.44,0.86,5.07,1.37c-3.02,3.51-6.09,6.99-8.92,10.53
						c-1.58,1.89-3.14,3.84-5.03,5.84c-0.05-2.75,0.63-5.39,1.66-7.86C320.28,312.22,322.78,308.76,325.89,306.07z"/>
				</g>
				<g>
					<path class="st3" d="M323.35,360.83c0.08,0.85,0.13,1.73,0.19,2.59c-3.11,6.64-4.68,14.23-1.81,21.17l-0.69,0.36
						c-4.28-3.9-6.61-9.95-6.79-15.45c-0.4-5.4,0.57-9.79-0.85-14.73c-2.87-8.95-11.59-15.38-20.42-19.23
						c0.19-0.11,0.37-0.21,0.55-0.33C307.79,335.23,322.68,345.72,323.35,360.83z"/>
				</g>
				<g>
					<path class="st3" d="M310.88,303.59c1.82,0.2,3.62,0.43,5.41,0.69c-4.31,2.34-8.12,5.45-11.48,8.89
						c-8.04,8.23-13.5,18.79-19.76,28.62c-0.01,0.01-0.02,0.03-0.03,0.04c-2.55,2.69-4.31,5.43-5.37,7.79
						c-0.04,0.1-0.09,0.2-0.13,0.29l0,0.01c-5.98,8.04-13.26,15.26-22.45,19.44c-0.61,0.28-1.24,0.55-1.87,0.8l-22.54,9.21
						l17.13-17.23c0.47-0.48,0.93-0.96,1.39-1.45c8.04-8.57,14.06-18.91,17.75-30.1c2.83-8.79,4.44-19.8,9.73-28.08l0.01,0
						c0.88-0.02,1.78-0.04,2.72-0.05c-3.85,9.27-3.27,19.68-5.43,29.97c-0.69,3.39-1.62,6.73-2.79,10.01
						c8.79-11.31,16.44-24.65,28.14-33.29c2.93-2.18,6.15-4.1,9.56-5.56C310.87,303.59,310.87,303.59,310.88,303.59z"/>
				</g>
				<g>
					<path class="st10" d="M279.25,422.02c-24.37,0.8-27.89-6.91-24.19-15.61c0.84-1.97,3.55-3.47,7.57-4.6
						c1.57-0.44,3.34-0.82,5.28-1.16c1.46-0.26,3.02-0.48,4.65-0.67c3.18-0.38,6.67-0.67,10.36-0.88c3.41,3.58,8.27,11,5.55,22.64
						c-2.32,0-4.49,0.04-6.46,0.15C281.06,421.94,280.15,421.98,279.25,422.02z"/>
				</g>
				<g>
					<path class="st3" d="M267.94,303.01c-1.1,13.17-4.86,27.62-11.41,38.17c0.66-8.17,2.23-15.93,4.04-23.84
						c1.15-4.74,2.4-9.47,4.01-14.08l0.01,0C265.19,303.21,266.34,303.12,267.94,303.01z"/>
				</g>
				<g>
					<path class="st3" d="M254.57,300.88c-3.07,12.31-1.44,25.5-4.5,38.33c-3.65,16.12-15.71,29.86-31,36.02
						c-0.77,0.32-1.57,0.61-2.36,0.89l-17.89,6.35l12.48-14.23c0.5-0.57,0.96-1.16,1.41-1.78c3.08-4.35,4.8-9.93,5.39-15.75
						c1.59-16.06-5-33.43-3.78-49.85c0.09-0.35,0.17-0.69,0.27-1.03l1.1-4c0.57-0.05,1.17-0.1,1.77-0.14
						c0.21,14.81,6.83,29.01,9.06,43.83c1.02,6.53,1.05,13.54-0.46,20.13c2.83-2.27,5.43-4.85,7.68-7.72
						c2.26-2.85,4.19-5.97,5.7-9.28c5.97-13.32,5.04-29.33,10.67-42.87C251.67,300.17,253.17,300.53,254.57,300.88z"/>
				</g>
				<g>
					<path class="st10" d="M210.36,422.56c-2.14-3.87-4.56-11.99-2.1-17.01c2-4.08,13.81-5.75,25.28-6.52c0,0,0,0,0.01,0
						c0.45,0.22,13.06,6.4,10.46,26.01c-6.82,0.08-11.96,0.11-11.96,0.11l-6.94-0.4c-2.48,1.7-7.72,0.4-7.72,0.4
						c-2.76,0.62-5.71-0.71-5.71-0.71C211.3,424.07,210.84,423.42,210.36,422.56z"/>
				</g>
				<g>
					<path class="st3" d="M240.09,297.51c-2.19,17.73,2.91,37.41-8.28,52.34c3.14-10.3,2.53-20.42,2.61-31.02
						c0.09-7.13,0.44-14.98,2.86-21.92C238.22,297.11,239.15,297.3,240.09,297.51z"/>
				</g>
				<g>
					<path class="st3" d="M214.95,295.9c-0.29,1.64-0.5,3.3-0.63,4.97c-0.01,0.03-0.02,0.07-0.01,0.1l-0.01,0
						c-1.24,5.03-1.57,10.44-1.63,15.98c-0.1,9,0.48,18.86-1.64,27.92c-2.01,9.18-7.33,18.56-16.32,22.3
						c11.74-9.67,12.3-22.8,11.51-36.49c-0.18,0.43-0.37,0.84-0.57,1.27c-9.61,20.42-39.02,20.92-47.24-0.47
						c9.07,13.7,28.64,15.32,38.35,1.64c4.92-7.3,4.4-16.3,6.27-24.89c0.39-1.91,0.91-3.89,1.63-5.83l0.04,0.03c0,0,0-0.04,0-0.12
						c-0.01-0.01,0-0.02,0-0.02c0.57-1.56,1.26-3.1,2.09-4.58c0.15-0.27,0.3-0.54,0.48-0.8C209.15,296.59,211.83,296.2,214.95,295.9
						z"/>
				</g>
				<g>
					<path class="st10" d="M193.13,267.36c4.12,4.56,8.68,10.96,9.69,17.76c0.83,5.6,1.3,9.59,1.55,12.31
						c0.28,2.96,0.32,4.43,0.33,4.86c0,0-0.01,0.01,0,0.02c-0.02,0.03-0.03,0.06-0.03,0.09l-6.29-4.69c0,0,4.03,12.42,1.96,18.58
						c-2.09,6.17-6.25,9.12-6.25,9.12l-0.92-7.49c0,0-8.15,9.54-14.48,9.7l-0.2-4.92c0,0-7.94,2.35-11.34,0.4l0-0.01
						c5.23-1.86,9.05-5.55,9.5-10.21c0.04-0.36,0-0.73-0.08-1.1c2.6,0.02,10.07-0.8,14.67-9.94c5.57-11.07-4.99-40.5-5.26-41.26
						C186.19,260.73,189.48,263.33,193.13,267.36z"/>
				</g>
				<g>
					<path class="st10" d="M189.34,235.45c0,0,8.06,5.61,4.57,12.1c-3.48,6.48-7.71,7.66-7.71,7.66s-6.86-9.49-11.47-11.29
						C174.73,243.93,188.01,242.94,189.34,235.45z"/>
				</g>
				<g>
					<path class="st3" d="M187.36,291.55c2.98,3,2.39,8.15-0.26,11.27c-2.61,3.15-7.59,4.61-11.06,2.18
						c3.06-1.57,5.21-3.06,7.24-5.41C185.25,297.22,186.36,294.83,187.36,291.55z"/>
				</g>
				<g>
					<path class="st3" d="M183.78,264.67c3.74,6.36,5.76,14.03,3.49,21.4c-1.66,5.7-6.67,10.72-12.79,10.98
						c-1.95,0.08-3.91-0.33-5.45-1.33c6.9-0.26,11.58-4.99,13.47-11.14C184.54,278.23,183.56,271.47,183.78,264.67z"/>
				</g>
				<g>
					<path class="st10" d="M176.64,312.88c-0.45,4.66-4.27,8.35-9.5,10.21c-0.82,0.3-1.69,0.56-2.58,0.76
						c-1.27,0.28-2.6,0.21-3.93-0.11c-0.78-0.17-1.57-0.44-2.33-0.76c-3.39-1.43-6.42-3.94-7.75-5.14
						c-1.42,1.07-4.67,3.31-8.18,4.43c-2.12,0.68-4.34,0.96-6.31,0.32c-0.87-0.28-1.7-0.61-2.5-0.97
						c-5.04-2.33-8.54-6.33-8.57-11.02c0-0.36,0.06-0.73,0.18-1.09c1.6-5.06,13.76-9.98,13.76-9.98s-1.13,1.25-1.68,4.47
						c-0.47,2.67,9.92,7.8,13.48,9.48c3.69-1.36,14.5-5.54,14.28-8.25c-0.28-3.26-1.29-4.6-1.29-4.6s11.69,5.96,12.83,11.16
						C176.64,312.15,176.68,312.52,176.64,312.88z"/>
				</g>
				<g>
					<path class="st3" d="M165.86,373.25c0.64,1.86,0.86,3.89,0.23,5.85c-1.41-1.46-2.51-2.7-3.63-3.87
						c-3.18-3.43-7.09-6.91-10.63-10.03C157.69,363.38,163.96,367.76,165.86,373.25z"/>
				</g>
				<g>
					<path class="st3" d="M140.37,374.5c13.04-1.99,25.78,11.74,22.78,24.6c-1.31-2.89-2.58-5.49-4.07-7.89
						C154.62,383.71,148.13,378.58,140.37,374.5z"/>
				</g>
				<g>
					<path class="st10" d="M136.4,383.91c0,0,22.92,17.48,21.61,43.81c-9.35-0.65-33.62-0.73-50.17-0.88
						c4.56-21.22-5.9-36.5-5.9-36.5l10.34-1.93L136.4,383.91z"/>
				</g>
				<g>
					<path class="st10" d="M150.17,326.31c4.57-0.1,7.01-2.05,8.14-3.34c0.76,0.32,1.55,0.59,2.33,0.76
						c-3.1,2.21-11.44,10.35-6.15,31.67c0,0-17.23,13.43-18.09,28.51l-24.12,4.5c0,0-15.46-19.6-14.82-34.05
						c0-0.09,0.01-0.18,0.02-0.27c0.79-14.43,14.34-35.45,14.34-35.45c2.67,2.84,6.4,6.07,9.84,6.46l0.63-4.89
						c0,0,7.7,3.04,11.27,1.4c0.79,0.37,1.63,0.69,2.5,0.97c1.97,0.64,4.19,0.36,6.31-0.32
						C143.38,323.65,145.63,325.8,150.17,326.31z"/>
				</g>
				<g>
					<path class="st3" d="M165.1,258.26c-1.93-0.33-3.7-0.63-5.46-0.81c-5.41-0.63-10.52-0.09-15.87,1.03
						C149.18,252.84,159.58,252.7,165.1,258.26z"/>
				</g>
				<g>
					<path class="st10" d="M158.31,322.97c-1.13,1.29-3.57,3.25-8.14,3.34c-4.54-0.51-6.79-2.66-7.8-4.05
						c3.51-1.13,6.77-3.36,8.18-4.43C151.88,319.03,154.92,321.54,158.31,322.97z"/>
				</g>
				<g>
					<path class="st3" d="M170.96,249.4c-10.39-3.4-21.14-3.95-31.81-1.59C148.41,241.3,162.41,241.98,170.96,249.4z"/>
				</g>
				<g>
					<path class="st3" d="M146.77,251.31c4.06-3.59,10.95-3.62,15.03-0.02C156.64,251.79,151.93,251.79,146.77,251.31z"/>
				</g>
				<g>
					<path class="st10" d="M112.59,263.81c3.99-3.71,7.51-6,7.74-6.14c-0.33,0.74-13.45,29.11-8.89,40.64
						c3.77,9.52,11.14,10.98,13.73,11.2c-0.12,0.37-0.18,0.73-0.18,1.09c0.03,4.69,3.53,8.69,8.57,11.02
						c-3.57,1.64-11.27-1.4-11.27-1.4l-0.63,4.89c-3.45-0.39-7.18-3.62-9.84-6.46c-2.23-2.38-3.73-4.48-3.73-4.48l-1.58,7.38
						c0,0-3.89-3.31-5.42-9.64c-1.53-6.32,3.59-18.34,3.59-18.34l-6.72,4.15c0,0,0.32-4.3,3.4-17.08
						C102.98,273.95,108.08,267.98,112.59,263.81z"/>
				</g>
				<g>
					<path class="st3" d="M134.09,294.16c-1.62,0.86-3.6,1.1-5.53,0.85c-6.08-0.8-10.61-6.24-11.78-12.06
						c-1.61-7.54,1.08-15,5.37-21c-0.38,6.8-1.97,13.45-0.49,19.94C123,288.16,127.24,293.29,134.09,294.16z"/>
				</g>
				<g>
					<path class="st10" d="M119.19,232.35c0.67,7.58,13.8,9.73,13.8,9.73c-4.76,1.38-12.41,10.23-12.41,10.23s-4.11-1.54-7.01-8.31
						C110.66,237.23,119.19,232.35,119.19,232.35z"/>
				</g>
				<g>
					<path class="st3" d="M126.28,302.8c-3.66,2.11-8.5,0.21-10.82-3.15c-2.36-3.34-2.49-8.52,0.74-11.25
						c0.71,3.35,1.61,5.84,3.36,8.38C121.37,299.29,123.38,300.97,126.28,302.8z"/>
				</g>
				<g>
					<path class="st10" d="M70.46,406.77c-2.13-0.13-3.85-0.91-3.85-0.91s-4.59,1.1-8.52-0.38c-1.6-0.6-3.04-2.24-4.2-4.25
						c-1.65-2.9-2.71-6.61-2.81-9.23c-0.13-3.22,6.89-9.59,13.74-15.63l0.01,0.01c0,0,25.13-4.59,28.97,15.47
						c0,0-2.59,4.99-6.02,9.19c-3.43,4.21-11.86,3.75-11.86,3.75C74.39,406.53,72.28,406.88,70.46,406.77z"/>
				</g>
				<g>
					<path class="st10" d="M70.46,406.77c0.43,0.24,11.42,6.54,10.21,16.41c-3.37,0.87-5.86,6.1-12.11,6.03
						c-6.26-0.08-17.09,1.05-18.15-1.78c0,0-8.21,0.75-9.29-2.15c0,0-7.13-3.27-7.27-8.8c-0.14-5.47,8-15.45,20.03-15.24
						c1.15,2.01,2.59,3.65,4.2,4.25c3.93,1.48,8.52,0.38,8.52,0.38S68.34,406.64,70.46,406.77z"/>
				</g>
			</g>
		</g>
		<g>
			<path class="st3" d="M233.55,399.78c-0.39,0-0.72-0.3-0.75-0.7c-0.03-0.41,0.28-0.77,0.7-0.8c5.85-0.39,11.59-0.55,15.77-0.67
				c0.85-0.03,1.61-0.07,2.34-0.14c1.71-0.16,3.48-0.44,5.26-0.84c6.48-1.47,11.71-4.17,14.24-5.65c0.43-0.25,0.77-0.46,1.01-0.61
				c-2.2-8.18,2.44-30.95,6.68-40.7c0.01-0.03,0.02-0.06,0.04-0.09c11.33-23.01,37.99-20.9,38.25-20.88
				c0.41,0.04,0.72,0.4,0.68,0.81c-0.04,0.41-0.39,0.72-0.81,0.68c-0.26-0.02-25.86-2.02-36.74,19.99c0,0.01-0.01,0.03-0.01,0.04
				c-4.58,10.47-8.78,33.46-6.49,40.23c0.11,0.32-0.01,0.67-0.29,0.86c0,0-0.55,0.38-1.56,0.96c-2.61,1.52-7.99,4.31-14.67,5.82
				c-1.84,0.42-3.68,0.71-5.45,0.87c-0.76,0.07-1.55,0.12-2.43,0.15c-4.18,0.12-9.89,0.27-15.72,0.66
				C233.59,399.78,233.57,399.78,233.55,399.78z"/>
		</g>
		<g>
			<path class="st3" d="M324.16,401.02c-20.03,0-39.72-1.08-41.28-1.17c-0.41-0.02-0.73-0.38-0.71-0.79
				c0.02-0.42,0.38-0.75,0.79-0.71c0.73,0.04,73.04,4,82.7-3.01c8.83-6.41,13.12-22.01,1.66-41.13c-0.21-0.36-0.1-0.82,0.26-1.03
				c0.36-0.21,0.82-0.1,1.03,0.26c11.95,19.92,7.3,36.32-2.07,43.11C361.68,400.08,342.78,401.02,324.16,401.02z"/>
		</g>
		<g>
			<path class="st3" d="M180.01,422.29c-0.19,0-0.39-0.07-0.53-0.22c-0.29-0.29-0.29-0.77,0-1.06c0.16-0.16,15.63-15.92,11.56-41.66
				c-0.06-0.41,0.21-0.79,0.62-0.86c0.4-0.06,0.79,0.21,0.86,0.62c4.19,26.52-11.82,42.8-11.98,42.96
				C180.39,422.22,180.2,422.29,180.01,422.29z"/>
		</g>
		<g>
			<path class="st3" d="M93.81,392.6c-0.35,0-0.67-0.25-0.74-0.61c-0.08-0.41,0.19-0.8,0.6-0.88l42.59-7.94
				c0.4-0.08,0.8,0.19,0.88,0.6c0.08,0.41-0.19,0.8-0.6,0.88l-42.59,7.94C93.9,392.6,93.85,392.6,93.81,392.6z"/>
		</g>
		<g>
			<path class="st3" d="M70.76,407.54c-2.51,0-4.47-1-4.5-1.01c-3.98-1.48-6.73-3.75-8.08-6.72c-1.78-3.92-0.44-7.58-0.38-7.74
				c0.15-0.39,0.58-0.58,0.96-0.44c0.39,0.14,0.58,0.58,0.44,0.96c-0.13,0.35-3.04,8.57,7.67,12.56c0.26,0.13,4.39,2.21,7.93-0.41
				c-2.05-2.07-8.26-9-4.78-13.85c0.24-0.34,0.71-0.41,1.05-0.17c0.34,0.24,0.41,0.71,0.17,1.05c-3.28,4.57,5.1,12.39,5.19,12.47
				c0.15,0.14,0.24,0.34,0.24,0.55c0,0.21-0.09,0.41-0.24,0.55C74.59,407.04,72.54,407.54,70.76,407.54z"/>
		</g>
		<g>
			<path class="st3" d="M61.72,407.51c-1.74,0-3.3-0.38-4.66-1.15c-3.45-1.94-4.3-5.62-4.34-5.77c-0.09-0.4,0.16-0.8,0.57-0.9
				c0.4-0.08,0.8,0.16,0.9,0.57l0,0c0.01,0.03,0.76,3.2,3.63,4.8c2.2,1.23,5.08,1.26,8.56,0.09c0.39-0.13,0.82,0.08,0.95,0.47
				c0.13,0.39-0.08,0.82-0.47,0.95C65,407.2,63.28,407.51,61.72,407.51z"/>
		</g>
		<g>
			<path class="st3" d="M50.42,428.18c-0.36,0-0.68-0.26-0.74-0.63c-0.02-0.11-1.8-11.35,7.31-12.93c0.41-0.06,0.8,0.2,0.87,0.61
				c0.07,0.41-0.2,0.8-0.61,0.87c-7.64,1.33-6.15,10.8-6.09,11.2c0.07,0.41-0.21,0.79-0.62,0.86
				C50.5,428.17,50.46,428.18,50.42,428.18z"/>
		</g>
		<g>
			<path class="st3" d="M41.13,426.02c-0.35,0-0.66-0.24-0.73-0.59c-0.07-0.32-1.62-7.8,1.3-12.24c1.06-1.62,2.58-2.63,4.51-3.02
				c0.4-0.08,0.8,0.18,0.88,0.59c0.08,0.41-0.18,0.8-0.59,0.88c-1.54,0.31-2.71,1.09-3.55,2.37c-2.58,3.92-1.1,11.04-1.09,11.11
				c0.09,0.41-0.17,0.8-0.58,0.89C41.23,426.02,41.18,426.02,41.13,426.02z"/>
		</g>
		<g>
			<path class="st3" d="M162.93,324.77c-0.79,0-1.62-0.1-2.47-0.31c-0.79-0.18-1.62-0.45-2.45-0.8c-3.21-1.35-6.07-3.62-7.5-4.86
				c-1.54,1.11-4.6,3.12-7.91,4.18c-2.59,0.83-4.87,0.93-6.77,0.32c-0.88-0.28-1.75-0.62-2.58-1c-5.61-2.59-8.97-6.96-9.01-11.7
				c0-0.42,0.07-0.87,0.21-1.33c0.13-0.39,0.55-0.61,0.94-0.49c0.39,0.13,0.61,0.55,0.49,0.94c-0.1,0.31-0.15,0.59-0.14,0.86
				c0.03,4.14,3.07,8.01,8.13,10.35c0.78,0.36,1.59,0.67,2.42,0.94c1.6,0.51,3.57,0.41,5.85-0.32c3.5-1.12,6.73-3.39,7.96-4.32
				c0.29-0.22,0.69-0.2,0.95,0.04c1.14,1.03,4.15,3.57,7.54,5c0.75,0.32,1.49,0.56,2.2,0.72c1.32,0.32,2.53,0.36,3.6,0.11
				c0.86-0.19,1.7-0.44,2.48-0.73c5.25-1.87,8.62-5.45,9.01-9.58c0.03-0.26,0-0.56-0.07-0.87c-0.09-0.4,0.16-0.8,0.57-0.9
				c0.41-0.09,0.81,0.17,0.9,0.57c0.11,0.47,0.14,0.92,0.1,1.34c-0.45,4.72-4.19,8.77-10,10.84c-0.84,0.31-1.73,0.57-2.66,0.78
				C164.15,324.7,163.55,324.77,162.93,324.77z"/>
		</g>
		<g>
			<path class="st3" d="M150.17,327.06c-0.03,0-0.06,0-0.08,0c-4.64-0.52-7.08-2.66-8.32-4.35c-0.24-0.33-0.17-0.8,0.16-1.05
				c0.33-0.24,0.8-0.17,1.05,0.17c1.06,1.45,3.17,3.27,7.23,3.74c4.09-0.1,6.35-1.73,7.54-3.09c0.27-0.31,0.75-0.35,1.06-0.07
				c0.31,0.27,0.34,0.75,0.07,1.06c-1.14,1.3-3.77,3.49-8.68,3.6C150.18,327.06,150.18,327.06,150.17,327.06z"/>
		</g>
		<g>
			<path class="st3" d="M172.96,361.47c-0.19,0-0.38-0.07-0.53-0.22c-5.43-5.45-17.79-5.11-17.91-5.09
				c-0.42-0.01-0.76-0.31-0.77-0.72c-0.01-0.41,0.31-0.76,0.72-0.78c0.53-0.02,13.13-0.38,19.02,5.54c0.29,0.29,0.29,0.77,0,1.06
				C173.34,361.39,173.15,361.47,172.96,361.47z"/>
		</g>
		<g>
			<path class="st3" d="M130.43,427.53c-0.35,0-0.67-0.25-0.74-0.61c-2.69-14.16-9.24-27.28-18.93-37.94
				c-0.28-0.31-0.26-0.78,0.05-1.06c0.31-0.28,0.78-0.26,1.06,0.05c9.88,10.87,16.55,24.24,19.29,38.67c0.08,0.41-0.19,0.8-0.6,0.88
				C130.53,427.53,130.48,427.53,130.43,427.53z"/>
		</g>
		<g>
			<path class="st3" d="M136.99,427.35c-0.02,0-0.05,0-0.07,0c-0.41-0.04-0.71-0.41-0.67-0.82c1.38-14.01,0.29-28.02-3.24-41.65
				c-0.1-0.4,0.14-0.81,0.54-0.91c0.4-0.1,0.81,0.14,0.91,0.54c3.58,13.8,4.68,27.98,3.28,42.17
				C137.7,427.06,137.37,427.35,136.99,427.35z"/>
		</g>
		<g>
			<path class="st3" d="M225.12,425.5c-0.23,0-0.45-0.1-0.6-0.3c-3.01-4.02-4.2-7.63-3.54-10.71c0.68-3.18,3.1-4.56,3.2-4.62
				c0.36-0.2,0.82-0.07,1.02,0.29c0.2,0.36,0.07,0.82-0.29,1.02l0,0c-0.08,0.04-1.95,1.14-2.47,3.65c-0.55,2.63,0.55,5.82,3.28,9.46
				c0.25,0.33,0.18,0.8-0.15,1.05C225.43,425.45,225.28,425.5,225.12,425.5z"/>
		</g>
		<g>
			<path class="st3" d="M217.4,425.9c-0.16,0-0.33-0.05-0.46-0.16c-4.45-3.52-6.59-7.06-6.38-10.54c0.29-4.6,4.6-7.25,4.78-7.36
				c0.35-0.21,0.81-0.1,1.03,0.25c0.21,0.35,0.1,0.82-0.25,1.03c-0.04,0.02-3.83,2.37-4.06,6.18c-0.18,2.96,1.77,6.07,5.81,9.26
				c0.33,0.26,0.38,0.73,0.12,1.05C217.85,425.8,217.63,425.9,217.4,425.9z"/>
		</g>
		<g>
			<path class="st11" d="M138.93,299.52c0,0,5.19-36.61,14.03-36.21c8.84,0.39,10.77,37.31,10.77,37.31S151.45,305.91,138.93,299.52
				z"/>
		</g>
		<g>
			<path class="st12" d="M150.74,313.46c-3.56-1.68-13.95-6.8-13.48-9.48c0.55-3.22,1.68-4.47,1.68-4.47s15.39,4.71,24.8,1.1
				c0,0,1.01,1.35,1.29,4.6C165.24,307.92,154.43,312.11,150.74,313.46z"/>
		</g>
		<g>
			<path class="st3" d="M137.85,276.38c-0.09,2.03-1.82,3.61-3.87,3.52c-2.05-0.09-3.63-1.81-3.54-3.84
				c0.09-2.03,1.82-3.61,3.87-3.52C136.35,272.62,137.94,274.34,137.85,276.38z"/>
		</g>
		<g>
			<path class="st3" d="M175.83,278.43c-0.09,2.03-1.82,3.61-3.87,3.52c-2.04-0.09-3.63-1.81-3.54-3.84
				c0.09-2.03,1.82-3.61,3.87-3.52C174.34,274.68,175.92,276.4,175.83,278.43z"/>
		</g>
		<g>
			<path class="st3" d="M121.67,325.85c-0.03,0-0.06,0-0.09,0c-3.72-0.42-7.66-3.87-10.31-6.69c-2.24-2.39-3.73-4.47-3.79-4.56
				c-0.24-0.34-0.16-0.8,0.17-1.05c0.34-0.24,0.81-0.16,1.05,0.17c0.01,0.02,1.5,2.09,3.66,4.4c2.29,2.44,5.58,5.38,8.65,6.1
				l0.53-4.11c0.03-0.23,0.16-0.43,0.36-0.55c0.2-0.12,0.44-0.14,0.66-0.05c2.06,0.81,8,2.65,10.68,1.42c0.38-0.17,0.82-0.01,1,0.37
				c0.17,0.38,0.01,0.82-0.37,0.99c-3.09,1.43-8.76-0.29-10.96-1.05l-0.51,3.96C122.36,325.57,122.04,325.85,121.67,325.85z"/>
		</g>
		<g>
			<path class="st3" d="M140.02,275.83c-0.15,0-0.31-0.05-0.44-0.15c-5.92-4.37-10.62-2.07-10.67-2.04
				c-0.37,0.19-0.82,0.04-1.01-0.33c-0.19-0.37-0.04-0.82,0.33-1.01c0.23-0.11,5.58-2.74,12.24,2.17c0.33,0.25,0.4,0.72,0.16,1.05
				C140.47,275.73,140.25,275.83,140.02,275.83z"/>
		</g>
		<g>
			<path class="st3" d="M165.75,277.53c-0.25,0-0.5-0.13-0.64-0.36c-0.22-0.35-0.1-0.82,0.25-1.03c7.07-4.31,12.17-1.21,12.38-1.08
				c0.35,0.22,0.46,0.68,0.24,1.03c-0.22,0.35-0.68,0.46-1.03,0.24l0,0c-0.18-0.12-4.57-2.72-10.81,1.09
				C166.02,277.5,165.88,277.53,165.75,277.53z"/>
		</g>
	</g>
	<g>
		<g>
			<path class="st13" d="M292.31,175.09c-0.01,0-0.01,0-0.01,0.01c-3.6,4.1-8.09,7.96-9.55,8.87c-2.4,1.49-6.67,1.6-6.67,1.6
				s-4.28-0.11-6.68-1.6c-1.64-1.02-7.09-5.76-10.82-10.38c-1.72-2.13-3.07-4.24-3.51-5.94c-0.27-1.05-0.51-5.32-0.74-7.06
				c-0.73-0.32-1.73-0.78-2.05-0.94c-0.73-0.34-1.42-0.76-2.05-1.26c-2.38-1.85-4.04-4.59-4.56-7.55c-0.36-2.02-0.19-4.18,0.72-6.04
				c0.4-0.83,0.94-1.59,1.6-2.23c0.24-0.33,0.5-0.55,0.8-0.68c0.34-0.25,0.7-0.47,1.07-0.66c0.34-0.17,0.69-0.31,1.05-0.41
				c0.67-0.19,1.39-0.27,2.09-0.23h0.01c0.13-2.18,0.59-8.46,2.06-13.61c2.1-7.32,6.37-9.22,8.77-8.92
				c2.4,0.31,5.07,1.76,12.24,1.76c7.17,0,9.83-1.45,12.23-1.76c2.4-0.3,6.67,1.6,8.77,8.92c1.48,5.15,1.93,11.43,2.07,13.61h0.01
				c0.7-0.04,1.41,0.04,2.08,0.23c0.36,0.1,0.72,0.24,1.05,0.41c0.38,0.18,0.74,0.41,1.07,0.66c0.3,0.13,0.57,0.35,0.8,0.68
				c0.66,0.64,1.21,1.4,1.6,2.23c0.91,1.86,1.08,4.02,0.72,6.04c-0.51,2.96-2.17,5.7-4.56,7.55c-0.63,0.5-1.32,0.92-2.04,1.26
				c-0.3,0.16-1.27,0.56-2.05,0.87c-0.22,1.77-0.47,6.07-0.75,7.13C296.53,169.75,294.6,172.47,292.31,175.09z"/>
		</g>
		<g>
			<path class="st3" d="M292.3,175.11c-3.24,8.74-15.26,21.81-24.01,16.39s-9.71-17.91-9.71-17.91c3.73,4.62,9.18,9.36,10.82,10.38
				c2.4,1.49,6.68,1.6,6.68,1.6s4.27-0.11,6.67-1.6C284.21,183.06,288.7,179.2,292.3,175.11L292.3,175.11z"/>
		</g>
		<g>
			<path class="st13" d="M268.29,191.5c8.75,5.42,20.77-7.65,24.01-16.39c0.35,2.87,1.08,8.92,1.47,10.46
				c-2.87,11.23-10.39,16.49-10.39,16.49l-8.33,10.98l-8.31-10.56c-4.67-7.58-9.8-16.91-9.8-16.91c0.51-2.04,1.64-11.98,1.64-11.98
				S259.54,186.08,268.29,191.5z"/>
		</g>
		<g>
			<path class="st14" d="M227.11,399.73c-1.73-0.87-3.48-2-4.54-3.35c-2.72-3.48-4.17-25.02-8.07-50.6
				c-3.89-25.57-5.63-51.36,2.78-57.96c2.66-2.09,6.11-3.93,9.93-5.22c8.26-2.82,18.24-3.07,25.66,2.3
				c10.84,7.86,14.45,35.59,14.45,35.59s26.27,2.15,37.11,8.2c9.02,5.02,19.2,1.69,22.36,0.43c4.96,9.71,19.88,39.45,27.68,61.14
				c9.45,26.27,6.4,36.7,6.4,36.7c-4.24,8.96-15.43,13.97-29.89,9.45c-14.45-4.52-59.63-28.77-61.3-30.44
				c-1.66-1.67-2.71-2.3-3.33-6.26c-0.63-3.96,2.64-8.89,2.64-8.89s-1.18-7.37-1.81-11.68c-0.62-4.31,5.15-7.78,5.15-7.78
				s0,0-0.01-0.01l-10.97-12.5c0,0,0.23,4.39,0.46,10.25c0.44,10.99,0.85,27.14-0.33,29.22c-0.45,0.81-1.14,1.37-1.93,1.77
				c-2.32,1.18-5.43,0.87-5.43,0.87s-6.12,4.24-10.98,4.31c-4.87,0.07-10.67-3.47-10.67-3.47S229.8,401.08,227.11,399.73z"/>
		</g>
		<g>
			<path class="st2" d="M326.79,329.12c-3.16,1.26-13.34,4.59-22.36-0.43c-10.84-6.05-37.11-8.2-37.11-8.2s-3.61-27.73-14.45-35.59
				c-7.42-5.37-17.4-5.12-25.66-2.3c0.08-1.68,0.54-7.61,0.54-7.61l-0.27-36.33c-14.37,0.61-22.98-2.59-22.98-2.59
				c0.37-3.71,3.24-22.75,3.24-22.75c3.1-13.39,9.82-17.47,16.68-19.32s32.01-6.4,32.52-8.43c0,0,6.13,7.33,10.8,14.91l7.31,7.07
				l6.33-6.49c0,0,9.52-4.26,12.39-15.49c0.51,2.03,25.67,6.58,32.53,8.43c6.85,1.85,13.57,5.93,16.68,19.32
				c0,0,2.87,19.04,3.24,22.75c0,0-8.62,3.2-22.98,2.59l-0.28,36.33c0,0,0.56,7.13,0.56,7.97c0,0,4.54,23.56,4.27,26.13
				c-0.28,2.57-2.51,8.89-2.51,8.89c0.42,2.51,2.51,10.71,2.51,10.71S327.44,328.86,326.79,329.12z"/>
		</g>
		<g>
			<path class="st3" d="M276.08,104.14c33.53,0,26.21,37.09,26.21,37.09c-0.33-0.17-0.69-0.31-1.05-0.41
				c-0.67-0.19-1.38-0.27-2.08-0.23h-0.01c-0.14-2.18-0.59-8.46-2.07-13.61c-2.1-7.32-6.37-9.22-8.77-8.92
				c-2.4,0.31-5.06,1.76-12.23,1.76c-7.17,0-9.84-1.45-12.24-1.76c-2.4-0.3-6.67,1.6-8.77,8.92c-1.47,5.15-1.93,11.43-2.06,13.61
				H253c-0.7-0.04-1.42,0.04-2.09,0.23c-0.36,0.1-0.71,0.24-1.05,0.41C249.86,141.23,242.54,104.14,276.08,104.14z"/>
		</g>
		<g>
			<path class="st15" d="M274.64,429.83c0.09,1.79,0,3.5-0.13,4.92c-3.8,1.01-8.93,1.31-12.98,1.34
				c-1.39-7.26-4.51-17.28-4.51-17.28l2.53-18.72c0.79-0.4,1.48-0.96,1.93-1.77c1.18-2.08,0.77-18.23,0.33-29.22
				c4.28-1.03,10.19,2.08,10.51,2.25c0.01,0.01,0.01,0.01,0.01,0.01s-5.77,3.47-5.15,7.78c0.63,4.31,1.81,11.68,1.81,11.68
				s-3.27,4.93-2.64,8.89l-3.01,17.33C263.34,417.04,274.41,425.1,274.64,429.83z"/>
		</g>
		<g>
			<path class="st16" d="M274.51,434.75c-0.24,2.31-0.61,3.88-0.61,3.88s-3.08,2.16-11.79,1.34c-0.1-1.12-0.31-2.45-0.58-3.88
				C265.58,436.06,270.71,435.76,274.51,434.75z"/>
		</g>
		<g>
			<g>
				<path class="st17" d="M303.63,128.41c0.12,0.07,0.18,0.11,0.18,0.11s-3.56,4.93-5.75,5.49c-2.19,0.55-10.51-5.22-21.14-5.22
					l-0.84-0.04l-0.85,0.04c-10.63,0-18.95,5.77-21.14,5.22c-2.19-0.56-5.75-5.49-5.75-5.49s0.06-0.04,0.19-0.11
					c0.29-0.16,0.9-0.49,1.81-0.92c1.3-0.63,3.19-1.47,5.58-2.31c0.27-0.1,0.55-0.19,0.83-0.27c4.7-1.59,11.11-3.08,18.48-3.08
					c0.29,0,0.57,0,0.85,0.01c8.4,0.11,15.49,1.83,20.14,3.34c2.39,0.83,4.29,1.67,5.59,2.31
					C302.73,127.92,303.34,128.26,303.63,128.41z"/>
			</g>
			<g>
				<path class="st2" d="M298.41,108.01c3.24,3.34,5.05,18.94,5.22,20.4c-0.29-0.15-0.9-0.49-1.82-0.92
					c-1.3-0.64-3.2-1.48-5.59-2.31c-4.65-1.51-11.74-3.23-20.14-3.34c-0.28-0.01-0.56-0.01-0.85-0.01c-7.37,0-13.78,1.49-18.48,3.08
					c-0.28,0.08-0.56,0.17-0.83,0.27c-2.39,0.84-4.28,1.68-5.58,2.31c-0.91,0.43-1.52,0.76-1.81,0.92
					c0.17-1.45,1.98-17.05,5.22-20.4c3.41-3.51,13.9-7.57,22.33-7.57S295,104.5,298.41,108.01z"/>
			</g>
		</g>
		<g>
			<path class="st15" d="M261.53,436.09c0.27,1.43,0.48,2.76,0.58,3.88c0.11,1.05,0.11,1.91,0,2.52c-0.22,1.21-0.57,2.4-0.96,3.51
				c-12.43,5.26-38.29,0-38.29,0c-0.18-0.9-0.3-1.91-0.3-2.97c0-5.09,7.18-21.11,7.18-21.11l-2.63-22.19
				c2.69,1.35,5.36,2.07,5.36,2.07s5.8,3.54,10.67,3.47c4.86-0.07,10.98-4.31,10.98-4.31s3.11,0.31,5.43-0.87l-2.53,18.72
				C257.02,418.81,260.14,428.83,261.53,436.09z"/>
		</g>
		<g>
			<path class="st16" d="M261.15,446c-1.11,3.14-2.58,5.61-2.58,5.61c-11.84,3.42-33.33,0-33.33,0s-1.67-2.18-2.38-5.61
				C222.86,446,248.72,451.26,261.15,446z"/>
		</g>
		<g>
			<path class="st3" d="M270.04,143.92c0,2.09-1.47,3.78-3.29,3.78c-1.82,0-3.29-1.69-3.29-3.78c0-2.09,1.47-3.78,3.29-3.78
				C268.56,140.13,270.04,141.83,270.04,143.92z"/>
		</g>
		<g>
			<path class="st3" d="M290.74,143.92c0,2.09-1.47,3.78-3.29,3.78c-1.82,0-3.29-1.69-3.29-3.78c0-2.09,1.47-3.78,3.29-3.78
				C289.27,140.13,290.74,141.83,290.74,143.92z"/>
		</g>
		<g>
			<path class="st3" d="M283.94,139.35c2.85-0.24,5.54-0.96,8.13-2.17c0.47-0.22,0.86-0.82,1-1.3c0.14-0.52,0.08-1.21-0.22-1.67
				c-0.3-0.46-0.74-0.87-1.3-1c-0.6-0.14-1.12-0.04-1.67,0.22c-0.14,0.07-0.28,0.13-0.42,0.19c-1.58,0.64-3.22,1.09-4.9,1.33
				c-0.2,0.02-0.41,0.05-0.61,0.07c-0.58,0.05-1.11,0.21-1.53,0.64c-0.38,0.38-0.66,0.99-0.63,1.53
				C281.82,138.27,282.73,139.45,283.94,139.35z"/>
		</g>
		<g>
			<path class="st3" d="M268.22,139.35c-2.85-0.24-5.54-0.96-8.13-2.17c-0.47-0.22-0.86-0.82-1-1.3c-0.14-0.52-0.08-1.21,0.22-1.67
				c0.3-0.46,0.74-0.87,1.3-1c0.6-0.14,1.12-0.04,1.67,0.22c0.14,0.07,0.28,0.13,0.42,0.19c1.58,0.64,3.22,1.09,4.9,1.33
				c0.2,0.02,0.41,0.05,0.61,0.07c0.58,0.05,1.11,0.21,1.53,0.64c0.38,0.38,0.66,0.99,0.64,1.53
				C270.34,138.27,269.43,139.45,268.22,139.35z"/>
		</g>
		<g>
			<path class="st3" d="M252.35,157.33c-0.01,0-0.02,0-0.03,0c-0.41-0.02-0.74-0.36-0.72-0.78c0.2-5.2-3.03-10.65-3.06-10.71
				c-0.21-0.36-0.1-0.82,0.26-1.03c0.35-0.21,0.82-0.1,1.03,0.26c0.14,0.24,3.49,5.89,3.27,11.53
				C253.09,157.02,252.75,157.33,252.35,157.33z"/>
		</g>
		<g>
			<path class="st3" d="M299.8,156.2c-0.4,0-0.73-0.32-0.75-0.72c-0.21-5.65,3.13-11.3,3.27-11.53c0.21-0.35,0.67-0.47,1.03-0.26
				c0.36,0.21,0.47,0.67,0.26,1.03c-0.03,0.05-3.26,5.51-3.06,10.71c0.02,0.41-0.31,0.76-0.72,0.78
				C299.82,156.2,299.81,156.2,299.8,156.2z"/>
		</g>
		<g>
			<g>
				<g>
					<path class="st13" d="M227.5,239.95c5.64-5.5,14.84-9.32,21.7-14.03c8.62-5.91,41.21-28.82,41.21-28.82s15.8-15.66,18.44-17.88
						c2.64-2.23,11.96-11.18,15.53-13.96c3.57-2.78,8.47-3.37,8.47-3.37c2.27-1.58,3.99-1.95,3.99-1.95s1.11,0.56,0.92,3.15
						c-0.18,2.6-5.83,8.53-5.83,8.53c-0.61,4.77-9.92,9.73-9.92,9.73s-3.47,12.56-6.48,17.91c-3.02,5.35-15.66,12.62-15.66,12.62
						s-24.26,29.4-36.14,43.65c-11.89,14.24-37.46,25.02-40.03,23.63c-2.58-1.39-5.43-2.16-10.85-10.57s-6.81-32.09-6.81-32.09
						s8.85,3.07,21.45,2.12L227.5,239.95z"/>
				</g>
				<g>
					<path class="st3" d="M312.36,185.23c-0.14,0-0.29-0.04-0.41-0.12c-0.35-0.23-0.44-0.69-0.21-1.04
						c0.56-0.84,5.47-8.27,6.71-9.45c1.09-1.03,11.96-6.11,13.05-6.11c0.01,0,0.01,0,0.02,0c0.44,0.03,0.84,0.26,1.09,0.64
						c0.41,0.61,0.42,1.52,0.03,2.71c-0.13,0.39-0.55,0.61-0.95,0.48c-0.39-0.13-0.61-0.55-0.48-0.95c0.27-0.82,0.22-1.2,0.18-1.34
						c-1.65,0.53-10.95,4.75-11.92,5.66c-0.85,0.8-4.35,5.93-6.49,9.18C312.84,185.11,312.6,185.23,312.36,185.23z"/>
				</g>
				<g>
					<path class="st3" d="M318.96,175.91c-0.17,0-0.35-0.06-0.49-0.18c-0.31-0.27-0.35-0.74-0.08-1.06c0.15-0.17,3.71-4.3,5.36-5.71
						c1.61-1.37,8.52-7.57,8.59-7.63c0.31-0.28,0.78-0.25,1.06,0.06c0.28,0.31,0.25,0.78-0.06,1.06c-0.29,0.26-7,6.28-8.62,7.66
						c-1.57,1.34-5.16,5.51-5.2,5.55C319.38,175.82,319.17,175.91,318.96,175.91z"/>
				</g>
			</g>
			<g>
				<g>
					<path class="st13" d="M323.08,239.95c-5.64-5.5-14.84-9.32-21.7-14.03c-8.62-5.91-41.21-28.82-41.21-28.82
						s-15.8-15.66-18.44-17.88c-2.64-2.23-11.96-11.18-15.53-13.96c-3.57-2.78-8.47-3.37-8.47-3.37c-2.27-1.58-3.99-1.95-3.99-1.95
						s-1.11,0.56-0.92,3.15c0.18,2.6,5.83,8.53,5.83,8.53c0.61,4.77,9.92,9.73,9.92,9.73s3.47,12.56,6.48,17.91
						c3.02,5.35,15.66,12.62,15.66,12.62s24.26,29.4,36.14,43.65c11.89,14.24,37.46,25.02,40.03,23.63
						c2.58-1.39,5.43-2.16,10.85-10.57c5.42-8.41,6.81-32.09,6.81-32.09s-8.85,3.07-21.45,2.12L323.08,239.95z"/>
				</g>
				<g>
					<path class="st3" d="M238.23,185.23c-0.24,0-0.48-0.12-0.63-0.34c-2.15-3.25-5.65-8.38-6.49-9.18
						c-0.97-0.92-10.35-5.17-11.94-5.67c-0.02,0.11-0.09,0.49,0.2,1.35c0.13,0.39-0.08,0.82-0.48,0.95
						c-0.39,0.13-0.82-0.09-0.95-0.48c-0.39-1.19-0.38-2.1,0.03-2.71c0.25-0.37,0.65-0.61,1.09-0.64c0.01,0,0.01,0,0.02,0
						c1.1,0,11.96,5.08,13.05,6.11c1.24,1.17,6.16,8.6,6.71,9.45c0.23,0.35,0.13,0.81-0.21,1.04
						C238.51,185.19,238.37,185.23,238.23,185.23z"/>
				</g>
				<g>
					<path class="st3" d="M231.62,175.91c-0.21,0-0.42-0.09-0.57-0.26c-0.04-0.04-3.63-4.21-5.2-5.55c-1.62-1.38-8.34-7.4-8.62-7.66
						c-0.31-0.28-0.33-0.75-0.06-1.06c0.28-0.31,0.75-0.33,1.06-0.06c0.07,0.06,6.99,6.26,8.59,7.63c1.66,1.41,5.21,5.54,5.36,5.71
						c0.27,0.31,0.23,0.79-0.08,1.06C231.97,175.85,231.8,175.91,231.62,175.91z"/>
				</g>
			</g>
			<g>
				<path class="st3" d="M275.06,242.64c-0.22,0-0.44-0.1-0.58-0.28l-17.96-22.28c-0.26-0.32-0.21-0.79,0.11-1.05
					c0.32-0.26,0.79-0.21,1.05,0.11l17.96,22.28c0.26,0.32,0.21,0.79-0.11,1.05C275.39,242.59,275.22,242.64,275.06,242.64z"/>
			</g>
			<g>
				<path class="st3" d="M293.05,220.89c-0.15,0-0.3-0.04-0.43-0.14l-17.99-12.59c-0.34-0.24-0.42-0.71-0.18-1.04
					c0.24-0.34,0.7-0.42,1.04-0.18l17.99,12.59c0.34,0.24,0.42,0.71,0.18,1.04C293.52,220.78,293.29,220.89,293.05,220.89z"/>
			</g>
			<g>
				<path class="st3" d="M330.06,247.57c-0.32,0-0.61-0.2-0.71-0.52c-0.42-1.32-4.34-4.69-6.71-6.5c-0.33-0.25-0.39-0.72-0.14-1.05
					c0.25-0.33,0.72-0.39,1.05-0.14c1.09,0.83,6.55,5.08,7.23,7.24c0.13,0.39-0.09,0.82-0.49,0.94
					C330.21,247.55,330.13,247.57,330.06,247.57z"/>
			</g>
			<g>
				<path class="st3" d="M217.73,250.72c-0.06,0-0.13-0.01-0.2-0.03c-0.4-0.11-0.64-0.52-0.53-0.92c0.77-2.84,9.08-9.64,10.02-10.41
					c0.32-0.26,0.79-0.21,1.05,0.11c0.26,0.32,0.21,0.79-0.11,1.06c-3.42,2.78-9.03,7.84-9.52,9.63
					C218.37,250.5,218.06,250.72,217.73,250.72z"/>
			</g>
			<g>
				<path class="st3" d="M221.93,239.68c-9.02,0-15.8-2.36-16.14-2.48c-0.39-0.14-0.59-0.57-0.46-0.96
					c0.14-0.39,0.57-0.59,0.96-0.46c0.1,0.03,9.77,3.39,21.11,2.08c0.41-0.04,0.78,0.25,0.83,0.66c0.05,0.41-0.25,0.78-0.66,0.83
					C225.63,239.59,223.73,239.68,221.93,239.68z"/>
			</g>
			<g>
				<path class="st3" d="M325.85,239.4c-1.58,0-2.62-0.03-2.78-0.03c-0.41-0.01-0.74-0.36-0.73-0.77c0.01-0.41,0.34-0.72,0.77-0.73
					c0.15,0,15.36,0.41,21.13-2.06c0.38-0.16,0.82,0.01,0.98,0.39c0.16,0.38-0.01,0.82-0.39,0.98
					C340.27,239.14,330.62,239.4,325.85,239.4z"/>
			</g>
		</g>
		<g>
			<path class="st3" d="M235.27,234.94c-0.02,0-0.05,0-0.07,0c-0.41-0.04-0.71-0.41-0.68-0.82l1.57-16.47
				c0.04-0.41,0.39-0.71,0.82-0.68c0.41,0.04,0.71,0.41,0.68,0.82l-1.57,16.47C235.98,234.65,235.65,234.94,235.27,234.94z"/>
		</g>
		<g>
			<path class="st3" d="M312.36,233.2c-0.34,0-0.66-0.24-0.73-0.59l-2.69-12.31c-0.09-0.41,0.17-0.8,0.57-0.89
				c0.4-0.09,0.8,0.17,0.89,0.57l2.69,12.31c0.09,0.41-0.17,0.8-0.57,0.89C312.47,233.19,312.41,233.2,312.36,233.2z"/>
		</g>
		<g>
			<path class="st3" d="M312.48,318.88c-17.07,0-40.51-4.21-41.68-4.43c-0.41-0.07-0.68-0.46-0.6-0.87c0.08-0.41,0.47-0.67,0.87-0.6
				c0.34,0.06,34.26,6.16,50.17,3.89c0.41-0.07,0.79,0.23,0.85,0.64c0.06,0.41-0.23,0.79-0.64,0.85
				C318.84,318.73,315.78,318.88,312.48,318.88z"/>
		</g>
		<g>
			<path class="st3" d="M261.35,359.6c-0.4,0-0.73-0.32-0.75-0.72c-0.83-22.37-4.27-36.5-4.31-36.64c-0.1-0.4,0.15-0.81,0.55-0.91
				c0.4-0.1,0.81,0.14,0.91,0.55c0.04,0.14,3.52,14.42,4.35,36.94c0.02,0.41-0.31,0.76-0.72,0.78
				C261.37,359.6,261.36,359.6,261.35,359.6z"/>
		</g>
		<g>
			<path class="st3" d="M267.32,329.67c-0.41,0-0.75-0.34-0.75-0.75v-8.43c0-0.41,0.34-0.75,0.75-0.75c0.41,0,0.75,0.34,0.75,0.75
				v8.43C268.07,329.33,267.74,329.67,267.32,329.67z"/>
		</g>
		<g>
			<path class="st3" d="M306.52,395.83c-0.09,0-0.19-0.02-0.28-0.06c-7.06-2.88-33.25-22.97-34.36-23.82
				c-0.33-0.25-0.39-0.72-0.14-1.05c0.25-0.33,0.72-0.39,1.05-0.14c0.27,0.21,27.15,20.82,34.02,23.62
				c0.38,0.16,0.57,0.59,0.41,0.98C307.1,395.65,306.82,395.83,306.52,395.83z"/>
		</g>
		<g>
			<path class="st3" d="M232.47,402.55c-0.12,0-0.24-0.03-0.35-0.09c-2.77-1.45-5.02-8.75-5.27-9.58c-0.12-0.4,0.11-0.82,0.5-0.93
				c0.39-0.12,0.81,0.11,0.93,0.5c0.87,2.89,2.87,7.81,4.53,8.68c0.37,0.19,0.51,0.65,0.32,1.01
				C233,402.4,232.74,402.55,232.47,402.55z"/>
		</g>
		<g>
			<path class="st3" d="M254.12,401.71c-0.12,0-0.24-0.03-0.36-0.09c-0.36-0.2-0.5-0.65-0.3-1.02c1.3-2.4,2.71-5.17,2.82-5.64
				c0.09-0.39,0.47-0.68,0.87-0.6c0.4,0.07,0.67,0.43,0.61,0.83c-0.12,0.79-2.13,4.55-2.98,6.13
				C254.64,401.57,254.39,401.71,254.12,401.71z"/>
		</g>
		<g>
			<path class="st3" d="M252.96,420.85c-0.1,0-0.2-0.02-0.3-0.06c-4.86-2.15-19.08,0.03-19.23,0.06c-0.41,0.06-0.79-0.22-0.86-0.63
				c-0.06-0.41,0.22-0.79,0.63-0.86c0.6-0.09,14.8-2.27,20.06,0.06c0.38,0.17,0.55,0.61,0.38,0.99
				C253.52,420.68,253.25,420.85,252.96,420.85z"/>
		</g>
		<g>
			<path class="st3" d="M261.53,436.84c-0.41,0-0.74-0.33-0.75-0.73c-0.16-7.92-4.39-16.88-4.44-16.97
				c-0.06-0.13-0.09-0.28-0.07-0.42l2.53-18.72c0.06-0.41,0.43-0.7,0.84-0.64c0.41,0.06,0.7,0.43,0.64,0.84l-2.5,18.5
				c0.66,1.43,4.33,9.72,4.49,17.38c0.01,0.41-0.32,0.76-0.73,0.77C261.54,436.84,261.54,436.84,261.53,436.84z"/>
		</g>
		<g>
			<path class="st3" d="M258.58,438.85c-0.12,0-0.24-0.03-0.35-0.09c-15.05-7.93-30.72-0.08-30.88,0c-0.37,0.19-0.82,0.04-1.01-0.32
				c-0.19-0.37-0.04-0.82,0.32-1.01c0.16-0.08,16.5-8.31,32.26,0c0.37,0.19,0.51,0.65,0.31,1.01
				C259.11,438.7,258.85,438.85,258.58,438.85z"/>
		</g>
		<g>
			<path class="st3" d="M280.81,169.28c-0.21,0-0.42-0.09-0.57-0.27c-2.56-3.03-10.05-2.35-10.12-2.34
				c-0.39,0.04-0.78-0.26-0.82-0.67c-0.04-0.41,0.26-0.78,0.67-0.82c0.34-0.03,8.35-0.76,11.41,2.87c0.27,0.32,0.23,0.79-0.09,1.06
				C281.15,169.22,280.98,169.28,280.81,169.28z"/>
		</g>
		<g>
			<path class="st3" d="M292.41,124.51c-0.02,0-0.04,0-0.05,0c-0.41-0.03-0.72-0.39-0.69-0.8c0.01-0.08,0.52-8.09-4.24-13.2
				c-2.66-2.85-6.47-4.3-11.35-4.3c-4.9,0-8.71,1.44-11.31,4.29c-4.61,5.05-3.96,12.92-3.96,13c0.04,0.41-0.27,0.78-0.68,0.81
				c-0.41,0.03-0.78-0.27-0.81-0.68c-0.03-0.35-0.72-8.6,4.34-14.14c2.9-3.18,7.08-4.79,12.42-4.79c5.31,0,9.51,1.61,12.46,4.78
				c5.2,5.6,4.66,13.97,4.63,14.32C293.13,124.21,292.8,124.51,292.41,124.51z"/>
		</g>
		<g>
			<g>
				<g>
					<path class="st3" d="M280.35,120.64c-0.64,0.96-1.85,1.02-2.15,0.97c-0.29-0.04-1.26-0.72-2.27-0.75
						c-1-0.03-2.01,0.59-2.31,0.61c-0.3,0.02-1.5-0.11-2.08-1.11c-0.58-0.99-0.86-2.26,0.61-3.15c1.47-0.89,1.47-1.19,2.11-2.58
						c0.64-1.39,1.91-1.34,1.91-1.34s1.28,0.02,1.83,1.46c0.55,1.43,0.53,1.73,1.94,2.71C281.36,118.43,281,119.68,280.35,120.64z"
						/>
				</g>
			</g>
			<g>
				<path class="st3" d="M272.71,113.93c0.5,1.15,0.16,2.06-0.61,2.39c-0.76,0.33-1.66-0.05-2.15-1.2c-0.3-0.71-0.34-1.43-0.15-1.96
					c0.14-0.38,0.21-0.79,0.16-1.19l-0.1-0.75c-0.02-0.16,0.18-0.23,0.27-0.1l0.41,0.64c0.21,0.33,0.53,0.57,0.89,0.73
					C271.94,112.72,272.42,113.24,272.71,113.93z"/>
			</g>
			<g>
				<path class="st3" d="M277.55,113.11c-0.9-0.28-1.4-1.27-0.98-2.63c0.28-0.92,0.86-1.62,1.49-1.89c0.46-0.2,0.87-0.5,1.14-0.92
					l0.11-0.17c0.08-0.13,0.28-0.07,0.27,0.09l-0.03,0.58c-0.02,0.38,0.06,0.76,0.23,1.1c0.28,0.57,0.32,1.39,0.07,2.23
					C279.42,112.86,278.45,113.4,277.55,113.11z"/>
			</g>
			<g>
				<path class="st3" d="M282.37,113.5c0.18,0.55,0.1,1.29-0.25,2c-0.57,1.12-1.49,1.44-2.23,1.06c-0.74-0.37-1.02-1.3-0.46-2.42
					c0.45-0.89,1.22-1.45,1.89-1.45h0l0.87-1.36c0.08-0.13,0.29-0.06,0.27,0.1l-0.16,1.17C282.27,112.9,282.28,113.21,282.37,113.5z
					"/>
			</g>
			<g>
				<path class="st3" d="M275.81,110.46c0.33,1.38-0.23,2.34-1.14,2.56c-0.92,0.22-1.85-0.38-2.19-1.76
					c-0.21-0.87-0.1-1.7,0.24-2.26c0.22-0.37,0.3-0.81,0.28-1.24l-0.02-0.37c-0.01-0.15,0.19-0.21,0.27-0.08l0.25,0.39
					c0.22,0.34,0.55,0.59,0.91,0.77C275.03,108.77,275.58,109.51,275.81,110.46z"/>
			</g>
		</g>
		<g>
			<path class="st18" d="M267.76,154c0,1.77-2.36,3.2-5.27,3.2c-2.91,0-5.27-1.43-5.27-3.2c0-1.77,2.36-3.2,5.27-3.2
				C265.4,150.8,267.76,152.23,267.76,154z"/>
		</g>
		<g>
			<path class="st18" d="M277.44,141.23c0,0-1.87,7.95-2.02,11.35c-0.15,3.4,1.01,6.99,1.01,6.99s6.82-1.01,6.62-3.22
				C282.84,154.14,277.44,141.23,277.44,141.23z"/>
		</g>
		<g>
			<path class="st18" d="M295.77,154c0,1.77-2.36,3.2-5.27,3.2s-5.27-1.43-5.27-3.2c0-1.77,2.36-3.2,5.27-3.2
				S295.77,152.23,295.77,154z"/>
		</g>
		<g>
			<path class="st3" d="M275.05,161.42c-0.37,0-0.69-0.28-0.74-0.65c-0.05-0.41,0.24-0.79,0.65-0.84c2.48-0.32,4.85-1.3,6.87-2.84
				c0.81-0.62,1.04-1.79,0.55-2.78c-2.37-4.79-4.23-9.84-5.55-15.01c-0.1-0.4,0.14-0.81,0.54-0.91c0.4-0.1,0.81,0.14,0.91,0.54
				c1.29,5.07,3.12,10.02,5.44,14.71c0.81,1.63,0.4,3.59-0.98,4.64c-2.22,1.7-4.85,2.79-7.59,3.14
				C275.12,161.42,275.09,161.42,275.05,161.42z"/>
		</g>
	</g>
	<g>
		<g>
			<path class="st19" d="M198.46,165.27c-0.14,4.1-1.88,8.55-8.48,9c-6.61,0.46-54.42,5.67-58.94-11.91c0,0-1.04-2.23,4.31,0.27
				c0.8,0.37,2.17,0.61,3.97,0.71c1.29,0.07,2.8,0.07,4.48,0c5.48-0.23,12.69-1.24,19.54-3.06c7.66-2.04,14.86-5.09,18.71-9.18
				l5.95-4.69c0.99,1.29,2.02,2.34,3.09,3.02C196.79,153.04,198.59,161.17,198.46,165.27z"/>
		</g>
		<g>
			<path class="st19" d="M131.98,138.18c0.17,6.33-3.64,13.86-4.04,14.4c-0.07,0.1-0.16,0.28-0.26,0.53
				c-0.77,1.9-2.15,7.78-1.78,11.52c0.42,4.21-3.61,9.82-3.61,9.82s-14.74,0.69-14.74-0.56c0-0.66,1.76-1.48,3.3-2.57
				c1.39-0.99,2.61-2.2,2.26-3.73c-0.28-1.22-0.98-3.44-1.88-5.81c-1.49-3.93-3.5-8.28-4.97-9.2c-5.29-15.06,5.55-25.39,18.81-22.89
				C130.2,130.66,131.89,134.18,131.98,138.18z"/>
		</g>
		<g>
			<path class="st19" d="M109.03,165.27c0.05,1.44,1.82,6.05,1.82,6.05c-1.54,1.09-3.3,1.91-3.3,2.57c0,0-6.44,0.79-7.71,0.09
				c-1.27-0.69-1.92-1.29-0.44-4.81c1.48-3.53,0.65-15.94,0.65-15.94s3.84-2.13,6.21-0.65c1.47,0.92,3.48,5.27,4.97,9.2
				C110.44,162.59,109,164.23,109.03,165.27z"/>
		</g>
		<g>
			<path class="st19" d="M163.34,160.28c-6.85,1.82-14.06,2.83-19.54,3.06c0.89-1.73,2.25-4.63,2.82-7c0.2-0.82,0.31-1.57,0.27-2.19
				c-0.15-2.4-4.48-9.22-4.75-16.01c-0.11-2.84,0.48-5.67,2.39-8.17c6.46-8.48,20.91-1.67,22.37,9.73
				C167.95,147.9,165.05,156.24,163.34,160.28z"/>
		</g>
		<g>
			<path class="st19" d="M188,146.41l-5.95,4.69c-3.85,4.09-11.05,7.14-18.71,9.18c1.71-4.04,4.61-12.38,3.56-20.58
				c-1.46-11.4-15.91-18.21-22.37-9.73c-1.91,2.5-2.5,5.33-2.39,8.17c0.27,6.79,4.6,13.61,4.75,16.01c0.04,0.62-0.07,1.37-0.27,2.19
				c-1.86,0.51-3.63,0.75-5.3,0.8c-6.52,0.22-11.4-2.48-13.64-4.03c0.1-0.25,0.19-0.43,0.26-0.53c0.4-0.54,4.21-8.07,4.04-14.4
				c-0.09-4-1.78-7.52-6.91-8.49c-13.26-2.5-24.1,7.83-18.81,22.89c-2.37-1.48-6.21,0.65-6.21,0.65s-7.93,4.12-12.98,4.08
				c-5.05-0.05-21.12,6.11-24.74,5c-3.61-1.11-7.46-4.19-5.79-6.07c1.67-1.88,15.43-15.22,16.68-17.65
				c1.25-2.44,16.54-8.06,16.54-8.06s5.19-4.08,10.19-12.33c5.01-8.25,19.79-28.59,47.54-25.02c27.75,3.57,30.67,26.99,31.92,32.76
				C180.43,130.63,183.74,140.82,188,146.41z"/>
		</g>
		<g>
			<path class="st19" d="M127.68,153.11c-0.89-0.61-1.36-1.04-1.36-1.04"/>
		</g>
		<g>
			<path class="st19" d="M146.62,156.34c-0.57,2.37-1.93,5.27-2.82,7c-1.68,0.07-3.19,0.07-4.48,0l2-6.2
				C142.99,157.09,144.76,156.85,146.62,156.34z"/>
		</g>
		<g>
			<path class="st3" d="M107.55,174.64c-0.41,0-0.75-0.34-0.75-0.75c0-0.88,0.94-1.47,2.25-2.29c0.44-0.28,0.91-0.57,1.37-0.89
				c1.57-1.12,2.17-2.03,1.96-2.95c-0.3-1.29-1.02-3.53-1.85-5.71c-1.78-4.71-3.62-8.17-4.67-8.83c-0.14-0.09-0.25-0.23-0.31-0.39
				c-2.5-7.11-1.62-13.87,2.41-18.56c3.97-4.62,10.41-6.61,17.25-5.32c4.81,0.91,7.41,4.09,7.52,9.21c0.01,0.41-0.32,0.76-0.73,0.77
				c-0.37,0.03-0.76-0.32-0.77-0.73c-0.1-4.45-2.16-6.99-6.3-7.77c-6.31-1.19-12.22,0.61-15.83,4.82
				c-3.63,4.22-4.42,10.36-2.21,16.86c1.83,1.44,3.92,6.46,5.04,9.4c0.85,2.24,1.6,4.56,1.91,5.91c0.47,2.07-1.23,3.57-2.56,4.51
				c-0.48,0.34-0.97,0.65-1.44,0.94c-0.59,0.37-1.38,0.87-1.55,1.11C108.25,174.35,107.93,174.64,107.55,174.64z M108.3,173.89
				C108.3,173.89,108.3,173.89,108.3,173.89C108.3,173.89,108.3,173.89,108.3,173.89z"/>
		</g>
		<g>
			<path class="st3" d="M100.05,153.98c-0.38,0-0.7-0.29-0.75-0.67c-0.04-0.41,0.26-0.78,0.67-0.82l6.21-0.65
				c0.41-0.03,0.78,0.26,0.82,0.67c0.04,0.41-0.26,0.78-0.67,0.82l-6.21,0.65C100.1,153.97,100.07,153.98,100.05,153.98z"/>
		</g>
		<g>
			<path class="st3" d="M163.34,161.03c-0.1,0-0.2-0.02-0.29-0.06c-0.38-0.16-0.56-0.6-0.4-0.98c1.75-4.13,4.53-12.24,3.51-20.19
				c-0.05-0.41,0.24-0.79,0.65-0.84c0.41-0.05,0.79,0.24,0.84,0.65c1.06,8.3-1.81,16.7-3.61,20.97
				C163.91,160.85,163.63,161.03,163.34,161.03z"/>
		</g>
		<g>
			<path class="st20" d="M166.9,139.7"/>
		</g>
		<g>
			<path class="st3" d="M143.8,164.09c-0.12,0-0.23-0.03-0.34-0.08c-0.37-0.19-0.51-0.64-0.32-1.01c0.63-1.22,2.16-4.34,2.76-6.83
				c0.2-0.81,0.28-1.48,0.25-1.97c-0.05-0.75-0.67-2.23-1.38-3.95c-1.35-3.22-3.19-7.64-3.37-12.08c-0.13-3.36,0.73-6.27,2.54-8.65
				c0.25-0.33,0.72-0.39,1.05-0.14c0.33,0.25,0.39,0.72,0.14,1.05c-1.62,2.13-2.35,4.64-2.24,7.69c0.17,4.17,1.95,8.44,3.25,11.56
				c0.83,1.99,1.43,3.43,1.49,4.43c0.04,0.65-0.05,1.44-0.29,2.41c-0.61,2.56-2.07,5.59-2.88,7.17
				C144.33,163.94,144.07,164.09,143.8,164.09z"/>
		</g>
		<g>
			<path class="st3" d="M141.41,164.14c-0.76,0-1.48-0.02-2.13-0.05c-1.93-0.11-3.36-0.37-4.24-0.78c-0.38-0.17-0.54-0.62-0.37-1
				c0.17-0.38,0.62-0.54,1-0.37c0.69,0.32,2,0.55,3.7,0.64c1.27,0.07,2.75,0.07,4.41,0c5.92-0.25,13.16-1.38,19.38-3.04
				c6.04-1.61,14.12-4.47,18.36-8.97c0.28-0.3,0.76-0.32,1.06-0.03c0.3,0.28,0.32,0.76,0.03,1.06c-4.48,4.76-12.84,7.73-19.06,9.39
				c-6.41,1.7-13.59,2.83-19.7,3.09C142.98,164.12,142.17,164.14,141.41,164.14z"/>
		</g>
		<g>
			<path class="st3" d="M141.32,157.89c-0.36,0-0.68-0.27-0.74-0.64c-0.06-0.41,0.22-0.79,0.63-0.85l5.3-0.8
				c0.41-0.06,0.79,0.22,0.85,0.63c0.06,0.41-0.22,0.79-0.63,0.85l-5.3,0.8C141.39,157.88,141.35,157.89,141.32,157.89z"/>
		</g>
		<g>
			<path class="st3" d="M174.41,157.49c-0.05,0-0.1,0-0.15-0.02l-9.11-1.91c-0.41-0.09-0.67-0.48-0.58-0.89
				c0.08-0.41,0.49-0.67,0.89-0.58l9.11,1.91c0.41,0.08,0.67,0.48,0.58,0.89C175.07,157.24,174.76,157.49,174.41,157.49z"/>
		</g>
		<g>
			<path class="st3" d="M87.12,149.62c-0.16,0-0.32-0.05-0.46-0.16c-0.33-0.25-0.38-0.72-0.13-1.05c0.02-0.03,2.17-2.85,0.77-5.28
				c-0.3-0.53-0.67-0.82-1.12-0.9c-1.02-0.17-2.32,0.73-2.74,1.09c-0.31,0.27-0.79,0.24-1.06-0.07c-0.27-0.31-0.24-0.78,0.07-1.06
				c0.21-0.18,2.08-1.76,3.97-1.44c0.63,0.11,1.51,0.47,2.18,1.63c1.9,3.32-0.78,6.8-0.89,6.95
				C87.56,149.52,87.34,149.62,87.12,149.62z"/>
		</g>
		<g>
			<circle class="st3" cx="76.4" cy="148.75" r="2.35"/>
		</g>
		<g>
			<path class="st3" d="M78.82,145.09c-0.77,0-1.53-0.29-2.07-0.87c-0.66-0.71-0.88-1.73-0.65-2.65c-0.79-0.1-1.43-0.36-1.94-0.79
				c-0.57-0.48-0.92-1.26-0.91-2.03c0.01-0.65,0.27-1.22,0.75-1.6c0.32-0.26,0.8-0.2,1.05,0.12c0.26,0.32,0.21,0.8-0.12,1.05
				c-0.15,0.12-0.18,0.31-0.18,0.44c0,0.32,0.15,0.66,0.38,0.86c0.45,0.38,1.15,0.53,2.15,0.46c0.31-0.03,0.6,0.15,0.73,0.43
				c0.13,0.28,0.08,0.61-0.14,0.84c-0.45,0.47-0.46,1.35-0.01,1.82c0.44,0.47,1.33,0.52,1.82,0.1c0.32-0.27,0.79-0.23,1.06,0.08
				c0.27,0.32,0.23,0.79-0.08,1.06C80.12,144.88,79.47,145.09,78.82,145.09z"/>
		</g>
		<g>
			<path class="st3" d="M59.18,158.18c0,0,0.83-4.14,2.5-3.35C63.35,155.61,59.18,158.18,59.18,158.18z"/>
		</g>
		<g>
			<path class="st3" d="M127.68,131.05c-0.11,0-0.22-0.02-0.33-0.07c-0.37-0.18-0.53-0.63-0.35-1c0.65-1.35,0.63-3.03-0.05-4.37
				c-0.69-1.34-2.04-2.33-3.52-2.59c-0.26-0.04-0.47-0.22-0.57-0.46c-0.1-0.24-0.06-0.51,0.09-0.72c1.03-1.4,1.14-3.43,0.27-4.94
				c-0.87-1.51-2.68-2.43-4.41-2.26c-0.29,0.03-0.57-0.11-0.72-0.36c-0.15-0.25-0.14-0.57,0.03-0.81c0.45-0.65,0.61-1.52,0.45-2.4
				c-0.17-0.87-0.64-1.62-1.31-2.06c-0.66-0.44-1.54-0.58-2.41-0.39c-0.87,0.19-1.61,0.68-2.03,1.36c-0.22,0.35-0.68,0.46-1.03,0.24
				c-0.35-0.22-0.46-0.68-0.24-1.03c0.63-1.01,1.72-1.75,2.98-2.02c1.26-0.28,2.55-0.06,3.55,0.6c1,0.66,1.71,1.76,1.95,3.03
				c0.16,0.81,0.11,1.63-0.12,2.37c1.88,0.22,3.66,1.35,4.6,2.99c0.97,1.7,1.02,3.9,0.18,5.66c1.52,0.54,2.84,1.68,3.58,3.11
				c0.9,1.75,0.92,3.93,0.07,5.71C128.22,130.89,127.96,131.05,127.68,131.05z"/>
		</g>
		<g>
			<path class="st3" d="M106.94,137.39c-0.01,0-0.01,0-0.02,0c-0.41-0.01-0.74-0.35-0.73-0.77c0.02-0.98-0.4-1.95-1.12-2.61
				c-0.72-0.66-1.73-0.98-2.7-0.87c-0.31,0.03-0.59-0.11-0.73-0.37c-0.15-0.26-0.13-0.58,0.05-0.82c0.73-0.99,0.57-2.58-0.34-3.4
				c-0.91-0.82-2.51-0.81-3.42,0.02c-0.31,0.28-0.78,0.26-1.06-0.04c-0.28-0.31-0.26-0.78,0.04-1.06c1.47-1.35,3.96-1.36,5.43-0.03
				c1.15,1.04,1.56,2.77,1.12,4.24c0.97,0.14,1.89,0.57,2.62,1.23c1.04,0.94,1.64,2.34,1.61,3.75
				C107.68,137.06,107.35,137.39,106.94,137.39z"/>
		</g>
		<g>
			<path class="st3" d="M109.23,172.13c-0.26,0-0.51-0.13-0.65-0.37c-0.59-1.01-1.97-1.36-2.75-1.48c-1.9-0.29-3.91,0.01-5.64,0.85
				c-0.37,0.18-0.82,0.03-1-0.35c-0.18-0.37-0.02-0.82,0.35-1c2-0.97,4.32-1.32,6.52-0.98c1.27,0.2,2.96,0.74,3.81,2.2
				c0.21,0.36,0.09,0.82-0.27,1.03C109.49,172.1,109.36,172.13,109.23,172.13z"/>
		</g>
		<g>
			<path class="st3" d="M138.21,126.1c-0.03,0-0.06,0-0.1,0c-0.41-0.01-0.74-0.35-0.74-0.76c0.01-0.41,0.34-0.74,0.75-0.74
				c0.02,0,0.05,0,0.08,0c2.11,0,4.15-1.65,4.59-3.71c0.44-2.08-0.8-4.45-2.76-5.28c-0.28-0.12-0.47-0.4-0.46-0.71
				c0.01-0.31,0.2-0.58,0.49-0.69c1.63-0.6,2.84-2.29,2.87-4.03c0.03-1.74-1.12-3.48-2.73-4.13c-0.25-0.1-0.42-0.33-0.46-0.59
				c-0.04-0.27,0.07-0.53,0.28-0.7c1.43-1.11,2-3.21,1.31-4.89c-0.69-1.68-2.57-2.78-4.36-2.57c-0.42,0.05-0.78-0.25-0.83-0.66
				c-0.05-0.41,0.25-0.78,0.66-0.83c2.45-0.29,4.99,1.21,5.93,3.49c0.79,1.93,0.36,4.28-0.98,5.87c1.66,1.09,2.72,3.03,2.69,5.03
				c-0.03,1.89-1.04,3.68-2.57,4.75c1.87,1.42,2.89,3.92,2.4,6.24C143.68,123.97,141.03,126.1,138.21,126.1z"/>
		</g>
		<g>
			<path class="st3" d="M164.37,127.45c-0.29,0-0.58-0.02-0.87-0.08c-0.41-0.07-0.68-0.46-0.61-0.87c0.07-0.41,0.46-0.68,0.87-0.61
				c1.57,0.28,3.31-0.58,4.04-2c0.73-1.42,0.43-3.33-0.7-4.46c-0.22-0.22-0.28-0.54-0.16-0.83c0.12-0.28,0.42-0.43,0.71-0.46
				c1.48,0.04,2.92-1.06,3.3-2.47c0.39-1.41-0.31-3.08-1.59-3.8c-0.36-0.2-0.49-0.66-0.29-1.02c0.2-0.36,0.66-0.49,1.02-0.29
				c1.88,1.06,2.87,3.43,2.3,5.51c-0.44,1.63-1.8,2.92-3.4,3.39c0.88,1.54,0.97,3.52,0.14,5.11
				C168.23,126.34,166.32,127.45,164.37,127.45z"/>
		</g>
		<g>
			<path class="st3" d="M176.68,175.59c-0.15,0-0.31-0.05-0.44-0.14c-1.22-0.9-1.93-2.45-1.8-3.96c0.1-1.11,0.64-2.17,1.47-2.92
				c-0.94-0.84-1.52-2.08-1.53-3.34c-0.01-1.14,0.46-2.25,1.22-3.08c-0.82-0.42-1.52-1.1-1.94-1.94c-0.67-1.31-0.64-2.92,0.08-4.2
				c0.2-0.36,0.66-0.49,1.02-0.29c0.36,0.2,0.49,0.66,0.29,1.02c-0.47,0.84-0.49,1.93-0.05,2.78c0.44,0.85,1.33,1.48,2.29,1.59
				c0.33,0.04,0.59,0.29,0.65,0.61c0.06,0.33-0.11,0.65-0.4,0.8c-0.98,0.49-1.65,1.6-1.65,2.69c0,1.09,0.69,2.19,1.67,2.67
				c0.26,0.13,0.42,0.39,0.42,0.67c0,0.29-0.16,0.55-0.42,0.67c-0.9,0.45-1.54,1.38-1.62,2.38c-0.09,1,0.38,2.03,1.19,2.62
				c0.33,0.24,0.41,0.71,0.16,1.05C177.14,175.48,176.91,175.59,176.68,175.59z"/>
		</g>
		<g>
			<path class="st3" d="M161.91,175.87c-0.16,0-0.32-0.05-0.45-0.15c-0.85-0.64-1.34-1.7-1.28-2.76c0.04-0.67,0.29-1.31,0.69-1.83
				c-0.89-0.71-1.44-1.84-1.4-3c0.04-1.12,0.65-2.17,1.54-2.82c-1.12-1.33-1.38-3.37-0.48-4.9c0.21-0.36,0.67-0.48,1.03-0.27
				c0.36,0.21,0.48,0.67,0.27,1.03c-0.7,1.19-0.27,2.95,0.91,3.68c0.25,0.16,0.39,0.45,0.35,0.75c-0.04,0.3-0.26,0.54-0.54,0.62
				c-0.86,0.23-1.54,1.09-1.57,1.98c-0.03,0.89,0.57,1.79,1.42,2.09c0.27,0.1,0.47,0.34,0.49,0.63c0.03,0.29-0.11,0.57-0.36,0.72
				c-0.48,0.29-0.81,0.84-0.85,1.4c-0.03,0.56,0.24,1.15,0.69,1.49c0.33,0.25,0.39,0.72,0.14,1.05
				C162.37,175.76,162.14,175.87,161.91,175.87z"/>
		</g>
		<g>
			<path class="st3" d="M145.35,173.71c-0.24,0-0.48-0.12-0.63-0.34c-0.77-1.17-0.97-2.66-0.54-3.99c0.28-0.89,0.84-1.67,1.57-2.25
				c-0.44-0.44-0.75-1.02-0.83-1.65c-0.14-1.13,0.46-2.29,1.45-2.84c0.36-0.2,0.82-0.07,1.02,0.3c0.2,0.36,0.07,0.82-0.3,1.02
				c-0.46,0.25-0.75,0.81-0.68,1.33c0.07,0.52,0.48,0.99,0.99,1.13c0.32,0.08,0.54,0.36,0.56,0.68c0.02,0.33-0.17,0.63-0.48,0.74
				c-0.87,0.34-1.59,1.1-1.88,1.99c-0.29,0.89-0.14,1.93,0.37,2.71c0.23,0.35,0.13,0.81-0.22,1.04
				C145.64,173.67,145.5,173.71,145.35,173.71z"/>
		</g>
		<g>
			<path class="st3" d="M127.8,154.55c-0.15,0-0.3-0.04-0.43-0.13c-0.34-0.24-0.43-0.7-0.19-1.04c1.97-2.84,3.21-6.17,3.61-9.6
				c0.05-0.41,0.41-0.71,0.83-0.66c0.41,0.05,0.71,0.42,0.66,0.83c-0.42,3.68-1.76,7.24-3.86,10.28
				C128.27,154.44,128.04,154.55,127.8,154.55z"/>
		</g>
	</g>
	<g>
		<g>
			<path class="st2" d="M401.13,397.63c0,0-3.73-14.31,2.03-34.23c5.77-19.93,20-21.87,25.14-14.66c5.15,7.21-0.89,15.68-4.94,20.6
				C419.32,374.27,406.43,384.37,401.13,397.63z"/>
		</g>
		<g>
			<path class="st2" d="M405.58,403.81c0,0,13-19.52,27.8-28.07c14.8-8.54,26.84,7.42,19.33,17.09
				C445.19,402.51,420.81,394.8,405.58,403.81z"/>
		</g>
		<g>
			<path class="st3" d="M397.27,423.66C397.27,423.66,397.27,423.66,397.27,423.66c-0.42,0-0.75-0.34-0.75-0.75
				c0-23.62,14.3-56.6,14.45-56.93c0.17-0.38,0.61-0.55,0.99-0.39c0.38,0.17,0.55,0.61,0.39,0.99
				c-0.13,0.29-11.14,25.68-13.76,47.65c3.42-8.75,12.51-21.75,36.65-27.38c0.4-0.1,0.81,0.16,0.9,0.56c0.09,0.4-0.16,0.81-0.56,0.9
				c-36.66,8.56-37.55,34.35-37.55,34.61C398.01,423.33,397.68,423.66,397.27,423.66z"/>
		</g>
	</g>
</g>
<g id="TEXTS">
</g>
</svg>
