<?xml version="1.0" encoding="utf-8"?>
<!-- Generator: Adobe Illustrator 25.1.0, SVG Export Plug-In . SVG Version: 6.00 Build 0)  -->
<svg version="1.1" xmlns="http://www.w3.org/2000/svg" xmlns:xlink="http://www.w3.org/1999/xlink" x="0px" y="0px"
	 viewBox="0 0 500 500" style="enable-background:new 0 0 500 500;" xml:space="preserve">
<style type="text/css">
	.st0{display:none;}
	.st1{display:inline;fill:#FFFFFF;}
	.st2{display:inline;opacity:0.6;fill:#FFFFFF;}
	.st3{fill:#AADD74;}
	.st4{fill:#6AA049;}
	.st5{fill:#7EB13F;}
	.st6{fill:#7FB240;}
	.st7{fill:#80B341;}
	.st8{fill:#80B342;}
	.st9{fill:#81B443;}
	.st10{fill:#82B544;}
	.st11{fill:#83B645;}
	.st12{fill:#84B746;}
	.st13{fill:#85B847;}
	.st14{fill:#85B848;}
	.st15{fill:#86B949;}
	.st16{fill:#87BA4A;}
	.st17{fill:#88BB4B;}
	.st18{fill:#89BC4C;}
	.st19{fill:#89BC4D;}
	.st20{fill:#8ABD4E;}
	.st21{fill:#8BBE4F;}
	.st22{fill:#8CBF50;}
	.st23{fill:#8DC051;}
	.st24{fill:#8DC052;}
	.st25{fill:#8EC153;}
	.st26{fill:#8FC254;}
	.st27{fill:#90C355;}
	.st28{fill:#91C456;}
	.st29{fill:#92C557;}
	.st30{fill:#92C558;}
	.st31{fill:#93C659;}
	.st32{fill:#94C75A;}
	.st33{fill:#95C85A;}
	.st34{fill:#96C95B;}
	.st35{fill:#96C95C;}
	.st36{fill:#97CA5D;}
	.st37{fill:#98CB5E;}
	.st38{fill:#99CC5F;}
	.st39{fill:#9ACD60;}
	.st40{fill:#9BCE61;}
	.st41{fill:#9BCE62;}
	.st42{fill:#9CCF63;}
	.st43{fill:#9DD064;}
	.st44{fill:#9ED165;}
	.st45{fill:#9FD266;}
	.st46{fill:#9FD267;}
	.st47{fill:#A0D368;}
	.st48{fill:#A1D469;}
	.st49{fill:#A2D56A;}
	.st50{fill:#A3D66B;}
	.st51{fill:#A3D66C;}
	.st52{fill:#A4D76D;}
	.st53{fill:#A5D86E;}
	.st54{fill:#A6D96F;}
	.st55{fill:#A7DA70;}
	.st56{fill:#A8DB71;}
	.st57{fill:#A8DB72;}
	.st58{fill:#A9DC73;}
	.st59{fill:none;stroke:#6AA049;stroke-width:4.0345;stroke-linecap:round;stroke-linejoin:round;stroke-miterlimit:10;}
	.st60{fill:#A6DB6D;}
	.st61{fill:none;stroke:#6AA049;stroke-width:1.3868;stroke-linecap:round;stroke-linejoin:round;stroke-miterlimit:10;}
	.st62{fill:none;stroke:#6AA049;stroke-width:1.0651;stroke-linecap:round;stroke-linejoin:round;stroke-miterlimit:10;}
	.st63{fill:none;stroke:#6AA049;stroke-width:1.0401;stroke-linecap:round;stroke-linejoin:round;stroke-miterlimit:10;}
	.st64{fill:none;stroke:#6AA049;stroke-width:0.7585;stroke-linecap:round;stroke-linejoin:round;stroke-miterlimit:10;}
	.st65{clip-path:url(#SVGID_2_);fill:#56A4B3;}
	.st66{opacity:0.34;clip-path:url(#SVGID_2_);fill:#56A4B3;}
	.st67{clip-path:url(#SVGID_2_);fill:#96D457;}
	.st68{clip-path:url(#SVGID_2_);fill:#CCE4EC;}
	.st69{fill:#FFFFFF;}
	.st70{opacity:0.8;}
	.st71{fill:#F7DA0B;}
	.st72{fill:#C5E9E4;}
	.st73{fill:#DDB7A6;}
	.st74{fill:#D1A99A;}
	.st75{fill:#CDA490;}
	.st76{display:inline;}
	.st77{fill:#1D262D;}
</style>
<g id="BACKGROUND" class="st0">
	<rect class="st1" width="500" height="500"/>
	<rect class="st2" width="500" height="500"/>
</g>
<g id="OBJECTS">
	<g>
		<g>
			<path class="st3" d="M324.28,303.55c26.44,0.72,51.92-14.84,66.47-36.96c14.54-22.11,18.91-49.87,15.62-76.06
				c-20.3,1.22-39.91,8.08-55.69,20.94c-15.78,12.87-27.38,30.77-32.65,50.4c-3.3,12.27-3.97,26.02,2.36,37"/>
			<g>
				<path class="st4" d="M399.51,199.08c0,0-1.09,2.15-3.01,5.92c-0.94,1.89-2.15,4.16-3.54,6.77c-0.69,1.3-1.43,2.69-2.2,4.16
					c-0.81,1.44-1.66,2.96-2.54,4.55c-0.9,1.58-1.8,3.24-2.79,4.93c-1,1.68-2.03,3.42-3.09,5.21c-1.04,1.8-2.18,3.61-3.34,5.46
					c-1.15,1.86-2.3,3.77-3.52,5.68c-2.48,3.8-5,7.76-7.73,11.67c-2.64,3.98-5.5,7.88-8.31,11.83c-2.92,3.87-5.8,7.77-8.81,11.48
					c-2.92,3.78-6,7.33-8.94,10.8c-1.51,1.7-2.99,3.37-4.45,5.01c-1.45,1.64-2.88,3.23-4.32,4.74c-1.44,1.51-2.84,2.98-4.19,4.39
					c-1.35,1.42-2.73,2.72-4.02,4c-1.3,1.27-2.53,2.51-3.75,3.63c-1.23,1.12-2.39,2.17-3.48,3.17c-1.09,0.99-2.11,1.93-3.06,2.79
					c-0.94,0.86-1.87,1.59-2.68,2.28c-3.24,2.74-5.13,4.25-5.13,4.25c-0.28,0.22-0.68,0.18-0.9-0.1c-0.2-0.25-0.18-0.62,0.04-0.85
					l0.01-0.01c0,0,1.68-1.74,4.68-4.71c1.5-1.49,3.31-3.29,5.37-5.39c1.03-1.04,2.13-2.16,3.29-3.33c1.14-1.19,2.34-2.44,3.59-3.74
					c1.25-1.3,2.56-2.65,3.91-4.05c1.33-1.42,2.7-2.89,4.12-4.4c1.44-1.49,2.88-3.05,4.33-4.67c1.46-1.61,2.94-3.26,4.46-4.93
					c2.94-3.43,6.04-6.91,9.05-10.57c3.09-3.6,6.03-7.41,9.06-11.16c2.91-3.84,5.89-7.63,8.63-11.51c2.81-3.83,5.4-7.72,7.95-11.45
					c2.46-3.79,4.89-7.43,7-11c1.07-1.78,2.11-3.5,3.12-5.17c1-1.67,1.91-3.33,2.81-4.89c0.89-1.57,1.75-3.08,2.56-4.52
					c0.78-1.45,1.52-2.83,2.22-4.12c0.69-1.29,1.34-2.51,1.94-3.63c0.59-1.13,1.09-2.19,1.57-3.13c1.88-3.79,2.95-5.95,2.95-5.95
					c0.16-0.32,0.54-0.45,0.86-0.29C399.54,198.37,399.67,198.76,399.51,199.08L399.51,199.08z"/>
			</g>
			<g>
				<path class="st4" d="M383.98,226.25c0,0-0.08-0.48-0.24-1.31c-0.15-0.84-0.37-2.04-0.64-3.47c-0.27-1.43-0.58-3.1-0.91-4.89
					c-0.34-1.79-0.75-3.68-1.16-5.58c-0.4-1.89-0.8-3.79-1.09-5.57c-0.29-1.78-0.58-3.43-0.69-4.87c-0.09-0.71-0.1-1.38-0.15-1.96
					c-0.02-0.59-0.03-1.1-0.03-1.53c-0.01-0.85,0.05-1.35,0.05-1.35l0-0.02c0.04-0.37,0.37-0.63,0.74-0.59
					c0.22,0.02,0.4,0.15,0.5,0.33c0,0,0.26,0.44,0.61,1.24c0.35,0.8,0.76,1.97,1.09,3.4c0.37,1.42,0.59,3.12,0.81,4.92
					c0.22,1.81,0.33,3.75,0.44,5.68c0.11,1.93,0.2,3.87,0.38,5.67c0.15,1.8,0.4,3.47,0.59,4.9c0.24,1.43,0.44,2.59,0.64,3.41
					c0.19,0.82,0.31,1.29,0.31,1.29c0.09,0.34-0.11,0.69-0.45,0.79c-0.34,0.09-0.7-0.11-0.79-0.45
					C383.99,226.29,383.99,226.27,383.98,226.25z"/>
			</g>
			<g>
				<path class="st4" d="M384.41,225.51c0,0,0.35-0.09,0.97-0.28c0.62-0.17,1.48-0.47,2.52-0.81c1.03-0.36,2.24-0.79,3.51-1.3
					c1.28-0.5,2.62-1.1,3.96-1.7c1.34-0.59,2.69-1.18,3.98-1.64c1.29-0.46,2.5-0.88,3.57-1.11c1.07-0.24,2-0.35,2.66-0.38
					c0.66-0.04,1.06,0,1.06,0c0.39,0.04,0.67,0.38,0.63,0.77c-0.02,0.18-0.1,0.34-0.23,0.45c0,0-0.3,0.27-0.85,0.62
					c-0.55,0.37-1.36,0.82-2.38,1.26c-1.01,0.44-2.23,0.82-3.55,1.2s-2.75,0.7-4.18,1.01c-1.44,0.31-2.87,0.61-4.2,0.95
					c-1.33,0.33-2.56,0.7-3.61,1.01c-1.04,0.34-1.92,0.6-2.52,0.83c-0.6,0.21-0.94,0.34-0.94,0.34c-0.33,0.13-0.7-0.03-0.84-0.36
					c-0.13-0.33,0.03-0.7,0.36-0.84C384.36,225.52,384.38,225.51,384.41,225.51z"/>
			</g>
			<g>
				<path class="st4" d="M365.74,203.11c1.11,2.65,2.24,5.28,3.41,7.9l1.77,3.92l1.78,3.91c1.23,2.59,2.43,5.19,3.68,7.78l3.74,7.75
					l-1.38-0.75c2.17-0.41,4.34-0.84,6.52-1.21c1.09-0.2,2.18-0.37,3.27-0.55c1.09-0.17,2.18-0.37,3.27-0.52
					c1.09-0.15,2.18-0.33,3.28-0.45c1.1-0.14,2.19-0.27,3.3-0.37c2.2-0.21,4.41-0.38,6.65-0.39c0.36,0,0.65,0.29,0.65,0.65
					c0,0.29-0.19,0.54-0.45,0.62c-2.13,0.68-4.28,1.2-6.44,1.67c-1.08,0.24-2.16,0.46-3.25,0.66c-1.08,0.22-2.18,0.39-3.26,0.58
					c-1.09,0.19-2.18,0.34-3.27,0.51c-1.09,0.17-2.18,0.33-3.28,0.48c-2.19,0.32-4.38,0.58-6.57,0.85l-0.09,0.01
					c-0.56,0.07-1.09-0.26-1.29-0.76l-3.15-8.01c-1.05-2.67-2.15-5.32-3.22-7.98l-1.66-3.97l-1.68-3.96
					c-1.14-2.63-2.3-5.25-3.49-7.86c-0.15-0.32-0.01-0.7,0.32-0.85c0.32-0.15,0.7-0.01,0.85,0.32
					C365.74,203.09,365.74,203.1,365.74,203.11z"/>
			</g>
			<g>
				<path class="st4" d="M356.74,207.83c1.31,3.08,2.66,6.14,4.03,9.19l2.08,4.57l2.1,4.56l4.3,9.07l4.37,9.04l-1.3-0.75
					c1.29-0.17,2.58-0.35,3.86-0.55l3.85-0.6l3.84-0.65l3.83-0.7l7.64-1.48l3.82-0.76c1.28-0.25,2.56-0.51,3.85-0.73
					c0.35-0.06,0.69,0.17,0.75,0.52c0.05,0.29-0.11,0.58-0.36,0.7c-1.2,0.56-2.43,1.05-3.67,1.52c-1.24,0.45-2.5,0.88-3.76,1.26
					c-1.26,0.39-2.54,0.73-3.82,1.06c-1.28,0.33-2.58,0.59-3.87,0.87c-2.59,0.51-5.2,0.95-7.82,1.29c-2.62,0.36-5.24,0.59-7.87,0.79
					l-0.07,0.01c-0.54,0.04-1.03-0.28-1.22-0.76l-3.78-9.3l-3.85-9.27l-1.98-4.61l-2-4.6c-1.34-3.06-2.71-6.12-4.12-9.15
					c-0.15-0.32-0.01-0.7,0.31-0.85c0.32-0.15,0.7-0.01,0.85,0.31C356.74,207.82,356.74,207.83,356.74,207.83z"/>
			</g>
			<g>
				<path class="st4" d="M348.94,214.87c1.44,3.28,2.91,6.54,4.4,9.79l2.27,4.87l2.29,4.86c1.56,3.22,3.09,6.46,4.68,9.67l4.74,9.64
					l-1.34-0.75c2.68-0.41,5.35-0.82,8.04-1.18l4.02-0.54c1.34-0.17,2.68-0.36,4.03-0.5c1.35-0.15,2.69-0.32,4.04-0.44
					c1.35-0.13,2.7-0.26,4.05-0.35c2.7-0.2,5.41-0.36,8.14-0.36h0.01c0.36,0,0.65,0.29,0.65,0.64c0,0.3-0.21,0.56-0.49,0.63
					c-2.64,0.67-5.31,1.18-7.98,1.65c-1.33,0.24-2.67,0.45-4.01,0.65c-1.34,0.22-2.68,0.38-4.02,0.57c-1.34,0.19-2.69,0.34-4.03,0.5
					l-4.03,0.47c-2.69,0.31-5.39,0.57-8.08,0.83l-0.08,0.01c-0.55,0.05-1.06-0.27-1.26-0.75l-4.15-9.91
					c-1.38-3.3-2.81-6.59-4.21-9.88l-2.16-4.91l-2.18-4.91c-1.47-3.26-2.96-6.52-4.49-9.75c-0.15-0.32-0.01-0.7,0.31-0.85
					c0.32-0.15,0.7-0.01,0.85,0.31C348.93,214.86,348.94,214.87,348.94,214.87z"/>
			</g>
			<g>
				<path class="st4" d="M339.23,223.92c1.55,3.34,3.14,6.67,4.75,9.98l4.89,9.91l5.01,9.85l5.08,9.82l-1.2-0.72
					c2.89-0.19,5.78-0.36,8.67-0.44c1.44-0.05,2.89-0.09,4.33-0.11c1.44-0.02,2.89-0.06,4.33-0.05c1.44,0.01,2.88-0.02,4.32,0.01
					c1.44,0.02,2.88,0.03,4.32,0.08c1.44,0.03,2.88,0.09,4.32,0.15c1.44,0.07,2.88,0.13,4.32,0.25c0.36,0.03,0.62,0.34,0.6,0.69
					c-0.02,0.3-0.26,0.54-0.54,0.59c-2.87,0.46-5.76,0.72-8.65,0.91c-2.89,0.19-5.77,0.28-8.66,0.33c-1.44,0.04-2.88,0.03-4.32,0.05
					l-4.32,0.03l-8.62,0.06l-0.08,0c-0.5,0-0.93-0.29-1.12-0.72l-4.5-10.1l-4.57-10.07l-4.69-10.01c-1.58-3.33-3.19-6.64-4.83-9.94
					c-0.16-0.32-0.03-0.7,0.29-0.86c0.32-0.16,0.7-0.03,0.86,0.29C339.22,223.91,339.22,223.92,339.23,223.92z"/>
			</g>
			<g>
				<path class="st4" d="M331.28,233.58c0.58,1.84,1.16,3.66,1.77,5.47c0.63,1.81,1.28,3.61,1.95,5.41
					c1.36,3.58,2.82,7.13,4.37,10.63c1.58,3.49,3.23,6.95,4.99,10.35c0.89,1.7,1.79,3.38,2.71,5.06l2.81,5l-1.15-0.67
					c2.99-0.13,5.98-0.28,8.97-0.36l4.49-0.12c1.5-0.03,2.99-0.08,4.49-0.09c2.99-0.04,5.99-0.04,8.98,0.04
					c1.5,0.03,2.99,0.09,4.49,0.16c1.5,0.08,3,0.17,4.5,0.32c0.36,0.03,0.61,0.35,0.58,0.71c-0.03,0.3-0.27,0.54-0.55,0.58
					c-1.49,0.21-2.99,0.35-4.48,0.49c-1.49,0.13-2.99,0.25-4.48,0.33c-2.99,0.2-5.98,0.31-8.97,0.38c-1.5,0.05-2.99,0.05-4.49,0.08
					l-4.49,0.05c-2.99,0.03-5.99,0-8.98-0.01l-0.06,0c-0.47,0-0.88-0.27-1.08-0.67c-0.88-1.72-1.74-3.45-2.57-5.19
					c-0.83-1.74-1.64-3.5-2.43-5.26l-2.34-5.29c-0.76-1.77-1.5-3.55-2.23-5.34c-0.72-1.79-1.45-3.57-2.15-5.37
					c-0.7-1.8-1.36-3.6-2.04-5.41c-1.33-3.61-2.61-7.26-3.83-10.9c-0.11-0.34,0.06-0.7,0.4-0.81c0.34-0.11,0.7,0.06,0.81,0.4
					C331.28,233.57,331.28,233.58,331.28,233.58z"/>
			</g>
			<g>
				<path class="st4" d="M323.67,247.48c1.28,3.42,2.59,6.82,3.92,10.22l4.06,10.17l4.19,10.12l4.26,10.09l-1.13-0.8
					c1.48,0,2.95-0.02,4.43-0.06l4.42-0.17l4.42-0.26c1.47-0.1,2.94-0.23,4.41-0.35l4.41-0.41l4.42-0.44l4.43-0.45
					c1.48-0.14,2.96-0.29,4.45-0.39c0.36-0.03,0.67,0.24,0.69,0.6c0.02,0.3-0.17,0.57-0.45,0.66c-1.43,0.46-2.89,0.85-4.34,1.21
					c-1.46,0.35-2.93,0.67-4.4,0.95c-1.47,0.29-2.96,0.52-4.45,0.74c-1.49,0.22-2.98,0.37-4.48,0.53c-1.5,0.15-3,0.24-4.5,0.34
					c-1.5,0.09-3.01,0.14-4.51,0.18c-1.5,0.03-3.01,0.03-4.51,0c-1.5-0.04-3.01-0.09-4.51-0.17l-0.06,0
					c-0.5-0.03-0.91-0.35-1.07-0.8l-3.67-10.32l-3.74-10.29l-3.87-10.24c-1.31-3.41-2.64-6.8-4.01-10.19
					c-0.13-0.33,0.03-0.7,0.35-0.83c0.33-0.13,0.7,0.03,0.83,0.35C323.66,247.47,323.66,247.48,323.67,247.48z"/>
			</g>
			<g>
				<path class="st4" d="M317.51,270.05l-1.41-2.44l1.07-0.56c0.53,1.25,1.09,2.49,1.64,3.74c0.55,1.25,1.11,2.49,1.68,3.72
					l1.71,3.71c0.57,1.24,1.17,2.46,1.75,3.69c1.17,2.46,2.35,4.91,3.57,7.35l3.59,7.34l-1.17-0.81c1.93,0.01,3.85,0.08,5.78,0.13
					c1.92,0.08,3.85,0.14,5.77,0.27c0.96,0.05,1.92,0.13,2.88,0.21c0.96,0.07,1.93,0.18,2.87,0.29c1.87,0.23,3.63,0.41,5.35-0.01
					l0.02-0.01c0.35-0.09,0.7,0.13,0.78,0.47c0.07,0.28-0.05,0.56-0.28,0.7c-0.9,0.57-1.94,0.91-2.97,1.1
					c-1.03,0.19-2.05,0.23-3.04,0.25c-0.98-0.01-1.93,0.04-2.9,0.01c-0.96-0.01-1.93-0.01-2.89-0.05c-1.92-0.05-3.85-0.16-5.77-0.25
					c-1.92-0.12-3.84-0.22-5.76-0.39l-0.08-0.01c-0.5-0.04-0.91-0.37-1.08-0.8l-3.04-7.59c-0.99-2.54-2.02-5.06-3.06-7.58
					c-0.52-1.26-1.02-2.53-1.56-3.78l-1.61-3.75c-0.53-1.25-1.07-2.5-1.63-3.74c-0.55-1.24-1.09-2.49-1.67-3.73
					c-0.14-0.3-0.01-0.66,0.29-0.8c0.28-0.13,0.61-0.03,0.77,0.23l0.01,0.02l1.47,2.4c0.19,0.3,0.09,0.7-0.21,0.88
					c-0.3,0.19-0.7,0.09-0.88-0.21C317.51,270.06,317.51,270.05,317.51,270.05z"/>
			</g>
		</g>
		<g>
			<g>
				<path class="st5" d="M442.84,237.24c0,0-165.75,30.25-132.1,136.04"/>
				<path class="st6" d="M442.84,237.24c0,0-163.15,32.78-132.1,136.04"/>
				<path class="st7" d="M442.84,237.24c0,0-160.55,35.3-132.1,136.04"/>
				<path class="st8" d="M442.84,237.24c0,0-157.95,37.83-132.1,136.04"/>
				<path class="st9" d="M442.84,237.24c0,0-155.35,40.35-132.1,136.04"/>
				<path class="st10" d="M442.84,237.24c0,0-152.75,42.88-132.1,136.04"/>
				<path class="st11" d="M442.84,237.24c0,0-150.15,45.4-132.1,136.04"/>
				<path class="st12" d="M442.84,237.24c0,0-147.55,47.92-132.1,136.04"/>
				<path class="st13" d="M442.84,237.24c0,0-144.95,50.45-132.1,136.04"/>
				<path class="st14" d="M442.84,237.24c0,0-142.35,52.97-132.1,136.04"/>
				<path class="st15" d="M442.84,237.24c0,0-139.76,55.5-132.1,136.04"/>
				<path class="st16" d="M442.84,237.24c0,0-137.16,58.02-132.1,136.04"/>
				<path class="st17" d="M442.84,237.24c0,0-134.56,60.55-132.1,136.04"/>
				<path class="st18" d="M442.84,237.24c0,0-131.96,63.07-132.1,136.04"/>
				<path class="st19" d="M442.84,237.24c0,0-129.36,65.6-132.1,136.04"/>
				<path class="st20" d="M442.84,237.24c0,0-126.76,68.12-132.1,136.04"/>
				<path class="st21" d="M442.84,237.24c0,0-124.16,70.64-132.1,136.04"/>
				<path class="st22" d="M442.84,237.24c0,0-121.56,73.17-132.1,136.04"/>
				<path class="st23" d="M442.84,237.24c0,0-118.96,75.69-132.1,136.04"/>
				<path class="st24" d="M442.84,237.24c0,0-116.36,78.22-132.1,136.04"/>
				<path class="st25" d="M442.84,237.24c0,0-113.76,80.74-132.1,136.04"/>
				<path class="st26" d="M442.84,237.24c0,0-111.16,83.27-132.1,136.04"/>
				<path class="st27" d="M442.84,237.24c0,0-108.56,85.79-132.1,136.04"/>
				<path class="st28" d="M442.84,237.24c0,0-105.96,88.31-132.1,136.04"/>
				<path class="st29" d="M442.84,237.24c0,0-103.36,90.84-132.1,136.04"/>
				<path class="st30" d="M442.84,237.24c0,0-100.76,93.36-132.1,136.04"/>
				<path class="st31" d="M442.84,237.24c0,0-98.16,95.89-132.1,136.04"/>
				<path class="st32" d="M442.84,237.24c0,0-95.56,98.41-132.1,136.04"/>
				<path class="st33" d="M442.84,237.24c0,0-92.96,100.94-132.1,136.04"/>
				<path class="st34" d="M442.84,237.24c0,0-90.36,103.46-132.1,136.04"/>
				<path class="st35" d="M442.84,237.24c0,0-87.76,105.98-132.1,136.04"/>
				<path class="st36" d="M442.84,237.24c0,0-85.16,108.51-132.1,136.04"/>
				<path class="st37" d="M442.84,237.24c0,0-82.56,111.03-132.1,136.04"/>
				<path class="st38" d="M442.84,237.24c0,0-79.96,113.56-132.1,136.04"/>
				<path class="st39" d="M442.84,237.24c0,0-77.36,116.08-132.1,136.04"/>
				<path class="st40" d="M442.84,237.24c0,0-74.76,118.61-132.1,136.04"/>
				<path class="st41" d="M442.84,237.24c0,0-72.17,121.13-132.1,136.04"/>
				<path class="st42" d="M442.84,237.24c0,0-69.57,123.65-132.1,136.04"/>
				<path class="st43" d="M442.84,237.24c0,0-66.97,126.18-132.1,136.04"/>
				<path class="st44" d="M442.84,237.24c0,0-64.37,128.7-132.1,136.04"/>
				<path class="st45" d="M442.84,237.24c0,0-61.77,131.23-132.1,136.04"/>
				<path class="st46" d="M442.84,237.24c0,0-59.17,133.75-132.1,136.04"/>
				<path class="st47" d="M442.84,237.24c0,0-56.57,136.28-132.1,136.04"/>
				<path class="st48" d="M442.84,237.24c0,0-53.97,138.8-132.1,136.04"/>
				<path class="st49" d="M442.84,237.24c0,0-51.37,141.33-132.1,136.04"/>
				<path class="st50" d="M442.84,237.24c0,0-48.77,143.85-132.1,136.04"/>
				<path class="st51" d="M442.84,237.24c0,0-46.17,146.37-132.1,136.04"/>
				<path class="st52" d="M442.84,237.24c0,0-43.57,148.9-132.1,136.04"/>
				<path class="st53" d="M442.84,237.24c0,0-40.97,151.42-132.1,136.04"/>
				<path class="st54" d="M442.84,237.24c0,0-38.37,153.95-132.1,136.04"/>
				<path class="st55" d="M442.84,237.24c0,0-35.77,156.47-132.1,136.04"/>
				<path class="st56" d="M442.84,237.24c0,0-33.17,159-132.1,136.04"/>
				<path class="st57" d="M442.84,237.24c0,0-30.57,161.52-132.1,136.04"/>
				<path class="st58" d="M442.84,237.24c0,0-27.97,164.04-132.1,136.04"/>
				<path class="st3" d="M442.84,237.24c0,0-25.37,166.57-132.1,136.04"/>
			</g>
			<line class="st59" x1="436.97" y1="243.29" x2="313.19" y2="370.76"/>
			<polyline class="st59" points="369.75,268.29 367.65,314.67 413.99,311.24 			"/>
			<polyline class="st59" points="347.96,281.22 345.62,337.37 400.61,332.34 			"/>
			<polyline class="st59" points="347.96,281.22 345.62,337.37 400.61,332.34 			"/>
		</g>
		<g>
			<path class="st3" d="M175.94,302.86c-26.44,0.72-51.92-14.84-66.47-36.96c-14.54-22.11-18.91-49.87-15.62-76.06
				c20.3,1.22,39.91,8.08,55.69,20.94c15.78,12.87,27.38,30.77,32.65,50.4c3.3,12.27,3.97,26.02-2.36,37"/>
			<g>
				<path class="st4" d="M101.85,197.82c0,0,1.07,2.16,2.95,5.95c0.47,0.94,0.98,2,1.57,3.13c0.6,1.12,1.25,2.33,1.94,3.63
					c0.7,1.29,1.44,2.67,2.22,4.12c0.81,1.43,1.67,2.94,2.56,4.52c0.9,1.57,1.81,3.22,2.81,4.89c1.01,1.67,2.05,3.4,3.12,5.17
					c2.11,3.57,4.54,7.21,7,11c2.56,3.73,5.14,7.62,7.95,11.45c2.74,3.87,5.72,7.67,8.63,11.51c3.03,3.75,5.97,7.56,9.06,11.16
					c3.02,3.66,6.12,7.15,9.05,10.57c1.51,1.67,3,3.32,4.46,4.93c1.45,1.62,2.89,3.18,4.33,4.67c1.41,1.51,2.79,2.98,4.12,4.4
					c1.35,1.4,2.66,2.75,3.91,4.05c1.25,1.3,2.45,2.55,3.59,3.74c1.16,1.17,2.25,2.28,3.29,3.33c2.06,2.1,3.87,3.91,5.37,5.39
					c3,2.97,4.68,4.71,4.68,4.71l0.01,0.01c0.25,0.26,0.24,0.66-0.02,0.91c-0.24,0.23-0.6,0.24-0.85,0.04c0,0-1.89-1.52-5.13-4.25
					c-0.8-0.69-1.73-1.42-2.68-2.28c-0.95-0.86-1.97-1.79-3.06-2.79c-1.09-0.99-2.26-2.05-3.48-3.17c-1.22-1.13-2.44-2.37-3.75-3.63
					c-1.29-1.28-2.67-2.58-4.02-4c-1.35-1.42-2.75-2.89-4.19-4.39c-1.44-1.51-2.87-3.1-4.32-4.74c-1.45-1.64-2.94-3.31-4.45-5.01
					c-2.94-3.47-6.02-7.02-8.94-10.8c-3.01-3.71-5.89-7.61-8.81-11.48c-2.81-3.95-5.68-7.86-8.31-11.83
					c-2.73-3.91-5.25-7.87-7.73-11.67c-1.22-1.92-2.37-3.83-3.52-5.68c-1.16-1.85-2.3-3.66-3.34-5.46
					c-1.06-1.79-2.09-3.53-3.09-5.21c-0.99-1.69-1.89-3.35-2.79-4.93c-0.89-1.58-1.73-3.1-2.54-4.55c-0.77-1.46-1.51-2.85-2.2-4.16
					c-1.38-2.61-2.6-4.88-3.54-6.77c-1.92-3.77-3.01-5.92-3.01-5.92c-0.16-0.32-0.03-0.7,0.28-0.86
					C101.3,197.38,101.68,197.5,101.85,197.82L101.85,197.82z"/>
			</g>
			<g>
				<path class="st4" d="M114.98,225.3c0,0,0.13-0.47,0.31-1.29c0.2-0.82,0.4-1.99,0.64-3.42c0.19-1.43,0.44-3.1,0.59-4.9
					c0.18-1.8,0.27-3.73,0.38-5.67c0.11-1.94,0.22-3.87,0.44-5.68c0.22-1.81,0.44-3.5,0.81-4.92c0.33-1.43,0.75-2.6,1.09-3.4
					c0.35-0.81,0.61-1.25,0.61-1.25c0.19-0.32,0.6-0.43,0.92-0.24c0.19,0.11,0.3,0.3,0.33,0.5l0,0.02c0,0,0.06,0.5,0.05,1.35
					c0,0.42-0.01,0.94-0.03,1.53c-0.05,0.58-0.07,1.25-0.15,1.96c-0.12,1.43-0.4,3.09-0.69,4.87c-0.3,1.78-0.69,3.67-1.09,5.57
					c-0.41,1.9-0.82,3.79-1.16,5.58c-0.33,1.79-0.64,3.46-0.91,4.89c-0.26,1.44-0.48,2.63-0.64,3.47c-0.17,0.83-0.24,1.31-0.24,1.31
					c-0.06,0.35-0.39,0.59-0.74,0.53c-0.35-0.06-0.59-0.39-0.53-0.74C114.97,225.34,114.97,225.32,114.98,225.3z"/>
			</g>
			<g>
				<path class="st4" d="M115.41,226.04c0,0-0.34-0.14-0.94-0.34c-0.6-0.22-1.47-0.49-2.52-0.82c-1.05-0.31-2.28-0.68-3.61-1.01
					c-1.33-0.35-2.77-0.65-4.2-0.95c-1.44-0.31-2.87-0.63-4.18-1.01c-1.32-0.38-2.54-0.76-3.55-1.2c-1.01-0.43-1.82-0.89-2.38-1.26
					c-0.56-0.36-0.85-0.62-0.85-0.62c-0.29-0.26-0.31-0.7-0.05-0.99c0.12-0.13,0.28-0.21,0.45-0.23c0,0,0.4-0.04,1.06,0
					c0.66,0.03,1.59,0.14,2.66,0.38c1.08,0.23,2.28,0.65,3.57,1.11c1.29,0.46,2.64,1.05,3.98,1.64c1.34,0.6,2.68,1.2,3.96,1.7
					c1.27,0.51,2.48,0.94,3.51,1.3c1.04,0.34,1.9,0.64,2.52,0.81c0.61,0.19,0.97,0.28,0.97,0.28c0.34,0.09,0.55,0.44,0.47,0.78
					c-0.09,0.34-0.44,0.55-0.78,0.47C115.46,226.06,115.43,226.05,115.41,226.04z"/>
			</g>
			<g>
				<path class="st4" d="M135.64,202.94c-1.19,2.61-2.36,5.23-3.49,7.86l-1.68,3.96l-1.66,3.97c-1.07,2.66-2.17,5.31-3.22,7.98
					l-3.15,8.01c-0.21,0.53-0.75,0.83-1.28,0.76l-0.09-0.01c-2.19-0.27-4.39-0.53-6.57-0.85c-1.09-0.15-2.19-0.31-3.28-0.48
					c-1.09-0.17-2.19-0.32-3.27-0.51c-1.09-0.19-2.18-0.35-3.26-0.58c-1.09-0.21-2.17-0.42-3.25-0.66
					c-2.16-0.47-4.32-0.99-6.44-1.67c-0.34-0.11-0.53-0.47-0.42-0.81c0.09-0.28,0.35-0.45,0.62-0.45c2.23,0.01,4.44,0.17,6.65,0.39
					c1.1,0.1,2.2,0.23,3.3,0.37c1.1,0.12,2.19,0.3,3.28,0.45c1.09,0.15,2.18,0.34,3.27,0.52c1.09,0.17,2.18,0.35,3.27,0.55
					c2.18,0.37,4.35,0.79,6.52,1.21l-1.38,0.75l3.74-7.75c1.25-2.58,2.45-5.19,3.68-7.78l1.78-3.91l1.77-3.92
					c1.16-2.62,2.3-5.25,3.41-7.9c0.14-0.33,0.51-0.48,0.84-0.34s0.48,0.51,0.34,0.84C135.65,202.92,135.65,202.93,135.64,202.94z"
					/>
			</g>
			<g>
				<path class="st4" d="M144.64,207.67c-1.4,3.04-2.77,6.09-4.12,9.15l-2,4.6l-1.98,4.61l-3.85,9.27l-3.78,9.3
					c-0.2,0.5-0.71,0.8-1.22,0.76l-0.08-0.01c-2.63-0.2-5.26-0.43-7.87-0.79c-2.62-0.34-5.22-0.78-7.82-1.29
					c-1.29-0.28-2.59-0.54-3.87-0.87c-1.28-0.33-2.56-0.67-3.82-1.06c-1.27-0.38-2.52-0.81-3.76-1.26
					c-1.24-0.47-2.47-0.96-3.67-1.52c-0.32-0.15-0.46-0.54-0.31-0.86c0.13-0.27,0.42-0.41,0.7-0.36c1.3,0.22,2.57,0.48,3.85,0.73
					l3.82,0.76l7.64,1.48l3.83,0.7l3.84,0.65l3.85,0.6c1.28,0.19,2.57,0.38,3.86,0.55l-1.3,0.75l4.37-9.04l4.3-9.07l2.1-4.56
					l2.08-4.57c1.37-3.05,2.72-6.11,4.03-9.19c0.14-0.33,0.52-0.48,0.84-0.34c0.33,0.14,0.48,0.52,0.34,0.84
					C144.65,207.66,144.65,207.67,144.64,207.67z"/>
			</g>
			<g>
				<path class="st4" d="M152.44,214.72c-1.53,3.24-3.02,6.49-4.49,9.75l-2.18,4.91l-2.16,4.91c-1.4,3.29-2.83,6.57-4.21,9.88
					l-4.15,9.91c-0.21,0.51-0.73,0.81-1.26,0.75l-0.08-0.01c-2.7-0.26-5.39-0.52-8.08-0.83l-4.03-0.47
					c-1.34-0.16-2.69-0.31-4.03-0.5c-1.34-0.18-2.68-0.35-4.02-0.57c-1.34-0.2-2.68-0.41-4.01-0.65c-2.67-0.47-5.33-0.98-7.98-1.65
					c-0.35-0.09-0.56-0.44-0.47-0.78c0.07-0.29,0.34-0.49,0.63-0.49l0.01,0c2.73,0,5.44,0.16,8.14,0.36c1.35,0.1,2.7,0.22,4.05,0.35
					c1.35,0.12,2.69,0.29,4.04,0.44c1.35,0.15,2.69,0.33,4.03,0.5l4.03,0.54c2.68,0.36,5.36,0.77,8.04,1.18l-1.34,0.75l4.74-9.64
					c1.58-3.21,3.12-6.44,4.68-9.67l2.28-4.86l2.27-4.87c1.5-3.25,2.97-6.51,4.4-9.79c0.14-0.32,0.52-0.47,0.85-0.33
					c0.32,0.14,0.47,0.52,0.33,0.85C152.45,214.71,152.45,214.71,152.44,214.72z"/>
			</g>
			<g>
				<path class="st4" d="M162.14,223.8c-1.64,3.3-3.25,6.61-4.83,9.94l-4.69,10.01l-4.57,10.07l-4.5,10.1
					c-0.2,0.46-0.65,0.73-1.12,0.72l-0.08,0l-8.62-0.06l-4.32-0.03c-1.44-0.02-2.88-0.01-4.32-0.05c-2.88-0.05-5.77-0.13-8.66-0.33
					c-2.89-0.19-5.77-0.44-8.65-0.91c-0.35-0.06-0.59-0.39-0.54-0.74c0.05-0.3,0.3-0.52,0.59-0.54c1.44-0.12,2.88-0.18,4.32-0.25
					c1.44-0.06,2.88-0.12,4.32-0.15c1.44-0.05,2.88-0.06,4.32-0.08c1.44-0.03,2.88-0.01,4.32-0.01c1.44-0.01,2.88,0.04,4.33,0.05
					c1.44,0.02,2.89,0.05,4.33,0.11c2.89,0.08,5.78,0.25,8.67,0.44l-1.2,0.72l5.08-9.82l5.01-9.85l4.89-9.91
					c1.61-3.31,3.19-6.64,4.75-9.98c0.15-0.32,0.53-0.46,0.85-0.31c0.32,0.15,0.46,0.53,0.31,0.85
					C162.15,223.79,162.15,223.79,162.14,223.8z"/>
			</g>
			<g>
				<path class="st4" d="M170.15,233.3c-1.22,3.64-2.5,7.29-3.83,10.9c-0.68,1.8-1.34,3.61-2.04,5.41c-0.7,1.8-1.43,3.58-2.15,5.37
					c-0.72,1.79-1.47,3.56-2.23,5.34l-2.34,5.29c-0.79,1.76-1.6,3.51-2.43,5.26c-0.83,1.74-1.69,3.47-2.57,5.19
					c-0.21,0.42-0.64,0.66-1.08,0.67l-0.07,0c-2.99,0.01-5.99,0.05-8.98,0.01l-4.49-0.05c-1.5-0.03-2.99-0.03-4.49-0.08
					c-2.99-0.08-5.98-0.19-8.97-0.38c-1.49-0.08-2.99-0.21-4.48-0.33c-1.49-0.14-2.99-0.28-4.48-0.49c-0.35-0.05-0.6-0.37-0.55-0.73
					c0.04-0.3,0.29-0.53,0.58-0.55c1.5-0.15,3-0.24,4.5-0.32c1.5-0.07,3-0.14,4.49-0.16c2.99-0.08,5.99-0.08,8.98-0.04
					c1.5,0.01,2.99,0.06,4.49,0.09l4.49,0.12c2.99,0.08,5.98,0.23,8.97,0.36l-1.15,0.67l2.81-5c0.92-1.68,1.82-3.36,2.71-5.06
					c1.76-3.4,3.41-6.86,4.99-10.35c1.55-3.5,3.01-7.05,4.37-10.63c0.67-1.8,1.32-3.6,1.95-5.41c0.61-1.81,1.2-3.64,1.77-5.47
					c0.11-0.34,0.47-0.53,0.8-0.42c0.34,0.11,0.53,0.47,0.42,0.8C170.16,233.29,170.15,233.3,170.15,233.3z"/>
			</g>
			<g>
				<path class="st4" d="M177.74,247.27c-1.37,3.38-2.7,6.78-4.01,10.19l-3.87,10.24l-3.74,10.29l-3.67,10.32
					c-0.17,0.47-0.6,0.77-1.07,0.8l-0.07,0c-1.5,0.08-3.01,0.13-4.51,0.17c-1.5,0.03-3.01,0.03-4.51,0
					c-1.5-0.03-3.01-0.08-4.51-0.18c-1.5-0.1-3-0.2-4.5-0.34c-1.5-0.16-2.99-0.31-4.48-0.53c-1.49-0.22-2.97-0.45-4.45-0.74
					c-1.48-0.28-2.94-0.6-4.4-0.95c-1.46-0.37-2.91-0.75-4.34-1.21c-0.34-0.11-0.53-0.47-0.42-0.81c0.09-0.29,0.37-0.47,0.66-0.45
					c1.49,0.1,2.97,0.25,4.45,0.39l4.43,0.45l4.42,0.44l4.41,0.41c1.47,0.12,2.94,0.25,4.41,0.35l4.42,0.26l4.42,0.17
					c1.48,0.04,2.95,0.06,4.43,0.06l-1.13,0.8l4.26-10.09l4.19-10.12l4.06-10.17c1.34-3.39,2.64-6.8,3.92-10.22
					c0.12-0.33,0.49-0.5,0.83-0.38c0.33,0.12,0.5,0.49,0.38,0.83C177.75,247.25,177.74,247.26,177.74,247.27z"/>
			</g>
			<g>
				<path class="st4" d="M181.6,268.71l1.47-2.4l0.01-0.02c0.17-0.28,0.55-0.37,0.83-0.2c0.26,0.16,0.36,0.5,0.23,0.77
					c-0.58,1.23-1.11,2.48-1.67,3.73c-0.55,1.24-1.1,2.49-1.63,3.74l-1.61,3.75c-0.54,1.25-1.04,2.52-1.56,3.78
					c-1.04,2.52-2.06,5.04-3.05,7.58l-3.04,7.59c-0.19,0.46-0.61,0.76-1.08,0.8l-0.09,0.01c-1.92,0.16-3.84,0.27-5.76,0.39
					c-1.92,0.1-3.84,0.21-5.77,0.25c-0.96,0.04-1.93,0.04-2.89,0.05c-0.97,0.02-1.92-0.02-2.9-0.01c-0.99-0.02-2.01-0.06-3.04-0.25
					c-1.03-0.19-2.07-0.52-2.97-1.1c-0.3-0.19-0.39-0.59-0.2-0.89c0.15-0.24,0.44-0.35,0.7-0.28l0.02,0.01
					c1.72,0.42,3.48,0.25,5.35,0.01c0.94-0.11,1.91-0.22,2.87-0.29c0.96-0.08,1.92-0.16,2.88-0.21c1.92-0.13,3.84-0.19,5.77-0.27
					c1.92-0.05,3.85-0.12,5.78-0.13l-1.17,0.81l3.59-7.34c1.22-2.44,2.4-4.89,3.57-7.35c0.58-1.23,1.19-2.45,1.75-3.69l1.71-3.71
					c0.57-1.23,1.13-2.48,1.68-3.72c0.55-1.24,1.12-2.48,1.64-3.74l1.07,0.56l-1.41,2.44c-0.18,0.31-0.57,0.41-0.88,0.23
					c-0.31-0.18-0.41-0.57-0.23-0.88C181.6,268.72,181.6,268.71,181.6,268.71z"/>
			</g>
		</g>
		<g>
			<g>
				<path class="st5" d="M57.38,236.56c0,0,165.75,30.25,132.1,136.04"/>
				<path class="st6" d="M57.38,236.56c0,0,163.15,32.78,132.1,136.04"/>
				<path class="st7" d="M57.38,236.56c0,0,160.55,35.3,132.1,136.04"/>
				<path class="st8" d="M57.38,236.56c0,0,157.95,37.83,132.1,136.04"/>
				<path class="st9" d="M57.38,236.56c0,0,155.35,40.35,132.1,136.04"/>
				<path class="st10" d="M57.38,236.56c0,0,152.75,42.88,132.1,136.04"/>
				<path class="st11" d="M57.38,236.56c0,0,150.15,45.4,132.1,136.04"/>
				<path class="st12" d="M57.38,236.56c0,0,147.55,47.92,132.1,136.04"/>
				<path class="st13" d="M57.38,236.56c0,0,144.95,50.45,132.1,136.04"/>
				<path class="st14" d="M57.38,236.56c0,0,142.35,52.97,132.1,136.04"/>
				<path class="st15" d="M57.38,236.56c0,0,139.76,55.5,132.1,136.04"/>
				<path class="st16" d="M57.38,236.56c0,0,137.16,58.02,132.1,136.04"/>
				<path class="st17" d="M57.38,236.56c0,0,134.56,60.55,132.1,136.04"/>
				<path class="st18" d="M57.38,236.56c0,0,131.96,63.07,132.1,136.04"/>
				<path class="st19" d="M57.38,236.56c0,0,129.36,65.6,132.1,136.04"/>
				<path class="st20" d="M57.38,236.56c0,0,126.76,68.12,132.1,136.04"/>
				<path class="st21" d="M57.38,236.56c0,0,124.16,70.64,132.1,136.04"/>
				<path class="st22" d="M57.38,236.56c0,0,121.56,73.17,132.1,136.04"/>
				<path class="st23" d="M57.38,236.56c0,0,118.96,75.69,132.1,136.04"/>
				<path class="st24" d="M57.38,236.56c0,0,116.36,78.22,132.1,136.04"/>
				<path class="st25" d="M57.38,236.56c0,0,113.76,80.74,132.1,136.04"/>
				<path class="st26" d="M57.38,236.56c0,0,111.16,83.27,132.1,136.04"/>
				<path class="st27" d="M57.38,236.56c0,0,108.56,85.79,132.1,136.04"/>
				<path class="st28" d="M57.38,236.56c0,0,105.96,88.31,132.1,136.04"/>
				<path class="st29" d="M57.38,236.56c0,0,103.36,90.84,132.1,136.04"/>
				<path class="st30" d="M57.38,236.56c0,0,100.76,93.36,132.1,136.04"/>
				<path class="st31" d="M57.38,236.56c0,0,98.16,95.89,132.1,136.04"/>
				<path class="st32" d="M57.38,236.56c0,0,95.56,98.41,132.1,136.04"/>
				<path class="st33" d="M57.38,236.56c0,0,92.96,100.94,132.1,136.04"/>
				<path class="st34" d="M57.38,236.56c0,0,90.36,103.46,132.1,136.04"/>
				<path class="st35" d="M57.38,236.56c0,0,87.76,105.98,132.1,136.04"/>
				<path class="st36" d="M57.38,236.56c0,0,85.16,108.51,132.1,136.04"/>
				<path class="st37" d="M57.38,236.56c0,0,82.56,111.03,132.1,136.04"/>
				<path class="st38" d="M57.38,236.56c0,0,79.96,113.56,132.1,136.04"/>
				<path class="st39" d="M57.38,236.56c0,0,77.36,116.08,132.1,136.04"/>
				<path class="st40" d="M57.38,236.56c0,0,74.76,118.61,132.1,136.04"/>
				<path class="st41" d="M57.38,236.56c0,0,72.17,121.13,132.1,136.04"/>
				<path class="st42" d="M57.38,236.56c0,0,69.57,123.65,132.1,136.04"/>
				<path class="st43" d="M57.38,236.56c0,0,66.97,126.18,132.1,136.04"/>
				<path class="st44" d="M57.38,236.56c0,0,64.37,128.7,132.1,136.04"/>
				<path class="st45" d="M57.38,236.56c0,0,61.77,131.23,132.1,136.04"/>
				<path class="st46" d="M57.38,236.56c0,0,59.17,133.75,132.1,136.04"/>
				<path class="st47" d="M57.38,236.56c0,0,56.57,136.28,132.1,136.04"/>
				<path class="st48" d="M57.38,236.56c0,0,53.97,138.8,132.1,136.04"/>
				<path class="st49" d="M57.38,236.56c0,0,51.37,141.33,132.1,136.04"/>
				<path class="st50" d="M57.38,236.56c0,0,48.77,143.85,132.1,136.04"/>
				<path class="st51" d="M57.38,236.56c0,0,46.17,146.37,132.1,136.04"/>
				<path class="st52" d="M57.38,236.56c0,0,43.57,148.9,132.1,136.04"/>
				<path class="st53" d="M57.38,236.56c0,0,40.97,151.42,132.1,136.04"/>
				<path class="st54" d="M57.38,236.56c0,0,38.37,153.95,132.1,136.04"/>
				<path class="st55" d="M57.38,236.56c0,0,35.77,156.47,132.1,136.04"/>
				<path class="st56" d="M57.38,236.56c0,0,33.17,159,132.1,136.04"/>
				<path class="st57" d="M57.38,236.56c0,0,30.57,161.52,132.1,136.04"/>
				<path class="st58" d="M57.38,236.56c0,0,27.97,164.04,132.1,136.04"/>
				<path class="st3" d="M57.38,236.56c0,0,25.37,166.57,132.1,136.04"/>
			</g>
			<line class="st59" x1="63.25" y1="242.61" x2="187.02" y2="370.08"/>
			<polyline class="st59" points="130.46,267.6 132.56,313.99 86.23,310.56 			"/>
			<polyline class="st59" points="152.25,280.54 154.6,336.68 99.6,331.66 			"/>
			<polyline class="st59" points="152.25,280.54 154.6,336.68 99.6,331.66 			"/>
		</g>
		<g>
			<g>
				<g>
					<path class="st60" d="M255.82,66.22c0,0,25.83,36.21,0,50.06"/>
					<path class="st60" d="M255.82,66.22c0,0,0,36.21,0,50.06"/>
					<path class="st60" d="M255.82,66.22c0,0-25.83,36.21,0,50.06"/>
				</g>
				<line class="st61" x1="255.82" y1="83" x2="255.82" y2="152.13"/>
				<polyline class="st62" points="261.56,88.23 255.82,94.71 250.08,88.23 				"/>
				<polyline class="st62" points="261.56,96.59 255.82,103.07 250.08,96.59 				"/>
			</g>
			<g>
				<g>
					<path class="st60" d="M297.31,109.13c0,0-12.18,29.24-30.27,18.83"/>
					<path class="st60" d="M297.31,109.13c0,0-21.9,13.62-30.27,18.83"/>
					<path class="st60" d="M297.31,109.13c0,0-31.61-2-30.27,18.83"/>
				</g>
				<line class="st63" x1="287.16" y1="115.44" x2="255.82" y2="134.94"/>
				<polyline class="st64" points="286.16,120.88 280.08,119.85 281.84,113.94 				"/>
				<polyline class="st64" points="281.11,124.02 275.03,122.99 276.79,117.08 				"/>
			</g>
			<g>
				<g>
					<path class="st60" d="M214.33,109.13c0,0,12.18,29.24,30.27,18.83"/>
					<path class="st60" d="M214.33,109.13c0,0,21.9,13.62,30.27,18.83"/>
					<path class="st60" d="M214.33,109.13c0,0,31.61-2,30.27,18.83"/>
				</g>
				<line class="st63" x1="224.48" y1="115.44" x2="255.82" y2="134.94"/>
				<polyline class="st64" points="225.49,120.88 231.56,119.85 229.8,113.94 				"/>
				<polyline class="st64" points="230.54,124.02 236.61,122.99 234.85,117.08 				"/>
			</g>
		</g>
		<g>
			<g>
				<defs>
					<path id="SVGID_1_" d="M185.44,338.5c22.17,17.97,52.92,23.86,81.15,19.69c37.69-5.57,71.72-32.07,85.88-67.44
						c14.16-35.38,7.66-78.31-16.72-107.59c-24.38-29.28-65.75-43.45-102.85-34.75c0,0-75.72,12.06-84.04,90.38
						C148.86,238.79,141.71,303.05,185.44,338.5z"/>
				</defs>
				<clipPath id="SVGID_2_">
					<use xlink:href="#SVGID_1_"  style="overflow:visible;"/>
				</clipPath>
				<path class="st65" d="M185.44,338.5c22.17,17.97,52.92,23.86,81.15,19.69c37.69-5.57,71.72-32.07,85.88-67.44
					c14.16-35.38,7.66-78.31-16.72-107.59c-24.38-29.28-65.75-43.45-102.85-34.75c0,0-75.72,12.06-84.04,90.38
					C148.86,238.79,141.71,303.05,185.44,338.5z"/>
				<path class="st66" d="M344.18,183.83c-6.67-9.28-22.92,1.58-34.03-1.1c-3.93-0.95-8.33-2.13-11.81-0.06
					c-3.92,2.33-4.73,7.74-3.95,12.24c0.78,4.5,2.71,8.83,2.63,13.4c-0.1,5.2-2.78,9.95-4.43,14.89
					c-1.65,4.94-2.01,11.05,1.71,14.69c2.03,1.98,4.88,2.82,7.36,4.2c2.48,1.38,4.83,3.82,4.48,6.64c-0.44,3.43-4.34,5.02-7.45,6.52
					c-13.77,6.66-20.31,25.18-13.77,39.01c2.23,4.72,5.68,8.77,8.19,13.35c5.29,9.67,6.03,21.7,1.98,31.95
					c-1.05,2.66-2.46,5.26-4.62,7.13c-2.79,2.41-6.54,3.37-10.18,3.95c-8.02,1.28-16.28,1.1-24.24-0.53
					c-6.26-1.28-13.36-4.64-14.16-10.98c-0.63-5.02,3.05-9.47,4.38-14.36c2.05-7.54-1.64-15.34-5.22-22.28
					c-1.58-3.06-3.35-6.31-6.44-7.83c-5.31-2.62-12.61,0.83-17.18-2.93c-2.77-2.28-3.27-6.29-5.22-9.3
					c-3.72-5.74-11.55-6.65-18.33-7.59c-6.78-0.93-14.72-3.61-16.28-10.27c-0.29-1.23-0.31-2.56,0.21-3.71
					c1.55-3.45,6.59-3.29,10.01-1.68c3.42,1.6,6.8,4.14,10.54,3.62c5.08-0.71,7.62-6.58,8.23-11.68c0.61-5.1,0.43-10.74,3.7-14.7
					c5.89-7.14,17.63-3.46,26.22-6.91c5.62-2.26,9.57-7.62,11.34-13.41c1.76-5.79,1.59-12,0.86-18c-0.71-5.85-2.42-12.35-7.55-15.24
					c-6.68-3.76-14.83,0.63-22.48,1.13c-9.76,0.63-18.57-5.22-27.67-8.78c-9.1-3.57-21.46-3.91-26.61,4.41
					c0,0-70.89,74.05,5.35,165.58c0,0,83.87,63.57,158.21-4.41C327.95,340.76,409.98,275.33,344.18,183.83z"/>
				<path class="st67" d="M148.85,260.25c0.28,3.14,5.04,8.27,7.5,10.24c1.35,1.09,3.04,1.99,3.63,3.62
					c0.37,1.03,0.21,2.18,0.42,3.26c0.92,4.74,8.16,6.32,8.71,11.12c0.13,1.17-0.2,2.38-0.9,3.32c-0.5,0.66-1.16,1.17-1.77,1.73
					c-3.64,3.38-5.07,8.86-3.74,13.64c9.71,34.71,52.92,47.08,52.92,47.08l0.27-1.35c3.53-8.34,9.44-15.65,16.84-20.87
					c2.49-1.76,5.35-3.53,6.23-6.46c0.67-2.23,0-4.62-0.66-6.85c-1.95-6.56-4.77-14.06-11.3-16.11c-5.55-1.74-12.35,1.12-17.03-2.34
					c-4.35-3.21-4.41-10.3-8.92-13.28c-2.39-1.58-5.46-1.58-8.33-1.53c-2.77,0.05-5.55,0.1-8.32,0.15
					c-1.87,0.03-3.84,0.05-5.49-0.83c-1.99-1.06-3.12-3.19-4.14-5.2c-3.25-6.4-6.59-13.31-5.24-20.47c0.82-4.38,3.79-8.16,7.97-9.7
					c5.57-2.05,8.61,1.37,12.25,3.55c2.2,1.31,5.03,2.16,7.27,0.93c2.63-1.44,3.2-5,2.76-7.97c-0.44-2.97-1.57-5.9-1.18-8.87
					c0.43-3.23,2.59-5.92,4.67-8.42c2.62-3.16,5.42-6.45,9.26-7.89c5.54-2.07,11.91,0.18,17.56-1.55c5.11-1.56,8.35-6.4,10.58-11.26
					c7.03-15.32-3.71-22.1-16.43-15.38c-4.01,2.12-9.33,0.6-13.13-1.87c-2.5-1.63-4.49-4.18-7.35-5.02
					c-2.88-0.85-6.16,0.21-8.86-1.09c-1.45-0.69-2.51-1.97-3.73-3.02c-2.93-2.53-9.44-5.07-13.29-4.63c0,0-1.68,1.27-4.31,4.45
					C170.95,184.56,144.56,211.5,148.85,260.25z"/>
				<path class="st67" d="M304.53,345.17c0.24-5.89,1.95-12.54,4.31-17.73c2.02-4.44,4.57-10.19,1.09-13.61
					c-0.8-0.79-1.83-1.31-2.6-2.11c-1.34-1.4-1.72-3.43-2.59-5.16c-1.83-3.64-5.69-5.69-9.06-7.99c-3.36-2.3-6.7-5.66-6.44-9.73
					c0.22-3.52,3.13-6.51,3.07-10.03c-0.02-1.34-0.48-2.64-0.57-3.98c-0.2-3.07,1.83-6.16,4.73-7.2c2.33-0.84,5.04-0.46,7.16-1.74
					c1-0.6,1.76-1.51,2.63-2.28c2.84-2.5,6.73-3.42,10.49-3.84c7.62-0.85,15.42-0.02,22.69,2.41c1.39,0.46,2.84,1,4.28,0.75
					c3.04-0.53,4.46-4.62,3-7.34c-1.46-2.72-4.84-3.95-7.92-3.71c-2.02,0.15-4.38,0.71-5.81-0.72c-0.65-0.65-0.94-1.61-1.63-2.23
					c-1.01-0.9-2.51-0.81-3.85-1.03c-5.98-0.98-8.78-8.41-14.41-10.64c-4.42-1.75-10.15-0.13-13.62-3.38
					c-1.96-1.84-2.5-5.02-1.26-7.4c1.24-2.38,4.16-3.76,6.79-3.2c2.17,0.46,4.92,1.88,6.22,0.08c1.12-1.55-0.38-3.6-1.77-4.91
					c-5.22-4.93-10.53-10.72-11.03-17.87c-0.23-3.21,0.55-6.4,1.33-9.53c2.34-1.58,5.49-0.05,7.7,1.7c2.21,1.75,4.67,3.87,7.45,3.4
					c1.45-0.25,2.68-1.18,3.92-1.98c6.9-4.41,17.12-4.57,24.37-0.78c0,0,22.7,29.75,16.65,74.38
					c-6.23,45.94-44.26,70.18-44.26,70.18L304.53,345.17z"/>
				<path class="st68" d="M266.59,358.19c-28.23,4.17-58.99-1.72-81.15-19.69c-43.73-35.46-36.58-99.72-36.58-99.72
					c3.41-32.13,18.17-53.11,34.39-66.68C183.25,172.1,120.9,329.33,266.59,358.19"/>
			</g>
		</g>
		<g>
			<polygon class="st69" points="239.04,256.02 244.27,258.84 239.95,239.92 220.2,245.4 225.59,248.47 221.86,255.03 
				222.11,257.77 232.82,278.27 236.14,279.6 250.41,279.6 250.41,264.24 234.72,263.82 			"/>
			<polygon class="st69" points="259.46,235.91 254.44,239.1 273.08,244.56 277.94,224.65 272.62,227.86 268.72,221.4 
				266.21,220.28 243.07,219.63 240.29,221.88 233.32,234.34 246.73,241.83 254.76,228.34 			"/>
			<polygon class="st69" points="265.86,264.1 265.54,258.16 251.64,271.72 266.61,285.72 266.42,279.51 273.96,279.28 
				276.17,277.64 288.09,257.8 287.49,254.28 280.05,242.09 266.95,250.11 274.77,263.71 			"/>
		</g>
		<g class="st70">
			<path class="st69" d="M256.08,157.31c0,0,0.36,0,1.05,0.01c0.68,0.01,1.69,0,2.96,0.04c0.64,0.02,1.33,0.01,2.12,0.07
				c0.8,0.07,1.66,0.15,2.58,0.23c0.93,0.09,1.91,0.18,2.95,0.28c1.03,0.12,2.08,0.33,3.2,0.5c1.11,0.2,2.28,0.35,3.47,0.6
				c1.19,0.25,2.41,0.56,3.67,0.85c0.63,0.15,1.27,0.29,1.91,0.46c0.64,0.19,1.28,0.38,1.94,0.57c1.31,0.38,2.65,0.77,3.98,1.22
				c2.65,0.99,5.43,1.91,8.13,3.18c2.75,1.15,5.4,2.6,8.1,3.96c2.6,1.54,5.23,3.04,7.67,4.75c2.52,1.59,4.78,3.46,7.03,5.18
				c1.1,0.9,2.14,1.82,3.17,2.72c0.51,0.45,1.01,0.9,1.51,1.34c0.49,0.45,0.95,0.93,1.41,1.38c0.92,0.91,1.81,1.8,2.68,2.66
				c0.85,0.88,1.6,1.79,2.35,2.63c0.74,0.85,1.47,1.65,2.13,2.44c0.63,0.82,1.22,1.59,1.78,2.32c0.55,0.73,1.07,1.41,1.55,2.04
				c0.46,0.64,0.85,1.27,1.21,1.81c1.44,2.2,2.22,3.47,2.22,3.47c0.81,1.31,0.4,3.02-0.91,3.83c-1.14,0.7-2.58,0.49-3.47-0.44
				l-0.12-0.13c0,0-0.99-1.03-2.65-2.86c-0.42-0.45-0.86-0.98-1.38-1.51c-0.52-0.53-1.09-1.1-1.69-1.71
				c-0.6-0.61-1.24-1.26-1.91-1.94c-0.7-0.66-1.43-1.35-2.2-2.07c-0.78-0.71-1.55-1.49-2.41-2.22c-0.86-0.74-1.74-1.5-2.65-2.29
				c-0.46-0.39-0.91-0.8-1.39-1.18c-0.49-0.38-0.98-0.76-1.48-1.14c-1-0.77-1.98-1.6-3.03-2.38c-2.14-1.51-4.31-3.12-6.63-4.59
				c-2.25-1.57-4.72-2.89-7.1-4.34c-2.47-1.3-4.89-2.69-7.41-3.8c-2.46-1.23-4.97-2.24-7.38-3.27c-1.23-0.46-2.43-0.91-3.62-1.35
				c-0.59-0.22-1.18-0.44-1.75-0.66c-0.58-0.21-1.17-0.38-1.74-0.56c-1.15-0.37-2.27-0.71-3.34-1.07c-1.08-0.35-2.15-0.6-3.16-0.89
				c-1.02-0.28-1.99-0.54-2.92-0.79c-0.92-0.21-1.8-0.41-2.62-0.6c-0.83-0.19-1.6-0.38-2.32-0.54c-0.73-0.17-1.44-0.27-2.06-0.39
				c-1.26-0.22-2.24-0.43-2.91-0.56c-0.67-0.13-1.03-0.2-1.03-0.2c-1.38-0.27-2.29-1.61-2.02-3
				C253.79,158.15,254.87,157.3,256.08,157.31z"/>
		</g>
		
			<ellipse transform="matrix(0.1891 -0.982 0.982 0.1891 55.8947 249.0299)" class="st71" cx="178.73" cy="90.67" rx="14.97" ry="14.97"/>
		<path class="st72" d="M90.3,158.92c0.49-15.81,12.7-30.79,28.28-33.51c15.58-2.73,32.63,7.92,36.13,23.35
			c5.5-5,13.1-8.45,20.33-6.73c7.23,1.72,12.85,10.11,9.77,16.87c4.42-2.79,10.58-2.49,14.71,0.71c4.13,3.2,5.96,9.09,4.36,14.07
			H90.3V158.92z"/>
		<path class="st72" d="M426.42,139.51c-0.59-19.05-15.3-37.08-34.07-40.36c-18.77-3.28-39.3,9.54-43.51,28.13
			c-6.62-6.02-15.78-10.17-24.48-8.11c-8.71,2.07-15.48,12.18-11.76,20.32c-5.33-3.36-12.74-3.01-17.72,0.85s-7.18,10.95-5.25,16.95
			h136.8V139.51z"/>
		<g>
			<path class="st73" d="M90.45,323.68c-4.05-1.08-6.9-4.58-9.56-7.82c-7.39-8.99-15.47-17.41-24.15-25.16
				c-1.67-1.49-3.4-2.98-5.48-3.81c-2.08-0.83-4.59-0.89-6.43,0.39c0,0-8.44,13.35,40.04,51.27c0,0,7.92,5.96,16.69,0
				S90.45,323.68,90.45,323.68z"/>
			<path class="st74" d="M82.6,356.77c-7.71-6.46-18.67-17.96-24.5-26.15c-8.3-11.66-16.61-23.31-24.91-34.97
				c-1.21-1.7-2.48-3.57-2.37-5.66c0.17-3.5,4.31-5.67,7.77-5.11c3.45,0.56,8.13,5.43,10.76,7.75
				C49.34,292.62,89.8,362.8,82.6,356.77z"/>
			<path class="st73" d="M190.61,417.62c-5.66-6.95-4.27-18.08-10.69-24.34c-3.78-3.69-9.34-4.7-14.53-5.69
				c-19.65-3.73-38.93-9.44-57.45-17c-8.07-3.3-16.06-6.98-23.11-12.11c-19.46-14.19-29.53-37.59-38.73-59.84
				c-1.04-2.51-1.64-6.19,0.87-7.23c0.93-0.39,1.98-0.2,2.95,0.06c8.8,2.44,14.25,10.95,19.33,18.54
				c5.08,7.59,10.11,12.58,21.25,16.98c-0.53-2.4,1.04-5.82,3.31-6.76c2.27-0.93,4.83-0.73,7.27-0.46
				c11.68,1.34,23.17,4.21,34.1,8.54c6.04,2.39,11.95,5.23,18.27,6.74c5.74,1.37,11.69,1.6,17.55,2.27
				c22.19,2.52,44.79,12.44,56.62,31.38c6.27,10.04,9.07,21.8,11.77,33.33L190.61,417.62z"/>
			<g>
				<path class="st75" d="M108.51,341.12c-0.97-0.21-1.94-0.42-2.9-0.71c-0.95-0.29-1.9-0.6-2.84-0.95
					c-1.87-0.7-3.72-1.49-5.49-2.41c-1.78-0.91-3.53-1.89-5.22-2.97c-1.69-1.07-3.35-2.2-4.95-3.4c-3.2-2.41-6.25-5.03-9.06-7.91
					c-1.4-1.43-2.78-2.9-4.05-4.47c-1.28-1.56-2.5-3.17-3.62-4.85l-0.02-0.03l-0.02-0.04c-0.67-1.17-1.4-2.38-2.14-3.54
					c-0.74-1.17-1.52-2.32-2.32-3.45c-1.61-2.26-3.28-4.47-5.15-6.52c-1.84-2.07-3.85-3.97-6.09-5.58
					c-2.24-1.58-4.84-2.79-7.67-2.87c1.4-0.15,2.84,0.01,4.21,0.42c1.37,0.4,2.68,1,3.92,1.71c2.49,1.42,4.68,3.3,6.71,5.29
					c2.01,2.02,3.87,4.18,5.58,6.45c0.85,1.13,1.68,2.29,2.48,3.46c0.8,1.18,1.56,2.36,2.29,3.62l-0.04-0.07
					c1.09,1.6,2.28,3.15,3.54,4.64c1.26,1.49,2.55,2.96,3.92,4.36c1.36,1.41,2.78,2.76,4.22,4.09c1.44,1.33,2.93,2.61,4.46,3.83
					c1.53,1.23,3.08,2.43,4.69,3.56c1.61,1.12,3.24,2.22,4.92,3.23c1.69,1,3.4,1.99,5.17,2.84
					C104.81,339.7,106.63,340.46,108.51,341.12z"/>
			</g>
			<g>
				<path class="st75" d="M141.4,359.57c-1.08-0.7-2.15-1.42-3.24-2.1c-1.11-0.65-2.16-1.36-3.29-1.97
					c-1.11-0.64-2.22-1.27-3.35-1.87c-1.12-0.62-2.27-1.17-3.39-1.78c-2.29-1.14-4.58-2.27-6.89-3.38c-2.31-1.1-4.63-2.21-6.94-3.34
					c-1.15-0.57-2.32-1.12-3.46-1.72c-1.15-0.59-2.29-1.18-3.43-1.8c-2.29-1.2-4.51-2.53-6.71-3.91c-1.08-0.71-2.19-1.42-3.22-2.15
					c-1.06-0.73-2.13-1.46-3.18-2.27c-1.03-0.81-2.04-1.72-2.87-2.81c-0.83-1.07-1.42-2.45-1.41-3.85l0.01,0.08
					c-0.06-0.32-0.06-0.59-0.06-0.88c0.01-0.28,0.03-0.57,0.08-0.84c0.09-0.55,0.25-1.09,0.5-1.59c0.12-0.25,0.25-0.49,0.4-0.72
					c0.15-0.23,0.32-0.45,0.5-0.65c0.35-0.41,0.78-0.75,1.2-1.07c-0.38,0.38-0.74,0.77-1.01,1.21c-0.15,0.22-0.27,0.45-0.39,0.68
					c-0.12,0.23-0.21,0.47-0.29,0.71c-0.17,0.48-0.25,0.99-0.27,1.49c-0.01,0.25,0,0.5,0.02,0.75c0.02,0.24,0.06,0.51,0.12,0.71
					l0.01,0.02l0.01,0.06c0.11,1.18,0.72,2.24,1.52,3.13c0.8,0.9,1.8,1.65,2.83,2.35c1.03,0.71,2.12,1.36,3.23,2.02l3.28,1.98
					c1.11,0.63,2.21,1.27,3.33,1.87c1.13,0.6,2.23,1.23,3.37,1.8c2.26,1.19,4.56,2.31,6.84,3.48c2.29,1.15,4.6,2.28,6.88,3.49
					c2.29,1.18,4.55,2.43,6.78,3.73c1.11,0.67,2.23,1.31,3.3,2.04c1.08,0.7,2.17,1.41,3.21,2.18
					C137.53,356.17,139.52,357.82,141.4,359.57z"/>
			</g>
			<g>
				<path class="st75" d="M76.42,318.66c0,0,0.21,0.18,0.59,0.5c0.37,0.32,0.93,0.73,1.59,1.24c0.67,0.5,1.44,1.07,2.29,1.66
					c0.85,0.59,1.76,1.21,2.69,1.81c0.92,0.61,1.86,1.18,2.74,1.74c0.89,0.54,1.71,1.05,2.42,1.48c0.71,0.44,1.31,0.81,1.72,1.06
					c0.42,0.26,0.65,0.42,0.65,0.42s-0.27-0.07-0.74-0.23c-0.46-0.17-1.14-0.36-1.91-0.7c-0.78-0.31-1.68-0.72-2.61-1.21
					c-0.94-0.48-1.91-1.06-2.86-1.66c-0.94-0.62-1.86-1.28-2.67-1.96c-0.82-0.67-1.54-1.35-2.13-1.96
					c-0.59-0.61-1.02-1.17-1.33-1.56C76.57,318.91,76.42,318.66,76.42,318.66z"/>
			</g>
		</g>
		<g>
			<path class="st73" d="M408.68,323.28c4.05-1.08,6.9-4.58,9.56-7.82c7.39-8.99,15.47-17.41,24.15-25.16
				c1.67-1.49,3.4-2.98,5.48-3.81c2.08-0.83,4.59-0.89,6.43,0.39c0,0,8.44,13.35-40.04,51.27c0,0-7.92,5.96-16.69,0
				S408.68,323.28,408.68,323.28z"/>
			<path class="st74" d="M416.53,356.37c7.71-6.46,18.67-17.96,24.5-26.15c8.31-11.66,16.61-23.31,24.91-34.97
				c1.21-1.7,2.48-3.57,2.37-5.66c-0.17-3.5-4.31-5.67-7.77-5.11c-3.45,0.56-8.13,5.43-10.76,7.75
				C449.79,292.22,409.33,362.4,416.53,356.37z"/>
			<path class="st73" d="M308.52,417.22c5.66-6.95,4.27-18.08,10.69-24.34c3.78-3.69,9.34-4.7,14.53-5.69
				c19.65-3.73,38.93-9.44,57.45-17c8.07-3.3,16.06-6.98,23.11-12.11c19.46-14.19,29.53-37.59,38.73-59.84
				c1.04-2.51,1.64-6.19-0.87-7.23c-0.93-0.39-1.98-0.2-2.95,0.06c-8.8,2.44-14.25,10.95-19.33,18.54
				c-5.08,7.59-10.11,12.58-21.25,16.98c0.53-2.4-1.04-5.82-3.31-6.76s-4.83-0.73-7.27-0.46c-11.68,1.34-23.17,4.21-34.1,8.54
				c-6.04,2.39-11.95,5.23-18.27,6.74c-5.74,1.37-11.69,1.6-17.55,2.27c-22.19,2.52-44.79,12.44-56.62,31.38
				c-6.27,10.04-9.07,21.8-11.77,33.33L308.52,417.22z"/>
			<g>
				<path class="st75" d="M390.62,340.71c1.88-0.65,3.7-1.42,5.48-2.27c1.78-0.86,3.48-1.84,5.17-2.84
					c1.69-1.01,3.32-2.11,4.92-3.23c1.61-1.13,3.16-2.33,4.69-3.56c1.53-1.23,3.02-2.51,4.46-3.83c1.44-1.33,2.86-2.68,4.22-4.09
					c1.36-1.4,2.65-2.87,3.92-4.36c1.25-1.49,2.44-3.04,3.54-4.64l-0.04,0.07c0.72-1.26,1.49-2.44,2.29-3.62
					c0.8-1.18,1.62-2.33,2.48-3.46c1.71-2.27,3.57-4.42,5.58-6.44c2.03-1.99,4.21-3.87,6.71-5.29c1.24-0.71,2.55-1.31,3.92-1.71
					c1.37-0.41,2.81-0.57,4.21-0.42c-2.83,0.08-5.43,1.29-7.67,2.87c-2.24,1.61-4.26,3.51-6.09,5.58c-1.86,2.05-3.54,4.26-5.15,6.52
					c-0.8,1.13-1.57,2.28-2.32,3.45c-0.74,1.17-1.47,2.37-2.14,3.54l-0.02,0.04l-0.02,0.03c-1.12,1.69-2.34,3.3-3.62,4.85
					c-1.27,1.56-2.65,3.03-4.05,4.47c-2.81,2.87-5.86,5.5-9.06,7.91c-1.6,1.2-3.26,2.33-4.95,3.4c-1.69,1.08-3.44,2.06-5.22,2.97
					c-1.78,0.92-3.62,1.71-5.49,2.41c-0.94,0.35-1.88,0.67-2.84,0.95C392.57,340.29,391.59,340.51,390.62,340.71z"/>
			</g>
			<g>
				<path class="st75" d="M357.73,359.17c1.89-1.75,3.88-3.4,5.99-4.9c1.04-0.77,2.12-1.48,3.21-2.18c1.07-0.73,2.19-1.37,3.3-2.04
					c2.23-1.31,4.49-2.56,6.78-3.73c2.28-1.21,4.58-2.34,6.88-3.49c2.28-1.17,4.58-2.29,6.84-3.48c1.14-0.58,2.25-1.21,3.37-1.8
					c1.12-0.6,2.22-1.24,3.33-1.87l3.28-1.98c1.1-0.66,2.19-1.31,3.23-2.02c1.03-0.7,2.03-1.45,2.83-2.35
					c0.8-0.89,1.4-1.95,1.52-3.13l0.01-0.06l0.01-0.02c0.06-0.2,0.1-0.46,0.12-0.71c0.02-0.25,0.03-0.5,0.02-0.75
					c-0.02-0.5-0.1-1.01-0.27-1.49c-0.08-0.24-0.18-0.48-0.29-0.71c-0.11-0.23-0.24-0.46-0.39-0.68c-0.28-0.44-0.64-0.84-1.01-1.21
					c0.43,0.32,0.85,0.66,1.2,1.07c0.19,0.2,0.35,0.42,0.5,0.65c0.15,0.23,0.29,0.47,0.4,0.72c0.24,0.5,0.4,1.04,0.5,1.59
					c0.05,0.28,0.07,0.56,0.08,0.84c0,0.29-0.01,0.56-0.06,0.88l0.01-0.08c0.02,1.4-0.57,2.78-1.41,3.85
					c-0.83,1.09-1.83,1.99-2.87,2.81c-1.04,0.81-2.12,1.54-3.18,2.27c-1.04,0.73-2.14,1.44-3.22,2.15
					c-2.19,1.38-4.42,2.71-6.71,3.91c-1.14,0.62-2.28,1.21-3.43,1.8c-1.14,0.6-2.31,1.14-3.46,1.72c-2.31,1.13-4.62,2.24-6.94,3.34
					c-2.31,1.11-4.6,2.23-6.89,3.38c-1.12,0.61-2.28,1.16-3.39,1.78c-1.13,0.6-2.24,1.23-3.35,1.87c-1.13,0.61-2.18,1.32-3.29,1.97
					C359.88,357.75,358.8,358.46,357.73,359.17z"/>
			</g>
			<g>
				<path class="st75" d="M422.71,318.26c0,0-0.14,0.25-0.44,0.64c-0.3,0.39-0.74,0.95-1.33,1.56c-0.58,0.61-1.31,1.29-2.13,1.96
					c-0.81,0.68-1.73,1.33-2.67,1.96c-0.95,0.61-1.92,1.18-2.86,1.66c-0.94,0.48-1.83,0.9-2.61,1.21c-0.77,0.34-1.45,0.53-1.91,0.7
					c-0.47,0.16-0.74,0.23-0.74,0.23s0.23-0.16,0.65-0.42c0.42-0.26,1.01-0.62,1.72-1.06c0.71-0.43,1.54-0.94,2.42-1.48
					c0.88-0.55,1.82-1.13,2.74-1.74c0.93-0.59,1.84-1.22,2.69-1.81c0.85-0.59,1.62-1.16,2.29-1.66c0.66-0.51,1.22-0.92,1.59-1.24
					C422.49,318.44,422.71,318.26,422.71,318.26z"/>
			</g>
		</g>
	</g>
</g>
<g id="DESIGNED_BY_FREEPIK" class="st0">
	<g id="XMLID_58_" class="st76">
		<g id="XMLID_87_">
			<g id="XMLID_106_">
				<path id="XMLID_114_" class="st77" d="M257.52,465.6c-0.43,0.44-0.8,0.93-1.11,1.45l-0.47-0.24c-0.07-0.3-0.35-0.5-0.66-0.47
					c-0.33,0.04-0.57,0.34-0.53,0.67c0.04,0.33,0.34,0.57,0.67,0.53c0.07-0.01,0.13-0.03,0.18-0.05l0.45,0.23
					c-0.25,0.55-0.43,1.14-0.54,1.74l0.75,0.13c0.23-1.31,0.85-2.51,1.79-3.47L257.52,465.6z"/>
				<path id="XMLID_113_" class="st77" d="M263,463.3c-0.17,0-0.34,0.01-0.51,0.02l-0.07-0.63c0.19-0.15,0.3-0.39,0.27-0.64
					c-0.05-0.39-0.4-0.67-0.8-0.63c-0.39,0.05-0.67,0.4-0.63,0.8c0.03,0.25,0.19,0.46,0.4,0.56l0.07,0.62
					c-0.71,0.12-1.4,0.33-2.06,0.65l0.33,0.68c0.93-0.45,1.94-0.67,3-0.67c0.5,0,0.99,0.05,1.47,0.16l0.16-0.74
					C264.1,463.36,263.55,463.3,263,463.3z"/>
				<path id="XMLID_112_" class="st77" d="M269.61,465.85c0.33-0.04,0.57-0.34,0.53-0.67c-0.04-0.33-0.34-0.57-0.67-0.53
					c-0.31,0.04-0.54,0.3-0.53,0.61l-0.42,0.36c-0.42-0.43-0.89-0.81-1.41-1.14l-0.4,0.64c1.13,0.71,2.02,1.73,2.56,2.93l0.69-0.31
					c-0.25-0.55-0.57-1.07-0.94-1.54l0.4-0.35C269.48,465.85,269.54,465.86,269.61,465.85z"/>
				<path id="XMLID_111_" class="st77" d="M262.46,473.51c-0.39,0.02-0.77,0.03-1.16,0.03c-0.88,0-1.73-0.06-2.48-0.18
					c-0.39-0.06-0.85-0.15-1.27-0.29c1.05,1.86,3.07,3.13,5.39,3.13c2.86,0,5.26-1.92,5.95-4.5c-0.68,0.45-1.51,0.83-2.46,1.12
					C265.25,473.19,263.87,473.42,262.46,473.51z"/>
				<path id="XMLID_107_" class="st77" d="M263,464.82c-3.35,0-6.08,2.67-6.08,5.94c0,0.43,0.05,0.85,0.14,1.26
					c0.67,0.48,2.71,0.89,5.35,0.73c2.88-0.17,5.3-0.96,6.67-2.16c-0.01-0.2-0.02-0.39-0.05-0.58
					C268.65,467.05,266.06,464.82,263,464.82z M260.84,471.33c-1.02,0-1.85-0.83-1.85-1.85c0-1.02,0.83-1.85,1.85-1.85
					c1.02,0,1.85,0.83,1.85,1.85C262.69,470.5,261.86,471.33,260.84,471.33z M265.58,470.42c-0.75,0-1.36-0.61-1.36-1.36
					c0-0.75,0.61-1.36,1.36-1.36s1.36,0.61,1.36,1.36C266.94,469.81,266.33,470.42,265.58,470.42z"/>
			</g>
			<path id="XMLID_104_" class="st77" d="M279.01,466.68c-0.29-0.12-0.81-0.31-1.38-0.24c-0.55,0.07-0.84,0.34-0.84,1.01v0.87h2.23
				v1.72h-2.23v5.45h-1.93v-5.45h-1.34v-1.72h1.34v-0.89c0-1.68,0.9-2.78,2.57-2.78c0.64,0,1.16,0.12,1.59,0.31L279.01,466.68z"/>
			<path id="XMLID_102_" class="st77" d="M283.71,470.02c-0.18-0.03-0.36-0.05-0.53-0.05c-0.9,0-1.51,0.55-1.51,1.61v3.91h-1.93
				v-7.17h1.87v0.78c0.45-0.67,1.14-0.98,2.02-0.98c0.41,0,0.85,0.13,1.09,0.34L283.71,470.02z"/>
			<path id="XMLID_99_" class="st77" d="M291.38,471.89c0,0.22-0.01,0.49-0.04,0.65h-5.08c0.21,1.04,0.93,1.49,1.84,1.49
				c0.62,0,1.3-0.25,1.81-0.69l1.13,1.24c-0.81,0.75-1.85,1.09-3.06,1.09c-2.2,0-3.72-1.5-3.72-3.75c0-2.26,1.48-3.8,3.63-3.8
				C289.96,468.13,291.37,469.66,291.38,471.89z M286.26,471.23h3.18c-0.18-0.92-0.73-1.44-1.56-1.44
				C286.97,469.79,286.43,470.34,286.26,471.23z"/>
			<path id="XMLID_96_" class="st77" d="M299.03,471.89c0,0.22-0.01,0.49-0.04,0.65h-5.08c0.21,1.04,0.93,1.49,1.84,1.49
				c0.62,0,1.3-0.25,1.81-0.69l1.13,1.24c-0.81,0.75-1.85,1.09-3.06,1.09c-2.2,0-3.72-1.5-3.72-3.75c0-2.26,1.48-3.8,3.63-3.8
				C297.61,468.13,299.02,469.66,299.03,471.89z M293.92,471.23h3.18c-0.18-0.92-0.73-1.44-1.56-1.44
				C294.62,469.79,294.09,470.34,293.92,471.23z"/>
			<path id="XMLID_93_" class="st77" d="M307.38,471.9c0,2.15-1.5,3.77-3.47,3.77c-0.96,0-1.64-0.38-2.11-0.93v3.71h-1.92v-10.13
				h1.89v0.79c0.47-0.58,1.15-0.98,2.14-0.98C305.88,468.13,307.38,469.75,307.38,471.9z M301.7,471.9c0,1.13,0.75,1.98,1.84,1.98
				c1.14,0,1.85-0.88,1.85-1.98c0-1.1-0.71-1.98-1.85-1.98C302.45,469.93,301.7,470.77,301.7,471.9z"/>
			<path id="XMLID_90_" class="st77" d="M310.48,465.97c0,0.7-0.54,1.23-1.24,1.23c-0.7,0-1.23-0.53-1.23-1.23
				c0-0.7,0.53-1.24,1.23-1.24C309.94,464.73,310.48,465.28,310.48,465.97z M310.22,475.49h-1.93v-7.17h1.93V475.49z"/>
			<path id="XMLID_88_" class="st77" d="M313.44,470.87l2.7-2.55h2.37l-3.48,3.38l3.5,3.8h-2.38l-2.72-2.9v2.9h-1.93v-10.66h1.93
				V470.87z"/>
		</g>
		<g id="XMLID_59_">
			<path id="XMLID_84_" class="st77" d="M181.82,475.43v-1.05c-0.53,0.72-1.39,1.23-2.39,1.23c-1.85,0-3.15-1.41-3.15-3.71
				c0-2.26,1.29-3.72,3.15-3.72c0.95,0,1.82,0.47,2.39,1.25v-3.76h1.1v9.77H181.82z M181.82,473.51v-3.21
				c-0.4-0.62-1.24-1.14-2.12-1.14c-1.42,0-2.27,1.17-2.27,2.74c0,1.57,0.85,2.72,2.27,2.72
				C180.58,474.62,181.43,474.12,181.82,473.51z"/>
			<path id="XMLID_81_" class="st77" d="M184.34,471.88c0-2.05,1.46-3.71,3.49-3.71c2.14,0,3.4,1.67,3.4,3.79v0.28h-5.73
				c0.09,1.33,1.03,2.45,2.55,2.45c0.81,0,1.63-0.32,2.18-0.89l0.53,0.72c-0.7,0.7-1.65,1.08-2.81,1.08
				C185.85,475.6,184.34,474.09,184.34,471.88z M187.81,469.08c-1.51,0-2.26,1.27-2.31,2.36h4.64
				C190.13,470.39,189.43,469.08,187.81,469.08z"/>
			<path id="XMLID_79_" class="st77" d="M192.02,474.49l0.57-0.79c0.47,0.54,1.36,1.01,2.33,1.01c1.08,0,1.67-0.51,1.67-1.22
				c0-1.71-4.38-0.66-4.38-3.28c0-1.1,0.95-2.04,2.64-2.04c1.2,0,2.05,0.45,2.62,1.03l-0.51,0.76c-0.42-0.51-1.2-0.89-2.11-0.89
				c-0.97,0-1.57,0.48-1.57,1.11c0,1.55,4.38,0.53,4.38,3.28c0,1.19-0.95,2.14-2.78,2.14C193.72,475.6,192.74,475.25,192.02,474.49z
				"/>
			<path id="XMLID_76_" class="st77" d="M198.89,466.61c0-0.41,0.34-0.75,0.73-0.75c0.41,0,0.75,0.34,0.75,0.75
				c0,0.41-0.34,0.73-0.75,0.73C199.23,467.34,198.89,467.02,198.89,466.61z M199.08,475.43v-7.07h1.1v7.07H199.08z"/>
			<path id="XMLID_73_" class="st77" d="M201.99,477.24l0.56-0.82c0.59,0.7,1.29,0.97,2.3,0.97c1.17,0,2.27-0.57,2.27-2.12v-1.01
				c-0.51,0.72-1.38,1.26-2.37,1.26c-1.85,0-3.15-1.38-3.15-3.66c0-2.27,1.29-3.68,3.15-3.68c0.95,0,1.8,0.47,2.37,1.25v-1.07h1.1
				v6.87c0,2.34-1.64,3.08-3.37,3.08C203.65,478.3,202.83,478.06,201.99,477.24z M207.12,473.39v-3.09
				c-0.38-0.62-1.23-1.14-2.11-1.14c-1.42,0-2.27,1.13-2.27,2.7c0,1.55,0.85,2.7,2.27,2.7
				C205.89,474.55,206.74,474.01,207.12,473.39z"/>
			<path id="XMLID_71_" class="st77" d="M214.82,475.43v-4.63c0-1.24-0.63-1.64-1.58-1.64c-0.86,0-1.68,0.53-2.09,1.1v5.17h-1.1
				v-7.07h1.1v1.03c0.5-0.59,1.46-1.2,2.52-1.2c1.48,0,2.26,0.75,2.26,2.28v4.97H214.82z"/>
			<path id="XMLID_68_" class="st77" d="M217.34,471.88c0-2.05,1.46-3.71,3.49-3.71c2.14,0,3.4,1.67,3.4,3.79v0.28h-5.73
				c0.09,1.33,1.03,2.45,2.55,2.45c0.81,0,1.63-0.32,2.18-0.89l0.53,0.72c-0.7,0.7-1.66,1.08-2.81,1.08
				C218.85,475.6,217.34,474.09,217.34,471.88z M220.82,469.08c-1.51,0-2.26,1.27-2.31,2.36h4.64
				C223.13,470.39,222.43,469.08,220.82,469.08z"/>
			<path id="XMLID_65_" class="st77" d="M230.76,475.43v-1.05c-0.53,0.72-1.39,1.23-2.39,1.23c-1.85,0-3.15-1.41-3.15-3.71
				c0-2.26,1.29-3.72,3.15-3.72c0.95,0,1.82,0.47,2.39,1.25v-3.76h1.1v9.77H230.76z M230.76,473.51v-3.21
				c-0.4-0.62-1.25-1.14-2.12-1.14c-1.42,0-2.27,1.17-2.27,2.74c0,1.57,0.85,2.72,2.27,2.72
				C229.52,474.62,230.37,474.12,230.76,473.51z"/>
			<path id="XMLID_62_" class="st77" d="M237.1,475.43v-9.77h1.1v3.76c0.57-0.78,1.42-1.25,2.39-1.25c1.85,0,3.15,1.46,3.15,3.72
				c0,2.3-1.3,3.71-3.15,3.71c-1,0-1.86-0.51-2.39-1.23v1.05H237.1z M240.31,474.62c1.44,0,2.29-1.16,2.29-2.72
				c0-1.57-0.85-2.74-2.29-2.74c-0.86,0-1.73,0.53-2.11,1.14v3.21C238.58,474.12,239.45,474.62,240.31,474.62z"/>
			<path id="XMLID_60_" class="st77" d="M244.94,477.2c0.16,0.07,0.43,0.12,0.6,0.12c0.48,0,0.81-0.16,1.05-0.75l0.47-1.07
				l-2.96-7.15h1.19l2.36,5.8l2.34-5.8h1.2l-3.54,8.51c-0.42,1.03-1.14,1.42-2.08,1.44c-0.23,0-0.6-0.04-0.81-0.1L244.94,477.2z"/>
		</g>
	</g>
</g>
</svg>
