<?xml version="1.0" encoding="utf-8"?>
<!-- Generator: Adobe Illustrator 25.1.0, SVG Export Plug-In . SVG Version: 6.00 Build 0)  -->
<svg version="1.1" id="Capa_1" xmlns="http://www.w3.org/2000/svg" xmlns:xlink="http://www.w3.org/1999/xlink" x="0px" y="0px"
	 viewBox="0 0 1417.32 1417.32" style="enable-background:new 0 0 1417.32 1417.32;" xml:space="preserve">
<style type="text/css">
	.st0{display:none;fill:#FFFFFF;}
	.st1{fill:#96D9C9;}
	.st2{fill:#3C8F7C;}
	.st3{fill:#50BFA5;}
	.st4{fill:#184655;}
	.st5{fill:#86B1F2;}
	.st6{fill:#FAE0B2;}
	.st7{fill:#355389;}
	.st8{fill:#466EB6;}
	.st9{fill:#FF4C16;}
	.st10{fill:#F47458;}
	.st11{fill:#B75742;}
	.st12{fill:#13375B;}
	.st13{fill:#F7CC7F;}
	.st14{fill:#9BC1F9;}
	.st15{fill:#F48C7F;}
	.st16{fill:#FFFFFF;}
	.st17{fill:#3259A1;}
	.st18{fill:#FFA283;}
	.st19{opacity:0.68;fill:#FF7F4C;}
	.st20{fill:#011037;}
	.st21{fill:#A4C0F5;}
</style>
<g>
	<rect y="75.86" class="st0" width="1417.32" height="1261.78"/>
	<g>
		<g>
			<path class="st1" d="M847.85,622.96l15.42-15.62c-4.82-28.24-30.13-41.84-46.79-43.69c-44.87-4.99-67.75,27.32-77.37,79.13
				c-17.57,94.57,4.55,491.64,4.55,491.64c1.65-10.55,123.53-409.3,120.4-518.86L847.85,622.96z"/>
			<path class="st2" d="M274.8,967.01l-1.66,12.85L269.17,965c-11.16-3.68-20.86-4.94-28.55-3.11c-68.68,16.34,50,115.24,50,115.24
				s-37.82-24.86-74.45-40.6l-0.46,13.03l-4.69-14.72c-28.46-11.67-54.87-17.06-60.15-0.21c-4.97,15.86,5.03,30.87,22.23,44.24
				l19.77,0.73l-11.66,5.12c39.73,26.64,105.45,45.7,128.13,50.04c-21.7-3.57-74.75-10.8-106.19-3.69l4.93,8.6l-12.41-6.5
				c-11,3.72-17.84,9.87-17.1,19.56c1.41,18.52,78.17,25.2,78.17,25.2l280.44-2.72l1.56,0.82
				C538.75,1175.98,365.21,1001.69,274.8,967.01z"/>
			<path class="st3" d="M1248.66,1132.35c-6.24-30.32-69.55-39.23-150.26-22.61c28.74-10.28,68.22-33.69,88.66-44.38l-13.98-9.32
				l28.09,1.37c22.97-14.08,34.46-27.92,26.95-40.43c-5.6-9.35-17.9-13.23-34.57-13.19l-8.78,16.45l1.82-16.22
				c-42.04,2.54-51.58-4.64-108.29,19.36c35.44-19.26,40.56-25.24,42.89-32.97l-19.2-8.79h22.49
				c18.18-20.48,47.03-60.99,35.06-79.67c-9.87-15.41-53.22,5.98-80.88,17.09l-11.77,27.72l2.38-23.68
				c-87.96,40.12-58.14,7.93-58.14,7.93s91.82-198.88,37.73-194.41c-21.35,1.76-44.32,15.24-66.87,36.83l-0.57,19.77l-6.71-12.54
				c-16.43,16.86-32.69,37.28-48.22,59.2c21.05-46.3,37.02-91.77,38.61-125.63l-16.07-2.04l15.86-11.55
				c-1.49-17.11-7.96-30.04-21.07-36.88c-20.11-10.49-41.22,5.38-62,36.92l5.13,28.47l-12.89-15.95
				c-74.41,126.97-142.44,439.57-142.44,439.57l-5.4,16.95l218.6,11.3C944.82,1181.01,1261.25,1193.59,1248.66,1132.35z"/>
			<g>
				<path class="st4" d="M1275.74,1182.52H141.58c-1.89,0-3.41-1.7-3.41-3.79c0-2.09,1.53-3.79,3.41-3.79h1134.15
					c1.88,0,3.41,1.7,3.41,3.79C1279.15,1180.82,1277.62,1182.52,1275.74,1182.52z"/>
			</g>
			<path class="st5" d="M927.19,1047.83H414.5c-19.58,0-35.46-15.08-35.46-33.68v-20.03c0-18.6,15.87-33.68,35.46-33.68h512.68l0,0
				c-23.45,24.35-23.86,61.57-0.94,86.37L927.19,1047.83z"/>
			<path class="st6" d="M920.01,970.46H662.01c-17.77,0-32.17,15.08-32.17,33.68l0,0c0,18.6,14.4,33.68,32.17,33.68h258.01
				C907.97,1017.16,908,991.06,920.01,970.46z"/>
			<g>
				<path class="st7" d="M904.1,864.91c1.12-2.02-0.58-4.36-3.18-4.36h-408.3c-32,0-57.94,22.42-57.94,50.07l0,0
					c0,27.65,25.94,50.07,57.94,50.07h408.41c2.61,0,4.32-2.35,3.18-4.38l0,0C888.05,927.36,888.09,893.72,904.1,864.91z"/>
				<path class="st6" d="M900.85,871.32H626.9c-20.24,0-36.64,17.18-36.64,38.36v2.88c0,21.19,16.4,38.36,36.64,38.36h274.53
					C889.16,925.42,889.02,896.82,900.85,871.32z"/>
			</g>
			<path class="st6" d="M407.2,856.1h263.5c23.37,0,42.31-21.39,42.31-47.77l0,0c0-26.38-18.94-47.77-42.31-47.77H407.2l0,0
				c20.14,26.48,20.93,65.33,1.88,92.83L407.2,856.1z"/>
			<path class="st8" d="M709.53,808.33L709.53,808.33c0-26.38-19.16-47.77-42.8-47.77H402.41c-1.23,0-2.23-1.12-2.22-2.5l0,0
				c0.01-1.36,1-2.45,2.22-2.45h419.32c26.08,0,47.23,23.6,47.23,52.72v0c0,29.12-21.15,52.72-47.23,52.72H402.41
				c-1.22,0-2.21-1.09-2.22-2.45l0,0c-0.01-1.38,0.98-2.5,2.22-2.5h264.33C690.37,856.1,709.53,834.71,709.53,808.33z"/>
			<g>
				<path class="st9" d="M728.21,911.44h-28.2c-6.06,0-10.98,1.97-10.98,4.4v0.39h39.18V911.44z"/>
				<path class="st10" d="M752.26,922.47c0-6.09-7.36-11.03-16.45-11.03h-36.19c6.89,0,12.48,3.75,12.48,8.37l-0.17,118.23
					l19.99-15.2l20.38,15.2L752.26,922.47z"/>
			</g>
			<g>
				<path class="st11" d="M1137.99,1047.66h-761.8c-23.66,0-42.83,20.08-42.83,44.85v37.72c0,24.77,19.18,44.85,42.83,44.85h761.8
					l-0.4-0.43C1105,1139.13,1105.17,1082.95,1137.99,1047.66z"/>
				<path class="st6" d="M1124.5,1066.52H717.26c-23.66,0-42.83,20.08-42.83,44.85v0c0,24.77,19.18,44.85,42.83,44.85h407.24
					C1109.52,1128.44,1109.54,1094.27,1124.5,1066.52z"/>
			</g>
			<g>
				<path class="st12" d="M924.54,1111.6h-33.03c-7.1,0-12.86,6.03-12.86,13.46v1.21h45.89V1111.6z"/>
				<path class="st7" d="M892.87,1111.65c7.89,0,19.68,6.99,26.33,15.62l78.33,101.72l46.01-0.03l-74.5-96.74
					c-8.77-11.38-24.31-20.61-34.72-20.6L892.87,1111.65z"/>
			</g>
			<g>
				<path class="st13" d="M340.43,783.22c-19.52,3.09-25.64,29.78-9.6,41.98c2.88,2.19,4.86,5.45,5.67,9.08l2.79,12.49
					c0.77,3.44,3.94,5.69,7.28,5.16l7.4-1.17c3.34-0.53,5.73-3.65,5.49-7.18c-0.86-12.87-2.07-17.55,1.99-23.23
					C373.33,803.73,359.96,780.13,340.43,783.22z"/>
				<g>
					<path class="st6" d="M344.69,842.17c-0.01,0-0.01,0-0.02,0c-0.98,0.14-1.89-0.57-2.03-1.6l-3.64-27.24l-6.09-5.47
						c-0.75-0.68-0.84-1.86-0.2-2.65c0.65-0.79,1.78-0.88,2.53-0.2l7.13,6.39l3.83,28.65C346.34,841.07,345.66,842.01,344.69,842.17
						z"/>
				</g>
				<g>
					<path class="st6" d="M353.74,841.9c0.01,0,0.01,0,0.02,0c0.98-0.17,1.64-1.13,1.49-2.16l-4.22-27.15l4.28-7.11
						c0.53-0.88,0.28-2.04-0.56-2.59c-0.84-0.55-1.95-0.29-2.48,0.59l-5,8.31l4.43,28.55C351.86,841.36,352.77,842.05,353.74,841.9z
						"/>
				</g>
				<path class="st1" d="M336.42,833.97c0.03,0.1,0.06,0.2,0.08,0.31l2.79,12.49c0.77,3.44,3.94,5.69,7.27,5.16l7.4-1.17
					c3.34-0.53,5.73-3.65,5.49-7.18c-0.38-5.73-0.84-9.83-0.86-13.12L336.42,833.97z"/>
			</g>
			<path class="st10" d="M336.75,584.33l-7.73-11.71l-13.6,0.03c-1.55,0-2.43-1.85-1.49-3.14l8.25-11.32l-4.23-13.53
				c-0.48-1.54,0.93-2.99,2.39-2.46l12.83,4.72l10.98-8.4c1.25-0.96,3.01,0,2.97,1.63l-0.32,14.24l11.02,8.34
				c1.25,0.95,0.92,3-0.56,3.46l-13.03,4.08l-4.17,13.55C339.59,585.36,337.63,585.66,336.75,584.33z"/>
			<path class="st14" d="M1052.97,605.55l-5.68-8.6l-9.99,0.02c-1.14,0-1.78-1.36-1.09-2.31l6.06-8.32l-3.11-9.94
				c-0.35-1.13,0.69-2.2,1.76-1.8l9.43,3.46l8.07-6.17c0.92-0.7,2.21,0,2.18,1.19l-0.23,10.46l8.1,6.13c0.92,0.7,0.68,2.2-0.41,2.54
				l-9.57,3l-3.07,9.96C1055.06,606.31,1053.62,606.53,1052.97,605.55z"/>
			<polygon class="st15" points="893.74,479.1 881.18,476.89 873.82,488.09 859.91,484.57 855.58,499.04 839.68,495.78 
				834.13,508.59 818.34,508.07 818.53,501.82 830.33,502.2 836.19,488.69 851.48,491.82 855.87,477.11 871.22,480.99 
				878.41,470.05 890.05,472.1 893.34,463.88 898.85,466.29 			"/>
			<polygon class="st3" points="537.15,519.86 527.95,522.82 521.78,507.85 507.82,510.43 501.45,500.02 496.42,503.4 
				504.94,517.33 518.16,514.88 524.59,530.45 538.43,526 			"/>
			<path class="st15" d="M266.32,678.46l-13.77,8.77l14.28,67.17c1.23,5.8,7.55,8.62,12.4,5.53l0,0c3.06-1.95,4.57-5.73,3.77-9.37
				l-3.49-15.77l14.45-9.2l11.94,10.47c2.72,2.39,6.59,2.69,9.63,0.76l0.26-0.17c4.86-3.09,5.37-10.27,1-14.08L266.32,678.46z
				 M275.63,718.93l-2.64-12.34l9.27,8.11L275.63,718.93z"/>
			<path class="st13" d="M1096.88,742.01c0.71-1.9,0.46-8.72,9.5-15.27c3.72-2.66,6.76-4.93,7.59-8.04
				c1.42-5.36-3.97-7.94-9.34-7.91c-2.78,0.01-5.05-2.32-5.14-5.23l0,0c-0.09-2.95,2.1-5.43,4.92-5.57
				c3.08-0.16,6.71,0.15,10.52,1.26c11.53,3.35,15,11.55,12.99,19.14c-1.84,6.95-7.16,10.33-11.5,13.21
				c-7.3,4.86-7.3,10.27-7.92,11.78L1096.88,742.01z M1091.26,753.97c1.29-4.85,5.44-7.38,9.98-6.06c4.72,1.37,6.85,5.74,5.66,10.61
				c-1.26,4.76-5.35,7.41-10.07,6.04C1092.2,763.21,1090,758.73,1091.26,753.97z"/>
			<path class="st1" d="M427.31,576.67c3.53,0.3,10.43,1.8,16.78,3.7c7.76,2.32,12.3,4.53,15.7,8.29c3.33,3.36,5.07,8.23,3.61,13.56
				c-1.43,5.24-5.69,9.26-12.7,9.81l-0.05,0.17c5.93,3.76,9.3,10.25,7.22,17.85c-1.46,5.33-4.94,8.83-9.25,10.75
				c-5.02,2.18-12.39,2.06-23.57-1.29c-6.26-1.87-10.81-3.71-13.53-4.99L427.31,576.67z M433.76,602.98l4.17,1.25
				c6.68,2,11.05,0.19,12.25-4.18c1.22-4.46-1.39-7.79-7.15-9.51c-2.75-0.82-4.39-1.12-5.52-1.27L433.76,602.98z M426.63,629.11
				c1.2,0.55,2.71,1,4.88,1.65c5.76,1.72,11.47,0.97,13.16-5.23c1.62-5.94-2.83-9.83-9.17-11.72l-4.34-1.3L426.63,629.11z"/>
			<path class="st13" d="M972.03,602.14c0.71,3.28-1.2,6.57-4.32,7.36c-2.91,0.73-6.62,1.31-10.88,1.46
				c-22.17,0.78-34.05-13.26-34.67-32.39c-0.74-22.91,14.46-36.22,33.87-36.9c3.85-0.14,7.24,0.16,9.98,0.66
				c3.3,0.6,5.44,3.98,4.72,7.4l-0.05,0.21c-0.68,3.21-3.64,5.33-6.74,4.75c-2.03-0.38-4.32-0.59-6.85-0.5
				c-11.51,0.41-20.22,8-19.74,22.94c0.43,13.45,8.32,21.65,21.26,21.19c2.15-0.08,4.41-0.4,6.49-0.86
				C968.24,596.78,971.32,598.87,972.03,602.14L972.03,602.14z"/>
			<path class="st8" d="M253.01,914.69c-1.55-4.81,1.03-10.21,5.64-11.8c4.79-1.66,9.16,0.8,10.98,5.8
				c1.73,5.03-0.2,10.02-5.19,11.91C259.37,922.5,254.68,919.87,253.01,914.69z M251.45,900.13l-14.93-37.34
				c-1.24-3.09,0.25-6.63,3.26-7.77l3.64-1.37c3-1.13,6.3,0.59,7.24,3.79l11.32,38.71L251.45,900.13z"/>
			<g>
				<path class="st14" d="M1007.63,334.15H860.35c-39.46,0-71.46-33.5-71.46-74.82l0,0c0-41.32,31.99-74.82,71.46-74.82h147.28
					c39.46,0,71.46,33.5,71.46,74.82l0,0C1079.08,300.65,1047.09,334.15,1007.63,334.15z"/>
				<polygon class="st14" points="803.56,270.94 771.02,310.14 822.84,300.98 				"/>
				<g>
					<path class="st16" d="M830.91,242.21h211.98c2.8,0,5.06-2.37,5.06-5.3c0-2.93-2.27-5.3-5.06-5.3H830.91
						c-2.8,0-5.06,2.37-5.06,5.3C825.85,239.83,828.12,242.21,830.91,242.21z"/>
				</g>
				<g>
					<path class="st16" d="M830.91,281.53h211.98c2.8,0,5.06-2.37,5.06-5.3c0-2.93-2.27-5.3-5.06-5.3H830.91
						c-2.8,0-5.06,2.37-5.06,5.3C825.85,279.16,828.12,281.53,830.91,281.53z"/>
				</g>
			</g>
			<g>
				<g>
					<path class="st17" d="M649.07,386.23c20.76-17.6,75.14,6.73,83.24,18.09c7.97,11.17,24.14,129.01,12.24,137.16
						c-11.9,8.15-48.74,24.66-64.07,10.09C665.16,537.01,649.07,386.23,649.07,386.23z"/>
					<path class="st18" d="M630.43,379.9c0,0-35.28-18.88-40.05-28.25c-4.77-9.37-24.73-40.93-24.73-40.93s-10.19,1.35-12.89,6.13
						c3.31,13,13.47,49.04,26.6,59.66c13.13,10.62,47.7,32.52,47.7,32.52L630.43,379.9z"/>
					<g>
						<path class="st18" d="M623.46,602.23c0,0-1.19,25.62-1.19,41.24s22.98,76.85,20.89,85.6c-2.09,8.75,21.65,7.56,21.65,7.56
							s1.62-47.55-4.5-70.04c-6.12-22.49,0-68.73,0-68.73L623.46,602.23z"/>
						<path class="st18" d="M681.09,589.88c0,0,7.71,42.34,13.98,52.02c6.27,9.68,39.98,75.6,39.98,84.04
							c0,8.43,21.19,1.56,21.19,1.56s-17.9-72.17-25.06-94.04c-7.16-21.87-9.85-39.99-9.85-39.99L681.09,589.88z"/>
					</g>
					<path class="st12" d="M623.16,547.87c-2.19,13.93-11.11,98.56-11.11,98.56s30.42,9.78,48.62,5.41c0,0-0.51-68.04,3.67-68.04
						c0.04,0,0.08,0,0.12,0c5.97,0.03,11.21,4.4,12.65,10.46c3.48,14.67,13.05,58.89,13.05,58.89s38.45-5.61,46.81-9.67
						c0,0-12.84-95.73-26.87-110.41l-16.82-15.81l-61.32-8.28C631.95,508.98,624.71,538.01,623.16,547.87z"/>
					<path class="st8" d="M607.05,755.94h65.19c0,0,1.34-24.68-3.13-29.37c-4.48-4.69-3.28,0.59-10.74,3.58
						c-7.46,2.98-12.31-4.21-15.72-7.78c-3.41-3.57-0.99,11.39-15.31,11.39C613.01,733.76,603.76,749.06,607.05,755.94z"/>
					<path class="st8" d="M734.36,723.23c-3.37,0.81-13.98,9.88-17.5,19.68c-3.52,9.8-2.52,13.31-2.52,13.31s10.79,5.02,31.49,3.44
						c20.71-1.58,17.55-3.96,17.55-3.96s-1.48-22.3-5-29.09C754.87,719.82,740.27,721.81,734.36,723.23z"/>
					<path class="st18" d="M749.62,448.32c21.27,35.94,33.59,60.66,21.71,76.29c-12.99,17.07-40.47,13.72-53.2,28.23
						c-11.95-4.61-14.37-16.96-14.37-16.96s4.87-1.66,12.32-4.19c24.5-11.14,34.83-17.73,31.43-29.88
						c-3.39-12.15-15.36-28.37-15.36-28.37C737.68,447.2,749.62,448.32,749.62,448.32z"/>
					<path class="st10" d="M762.35,454.74c0,0-16.3,25.2-29.04,25.66c-8.36-13.18-12.09-20.76-12.17-19.31
						c-0.09,1.63-0.08,44.69-2.25,68.19c-16.81,10.19-95.87,3.47-95.92-7.31c-0.04-8.23,19.04-90.68,8.06-99.66
						c-3.99-3.26-37.93-22.32-37.93-22.32s14.16-29.16,22.87-38.19c0,0,17,9.31,33.25,16.15c21.31,8.98,39.25,11.46,51.11,17.22
						C742.11,415.49,745.25,425.25,762.35,454.74z"/>
					<path class="st8" d="M702.14,396.07c-11.08,34.65,3.09,108.46,18.76,126.84c4.52-11.45-12.88-57.87-0.03-116.75
						C721.24,403.17,703.26,392.87,702.14,396.07z"/>
					<path class="st8" d="M671.26,385.76c-16.01,18.22-40.04,85.91-40.55,89.28c0.7-59.15,22.27-87.18,25.86-94.05
						C658.94,379.32,671.55,383.97,671.26,385.76z"/>
					<path class="st18" d="M668.47,368.5v30.93c0,0,10.82,12.18,24.84,3.75l6.46-39.8L668.47,368.5z"/>
					<path class="st19" d="M668.47,384.09c8.94,2.36,19.98-1.62,29.48-9.5l1.82-11.21l-31.3,5.13V384.09z"/>
					<path class="st18" d="M669.29,314.86c0,0-30.48,38.3-16.59,57.09c13.89,18.79,45.38,6.03,60.96-17.73
						C729.24,330.46,675.05,297.13,669.29,314.86z"/>
					<path class="st20" d="M699.1,328.69c0,0,11.18,0.35,6.77,11.35c-4.4,10.99-12.36,14.72-8.13,19.15
						c2.91,3.05,1.25,9.28-0.07,12.88c-0.68,1.86-0.79,3.9-0.23,5.8l0.07,0.25c1.23,4.24,5.12,6.99,9.33,6.61
						c10.25-0.93,27.41-6.33,26.46-32.28c0,0,8.54-16.67,0.04-29.43c-8.5-12.77-14.94-11.7-14.94-11.7s-3.05-12.06-12.53-14.89
						c-9.48-2.84-37.25-13.12-40.3,2.84C662.52,315.21,676.07,326.91,699.1,328.69z"/>
					<path class="st18" d="M696.09,348.72c0.79-0.42,12.06-5.9,13.72,0.8c1.54,6.21-0.6,15.82-8.68,15.82
						C693.04,365.35,685.93,354.18,696.09,348.72z"/>
					<path class="st21" d="M672.24,755.94c0,0,0.28-5.13,0.16-11.15c-7.64,3.46-49.59,2.9-64.83,2.58c-1.33,3.2-1.59,6.33-0.52,8.57
						H672.24z"/>
					<path class="st21" d="M745.84,759.65c20.71-1.58,17.55-3.96,17.55-3.96s-0.34-5.14-1.08-11.23l0,0
						c-14.42,13.47-36.93,6.59-46.77,2.58c-1.9,6.68-1.18,9.17-1.18,9.17S725.13,761.24,745.84,759.65z"/>
				</g>
				<path class="st18" d="M556.42,328.62c5-1.45,11.3-4.26,15.93-6.48c-2-2.79-3.38-4.94-3.68-5.94
					c-1.41-4.68,7.48-23.02,6.02-24.52c-1.46-1.5-6.88,8.04-7.78,7.11c-0.9-0.92-2.17-21.87-5.14-21.81
					c-2.97,0.06,0.01,17.79-1.86,17.83c-1.87,0.04-5.12-21.1-8.05-18.92c-2.93,2.18,4.09,18.53,2.13,19.4
					c-1.96,0.87-7.61-14.62-9.7-14.58c-2.09,0.04-0.52,3.48,0.99,7.57c1.51,4.09,4.03,9.7,2.82,9.72c-1.21,0.02-7.11-9.75-9.18-9
					c-2.07,0.75,14.51,29.04,15.94,35.26C555.03,324.97,555.57,326.5,556.42,328.62z"/>
			</g>
		</g>
	</g>
</g>
</svg>
