<?xml version="1.0" encoding="utf-8"?>
<!-- Generator: Adobe Illustrator 25.1.0, SVG Export Plug-In . SVG Version: 6.00 Build 0)  -->
<svg version="1.1" id="Capa_1" xmlns="http://www.w3.org/2000/svg" xmlns:xlink="http://www.w3.org/1999/xlink" x="0px" y="0px"
	 viewBox="0 0 500 500" style="enable-background:new 0 0 500 500;" xml:space="preserve">
<style type="text/css">
	.st0{fill:#E8F2FA;}
	.st1{fill:#C8DCFF;}
	.st2{fill:#BAD7FD;}
	.st3{fill:#6CA3EA;}
	.st4{fill:#2A3967;}
	.st5{fill:#133F7B;}
	.st6{fill:#A7C7FF;}
	.st7{fill:#214D9A;}
	.st8{fill:#FF912B;}
	.st9{fill:#FFAE73;}
	.st10{fill:#F9924F;}
	.st11{fill:#A8CCFF;}
	.st12{fill:#25468F;}
	.st13{fill:#172441;}
	.st14{fill:#FFFFFF;}
	.st15{fill:#1E3865;}
	.st16{fill:#D4E5FC;}
	.st17{fill:#82B3F9;}
	.st18{fill:#3285D6;}
	.st19{fill:#5D99E7;}
	.st20{fill:#F28018;}
	.st21{fill:#0B3563;}
	.st22{fill:#FFA05E;}
	.st23{opacity:0.5;}
	.st24{fill:#DB6000;}
	.st25{fill:#2D3554;}
</style>
<g>
	<path class="st0" d="M40.33,417.45c0,0-62.46-92.73-31.93-188.19c19.9-62.22,94.53-96.32,136.65-62.22
		c17.94,14.52,68.14-4.81,106.22-59.63c63.15-90.92,260.77,10.1,199.81,191.9c-27.85,83.07,19.78,72.43,7.84,119.57L40.33,417.45z"
		/>
	<g>
		<g>
			<rect x="328.63" y="164.32" class="st1" width="8.56" height="253.67"/>
			<rect x="276.28" y="171.22" class="st1" width="112.07" height="6.24"/>
			<g>
				<rect x="280.51" y="157.42" class="st1" width="1.85" height="13.81"/>
				<g>
					<g>
						<path class="st1" d="M276.43,160.23c0-0.7,2.27-1.27,5.06-1.27c2.8,0,5.06,0.57,5.06,1.27c0,0.7-2.27,1.27-5.06,1.27
							C278.7,161.5,276.43,160.93,276.43,160.23z"/>
						<path class="st1" d="M276.43,157.7c0-0.7,2.27-1.27,5.06-1.27c2.8,0,5.06,0.57,5.06,1.27c0,0.7-2.27,1.27-5.06,1.27
							C278.7,158.97,276.43,158.4,276.43,157.7z"/>
						<ellipse class="st1" cx="281.5" cy="155.17" rx="5.06" ry="1.27"/>
						<path class="st1" d="M276.43,152.64c0-0.7,2.27-1.27,5.06-1.27c2.8,0,5.06,0.57,5.06,1.27c0,0.7-2.27,1.27-5.06,1.27
							C278.7,153.91,276.43,153.34,276.43,152.64z"/>
					</g>
					<rect x="278.36" y="152.07" class="st1" width="6.14" height="8.61"/>
				</g>
			</g>
			<g>
				<rect x="331.33" y="157.42" class="st1" width="1.85" height="13.81"/>
				<g>
					<g>
						<path class="st1" d="M327.25,160.23c0-0.7,2.27-1.27,5.06-1.27c2.8,0,5.06,0.57,5.06,1.27c0,0.7-2.27,1.27-5.06,1.27
							C329.52,161.5,327.25,160.93,327.25,160.23z"/>
						<path class="st1" d="M327.25,157.7c0-0.7,2.27-1.27,5.06-1.27c2.8,0,5.06,0.57,5.06,1.27c0,0.7-2.27,1.27-5.06,1.27
							C329.52,158.97,327.25,158.4,327.25,157.7z"/>
						<ellipse class="st1" cx="332.32" cy="155.17" rx="5.06" ry="1.27"/>
						<path class="st1" d="M327.25,152.64c0-0.7,2.27-1.27,5.06-1.27c2.8,0,5.06,0.57,5.06,1.27c0,0.7-2.27,1.27-5.06,1.27
							C329.52,153.91,327.25,153.34,327.25,152.64z"/>
					</g>
					<rect x="329.18" y="152.07" class="st1" width="6.14" height="8.61"/>
				</g>
			</g>
			<g>
				<rect x="382.3" y="157.42" class="st1" width="1.85" height="13.81"/>
				<g>
					<g>
						<path class="st1" d="M378.22,160.23c0-0.7,2.27-1.27,5.06-1.27c2.8,0,5.06,0.57,5.06,1.27c0,0.7-2.27,1.27-5.06,1.27
							C380.49,161.5,378.22,160.93,378.22,160.23z"/>
						<path class="st1" d="M378.22,157.7c0-0.7,2.27-1.27,5.06-1.27c2.8,0,5.06,0.57,5.06,1.27c0,0.7-2.27,1.27-5.06,1.27
							C380.49,158.97,378.22,158.4,378.22,157.7z"/>
						<path class="st1" d="M378.22,155.17c0-0.7,2.27-1.27,5.06-1.27c2.8,0,5.06,0.57,5.06,1.27c0,0.7-2.27,1.27-5.06,1.27
							C380.49,156.44,378.22,155.87,378.22,155.17z"/>
						<path class="st1" d="M378.22,152.64c0-0.7,2.27-1.27,5.06-1.27c2.8,0,5.06,0.57,5.06,1.27c0,0.7-2.27,1.27-5.06,1.27
							C380.49,153.91,378.22,153.34,378.22,152.64z"/>
					</g>
					<rect x="380.15" y="152.07" class="st1" width="6.14" height="8.61"/>
				</g>
			</g>
			<g>
				<polygon class="st1" points="332.91,205.3 301.16,176.05 302.33,174.52 332.9,202.68 363.97,173.58 365.15,175.1 				"/>
			</g>
		</g>
	</g>
	<g>
		<g>
			<path class="st2" d="M58.9,363.14H48.54c-0.06,0-0.1-0.05-0.1-0.11v-58.92c0-0.06,0.04-0.11,0.1-0.11H58.9
				c0.06,0,0.1,0.05,0.1,0.11v58.92C59,363.09,58.95,363.14,58.9,363.14z M48.64,362.92H58.8v-58.7H48.64V362.92z"/>
		</g>
		<g>
			<path class="st2" d="M63.55,402.42H43.82c-0.03,0-0.06-0.01-0.07-0.04c-0.02-0.02-0.03-0.06-0.02-0.09l4.72-39.28
				c0.01-0.05,0.05-0.1,0.1-0.1H58.9c0.05,0,0.09,0.04,0.1,0.1l4.65,39.28c0,0.03,0,0.06-0.02,0.09
				C63.61,402.4,63.58,402.42,63.55,402.42z M43.93,402.2h19.51l-4.63-39.06H48.63L43.93,402.2z"/>
		</g>
		<g>
			<path class="st2" d="M45.72,418.01h-3.78c-0.03,0-0.06-0.01-0.07-0.04c-0.02-0.02-0.03-0.06-0.02-0.09l1.88-15.59
				c0.01-0.05,0.05-0.1,0.1-0.1h7.82c0.03,0,0.06,0.02,0.08,0.05c0.02,0.03,0.02,0.07,0.01,0.1l-5.92,15.59
				C45.8,417.98,45.76,418.01,45.72,418.01z M42.05,417.79h3.6l5.84-15.37h-7.59L42.05,417.79z"/>
		</g>
		<g>
			<path class="st2" d="M65.4,418.01h-3.78c-0.04,0-0.08-0.03-0.09-0.07l-5.92-15.59c-0.01-0.03-0.01-0.07,0.01-0.1
				c0.02-0.03,0.05-0.05,0.08-0.05h7.82c0.05,0,0.09,0.04,0.1,0.1l1.88,15.59c0,0.03,0,0.06-0.02,0.09
				C65.46,418,65.43,418.01,65.4,418.01z M61.68,417.79h3.6l-1.85-15.37h-7.59L61.68,417.79z"/>
		</g>
		<g>
			<path class="st2" d="M83.53,363.14H25.32c-0.05,0-0.09-0.04-0.1-0.09c-0.01-0.05,0.02-0.1,0.06-0.12l23.22-9.82
				c0.01,0,0.02-0.01,0.04-0.01H58.9c0.01,0,0.02,0,0.03,0.01l24.63,9.82c0.05,0.02,0.07,0.07,0.06,0.12
				C83.62,363.1,83.58,363.14,83.53,363.14z M25.86,362.92h57.1l-24.08-9.6H48.56L25.86,362.92z"/>
		</g>
		<g>
			<path class="st2" d="M80.08,333.68H28.77c-0.05,0-0.09-0.04-0.1-0.09c-0.01-0.05,0.01-0.1,0.06-0.12l19.77-9.82
				c0.01-0.01,0.03-0.01,0.04-0.01H58.9c0.01,0,0.03,0,0.04,0.01l21.18,9.82c0.04,0.02,0.07,0.07,0.06,0.12
				C80.17,333.64,80.13,333.68,80.08,333.68z M29.24,333.46h50.35l-20.71-9.6H48.56L29.24,333.46z"/>
		</g>
		<g>
			<path class="st2" d="M74.65,304.22H34.2c-0.05,0-0.09-0.04-0.1-0.09c-0.01-0.05,0.02-0.1,0.06-0.12l16.14-7.15
				c0.01-0.01,0.02-0.01,0.04-0.01h7.2c0.01,0,0.02,0,0.04,0.01l17.12,7.15c0.05,0.02,0.07,0.07,0.06,0.12
				C74.74,304.18,74.7,304.22,74.65,304.22z M34.72,304h39.39l-16.59-6.93h-7.16L34.72,304z"/>
		</g>
		<g>
			<path class="st2" d="M57.53,297.07h-7.2c-0.03,0-0.06-0.02-0.08-0.04c-0.02-0.03-0.03-0.06-0.02-0.1l3.38-13.67
				c0.01-0.05,0.05-0.08,0.09-0.08c0.05,0,0.08,0.03,0.1,0.08l3.82,13.67c0.01,0.03,0,0.07-0.02,0.1
				C57.6,297.06,57.57,297.07,57.53,297.07z M50.47,296.85h6.93l-3.67-13.17L50.47,296.85z"/>
		</g>
		<g>
			<path class="st2" d="M58.9,314.04H48.54c-0.04,0-0.08-0.03-0.09-0.07c-0.01-0.04,0-0.09,0.03-0.12l5.09-4.83l-5.09-4.83
				c-0.03-0.03-0.04-0.08-0.03-0.12c0.01-0.04,0.05-0.07,0.09-0.07H58.9c0.04,0,0.08,0.03,0.09,0.07c0.01,0.04,0,0.09-0.03,0.12
				l-5.09,4.83l5.09,4.83c0.03,0.03,0.04,0.08,0.03,0.12C58.98,314.01,58.94,314.04,58.9,314.04z M48.81,313.82h9.82l-4.91-4.65
				L48.81,313.82z M48.81,304.22l4.91,4.65l4.91-4.65H48.81z"/>
		</g>
		<g>
			<path class="st2" d="M58.9,323.86H48.54c-0.04,0-0.08-0.03-0.09-0.07c-0.01-0.04,0-0.09,0.03-0.12l5.09-4.83l-5.09-4.83
				c-0.03-0.03-0.04-0.08-0.03-0.12c0.01-0.04,0.05-0.07,0.09-0.07H58.9c0.04,0,0.08,0.03,0.09,0.07c0.01,0.04,0,0.09-0.03,0.12
				l-5.09,4.83l5.09,4.83c0.03,0.03,0.04,0.08,0.03,0.12C58.98,323.83,58.94,323.86,58.9,323.86z M48.81,323.64h9.82l-4.91-4.65
				L48.81,323.64z M48.81,314.04l4.91,4.65l4.91-4.65H48.81z"/>
		</g>
		<g>
			<path class="st2" d="M58.9,333.68H48.54c-0.04,0-0.08-0.03-0.09-0.07c-0.01-0.04,0-0.09,0.03-0.12l5.09-4.83l-5.09-4.83
				c-0.03-0.03-0.04-0.08-0.03-0.12c0.01-0.04,0.05-0.07,0.09-0.07H58.9c0.04,0,0.08,0.03,0.09,0.07c0.01,0.04,0,0.09-0.03,0.12
				l-5.09,4.83l5.09,4.83c0.03,0.03,0.04,0.08,0.03,0.12C58.98,333.65,58.94,333.68,58.9,333.68z M48.81,333.46h9.82l-4.91-4.65
				L48.81,333.46z M48.81,323.86l4.91,4.65l4.91-4.65H48.81z"/>
		</g>
		<g>
			<path class="st2" d="M58.9,343.5H48.54c-0.04,0-0.08-0.03-0.09-0.07c-0.01-0.04,0-0.09,0.03-0.12l5.09-4.83l-5.09-4.83
				c-0.03-0.03-0.04-0.08-0.03-0.12c0.01-0.04,0.05-0.07,0.09-0.07H58.9c0.04,0,0.08,0.03,0.09,0.07c0.01,0.04,0,0.09-0.03,0.12
				l-5.09,4.83l5.09,4.83c0.03,0.03,0.04,0.08,0.03,0.12C58.98,343.47,58.94,343.5,58.9,343.5z M48.81,343.28h9.82l-4.91-4.65
				L48.81,343.28z M48.81,333.68l4.91,4.65l4.91-4.65H48.81z"/>
		</g>
		<g>
			<path class="st2" d="M58.9,353.32H48.54c-0.04,0-0.08-0.03-0.09-0.07c-0.01-0.04,0-0.09,0.03-0.12l5.09-4.83l-5.09-4.83
				c-0.03-0.03-0.04-0.08-0.03-0.12c0.01-0.04,0.05-0.07,0.09-0.07H58.9c0.04,0,0.08,0.03,0.09,0.07c0.01,0.04,0,0.09-0.03,0.12
				l-5.09,4.83l5.09,4.83c0.03,0.03,0.04,0.08,0.03,0.12C58.98,353.29,58.94,353.32,58.9,353.32z M48.81,353.1h9.82l-4.91-4.65
				L48.81,353.1z M48.81,343.5l4.91,4.65l4.91-4.65H48.81z"/>
		</g>
		<g>
			<path class="st2" d="M60.09,372.96H47.33c-0.04,0-0.08-0.03-0.09-0.07c-0.01-0.04,0-0.09,0.03-0.12l6.28-5.33l-5.07-4.31
				c-0.03-0.03-0.05-0.08-0.03-0.12c0.01-0.04,0.05-0.07,0.09-0.07H58.9c0.04,0,0.08,0.03,0.09,0.07c0.01,0.04,0,0.09-0.03,0.12
				l-5.08,4.31l6.27,5.33c0.03,0.03,0.05,0.08,0.03,0.12C60.17,372.93,60.13,372.96,60.09,372.96z M47.63,372.74H59.8l-6.08-5.17
				L47.63,372.74z M48.83,363.14l4.88,4.15l4.89-4.15H48.83z"/>
		</g>
		<g>
			<path class="st2" d="M61.25,382.78H46.13c-0.04,0-0.08-0.03-0.1-0.08c-0.01-0.05,0-0.1,0.04-0.12l7.44-5.23l-6.24-4.4
				c-0.04-0.03-0.05-0.08-0.04-0.12c0.01-0.05,0.05-0.08,0.1-0.08h12.76c0.04,0,0.08,0.03,0.1,0.08c0.01,0.05,0,0.1-0.04,0.12
				l-6.26,4.4l7.42,5.23c0.04,0.03,0.05,0.08,0.04,0.12C61.33,382.75,61.29,382.78,61.25,382.78z M46.47,382.56h14.44l-7.21-5.09
				L46.47,382.56z M47.67,372.96l6.03,4.25l6.05-4.25H47.67z"/>
		</g>
		<g>
			<path class="st2" d="M62.47,392.6H44.92c-0.05,0-0.09-0.03-0.1-0.08c-0.01-0.05,0.01-0.1,0.05-0.12l8.61-5.18l-7.4-4.45
				c-0.04-0.02-0.06-0.08-0.05-0.12c0.01-0.05,0.05-0.08,0.1-0.08h15.12c0.05,0,0.09,0.03,0.1,0.08c0.01,0.05-0.01,0.1-0.05,0.12
				l-7.4,4.45l8.62,5.18c0.04,0.02,0.06,0.08,0.05,0.12C62.55,392.56,62.51,392.6,62.47,392.6z M45.31,392.38h16.77l-8.39-5.04
				L45.31,392.38z M46.52,382.78l7.17,4.31l7.17-4.31H46.52z"/>
		</g>
		<g>
			<path class="st2" d="M63.6,402.42H43.82c-0.05,0-0.09-0.04-0.1-0.09c-0.01-0.05,0.01-0.1,0.05-0.12l9.69-5.1l-8.59-4.52
				c-0.04-0.02-0.06-0.07-0.05-0.12c0.01-0.05,0.05-0.09,0.1-0.09h17.55c0.05,0,0.09,0.04,0.1,0.09c0.01,0.05-0.01,0.1-0.05,0.12
				l-8.58,4.52l9.71,5.1c0.04,0.02,0.06,0.07,0.05,0.12C63.69,402.38,63.65,402.42,63.6,402.42z M44.26,402.2h18.9l-9.46-4.97
				L44.26,402.2z M45.36,392.6l8.34,4.38l8.33-4.38H45.36z"/>
		</g>
		<g>
			<path class="st2" d="M41.81,333.68c-0.02,0-0.05-0.01-0.07-0.03l-4.32-4.33l0.13-0.16l4.24,4.25l6.66-9.72l0.16,0.13l-6.73,9.82
				C41.87,333.66,41.85,333.68,41.81,333.68C41.82,333.68,41.81,333.68,41.81,333.68z"/>
		</g>
		<g>
			<path class="st2" d="M67.11,333.68c-0.03,0-0.05-0.01-0.07-0.04l-8.21-9.82l0.15-0.15l8.15,9.74l4.33-3.91l0.13,0.17l-4.4,3.97
				C67.16,333.67,67.13,333.68,67.11,333.68z"/>
		</g>
		<g>
			<polygon class="st2" points="48.6,363.11 48.47,362.95 58.83,353.13 58.96,353.29 			"/>
		</g>
		<g>
			<path class="st2" d="M75.86,363.21l-7.54-6.11l-9.37,6.03c-0.04,0.02-0.08,0.02-0.12-0.01l-10.36-9.82l0.13-0.17l10.31,9.77
				l9.37-6.02c0.03-0.02,0.08-0.02,0.11,0.01l7.6,6.15L75.86,363.21z"/>
		</g>
		<g>
			<path class="st2" d="M35.67,363.19l-0.15-0.14l4.86-6.49c0.02-0.02,0.05-0.04,0.08-0.04c0.03,0,0.06,0.01,0.08,0.04l5.05,6.4
				l-0.15,0.14l-4.97-6.3L35.67,363.19z"/>
		</g>
		<g>
			<path class="st2" d="M48.54,304.22c-0.02,0-0.03,0-0.05-0.01l-6.27-3.57l0.09-0.2l6.16,3.51l1.76-7.02
				c0.01-0.04,0.03-0.06,0.06-0.08c0.03-0.01,0.07-0.01,0.09,0.02l8.52,7.11l7.45-3.42l0.08,0.2l-7.51,3.44
				c-0.03,0.01-0.07,0.01-0.1-0.01l-8.45-7.05l-1.76,6.99c-0.01,0.03-0.03,0.06-0.06,0.07C48.57,304.22,48.55,304.22,48.54,304.22z"
				/>
		</g>
		<g>
			<path class="st2" d="M48.6,304.2l-0.12-0.18l9-7.15c0.03-0.02,0.06-0.03,0.09-0.01c0.03,0.01,0.05,0.04,0.06,0.08l1.36,7.15
				l-0.2,0.05l-1.33-6.98L48.6,304.2z"/>
		</g>
		<g>
			<path class="st2" d="M57.46,297.04l-3.6-4.46l-3.45,4.46l-0.15-0.14l3.47-4.48l-1.78-2.21c-0.03-0.03-0.03-0.08-0.02-0.12
				c0.02-0.04,0.05-0.06,0.09-0.06h3.6c0.04,0,0.07,0.02,0.09,0.06c0.02,0.04,0.01,0.08-0.01,0.12l-1.71,2.21l3.61,4.49
				L57.46,297.04z M52.25,290.24l1.61,2l1.55-2H52.25z"/>
		</g>
	</g>
	<g>
		<g>
			<path class="st2" d="M128.52,319.26h-18.59c-0.1,0-0.18-0.09-0.18-0.2V213.32c0-0.11,0.08-0.2,0.18-0.2h18.59
				c0.1,0,0.18,0.09,0.18,0.2v105.74C128.7,319.17,128.62,319.26,128.52,319.26z M110.11,318.86h18.24V213.52h-18.24V318.86z"/>
		</g>
		<g>
			<path class="st2" d="M136.87,389.75h-35.42c-0.05,0-0.1-0.02-0.13-0.07c-0.03-0.04-0.05-0.1-0.04-0.16l8.47-70.49
				c0.01-0.1,0.09-0.17,0.18-0.17h18.59c0.09,0,0.17,0.07,0.18,0.17l8.35,70.49c0.01,0.06-0.01,0.11-0.04,0.16
				C136.97,389.73,136.92,389.75,136.87,389.75z M101.66,389.36h35.01l-8.3-70.1h-18.28L101.66,389.36z"/>
		</g>
		<g>
			<path class="st2" d="M104.87,417.74h-6.79c-0.05,0-0.1-0.02-0.13-0.07c-0.03-0.04-0.05-0.1-0.04-0.16l3.37-27.98
				c0.01-0.1,0.09-0.17,0.18-0.17h14.04c0.06,0,0.12,0.03,0.15,0.09c0.03,0.05,0.04,0.12,0.02,0.19l-10.62,27.98
				C105.01,417.69,104.95,417.74,104.87,417.74z M98.29,417.34h6.46l10.47-27.59h-13.61L98.29,417.34z"/>
		</g>
		<g>
			<path class="st2" d="M140.19,417.74h-6.79c-0.07,0-0.14-0.05-0.17-0.12l-10.62-27.98c-0.02-0.06-0.02-0.13,0.02-0.19
				c0.03-0.06,0.09-0.09,0.15-0.09h14.04c0.09,0,0.17,0.07,0.18,0.17l3.37,27.98c0.01,0.06-0.01,0.11-0.04,0.16
				C140.29,417.71,140.24,417.74,140.19,417.74z M133.52,417.34h6.46l-3.32-27.59h-13.61L133.52,417.34z"/>
		</g>
		<g>
			<path class="st2" d="M172.73,319.26H68.26c-0.09,0-0.16-0.07-0.18-0.16c-0.02-0.09,0.03-0.19,0.11-0.22l41.67-17.62
				c0.02-0.01,0.04-0.01,0.06-0.01h18.59c0.02,0,0.04,0,0.06,0.01l44.21,17.62c0.08,0.03,0.13,0.13,0.12,0.22
				C172.89,319.19,172.82,319.26,172.73,319.26z M69.22,318.86h102.49l-43.22-17.23h-18.53L69.22,318.86z"/>
		</g>
		<g>
			<path class="st2" d="M166.53,266.39H74.45c-0.08,0-0.16-0.06-0.17-0.16c-0.02-0.09,0.02-0.18,0.1-0.22l35.47-17.62
				c0.02-0.01,0.05-0.02,0.07-0.02h18.59c0.02,0,0.05,0.01,0.07,0.02l38.01,17.62c0.08,0.04,0.12,0.13,0.11,0.22
				C166.69,266.32,166.62,266.39,166.53,266.39z M75.29,265.99h90.36l-37.16-17.23h-18.52L75.29,265.99z"/>
		</g>
		<g>
			<path class="st2" d="M156.79,213.52h-72.6c-0.09,0-0.16-0.07-0.18-0.16c-0.02-0.09,0.03-0.19,0.11-0.22l28.96-12.83
				c0.02-0.01,0.04-0.01,0.07-0.01h12.92c0.02,0,0.04,0,0.06,0.01l30.72,12.83c0.08,0.03,0.13,0.13,0.11,0.22
				C156.95,213.45,156.88,213.52,156.79,213.52z M85.12,213.12h70.7l-29.78-12.43h-12.85L85.12,213.12z"/>
		</g>
		<g>
			<path class="st2" d="M126.07,200.69h-12.92c-0.06,0-0.11-0.03-0.14-0.08c-0.03-0.05-0.05-0.11-0.03-0.17l6.07-24.53
				c0.02-0.08,0.09-0.14,0.17-0.15c0.09,0,0.15,0.06,0.17,0.14l6.85,24.53c0.02,0.06,0.01,0.13-0.03,0.18
				C126.18,200.66,126.13,200.69,126.07,200.69z M113.39,200.3h12.44l-6.59-23.63L113.39,200.3z"/>
		</g>
		<g>
			<path class="st2" d="M128.52,231.14h-18.59c-0.07,0-0.14-0.05-0.17-0.13c-0.03-0.08-0.01-0.16,0.05-0.22l9.14-8.66l-9.14-8.66
				c-0.06-0.05-0.08-0.14-0.05-0.22c0.03-0.08,0.09-0.13,0.17-0.13h18.59c0.07,0,0.14,0.05,0.17,0.13c0.03,0.08,0.01,0.16-0.05,0.22
				l-9.14,8.66l9.14,8.66c0.06,0.05,0.08,0.14,0.05,0.22C128.66,231.09,128.6,231.14,128.52,231.14z M110.41,230.75h17.63
				l-8.81-8.35L110.41,230.75z M110.41,213.52l8.81,8.35l8.81-8.35H110.41z"/>
		</g>
		<g>
			<path class="st2" d="M128.52,248.77h-18.59c-0.07,0-0.14-0.05-0.17-0.13c-0.03-0.08-0.01-0.16,0.05-0.22l9.14-8.66l-9.14-8.66
				c-0.06-0.05-0.08-0.14-0.05-0.22c0.03-0.08,0.09-0.13,0.17-0.13h18.59c0.07,0,0.14,0.05,0.17,0.13c0.03,0.08,0.01,0.16-0.05,0.22
				l-9.14,8.66l9.14,8.66c0.06,0.05,0.08,0.14,0.05,0.22C128.66,248.71,128.6,248.77,128.52,248.77z M110.41,248.37h17.63
				l-8.81-8.35L110.41,248.37z M110.41,231.14l8.81,8.35l8.81-8.35H110.41z"/>
		</g>
		<g>
			<path class="st2" d="M128.52,266.39h-18.59c-0.07,0-0.14-0.05-0.17-0.13c-0.03-0.08-0.01-0.16,0.05-0.22l9.14-8.66l-9.14-8.66
				c-0.06-0.05-0.08-0.14-0.05-0.22c0.03-0.08,0.09-0.13,0.17-0.13h18.59c0.07,0,0.14,0.05,0.17,0.13c0.03,0.08,0.01,0.16-0.05,0.22
				l-9.14,8.66l9.14,8.66c0.06,0.05,0.08,0.14,0.05,0.22C128.66,266.34,128.6,266.39,128.52,266.39z M110.41,265.99h17.63
				l-8.81-8.35L110.41,265.99z M110.41,248.77l8.81,8.35l8.81-8.35H110.41z"/>
		</g>
		<g>
			<path class="st2" d="M128.52,284.01h-18.59c-0.07,0-0.14-0.05-0.17-0.13c-0.03-0.08-0.01-0.16,0.05-0.22l9.14-8.66l-9.14-8.66
				c-0.06-0.05-0.08-0.14-0.05-0.22c0.03-0.08,0.09-0.13,0.17-0.13h18.59c0.07,0,0.14,0.05,0.17,0.13c0.03,0.08,0.01,0.16-0.05,0.22
				L119.5,275l9.14,8.66c0.06,0.05,0.08,0.14,0.05,0.22C128.66,283.96,128.6,284.01,128.52,284.01z M110.41,283.62h17.63l-8.81-8.35
				L110.41,283.62z M110.41,266.39l8.81,8.35l8.81-8.35H110.41z"/>
		</g>
		<g>
			<path class="st2" d="M128.52,301.64h-18.59c-0.07,0-0.14-0.05-0.17-0.13c-0.03-0.08-0.01-0.16,0.05-0.22l9.14-8.66l-9.14-8.66
				c-0.06-0.05-0.08-0.14-0.05-0.22c0.03-0.08,0.09-0.13,0.17-0.13h18.59c0.07,0,0.14,0.05,0.17,0.13c0.03,0.08,0.01,0.16-0.05,0.22
				l-9.14,8.66l9.14,8.66c0.06,0.05,0.08,0.14,0.05,0.22C128.66,301.58,128.6,301.64,128.52,301.64z M110.41,301.24h17.63
				l-8.81-8.35L110.41,301.24z M110.41,284.01l8.81,8.35l8.81-8.35H110.41z"/>
		</g>
		<g>
			<path class="st2" d="M130.66,336.88h-22.89c-0.08,0-0.14-0.05-0.17-0.13c-0.02-0.08,0-0.17,0.06-0.22l11.27-9.57l-9.11-7.74
				c-0.06-0.05-0.08-0.14-0.06-0.22c0.02-0.08,0.09-0.13,0.17-0.13h18.59c0.08,0,0.14,0.05,0.17,0.13c0.02,0.08,0,0.17-0.06,0.22
				l-9.12,7.74l11.25,9.57c0.06,0.05,0.08,0.14,0.06,0.22C130.8,336.83,130.73,336.88,130.66,336.88z M108.29,336.49h21.84
				l-10.91-9.28L108.29,336.49z M110.45,319.26l8.76,7.45l8.78-7.45H110.45z"/>
		</g>
		<g>
			<path class="st2" d="M132.74,354.51H105.6c-0.08,0-0.15-0.06-0.17-0.14c-0.02-0.08,0.01-0.17,0.08-0.22l13.36-9.39l-11.19-7.9
				c-0.07-0.05-0.1-0.14-0.08-0.22c0.02-0.08,0.09-0.14,0.17-0.14h22.89c0.08,0,0.15,0.06,0.17,0.14c0.02,0.08-0.01,0.17-0.08,0.22
				l-11.23,7.9l13.31,9.39c0.07,0.05,0.1,0.14,0.08,0.22C132.89,354.45,132.82,354.51,132.74,354.51z M106.21,354.11h25.92
				l-12.94-9.13L106.21,354.11z M108.37,336.88l10.82,7.63l10.85-7.63H108.37z"/>
		</g>
		<g>
			<path class="st2" d="M134.93,372.13h-31.49c-0.08,0-0.15-0.06-0.17-0.15c-0.02-0.09,0.02-0.18,0.09-0.22l15.45-9.29l-13.29-7.98
				c-0.07-0.04-0.11-0.13-0.09-0.22c0.02-0.09,0.09-0.15,0.17-0.15h27.14c0.08,0,0.15,0.06,0.17,0.15c0.02,0.09-0.02,0.18-0.09,0.22
				l-13.28,7.98l15.46,9.29c0.07,0.04,0.11,0.13,0.09,0.22C135.08,372.07,135.01,372.13,134.93,372.13z M104.13,371.73h30.09
				l-15.05-9.04L104.13,371.73z M106.3,354.51l12.87,7.74l12.86-7.74H106.3z"/>
		</g>
		<g>
			<path class="st2" d="M136.96,389.75h-35.5c-0.08,0-0.16-0.06-0.17-0.15c-0.02-0.09,0.02-0.18,0.1-0.22l17.4-9.16l-15.42-8.11
				c-0.08-0.04-0.12-0.13-0.1-0.22c0.02-0.09,0.09-0.15,0.17-0.15h31.49c0.08,0,0.16,0.06,0.17,0.15c0.02,0.09-0.02,0.18-0.1,0.22
				l-15.39,8.11l17.43,9.16c0.08,0.04,0.12,0.13,0.1,0.22C137.12,389.69,137.05,389.75,136.96,389.75z M102.25,389.36h33.92
				l-16.98-8.92L102.25,389.36z M104.22,372.13l14.97,7.87l14.94-7.87H104.22z"/>
		</g>
		<g>
			<path class="st2" d="M97.85,266.39c-0.04,0-0.09-0.02-0.12-0.05l-7.75-7.77l0.24-0.29l7.61,7.63l11.96-17.45l0.29,0.24
				l-12.08,17.62c-0.03,0.04-0.08,0.07-0.13,0.08C97.86,266.39,97.86,266.39,97.85,266.39z"/>
		</g>
		<g>
			<path class="st2" d="M143.26,266.39c-0.05,0-0.1-0.02-0.13-0.06l-14.74-17.62l0.26-0.27l14.63,17.49l7.77-7.01l0.23,0.31
				l-7.9,7.13C143.34,266.37,143.3,266.39,143.26,266.39z"/>
		</g>
		<g>
			<polygon class="st2" points="110.04,319.21 109.81,318.91 128.4,301.29 128.64,301.59 			"/>
		</g>
		<g>
			<path class="st2" d="M158.97,319.38l-13.54-10.96l-16.82,10.81c-0.07,0.04-0.15,0.03-0.21-0.02l-18.59-17.62l0.23-0.3l18.5,17.53
				l16.81-10.81c0.06-0.04,0.14-0.03,0.2,0.01l13.63,11.04L158.97,319.38z"/>
		</g>
		<g>
			<path class="st2" d="M86.84,319.34l-0.28-0.25l8.73-11.65c0.03-0.04,0.08-0.07,0.14-0.07c0.06,0,0.1,0.02,0.14,0.07l9.06,11.49
				l-0.27,0.26l-8.92-11.32L86.84,319.34z"/>
		</g>
		<g>
			<path class="st2" d="M109.93,213.52c-0.03,0-0.06-0.01-0.08-0.02l-11.26-6.41l0.16-0.35l11.06,6.3l3.16-12.59
				c0.02-0.06,0.06-0.11,0.12-0.13c0.06-0.02,0.12-0.01,0.17,0.03l15.29,12.76l13.38-6.14l0.14,0.36l-13.47,6.18
				c-0.06,0.03-0.13,0.02-0.18-0.02l-15.16-12.65l-3.15,12.55c-0.01,0.06-0.05,0.1-0.1,0.13
				C109.98,213.51,109.95,213.52,109.93,213.52z"/>
		</g>
		<g>
			<path class="st2" d="M110.03,213.48l-0.21-0.32l16.14-12.83c0.05-0.04,0.11-0.05,0.17-0.02c0.06,0.02,0.1,0.08,0.11,0.14
				l2.45,12.83l-0.35,0.08l-2.39-12.53L110.03,213.48z"/>
		</g>
		<g>
			<path class="st2" d="M125.94,200.62l-6.45-8.01l-6.2,8.01l-0.27-0.26l6.23-8.05l-3.19-3.96c-0.05-0.06-0.06-0.14-0.03-0.21
				c0.03-0.07,0.09-0.12,0.16-0.12h6.46c0.07,0,0.13,0.04,0.16,0.11c0.03,0.07,0.02,0.15-0.03,0.21l-3.06,3.96l6.49,8.05
				L125.94,200.62z M116.59,188.42l2.89,3.59l2.78-3.59H116.59z"/>
		</g>
	</g>
	<g>
		<path class="st3" d="M224.72,174.71c-0.34-1.49-0.54-1.63-0.54-1.63s-13.41,0.83-14.67,0.84c-1.26,0.02-18.46-5.11-18.46-5.11
			l-8.84,10.42c0,0,24.2,2.65,27.4,2.54c5.28-0.18,15.09-4.91,15.09-4.91S224.99,175.87,224.72,174.71z"/>
		<path class="st4" d="M220.77,261.5c0,0-0.24,5.97,0.84,6.49c1.09,0.52,13.7-0.45,13.7-0.45s-0.09-1.74-2.28-2
			c-2.19-0.25-5.23-1.88-6.89-4.56C223.83,257.23,220.77,261.5,220.77,261.5z"/>
		<path class="st5" d="M199.92,209.32c0,0,17.63,16.74,19.9,22.15c2.27,5.4,9.27,29.75,9.27,29.75s-1.93,1.28-5.87,1.52
			c-1.74,0.11-2.99-0.68-2.99-0.68s-10.21-22.1-11.1-24.23c-0.89-2.13-23.59-10.44-29.83-23.03L199.92,209.32z"/>
		<g>
			<rect x="222.83" y="109.94" class="st6" width="10.39" height="307.69"/>
			<rect x="159.31" y="118.32" class="st6" width="136.01" height="7.56"/>
			<g>
				<rect x="164.43" y="101.57" class="st6" width="2.24" height="16.75"/>
				<g>
					<g>
						<ellipse class="st6" cx="165.64" cy="104.99" rx="6.15" ry="1.53"/>
						<path class="st6" d="M159.49,101.92c0-0.85,2.75-1.53,6.15-1.53c3.39,0,6.15,0.69,6.15,1.53c0,0.85-2.75,1.54-6.15,1.54
							C162.24,103.45,159.49,102.76,159.49,101.92z"/>
						<path class="st6" d="M159.49,98.85c0-0.85,2.75-1.54,6.15-1.54c3.39,0,6.15,0.69,6.15,1.54c0,0.85-2.75,1.53-6.15,1.53
							C162.24,100.38,159.49,99.69,159.49,98.85z"/>
						<ellipse class="st6" cx="165.64" cy="95.78" rx="6.15" ry="1.53"/>
					</g>
					<rect x="161.83" y="95.08" class="st6" width="7.46" height="10.45"/>
				</g>
			</g>
			<g>
				<rect x="226.11" y="101.57" class="st6" width="2.24" height="16.75"/>
				<g>
					<g>
						<ellipse class="st6" cx="227.31" cy="104.99" rx="6.15" ry="1.53"/>
						<path class="st6" d="M221.16,101.92c0-0.85,2.75-1.53,6.15-1.53c3.39,0,6.15,0.69,6.15,1.53c0,0.85-2.75,1.54-6.15,1.54
							C223.91,103.45,221.16,102.76,221.16,101.92z"/>
						<path class="st6" d="M221.16,98.85c0-0.85,2.75-1.54,6.15-1.54c3.39,0,6.15,0.69,6.15,1.54c0,0.85-2.75,1.53-6.15,1.53
							C223.91,100.38,221.16,99.69,221.16,98.85z"/>
						<ellipse class="st6" cx="227.31" cy="95.78" rx="6.15" ry="1.53"/>
					</g>
					<rect x="223.5" y="95.08" class="st6" width="7.46" height="10.45"/>
				</g>
			</g>
			<g>
				<rect x="287.96" y="101.57" class="st6" width="2.24" height="16.75"/>
				<g>
					<g>
						<path class="st6" d="M283.02,104.99c0-0.85,2.75-1.53,6.15-1.53c3.39,0,6.15,0.69,6.15,1.53c0,0.85-2.75,1.53-6.15,1.53
							C285.77,106.52,283.02,105.83,283.02,104.99z"/>
						<path class="st6" d="M283.02,101.92c0-0.85,2.75-1.53,6.15-1.53c3.39,0,6.15,0.69,6.15,1.53c0,0.85-2.75,1.54-6.15,1.54
							C285.77,103.45,283.02,102.76,283.02,101.92z"/>
						<path class="st6" d="M283.02,98.85c0-0.85,2.75-1.54,6.15-1.54c3.39,0,6.15,0.69,6.15,1.54c0,0.85-2.75,1.53-6.15,1.53
							C285.77,100.38,283.02,99.69,283.02,98.85z"/>
						<path class="st6" d="M283.02,95.78c0-0.85,2.75-1.53,6.15-1.53c3.39,0,6.15,0.69,6.15,1.53c0,0.85-2.75,1.53-6.15,1.53
							C285.77,97.31,283.02,96.62,283.02,95.78z"/>
					</g>
					<rect x="285.36" y="95.08" class="st6" width="7.46" height="10.45"/>
				</g>
			</g>
			<g>
				<polygon class="st6" points="228.03,159.65 189.5,124.18 190.92,122.31 228.02,156.47 265.72,121.17 267.15,123.03 				"/>
			</g>
		</g>
		<rect x="214.2" y="141.97" class="st7" width="27.8" height="37.56"/>
		<g>
			<path class="st5" d="M201.45,205.69c-0.1-0.05-0.2-0.08-0.31-0.09l-0.72-0.09c-0.37-0.04-0.74,0.12-0.98,0.43l-1.08,1.41
				l1.5,2.31l1.73-1.21c0.27-0.19,0.44-0.5,0.47-0.84c0.01-0.04,0.01-0.09,0.01-0.13v-0.73
				C202.07,206.28,201.82,205.87,201.45,205.69z M201.33,208.01l-1.35,0.95l-1.03-1.58l0.84-1.1c0.14-0.18,0.35-0.27,0.57-0.25
				l0.72,0.09c0.29,0.03,0.51,0.31,0.51,0.63v0.73c0,0.09-0.02,0.18-0.05,0.26C201.5,207.85,201.43,207.95,201.33,208.01z"/>
		</g>
		<path class="st8" d="M233.22,194.41v2.78c0,0-26.48,9.14-31.16,10.42c-0.22,0.06-0.4,0.1-0.52,0.13l0,0
			c0.04-0.08,0.05-0.17,0.05-0.26v-0.73c0-0.32-0.22-0.59-0.51-0.63l-0.72-0.09c0,0,0.39-0.12,1.08-0.34
			C206.45,204.1,227.38,197.39,233.22,194.41z"/>
		<path class="st4" d="M212.84,266.21c0,0-1.14,5.84-0.15,6.55c0.99,0.71,13.58,2.05,13.58,2.05s0.18-1.73-1.95-2.38
			c-2.12-0.65-4.88-2.8-6.11-5.75C216.5,262.55,212.84,266.21,212.84,266.21z"/>
		<path class="st9" d="M182.86,164.74c0,0,5.99,7.43,10.5,6.49c0,0-1.23-1.59-2.61-3c-0.41-0.42-0.29-1.42-0.14-2.02
			c0.08-0.34,0.16-0.65,0.23-0.95c0.44-1.95,0.58-3.08,0.58-3.08l-3.04-3.42l-2.06-2.32c-0.09,1.12-0.19,2.17-0.53,3.05
			C184.5,162.82,182.86,164.74,182.86,164.74z"/>
		<path class="st10" d="M185.78,159.48c0,0,1.14,4.29,5.06,5.77c0.44-1.95,0.58-3.08,0.58-3.08l-3.04-3.42
			C186.69,158.99,185.78,159.48,185.78,159.48z"/>
		<path class="st9" d="M192.76,162.24c0,0-7.33,0.37-7.47-4.65c-0.14-5.02-1.18-8.35,3.5-8.8c4.67-0.45,5.63,1.44,6.05,3.1
			C195.26,153.56,194.66,162.02,192.76,162.24z"/>
		<path class="st11" d="M198.23,190.55c-0.03-0.5-0.05-1-0.07-1.51c-0.08-2.6-0.37-5.22-0.83-7.67c-0.36-1.9-0.82-3.7-1.37-5.29
			c-0.81-2.35-1.77-3.99-2.98-5.49c-0.01-0.01-1.97-2.22-1.98-2.22c-4.72,0.54-8.15-3.62-8.15-3.62s-11.28,10.75-8.34,33.88
			c0,0,0.28,1.67,0.78,4.08c0.11,0.52,0.23,1.08,0.36,1.66C176.52,208.32,198.59,197.18,198.23,190.55z"/>
		<path class="st12" d="M181.21,150.13c-0.08-0.07-0.25-0.11-0.6-0.07c0,0,0.25-0.25,0.62-0.33c-0.01-0.56,0.09-1.56,0.89-1.96
			c0,0-0.41,0.35-0.37,0.94c0.79-1.3,2.73-2.51,8.55-3.12c7.67-0.81,6.05,5.08,5.18,5.91c-0.87,0.84-3.62-0.45-5.42,0.07
			c-1.8,0.52-1.67,3.53-2.22,4.05c-0.55,0.52-0.43-0.24-1.33-0.5c-0.91-0.26-0.73,1.3-0.33,2.26c0.4,0.96-0.53,2.51-0.53,2.51
			s0,0-1.39-1.17c-1.39-1.17-3.44-6.87-3.12-8.24C181.15,150.38,181.18,150.26,181.21,150.13z"/>
		<path class="st3" d="M178.72,184.92c0,0,3.17,11.75,6.75,13.65c3.59,1.9,3.38-8.16,3.38-8.16L178.72,184.92z"/>
		<path class="st7" d="M202.4,213.32c-5.69-2.78-3.81-16.14-4.17-22.76c-0.03-0.5-0.05-1-0.07-1.51c-0.08-2.6-0.37-5.22-0.83-7.67
			c-0.36-1.9-0.82-3.7-1.37-5.29l-7.86,1.41c-1.51,0.27-2.6,1.73-2.54,3.41c0.14,4.31-0.21,12.32-4.35,16.4
			c-2.98,2.94-4.82,4.54-5.91,5.4c0.11,0.52,0.23,1.08,0.36,1.66c0.87,3.96,1.84,9,3.9,11.89
			C181.15,218.47,203.01,213.62,202.4,213.32z"/>
		<path class="st7" d="M182.09,165.58c0,0,2.17,0.9,5.01,5.03c2.41,3.51,3.3,6.87,3.3,6.87l-1.3,0.32c0,0-1.93-7.33-7.79-11.23
			C181.3,166.57,181.31,166.43,182.09,165.58z"/>
		<path class="st9" d="M216.27,171.63c0,0,1.36-3.4,1.72-3.87c0.36-0.46,2.27-2.07,2.41-1.99c0.14,0.08,0.2,0.7-0.15,1.06
			c-0.24,0.25-0.53,0.49-0.38,0.51c0.15,0.03,0.83-1.15,1.36-0.76s1.8,2.11,0.99,3.46c-0.81,1.35-3.91,2.79-4.07,2.99
			C216.75,174.76,216.27,171.63,216.27,171.63z"/>
		<path class="st11" d="M216.27,171.63c0,0-14.15,13.8-15.49,13.96c-2.14,0.26-14.06-11.71-14.06-11.71s-1.58-2.99-5.08-1.52
			c-3.04,1.27-4.36,5.3-4.36,5.3s-1.03,3.97,0.76,6.34c3.96,5.25,19.06,10.54,23.57,9.9c5.81-0.82,16.58-18.27,16.58-18.27
			s0.65-1.56-0.03-2.6C217.54,172.11,216.27,171.63,216.27,171.63z"/>
		<path class="st7" d="M219.69,266.87c0,0-2.1,0.91-6.01,0.44c-1.73-0.21-2.85-1.22-2.85-1.22s-0.61-2.14-1.48-5.19
			c-0.13-0.47-0.27-0.96-0.42-1.47c-0.19-0.67-0.39-1.37-0.59-2.08c-0.14-0.49-0.28-0.98-0.42-1.48c-1.9-6.7-4.09-14.43-4.4-15.68
			c-0.56-2.26-21.7-14.58-25.95-28.13l21.08-4.67c0,0,14.95,22.72,16.37,28.47c0.76,3.06,2.04,11.7,3.06,19.08
			c0.07,0.49,0.14,0.97,0.2,1.44c0.1,0.72,0.19,1.43,0.29,2.11c0.07,0.5,0.13,0.98,0.19,1.44
			C219.32,263.97,219.69,266.87,219.69,266.87z"/>
		<path class="st8" d="M198.66,207.37c0,0-8.11,7.05-19.93,8.26c0,0,1.02,2.94,3.15,4.34c0,0,12.68-2.11,18.05-10.66L198.66,207.37z
			"/>
		<g>
			<path class="st13" d="M226.27,275.46c-0.03,0-0.05,0-0.08-0.01l-17.03-2.46c-0.33-0.05-0.55-0.37-0.51-0.73
				c0.04-0.36,0.34-0.61,0.67-0.56l16.89,2.44l6.82-2.41c0.31-0.11,0.65,0.08,0.75,0.42c0.1,0.34-0.07,0.71-0.38,0.82l-6.95,2.46
				C226.4,275.45,226.34,275.46,226.27,275.46z"/>
		</g>
		<g>
			<path class="st14" d="M218.29,256.36c-2.74,0.86-5.51,1.06-7.56,1.06c-1,0-1.83-0.05-2.4-0.09c-0.14-0.49-0.28-0.98-0.42-1.48
				c0.05,0.01,0.11,0.01,0.17,0.01c1.47,0.1,5.82,0.41,10-0.95C218.16,255.41,218.23,255.89,218.29,256.36z"/>
		</g>
		<g>
			<path class="st14" d="M218.78,259.91c-2.71,0.85-5.46,1.04-7.49,1.04c-0.76,0-1.41-0.03-1.94-0.05
				c-0.13-0.47-0.27-0.96-0.42-1.47c1.68,0.11,5.74,0.31,9.65-0.95C218.65,258.96,218.71,259.44,218.78,259.91z"/>
		</g>
		<rect x="220.59" y="141.97" class="st15" width="21.41" height="37.56"/>
	</g>
	<g>
		<g>
			<rect x="402.89" y="241.18" class="st16" width="5.98" height="177.69"/>
			<rect x="366.34" y="246.02" class="st16" width="78.24" height="4.37"/>
			<g>
				<rect x="369.29" y="236.35" class="st16" width="1.29" height="9.67"/>
				<g>
					<g>
						<ellipse class="st16" cx="369.98" cy="238.32" rx="3.54" ry="0.89"/>
						<path class="st16" d="M366.45,236.55c0-0.49,1.58-0.89,3.54-0.89c1.95,0,3.54,0.4,3.54,0.89s-1.58,0.89-3.54,0.89
							C368.03,237.44,366.45,237.04,366.45,236.55z"/>
						<path class="st16" d="M366.45,234.78c0-0.49,1.58-0.89,3.54-0.89c1.95,0,3.54,0.4,3.54,0.89s-1.58,0.89-3.54,0.89
							C368.03,235.66,366.45,235.27,366.45,234.78z"/>
						<path class="st16" d="M366.45,233c0-0.49,1.58-0.89,3.54-0.89c1.95,0,3.54,0.4,3.54,0.89c0,0.49-1.58,0.89-3.54,0.89
							C368.03,233.89,366.45,233.49,366.45,233z"/>
					</g>
					<rect x="367.79" y="232.6" class="st16" width="4.29" height="6.03"/>
				</g>
			</g>
			<g>
				<rect x="404.77" y="236.35" class="st16" width="1.29" height="9.67"/>
				<g>
					<g>
						<path class="st16" d="M401.93,238.32c0-0.49,1.58-0.89,3.54-0.89c1.95,0,3.54,0.4,3.54,0.89c0,0.49-1.58,0.89-3.54,0.89
							C403.51,239.21,401.93,238.81,401.93,238.32z"/>
						<path class="st16" d="M401.93,236.55c0-0.49,1.58-0.89,3.54-0.89c1.95,0,3.54,0.4,3.54,0.89s-1.58,0.89-3.54,0.89
							C403.51,237.44,401.93,237.04,401.93,236.55z"/>
						<path class="st16" d="M401.93,234.78c0-0.49,1.58-0.89,3.54-0.89c1.95,0,3.54,0.4,3.54,0.89s-1.58,0.89-3.54,0.89
							C403.51,235.66,401.93,235.27,401.93,234.78z"/>
						<path class="st16" d="M401.93,233c0-0.49,1.58-0.89,3.54-0.89c1.95,0,3.54,0.4,3.54,0.89c0,0.49-1.58,0.89-3.54,0.89
							C403.51,233.89,401.93,233.49,401.93,233z"/>
					</g>
					<rect x="403.27" y="232.6" class="st16" width="4.29" height="6.03"/>
				</g>
			</g>
			<g>
				<rect x="440.36" y="236.35" class="st16" width="1.29" height="9.67"/>
				<g>
					<g>
						<path class="st16" d="M437.51,238.32c0-0.49,1.58-0.89,3.54-0.89c1.95,0,3.54,0.4,3.54,0.89c0,0.49-1.58,0.89-3.54,0.89
							C439.1,239.21,437.51,238.81,437.51,238.32z"/>
						<path class="st16" d="M437.51,236.55c0-0.49,1.58-0.89,3.54-0.89c1.95,0,3.54,0.4,3.54,0.89s-1.58,0.89-3.54,0.89
							C439.1,237.44,437.51,237.04,437.51,236.55z"/>
						<path class="st16" d="M437.51,234.78c0-0.49,1.58-0.89,3.54-0.89c1.95,0,3.54,0.4,3.54,0.89s-1.58,0.89-3.54,0.89
							C439.1,235.66,437.51,235.27,437.51,234.78z"/>
						<path class="st16" d="M437.51,233c0-0.49,1.58-0.89,3.54-0.89c1.95,0,3.54,0.4,3.54,0.89c0,0.49-1.58,0.89-3.54,0.89
							C439.1,233.89,437.51,233.49,437.51,233z"/>
					</g>
					<rect x="438.86" y="232.6" class="st16" width="4.29" height="6.03"/>
				</g>
			</g>
			<g>
				<polygon class="st16" points="405.88,269.89 383.71,249.4 384.53,248.33 405.87,268.05 427.56,247.67 428.38,248.74 				"/>
			</g>
		</g>
	</g>
	<g>
		<rect x="196.42" y="292.74" class="st6" width="46.71" height="124.55"/>
		<rect x="225.37" y="292.74" class="st17" width="17.77" height="124.55"/>
		<rect x="211.52" y="297.04" class="st18" width="9.46" height="18.52"/>
		<rect x="209.12" y="297.04" class="st19" width="9.46" height="18.52"/>
		<g>
			<path class="st0" d="M199.57,339.1l-0.06-0.25c0.03-0.01,2.98-0.9,3.44-6.24c0.38-4.43,1.03-6.74,2.18-7.74
				c0.51-0.45,1.14-0.62,1.87-0.5c0.91,0.14,1.73,1.06,2.67,2.12c1.69,1.9,3.79,4.27,7.5,3.16c5.69-1.7,8.07-8.43,8.09-8.5
				l0.22,0.09c-0.02,0.07-2.44,6.92-8.25,8.66c-3.84,1.15-6-1.28-7.73-3.23c-0.91-1.03-1.7-1.91-2.53-2.04
				c-0.67-0.11-1.22,0.04-1.69,0.45c-1.08,0.93-1.72,3.27-2.09,7.56c-0.25,2.88-1.21,4.48-1.98,5.32
				C200.37,338.87,199.6,339.09,199.57,339.1z"/>
		</g>
		<g>
			<polygon class="st0" points="225.37,343.04 211.4,343.04 211.4,315.56 211.63,315.56 211.63,342.77 225.37,342.77 			"/>
		</g>
		<g>
			<polygon class="st0" points="225.37,340.05 213.73,340.05 213.73,315.56 213.97,315.56 213.97,339.79 225.37,339.79 			"/>
		</g>
		<g>
			<polygon class="st0" points="225.37,336.62 216.96,336.62 216.96,315.56 217.19,315.56 217.19,336.35 225.37,336.35 			"/>
		</g>
		<g>
			<polygon class="st0" points="225.37,386.54 204.61,386.54 204.61,358.37 225.37,358.37 225.37,358.63 204.85,358.63 
				204.85,386.28 225.37,386.28 			"/>
		</g>
		<g>
			<polygon class="st0" points="225.37,383.39 207.89,383.39 207.89,360.73 225.37,360.73 225.37,360.99 208.12,360.99 
				208.12,383.13 225.37,383.13 			"/>
		</g>
		<g>
			<polygon class="st0" points="225.37,379.25 211.4,379.25 211.4,364.26 225.37,364.26 225.37,364.52 211.63,364.52 211.63,378.98 
				225.37,378.98 			"/>
		</g>
		<rect x="202.71" y="394.88" class="st19" width="22.65" height="15.48"/>
		<g>
			<polygon class="st19" points="206.15,394.88 205.92,394.88 205.92,389.94 225.37,389.94 225.37,390.21 206.15,390.21 			"/>
		</g>
		<g>
			<polygon class="st19" points="211.26,394.88 211.02,394.88 211.02,392.35 225.37,392.35 225.37,392.61 211.26,392.61 			"/>
		</g>
		<g>
			<path class="st6" d="M214.97,298.7c0,0.23-0.17,0.41-0.37,0.41c-0.2,0-0.37-0.18-0.37-0.41c0-0.23,0.17-0.41,0.37-0.41
				C214.8,298.29,214.97,298.47,214.97,298.7z"/>
			<path class="st8" d="M216.35,298.7c0,0.23-0.17,0.41-0.37,0.41c-0.2,0-0.37-0.18-0.37-0.41c0-0.23,0.17-0.41,0.37-0.41
				C216.18,298.29,216.35,298.47,216.35,298.7z"/>
			<path class="st14" d="M217.6,298.7c0,0.23-0.17,0.41-0.37,0.41c-0.2,0-0.37-0.18-0.37-0.41c0-0.23,0.17-0.41,0.37-0.41
				C217.43,298.29,217.6,298.47,217.6,298.7z"/>
		</g>
		<rect x="210.66" y="299.66" class="st18" width="7.3" height="4.41"/>
		<g>
			<path class="st9" d="M206.37,304.48c0,0,1.27-2.91,2.3-3.82c1.03-0.9,3.79-0.68,3.89-0.45c0.33,0.72-2.21,1.83-2.5,2.49
				c-0.29,0.66,0.92,0.59-0.01,1.73c-0.79,0.97-2.68,1.89-2.68,1.89L206.37,304.48z"/>
			<path class="st20" d="M207.47,304.15c-0.67-1.15-0.87-1.21-0.87-1.21s-11.05,4.87-12.11,5.27c-1.06,0.41-16.83,1.43-16.83,1.43
				l-4.76,11.55c0,0,21.02-5.29,23.67-6.38c4.39-1.8,11.42-8.83,11.42-8.83S208,305.05,207.47,304.15z"/>
			<path class="st21" d="M180.01,412.11c0,0,0.24,4.28,0.96,5.29h11.09c-0.07-0.43-0.38-1.48-1.77-1.75
				c-1.75-0.34-4.68-1.69-5.74-4.25C183.43,408.71,180.01,412.11,180.01,412.11z"/>
			<path class="st21" d="M160.3,410.35c0,0-0.7,6.49,0.25,6.59c0.13,0.01,4.57,0,5.77,0.2c1.97,0.33,5.26,0.04,5.26,0.04
				c0.41,0.02,0.68-0.47,0.47-0.87c-0.23-0.43-0.67-0.89-1.51-1.07c-1.75-0.37-4.66-1.79-5.68-4.36
				C163.81,408.18,160.3,410.35,160.3,410.35z"/>
			<path class="st15" d="M185.22,355.11c0,0-2.79,10.77-10.78,29.46c-2.62,6.12-4.37,11.08-5.54,14.98
				c-0.15,0.5-0.29,0.99-0.43,1.45c-0.21,0.75-0.4,1.46-0.57,2.12c-0.13,0.51-0.24,0.98-0.35,1.44c-1.05,4.5-1.03,6.55-1.03,6.55
				s-1.81,0.75-3.98,0.52c-1.1-0.12-3.53-1.27-3.53-1.27s0.26-3.01,0.79-7.28c0.06-0.47,0.12-0.95,0.19-1.45
				c0.09-0.67,0.18-1.35,0.28-2.06c0.07-0.47,0.14-0.96,0.21-1.44c0.93-6.35,2.31-13.72,4.14-18.32c3.78-9.43,4.54-35.26,4.54-35.26
				L185.22,355.11z"/>
			<path class="st7" d="M189.68,349.62c-0.09,6.05-0.51,18.74-2.37,33.37c-0.9,7.07-1.39,12.74-1.64,17.12
				c-0.03,0.52-0.05,1.01-0.08,1.49c-0.04,0.77-0.07,1.5-0.09,2.18c-0.02,0.52-0.03,1.01-0.04,1.47c-0.1,4.72,0.12,6.89,0.12,6.89
				s-0.16,0.11-0.49,0.24h0c-0.56,0.23-1.62,0.55-3.21,0.55c-0.71,0-1.33-0.1-1.82-0.24c-0.86-0.23-1.35-0.55-1.35-0.55
				s-0.42-2.73-0.9-6.68c-0.06-0.47-0.12-0.96-0.18-1.47c-0.08-0.67-0.15-1.37-0.23-2.09c-0.05-0.48-0.1-0.97-0.15-1.47
				c-0.63-6.28-1.12-13.75-0.59-18.79c0.08-0.8,0.12-1.7,0.13-2.67v0c0-4.54-0.84-10.65-1.84-16.35c0,0,0-0.02-0.01-0.05
				c-1.04-5.86-2.26-11.28-2.91-14.09c-0.3-1.27-0.48-2-0.48-2l0.55-0.02h0l4.37-0.15l11.92-0.43l0.73-0.03l0.59-0.02
				C189.7,345.85,189.72,347.21,189.68,349.62z"/>
			<path class="st9" d="M177.35,306.83l2.95,2.41l4.27-0.99c-0.06-0.43-0.34-2.21-0.6-3.82c-0.02-0.1-0.03-0.19-0.05-0.28
				c-0.22-1.37-0.41-2.55-0.41-2.55l-3.99-2.19l-1.49-0.82c0,0.03,0.12,1.52,0.13,1.74C178.45,304.2,177.35,306.83,177.35,306.83z"
				/>
			<path class="st20" d="M184.27,305.62c-0.09-0.04-5.8-1.9-6.42-1.68c-0.62,0.23-0.99,1.55-0.99,1.55l8.82,2.77
				C185.67,308.26,185.46,306.17,184.27,305.62z"/>
			<path class="st8" d="M168.89,347.91c0.97,4.87,21.15-10.42,20.88-13.39c-0.03-0.33-0.06-0.66-0.09-0.98
				c-0.37-4.14-0.73-8.19-0.75-10.84c-0.02-2.29-0.31-4.64-0.69-6.77c-0.35-1.97-0.78-3.75-1.16-5.14
				c-0.26-0.98-0.76-1.84-1.41-2.52c-0.46-0.48-1.01-0.87-1.61-1.13c-0.16-0.08-0.33-0.14-0.5-0.19c-2.43-0.78-5.79-1.74-6.71-1.45
				c-2.47,0.8-4.3,5.6-5.6,11.72C168.82,328.66,168.26,344.73,168.89,347.91z"/>
			<path class="st22" d="M178.48,300.4c0.88,1.85,4.14,3.45,5.5,4.03c-0.02-0.1-0.03-0.19-0.05-0.28c-0.22-1.37-0.41-2.55-0.41-2.55
				l-3.99-2.19C178.65,299.39,178.11,299.64,178.48,300.4z"/>
			<path class="st9" d="M185.45,301.34c0,0-7.19,2.48-8.52-2.49c-1.33-4.97-3.15-7.99,1.38-9.78c4.53-1.79,5.94-0.19,6.75,1.35
				C185.87,291.96,187.29,300.57,185.45,301.34z"/>
			<path class="st21" d="M184.78,289.95c0,0-0.46,5.78-1.54,5.53c-1.08-0.25-2.06-0.44-1.91,1.3c0.16,1.74,0.21,3.84-3.13,4.14
				s-6.68-9.27-5.77-11.07C175.09,284.66,188.61,283.62,184.78,289.95z"/>
			<path class="st20" d="M189.16,345.85c-2,0.8,0.03-2.19,0-2.82c-0.16-2.74,0.82-6.2,0.52-9.5l-12.21-8.05
				C177.48,325.48,174.58,345.72,189.16,345.85z"/>
			<path class="st7" d="M168.89,347.91c5.21,10.66,6.04,14.73,6.04,14.73c4.54-0.57,12.31-10.41,14.77-13.04
				c0,0,0.34-12.11,0.07-15.08l-3.77-0.12c0,0-6.81,1.9-8.57-0.68c-1.77-2.59-1-15.27-1-15.27l-5.17-1.24
				C168.82,328.66,167.49,345.05,168.89,347.91z"/>
			<path class="st9" d="M199.81,327.48c0,0,2.48-1.85,2.95-2.01c0.47-0.16,2.01-0.34,2.08-0.2c0.07,0.13,0.28,0.54,0.01,0.68
				c-0.27,0.14-0.61,0.09-0.5,0.19c0.1,0.1,1.11-0.44,1.35,0.14s0.44,2.53-0.75,3.12c-1.19,0.59-4.13,0.06-4.34,0.13
				C198.82,330.09,199.81,327.48,199.81,327.48z"/>
			<path class="st8" d="M199.84,326.98c0,0-12.11,2.27-13.18,1.7c-1.71-0.92,0.66-14.48,0.66-14.48s0.1-3.07-3.15-3.8
				c-2.83-0.63-5.55,1.71-5.55,1.71s-2.48,2.45-2.16,5.16c0.7,6.02,1.79,18.27,5.44,20.14c4.71,2.42,18.32-6.71,18.32-6.71
				s0.45-0.61,0.39-1.75C200.55,327.95,199.84,326.98,199.84,326.98z"/>
			<path class="st7" d="M175.43,318.2l1,0.24c0,0,2.12-10.13,9.25-10.18c-0.46-0.48-1.01-0.87-1.61-1.13
				C181.45,307.9,176.92,310.36,175.43,318.2z"/>
			<path class="st9" d="M210.3,304.08l1.21-1.72c0,0-0.3-0.43-0.92,0.08c-0.36,0.3-1.33,0.98-1.33,0.98L210.3,304.08z"/>
			<g class="st23">
				<path class="st14" d="M168.91,399.56c-0.15,0.5-0.29,0.99-0.43,1.45c-2.68,0-5.22-0.55-7.09-1.09c-0.4-0.12-0.78-0.23-1.11-0.34
					c0.07-0.47,0.14-0.96,0.21-1.44C162.39,398.77,165.58,399.64,168.91,399.56z"/>
			</g>
			<g class="st23">
				<path class="st14" d="M167.91,403.13c-0.13,0.51-0.24,0.98-0.35,1.44c-2.43-0.08-4.72-0.58-6.45-1.08
					c-0.48-0.14-0.91-0.28-1.3-0.4c0.06-0.47,0.12-0.95,0.19-1.45C161.74,402.22,164.73,403.08,167.91,403.13z"/>
			</g>
		</g>
		<g>
			<g>
				<path class="st14" d="M185.67,400.11c-0.03,0.52-0.05,1.01-0.08,1.49c-2.47,0.51-4.88,0.53-6.71,0.43
					c-0.56-0.03-1.06-0.07-1.49-0.12c-0.05-0.48-0.1-0.97-0.15-1.47C179.06,400.65,182.35,400.86,185.67,400.11z"/>
			</g>
			<g>
				<path class="st14" d="M185.5,403.79c-0.02,0.52-0.03,1.01-0.04,1.47c-2.28,0.41-4.49,0.42-6.19,0.33
					c-0.55-0.03-1.04-0.07-1.47-0.11c-0.06-0.47-0.12-0.96-0.18-1.47C179.34,404.19,182.37,404.39,185.5,403.79z"/>
			</g>
		</g>
	</g>
	<g>
		<g>
			<g>
				<polygon class="st17" points="315.71,415.5 323.83,415.39 342.8,328.18 334.68,328.29 				"/>
				<path class="st17" d="M302.29,417.44h36.43l0,0c0-2.35-1.73-4.26-3.86-4.26h-28.71C304.02,413.19,302.29,415.09,302.29,417.44
					L302.29,417.44z"/>
			</g>
			<polygon class="st5" points="386.44,377.06 382.94,357.71 382.94,357.71 382.93,357.67 371.29,293.27 258.11,293.29 
				273.26,377.08 294.76,377.08 294.76,377.08 294.96,377.08 319.02,377.08 319.1,377.08 319.1,377.08 343.05,377.07 343.21,377.07 
				343.21,377.07 367.11,377.07 367.11,377.07 367.33,377.07 367.33,377.07 			"/>
			<g>
				<polygon class="st7" points="388.38,375.41 275.2,375.43 260.05,293.29 373.23,293.27 				"/>
				<g>
					<g>
						<polygon class="st2" points="296.92,375.42 296.7,375.42 281.59,293.51 281.81,293.51 						"/>
					</g>
					<g>
						<polygon class="st2" points="321.03,375.42 320.82,375.42 305.71,293.5 305.92,293.5 						"/>
					</g>
					<g>
						<polygon class="st2" points="345.15,375.41 344.94,375.41 329.83,293.5 330.04,293.5 						"/>
					</g>
					<g>
						<polygon class="st2" points="369.27,375.41 369.05,375.41 353.94,293.5 354.16,293.5 						"/>
					</g>
					<g>
						<polygon class="st2" points="376.82,312.77 263.65,312.78 263.61,312.56 376.78,312.54 						"/>
					</g>
					<g>
						<polygon class="st2" points="380.85,334.6 267.68,334.62 267.63,334.4 380.81,334.38 						"/>
					</g>
					<g>
						<polygon class="st2" points="384.88,356.44 271.7,356.46 271.66,356.23 384.84,356.21 						"/>
					</g>
				</g>
				<g>
					<polygon class="st2" points="285.68,315.08 282.9,312.67 284.79,310.25 287.56,312.67 					"/>
					<polygon class="st2" points="289.73,337.03 286.95,334.62 288.84,332.2 291.61,334.62 					"/>
					<polygon class="st2" points="309.9,315.08 307.13,312.66 309.01,310.25 311.79,312.66 					"/>
					<polygon class="st2" points="313.95,337.03 311.18,334.61 313.06,332.2 315.84,334.61 					"/>
					<polygon class="st2" points="334.02,315.07 331.25,312.66 333.13,310.25 335.91,312.66 					"/>
					<polygon class="st2" points="357.92,315.07 355.15,312.66 357.03,310.24 359.81,312.66 					"/>
					<polygon class="st2" points="293.73,358.76 290.96,356.34 292.84,353.93 295.62,356.34 					"/>
					<polygon class="st2" points="317.96,358.75 315.18,356.34 317.07,353.92 319.84,356.34 					"/>
					<polygon class="st2" points="342.08,358.75 339.3,356.33 341.19,353.92 343.96,356.33 					"/>
					<polygon class="st2" points="365.98,358.74 363.2,356.33 365.09,353.92 367.86,356.33 					"/>
					<polygon class="st2" points="361.97,337.02 359.2,334.61 361.08,332.19 363.86,334.6 					"/>
					<polygon class="st2" points="338.07,337.02 335.29,334.61 337.18,332.19 339.95,334.61 					"/>
				</g>
			</g>
		</g>
		<g>
			<g>
				<polygon class="st6" points="352.38,325.04 351.04,325.41 349.26,317.59 350.6,317.22 				"/>
				<path class="st6" d="M350.4,314.68C350.4,314.69,350.4,314.68,350.4,314.68c0.07,0.61-0.09,1.26-0.61,1.47
					c-0.69,0.29-1.16-0.21-1.33-0.98c0,0-0.04-0.2-0.05-0.2c-0.06-0.27-0.62-0.05-0.7,0.21c-0.15,0.47-0.15,1,0.03,1.51
					c0.33,0.94,1.21,1.51,2.11,1.38c1.2-0.18,1.95-1.45,1.67-2.71c-0.08-0.35-0.23-0.66-0.43-0.91
					C350.89,314.21,350.36,314.36,350.4,314.68z"/>
				<path class="st6" d="M351.08,328.11C351.08,328.11,351.08,328.11,351.08,328.11c-0.07-0.61,0.09-1.26,0.61-1.47
					c0.69-0.29,1.16,0.21,1.33,0.98c0,0,0.04,0.2,0.05,0.2c0.06,0.27,0.62,0.05,0.7-0.21c0.15-0.47,0.15-1-0.03-1.51
					c-0.33-0.94-1.21-1.51-2.11-1.38c-1.2,0.18-1.95,1.45-1.67,2.71c0.08,0.35,0.23,0.66,0.43,0.91
					C350.59,328.58,351.12,328.44,351.08,328.11z"/>
			</g>
			<g>
				<path class="st9" d="M347.89,297.59c0,0-1.35-3.1-2.45-4.07c-1.1-0.96-4.03-0.73-4.15-0.48c-0.35,0.76,2.35,1.95,2.67,2.65
					c0.31,0.7-0.98,0.63,0.01,1.85c0.84,1.03,2.85,2.01,2.85,2.01L347.89,297.59z"/>
				<path class="st3" d="M346.72,297.24c0.71-1.22,0.93-1.29,0.93-1.29s11.78,5.18,12.9,5.62c1.12,0.43,17.93,1.52,17.93,1.52
					l5.07,12.3c0,0-22.4-5.64-25.23-6.79c-4.68-1.91-12.17-9.41-12.17-9.41S346.16,298.2,346.72,297.24z"/>
				<path class="st9" d="M344.96,296.69c-0.01-0.01,0.43-0.67-0.14-1.42c-0.42-0.55-0.52,0.5-1.24,0.24
					c-0.6-0.22-2.21-0.48-1.17,0.44c0.96,0.85,1.9,1.99,2.26,2.26C345.03,298.48,344.96,296.69,344.96,296.69z"/>
				<path class="st21" d="M375.99,412.23c0,0-0.26,4.56-1.02,5.63h-11.82c0.07-0.45,0.41-1.58,1.89-1.86
					c1.87-0.36,4.99-1.81,6.12-4.53C372.35,408.61,375.99,412.23,375.99,412.23z"/>
				<path class="st21" d="M396.96,411.6c0,0,0.78,5.68-0.23,5.78c-0.13,0.01-4.87,0-6.15,0.22c-2.1,0.35-5.61,0.04-5.61,0.04
					c-0.44,0.02-0.73-0.5-0.5-0.92c0.25-0.46,0.71-0.95,1.61-1.14c1.86-0.4,4.96-1.9,6.05-4.65
					C393.26,408.05,396.96,411.6,396.96,411.6z"/>
				<path class="st20" d="M396.96,411.6c0,0-1.09,0.46-2.83,0.62c-1.17,0.11-2.09-0.05-2.59-0.18c-0.28-0.07-0.44-0.14-0.44-0.14
					s-0.2-2.77-1.82-8.62c-0.12-0.44-0.25-0.9-0.39-1.38c-0.18-0.63-0.38-1.28-0.59-1.97c-0.14-0.45-0.28-0.91-0.44-1.38
					c-1.35-4.17-3.25-9.37-5.93-15.64c-0.89-2.08-1.72-4.06-2.48-5.95c-6.62-16.24-9-25.44-9-25.44l0.29-0.19l11.74-7.71l1.97-1.29
					h0l3.11-2.04c0,0,0.04,1.46,0.16,3.84c0,0.03,0,0.07,0,0.1c0.39,7.97,1.6,25.91,4.68,33.61c1.88,4.68,3,12.33,3.66,19.17
					c0.05,0.48,0.09,0.96,0.13,1.43c0.06,0.71,0.12,1.41,0.18,2.1c0.04,0.48,0.08,0.96,0.11,1.43
					C396.86,407.48,396.96,411.6,396.96,411.6z"/>
				<path class="st8" d="M385.03,342.35c0,0-0.2,0.78-0.51,2.14c-0.7,3-2,8.79-3.12,15.05c-1.07,6.07-1.97,12.59-1.97,17.42
					c0,1.03,0.04,1.98,0.13,2.84c0.54,5.16-0.06,12.74-0.85,19.32c-0.06,0.49-0.12,0.97-0.18,1.44c-0.09,0.72-0.18,1.43-0.28,2.11
					c-0.07,0.49-0.13,0.97-0.2,1.43c-0.7,4.91-1.34,8.42-1.34,8.42s-0.28,0.07-0.77,0.15c-0.7,0.13-1.83,0.3-3.18,0.36
					c-0.79,0.04-1.66-0.27-2.19-0.51c-0.32-0.14-0.53-0.26-0.53-0.26s0.27-2.67,0.09-8.52c-0.01-0.23-0.02-0.46-0.03-0.7l-0.03-0.73
					c-0.03-0.64-0.05-1.32-0.09-2.03c-0.02-0.46-0.05-0.94-0.08-1.43c-0.28-4.59-0.79-10.43-1.71-17.65
					c-1.99-15.58-2.44-29.1-2.53-35.55c-0.04-2.57-0.02-4.02-0.02-4.02l0.63,0.02l0.79,0.03l12.7,0.45l4.65,0.17h0L385.03,342.35z"
					/>
				<path class="st9" d="M378.83,300.1l-3.15,2.57l-4.55-1.06c0.06-0.46,0.36-2.35,0.64-4.07c0.02-0.1,0.03-0.2,0.05-0.3
					c0.23-1.46,0.44-2.72,0.44-2.72l4.25-2.34l1.58-0.87c0,0.03-0.12,1.62-0.14,1.85C377.65,297.29,378.83,300.1,378.83,300.1z"/>
				<path class="st3" d="M371.45,298.8c0.1-0.05,6.19-2.03,6.85-1.79c0.66,0.24,1.05,1.65,1.05,1.65l-9.4,2.95
					C369.95,301.62,370.18,299.39,371.45,298.8z"/>
				<path class="st6" d="M387.84,343.85c-1.03,5.19-22.54-11.1-22.25-14.27c0.03-0.35,0.06-0.7,0.09-1.05
					c0.4-4.41,0.78-8.73,0.8-11.54c0.02-2.44,0.33-4.94,0.73-7.21c0.37-2.1,0.83-4,1.23-5.48c0.28-1.04,0.81-1.96,1.5-2.68
					c0.49-0.51,1.07-0.92,1.72-1.21c0.17-0.08,0.35-0.15,0.53-0.21c2.59-0.83,6.17-1.85,7.15-1.54c2.63,0.85,4.59,5.96,5.97,12.48
					C387.91,323.34,388.51,340.47,387.84,343.85z"/>
				<path class="st22" d="M377.63,293.24c-0.93,1.97-4.41,3.67-5.86,4.3c0.02-0.1,0.03-0.2,0.05-0.3c0.23-1.46,0.44-2.72,0.44-2.72
					l4.25-2.34C377.44,292.17,378.01,292.43,377.63,293.24z"/>
				<path class="st9" d="M370.19,294.25c0,0,7.66,2.64,9.08-2.65c1.41-5.29,3.36-8.51-1.48-10.42c-4.83-1.91-6.33-0.2-7.19,1.44
					C369.74,284.26,368.23,293.43,370.19,294.25z"/>
				<path class="st24" d="M370.9,282.11c0,0,0.49,6.15,1.64,5.89c1.15-0.27,2.2-0.47,2.03,1.39s-1.77,4,1.79,4.33
					c3.56,0.33,8.67-9.79,7.69-11.7C381.24,276.48,366.83,275.37,370.9,282.11z"/>
				<path class="st3" d="M366.24,341.66c2.13,0.85-0.04-2.34,0-3c0.17-2.92-0.87-6.61-0.55-10.12l13.01-8.58
					C378.69,319.96,381.78,341.52,366.24,341.66z"/>
				<path class="st8" d="M387.84,343.85c-5.55,11.35-6.44,15.69-6.44,15.69c-4.83-0.61-13.12-11.09-15.74-13.89
					c0,0-0.36-12.9-0.07-16.07l4.01-0.13c0,0,7.26,2.03,9.14-0.72s1.07-16.27,1.07-16.27l5.51-1.32
					C387.91,323.34,389.33,340.8,387.84,343.85z"/>
				<path class="st9" d="M354.89,322.09c0,0-2.64-1.97-3.14-2.14c-0.5-0.17-2.15-0.36-2.22-0.22c-0.08,0.14-0.3,0.58-0.01,0.73
					c0.29,0.15,0.64,0.1,0.54,0.2c-0.11,0.1-1.19-0.46-1.44,0.14c-0.25,0.61-0.47,2.69,0.8,3.32c1.27,0.63,4.4,0.06,4.62,0.13
					C355.94,324.87,354.89,322.09,354.89,322.09z"/>
				<path class="st6" d="M354.86,321.56c0,0,12.9,2.42,14.05,1.81c1.82-0.98-0.71-15.42-0.71-15.42s-0.11-3.27,3.36-4.04
					c3.01-0.67,5.92,1.82,5.92,1.82s2.64,2.61,2.3,5.5c-0.75,6.41-1.91,19.46-5.8,21.46c-5.01,2.58-19.53-7.15-19.53-7.15
					s-0.48-0.65-0.41-1.86C354.1,322.59,354.86,321.56,354.86,321.56z"/>
				<path class="st8" d="M380.88,312.21l-1.07,0.25c0,0-2.26-10.79-9.85-10.84c0.49-0.51,1.07-0.92,1.72-1.21
					C374.45,301.23,379.28,303.86,380.88,312.21z"/>
			</g>
		</g>
		<g>
			<path class="st14" d="M378.72,399.12c-0.06,0.49-0.12,0.97-0.18,1.44c-2.6,0.41-5.14,0.24-7.03-0.02
				c-0.56-0.08-1.07-0.16-1.5-0.24c-0.02-0.46-0.05-0.94-0.08-1.43C371.73,399.22,375.22,399.74,378.72,399.12z"/>
		</g>
		<path class="st14" d="M370.1,402.33l0.03,0.73l0.03,0.7c0.43,0.08,0.94,0.16,1.51,0.24c1.74,0.23,4.03,0.4,6.4,0.1
			c0.07-0.46,0.13-0.94,0.2-1.43C374.98,403.14,371.81,402.66,370.1,402.33z"/>
		<g class="st23">
			<path class="st14" d="M396.17,398.44c-2.43,0.91-4.88,1.27-6.74,1.42c-0.42,0.04-0.8,0.06-1.15,0.07
				c-0.14-0.45-0.28-0.91-0.44-1.38c1.85-0.06,5.08-0.32,8.19-1.55C396.09,397.49,396.13,397.97,396.17,398.44z"/>
		</g>
		<g class="st23">
			<path class="st14" d="M396.46,401.96c-2.27,0.79-4.53,1.11-6.26,1.26c-0.33,0.03-0.64,0.05-0.93,0.06
				c-0.12-0.44-0.25-0.9-0.39-1.38c1.79-0.08,4.65-0.34,7.47-1.37C396.39,401.02,396.43,401.5,396.46,401.96z"/>
		</g>
	</g>
	<g>
		<g>
			<path class="st9" d="M80.89,348.84c0,0,1.01-1.69,1.72-2.16s2.4-0.08,2.45,0.07c0.15,0.48-1.51,0.94-1.74,1.32
				c-0.23,0.38,0.53,0.45-0.14,1.08c-0.56,0.53-1.8,0.93-1.8,0.93L80.89,348.84z"/>
			<path class="st3" d="M81.6,348.73c-0.33-0.77-0.45-0.83-0.45-0.83s-7.24,2.01-7.92,2.17c-0.69,0.16-10.57-0.65-10.57-0.65
				l-3.83,6.74c0,0,13.46-1.37,15.19-1.8c2.86-0.72,7.76-4.45,7.76-4.45S81.86,349.34,81.6,348.73z"/>
			<path class="st9" d="M82.67,348.56c0.01-0.01,0.4-0.41,0.79-0.8c0.29-0.29,0.49-0.68,0.61-0.79c0.29-0.26,0.42,0.44-0.05,1.22
				c-0.4,0.66-1.06,1.15-1.29,1.28C82.5,349.6,82.67,348.56,82.67,348.56z"/>
		</g>
		<g>
			<g>
				<polygon class="st17" points="101.51,416.48 106.29,416.41 117.46,365.09 112.68,365.15 				"/>
				<path class="st17" d="M93.61,417.62h21.44l0,0c0-1.38-1.02-2.51-2.27-2.51h-16.9C94.63,415.11,93.61,416.23,93.61,417.62
					L93.61,417.62z"/>
			</g>
			<polygon class="st5" points="143.14,393.86 141.08,382.47 141.08,382.47 141.07,382.44 134.22,344.54 67.62,344.56 76.53,393.87 
				89.18,393.86 89.18,393.86 89.3,393.86 103.46,393.86 103.51,393.86 103.51,393.86 117.6,393.86 117.7,393.86 117.7,393.86 
				131.76,393.86 131.76,393.86 131.89,393.86 131.89,393.86 			"/>
			<g>
				<polygon class="st7" points="144.28,392.88 77.67,392.89 68.76,344.56 135.36,344.54 				"/>
				<g>
					<g>
						<polygon class="st2" points="90.45,392.89 90.33,392.89 81.43,344.68 81.56,344.68 						"/>
					</g>
					<g>
						<polygon class="st2" points="104.65,392.89 104.52,392.89 95.63,344.68 95.75,344.68 						"/>
					</g>
					<g>
						<polygon class="st2" points="118.84,392.88 118.71,392.88 109.82,344.68 109.95,344.68 						"/>
					</g>
					<g>
						<polygon class="st2" points="133.03,392.88 132.9,392.88 124.01,344.68 124.14,344.68 						"/>
					</g>
					<g>
						<polygon class="st2" points="137.48,356.02 70.87,356.03 70.85,355.89 137.45,355.88 						"/>
					</g>
					<g>
						<polygon class="st2" points="139.85,368.87 73.24,368.88 73.22,368.75 139.82,368.73 						"/>
					</g>
					<g>
						<polygon class="st2" points="142.22,381.72 75.62,381.73 75.59,381.6 142.19,381.59 						"/>
					</g>
				</g>
				<g>
					<polygon class="st2" points="83.84,357.38 82.21,355.96 83.32,354.54 84.95,355.96 					"/>
					<polygon class="st2" points="86.22,370.3 84.59,368.88 85.7,367.45 87.33,368.87 					"/>
					<polygon class="st2" points="98.1,357.38 96.46,355.96 97.57,354.54 99.2,355.96 					"/>
					<polygon class="st2" points="100.48,370.29 98.85,368.87 99.95,367.45 101.59,368.87 					"/>
					<polygon class="st2" points="112.29,357.37 110.66,355.95 111.76,354.53 113.4,355.95 					"/>
					<polygon class="st2" points="126.35,357.37 124.72,355.95 125.83,354.53 127.46,355.95 					"/>
					<polygon class="st2" points="88.58,383.08 86.95,381.66 88.06,380.24 89.69,381.66 					"/>
					<polygon class="st2" points="102.84,383.08 101.2,381.66 102.31,380.24 103.95,381.66 					"/>
					<polygon class="st2" points="117.03,383.08 115.4,381.66 116.51,380.23 118.14,381.65 					"/>
					<polygon class="st2" points="131.1,383.07 129.46,381.65 130.57,380.23 132.2,381.65 					"/>
					<polygon class="st2" points="128.74,370.29 127.1,368.87 128.21,367.45 129.85,368.87 					"/>
					<polygon class="st2" points="114.67,370.29 113.04,368.87 114.15,367.45 115.78,368.87 					"/>
				</g>
			</g>
		</g>
		<g>
			<polygon class="st6" points="77.55,363.24 78.33,363.46 79.38,358.86 78.6,358.64 			"/>
			<path class="st6" d="M78.71,357.15C78.71,357.15,78.71,357.15,78.71,357.15c-0.04,0.36,0.05,0.74,0.36,0.87
				c0.41,0.17,0.68-0.12,0.78-0.58c0,0,0.03-0.12,0.03-0.12c0.03-0.16,0.37-0.03,0.41,0.12c0.09,0.28,0.09,0.59-0.02,0.89
				c-0.19,0.55-0.71,0.89-1.24,0.81c-0.7-0.11-1.15-0.86-0.98-1.59c0.05-0.21,0.14-0.39,0.26-0.54
				C78.43,356.87,78.74,356.95,78.71,357.15z"/>
			<path class="st6" d="M78.31,365.05C78.31,365.04,78.31,365.05,78.31,365.05c0.04-0.36-0.05-0.74-0.36-0.87
				c-0.41-0.17-0.68,0.12-0.78,0.58c0,0-0.03,0.12-0.03,0.12c-0.03,0.16-0.37,0.03-0.41-0.12c-0.09-0.28-0.09-0.59,0.02-0.89
				c0.19-0.55,0.71-0.89,1.24-0.81c0.7,0.11,1.15,0.86,0.98,1.59c-0.05,0.21-0.14,0.39-0.26,0.54
				C78.6,365.33,78.29,365.24,78.31,365.05z"/>
		</g>
		<path class="st21" d="M63.65,414.55c0,0,0.15,2.68,0.6,3.32h6.95c-0.04-0.27-0.24-0.93-1.11-1.1c-1.1-0.21-2.94-1.06-3.6-2.66
			C65.8,412.42,63.65,414.55,63.65,414.55z"/>
		<path class="st21" d="M51.31,414.18c0,0-0.46,3.34,0.14,3.4c0.08,0.01,2.86,0,3.62,0.13c1.24,0.2,3.3,0.03,3.3,0.03
			c0.26,0.01,0.43-0.3,0.3-0.54c-0.14-0.27-0.42-0.56-0.94-0.67c-1.1-0.23-2.92-1.12-3.56-2.73
			C53.49,412.09,51.31,414.18,51.31,414.18z"/>
		<path class="st20" d="M66.92,378.82c0,0-1.75,6.75-6.76,18.47c-1.62,3.8-2.76,6.92-3.56,9.41c-0.09,0.29-0.18,0.57-0.27,0.84
			c-0.13,0.43-0.25,0.84-0.37,1.23c-0.08,0.29-0.16,0.57-0.23,0.83c-0.87,3.21-0.98,4.74-0.98,4.74s-0.9,0.37-1.82,0.27
			c-0.87-0.09-1.64-0.45-1.64-0.45s0.05-2.18,0.26-5.18c0.02-0.27,0.04-0.55,0.06-0.84c0.03-0.39,0.06-0.79,0.1-1.19
			c0.02-0.28,0.05-0.56,0.07-0.84c0.38-4.15,1.05-8.94,2.21-11.82c2.37-5.91,2.85-22.1,2.85-22.1L66.92,378.82z"/>
		<path class="st8" d="M68.23,396.3c-0.6,4.73-0.91,8.46-1.05,11.28c-0.02,0.29-0.03,0.58-0.04,0.85c-0.02,0.44-0.03,0.85-0.05,1.24
			c-0.01,0.29-0.01,0.57-0.02,0.84c-0.05,2.78,0.08,4.07,0.08,4.07s-0.84,0.35-1.86,0.35c-1.25,0-2.07-0.21-2.07-0.21
			s-0.3-1.67-0.66-4.1v0c-0.04-0.27-0.08-0.55-0.12-0.84c-0.05-0.39-0.11-0.79-0.16-1.2c-0.04-0.27-0.07-0.56-0.11-0.84
			c-0.52-4.06-0.96-9-0.61-12.28c0.67-6.42-3.21-22.04-3.21-22.04l11.39-0.41C69.73,373.02,69.87,383.47,68.23,396.3z"/>
		<path class="st9" d="M61.98,348.56l1.85,1.51l2.68-0.62c-0.04-0.27-0.21-1.39-0.37-2.4c-0.01-0.06-0.02-0.12-0.03-0.18
			c-0.14-0.86-0.26-1.6-0.26-1.6l-2.5-1.37l-0.93-0.51c0,0.02,0.07,0.95,0.08,1.09C62.68,346.91,61.98,348.56,61.98,348.56z"/>
		<path class="st3" d="M66.32,347.8c-0.06-0.03-3.64-1.19-4.03-1.05c-0.39,0.14-0.62,0.97-0.62,0.97l5.53,1.74
			C67.21,349.46,67.07,348.15,66.32,347.8z"/>
		<path class="st6" d="M56.68,374.31c0.61,3.05,13.26-6.53,13.09-8.4c-0.02-0.2-0.04-0.41-0.06-0.62c-0.23-2.6-0.46-5.14-0.47-6.79
			c-0.01-1.44-0.19-2.91-0.43-4.24c-0.22-1.23-0.49-2.35-0.73-3.22c-0.17-0.61-0.47-1.15-0.88-1.58c-0.29-0.3-0.63-0.54-1.01-0.71
			c-0.1-0.05-0.21-0.09-0.31-0.12c-1.52-0.49-3.63-1.09-4.21-0.91c-1.55,0.5-2.7,3.51-3.51,7.34
			C56.64,362.24,56.28,372.32,56.68,374.31z"/>
		<path class="st22" d="M62.69,344.53c0.55,1.16,2.59,2.16,3.45,2.53c-0.01-0.06-0.02-0.12-0.03-0.18c-0.14-0.86-0.26-1.6-0.26-1.6
			l-2.5-1.37C62.8,343.9,62.46,344.05,62.69,344.53z"/>
		<path class="st9" d="M67.07,345.12c0,0-4.51,1.55-5.34-1.56c-0.83-3.11-1.98-5.01,0.87-6.13c2.84-1.12,3.72-0.12,4.23,0.85
			S68.22,344.64,67.07,345.12z"/>
		<path class="st21" d="M66.65,337.97c0,0-0.29,3.62-0.97,3.46c-0.68-0.16-1.15-0.28-1.2,0.82c-0.04,1.14,0.18,2.45-1.91,2.64
			c-2.09,0.19-4.24-5.85-3.67-6.98C60.57,334.66,69.04,334.01,66.65,337.97z"/>
		<path class="st3" d="M69.39,373.02c-1.25,0.5,0.02-1.37,0-1.76c-0.1-1.72,0.51-3.89,0.33-5.96l-7.66-5.05
			C62.06,360.25,60.25,372.94,69.39,373.02z"/>
		<path class="st8" d="M56.68,374.31c3.27,6.68,3.79,9.23,3.79,9.23c2.84-0.36,7.72-6.53,9.26-8.17c0,0,0.21-7.59,0.04-9.46
			l-2.36-0.07c0,0-4.27,1.19-5.38-0.43c-1.11-1.62-0.63-9.57-0.63-9.57l-3.25-0.77C56.64,362.24,55.8,372.51,56.68,374.31z"/>
		<path class="st9" d="M76.07,361.5c0,0,1.56-1.16,1.85-1.26c0.3-0.1,1.26-0.21,1.31-0.13c0.04,0.08,0.18,0.34,0.01,0.43
			c-0.17,0.09-0.38,0.06-0.32,0.12c0.06,0.06,0.7-0.27,0.85,0.08c0.15,0.36,0.28,1.58-0.47,1.95c-0.75,0.37-2.59,0.04-2.72,0.08
			C75.45,363.14,76.07,361.5,76.07,361.5z"/>
		<path class="st6" d="M76.09,361.19c0,0-7.59,1.42-8.27,1.06c-1.07-0.58,0.42-9.08,0.42-9.08s0.06-1.93-1.98-2.38
			c-1.77-0.39-3.48,1.07-3.48,1.07s-1.56,1.54-1.36,3.24c0.44,3.77,1.13,11.45,3.41,12.63c2.95,1.52,11.49-4.21,11.49-4.21
			s0.28-0.38,0.24-1.1C76.54,361.8,76.09,361.19,76.09,361.19z"/>
		<path class="st8" d="M60.78,355.69l0.63,0.15c0,0,1.33-6.35,5.8-6.38c-0.29-0.3-0.63-0.54-1.01-0.71
			C64.56,349.23,61.72,350.77,60.78,355.69z"/>
		<g>
			<path class="st14" d="M67.18,407.58c-0.02,0.29-0.03,0.58-0.04,0.85c-1.53,0.31-3.04,0.3-4.17,0.21
				c-0.25-0.02-0.48-0.04-0.69-0.07c-0.04-0.27-0.07-0.56-0.11-0.84C63.29,407.88,65.24,408.01,67.18,407.58z"/>
		</g>
		<g>
			<path class="st14" d="M67.09,409.67c-0.01,0.29-0.01,0.57-0.02,0.84c-1.44,0.26-2.84,0.25-3.91,0.17
				c-0.22-0.02-0.42-0.03-0.6-0.05v0c-0.04-0.27-0.08-0.55-0.12-0.84C63.52,409.91,65.29,410.02,67.09,409.67z"/>
		</g>
		<g class="st23">
			<path class="st14" d="M56.61,406.71c-0.09,0.29-0.18,0.57-0.27,0.84c-1.47,0.05-2.87-0.17-3.92-0.41
				c-0.25-0.06-0.48-0.12-0.69-0.17c0.02-0.28,0.05-0.56,0.07-0.84C52.89,406.43,54.71,406.82,56.61,406.71z"/>
		</g>
		<g class="st23">
			<path class="st14" d="M55.98,408.78c-0.08,0.29-0.16,0.57-0.23,0.83c-1.27-0.01-2.46-0.21-3.38-0.42
				c-0.29-0.07-0.56-0.14-0.79-0.2c0.02-0.27,0.04-0.55,0.06-0.84C52.6,408.43,54.23,408.8,55.98,408.78z"/>
		</g>
	</g>
	<g>
		<path class="st6" d="M440.98,235.75c-6.23-1.02-13.15-5.7-20.56-13.9c-5.92-6.55-12.17-15.35-18.58-26.15
			c-10.54-17.78-18.07-35.26-18.63-36.58c-7.59,0.21-17.26-2.57-28.72-8.26c-9.19-4.56-19.56-11-30.81-19.14
			c-19.15-13.85-34.44-28-34.59-28.14l0.15-0.2c0.15,0.14,15.43,14.29,34.57,28.13c11.24,8.13,21.6,14.56,30.78,19.12
			c11.47,5.69,21.13,8.47,28.7,8.23l0.08,0l0.03,0.08c0.08,0.18,7.75,18.25,18.65,36.62c6.4,10.79,12.64,19.57,18.55,26.11
			c7.38,8.16,14.25,12.81,20.43,13.82L440.98,235.75z"/>
	</g>
	<g>
		<path class="st6" d="M403.25,232.73c-8.14-1.38-16.94-6.25-26.17-14.48c-7.37-6.58-15.03-15.3-22.76-25.93
			c-12.77-17.57-21.56-34.65-22.15-35.8c-15.46-1.62-30.59-5.57-44.99-11.74c-11.53-4.95-22.62-11.32-32.95-18.95
			c-14.07-10.4-23.89-21.17-27.11-25.41l0.18-0.17c3.22,4.23,13.01,14.98,27.07,25.36c10.32,7.62,21.38,13.99,32.9,18.92
			c14.39,6.17,29.53,10.12,44.98,11.73l0.06,0.01l0.03,0.06c0.09,0.18,9.01,17.75,22.16,35.83c7.72,10.62,15.37,19.33,22.73,25.89
			c9.19,8.2,17.96,13.05,26.05,14.42L403.25,232.73z"/>
	</g>
	<g>
		<path class="st6" d="M369.93,235.75c-10.9-0.39-22.34-4.8-34.01-13.12c-9.33-6.65-18.82-15.79-28.21-27.18
			c-15.53-18.83-25.69-37.7-26.35-38.94c-10.45-0.31-23.04-3.45-37.41-9.33c-11.52-4.71-24.2-11.17-37.7-19.22
			c-22.98-13.69-40.59-27.4-40.77-27.54l0.14-0.21c0.18,0.14,17.78,13.84,40.75,27.52c13.49,8.04,26.16,14.5,37.67,19.2
			c14.38,5.88,26.96,9.01,37.4,9.31l0.07,0l0.03,0.06c0.1,0.19,10.38,19.6,26.36,38.96c9.38,11.37,18.85,20.5,28.16,27.13
			c11.63,8.29,23.03,12.69,33.89,13.07L369.93,235.75z"/>
	</g>
	<path class="st25" d="M499.32,418.31H3.99c-0.37,0-0.68-0.3-0.68-0.68v0c0-0.37,0.3-0.68,0.68-0.68h495.33
		c0.37,0,0.68,0.3,0.68,0.68l0,0C500,418.01,499.7,418.31,499.32,418.31z"/>
</g>
</svg>
