<?xml version="1.0" encoding="utf-8"?>
<!-- Generator: Adobe Illustrator 25.1.0, SVG Export Plug-In . SVG Version: 6.00 Build 0)  -->
<svg version="1.1" xmlns="http://www.w3.org/2000/svg" xmlns:xlink="http://www.w3.org/1999/xlink" x="0px" y="0px"
	 viewBox="0 0 500 500" style="enable-background:new 0 0 500 500;" xml:space="preserve">
<style type="text/css">
	.st0{display:none;}
	.st1{display:inline;fill:#FFFFFF;}
	.st2{fill:#108F6E;}
	.st3{fill:#FCE300;}
	.st4{fill:#EDEDED;}
	.st5{fill:#FFD200;}
	.st6{fill:#FFFFFF;}
	.st7{fill:#BCE13E;}
	.st8{fill:#91B31E;}
	.st9{fill:#0E1A34;}
	.st10{fill:#FF9A5C;}
	.st11{fill:#753519;}
	.st12{fill:#1A6652;}
	.st13{fill:#19614F;}
	.st14{opacity:0.79;fill:#9AE5E5;}
</style>
<g id="BACKGROUND" class="st0">
	<rect class="st1" width="500" height="500"/>
</g>
<g id="OBJECTS">
	<g>
		<g>
			<g>
				<path class="st2" d="M392.38,264.04l-0.14-1.94c0,0,0.87-0.06,2.32-0.06c1.46-0.02,3.54,0.05,6.02,0.24
					c4.96,0.36,11.55,1.36,17.93,3.2c6.41,1.75,12.51,4.48,16.89,6.82c2.19,1.2,4.01,2.18,5.2,3.04c1.21,0.8,1.91,1.26,1.91,1.26
					l-1.09,1.61c0,0-0.68-0.45-1.86-1.22c-1.15-0.83-2.94-1.79-5.07-2.96c-4.28-2.29-10.24-4.95-16.51-6.67
					c-6.24-1.8-12.7-2.78-17.55-3.13c-2.43-0.18-4.45-0.25-5.86-0.23C393.15,263.99,392.38,264.04,392.38,264.04z"/>
			</g>
			<path class="st3" d="M444.49,286.98c-1.47-1.15-2.36-2.73-2.69-4.4c-0.31-1.69-0.17-3.32,0.82-4.75
				c0.95-1.38,2.58-2.26,4.34-2.27c1.76-0.03,3.76,0.65,5.49,2.01c1.67,1.43,2.62,3.35,2.88,5.1c0.25,1.77-0.24,3.41-1.46,4.6
				c-1.22,1.18-2.91,1.71-4.6,1.65C447.55,288.88,445.9,288.19,444.49,286.98z"/>
			<path class="st2" d="M445.18,283c0,0,0.78,0.39,1.89,0.73c1.12,0.33,2.43,0.78,3.7,0.64c0.01-1.26-0.48-2.72-1.11-3.72
				c-0.62-1.01-1.24-1.72-1.24-1.72c1.89-0.48,3.38-1.37,4.38-2.15c1.01-0.78,1.52-1.46,1.52-1.46c-2.24-1.15-4.23-1.67-5.92-1.8
				c-1.68-0.14-3.19,0.26-4.33,0.69c-2.31,0.91-3.46,2.29-3.46,2.29s-0.75,1.65-0.82,4.03c-0.05,1.21,0.13,2.51,0.5,4.03
				c0.39,1.51,1.08,3.09,2.29,4.65c0,0,0.58-0.63,1.2-1.71C444.42,286.43,445.08,284.89,445.18,283z"/>
		</g>
		<ellipse class="st4" cx="252.93" cy="428.94" rx="200.12" ry="16.79"/>
		<g>
			<g>
				<path class="st2" d="M116.81,259.72l-0.71,1.97c0,0-0.8-0.29-2.26-0.74c-1.46-0.46-3.56-1.07-6.1-1.72
					c-5.08-1.31-11.96-2.73-18.92-3.57c-6.96-0.88-13.97-1.09-19.21-1c-2.62,0.13-4.81,0.15-6.33,0.31
					c-1.52,0.15-2.39,0.24-2.39,0.24l-0.21-2.08c0,0,0.89-0.09,2.44-0.24c1.55-0.17,3.78-0.19,6.44-0.32
					c5.33-0.09,12.46,0.13,19.51,1.02c7.06,0.85,14.03,2.29,19.19,3.62c2.58,0.66,4.72,1.28,6.21,1.75
					C115.95,259.41,116.81,259.72,116.81,259.72z"/>
			</g>
			<path class="st3" d="M50.91,248.87c2.3-0.38,4.5,0.01,6.13,0.96c1.64,1.04,2.71,2.6,2.91,4.41c0.19,1.82-0.5,3.55-1.7,4.87
				c-1.19,1.41-2.89,2.44-4.9,2.77c-1.01,0.13-1.98,0.21-2.91,0.08c-0.93-0.12-1.82-0.41-2.63-0.83c-1.61-0.85-2.9-2.24-3.39-4
				c-0.49-1.76-0.06-3.56,1.11-5.08c0.59-0.76,1.35-1.44,2.26-2C48.72,249.5,49.76,249.03,50.91,248.87z"/>
			<path class="st2" d="M53.92,252.26c0,0-0.94,0.34-2.05,0.98c-1.12,0.59-2.36,1.65-3.02,2.85c1.11,0.79,2.58,1.12,3.81,1.4
				c1.22,0.25,2.16,0.28,2.16,0.28c-0.9,1.83-1.11,3.63-1.1,4.98c0,1.35,0.22,2.24,0.22,2.24c2-0.85,3.51-1.99,4.68-3.21
				c1.19-1.13,2.02-2.38,2.6-3.53c1.17-2.31,1.28-4.25,1.28-4.25s-0.4-1.89-2.1-3.91c-0.85-1.01-2.04-2.06-3.68-2.91
				c-1.64-0.77-3.74-1.31-6.39-1.4c0,0,0.12,0.91,0.65,2.17C51.5,249.21,52.41,250.82,53.92,252.26z"/>
		</g>
		<path class="st5" d="M252.1,131.94c0,0-16.21-8.02-19.05-25.65c-2.84-17.63,25.3-24.32,36.97,4.86c0,0-2.11-31.61,17.13-35.05
			c19.25-3.44,16.14,35.02,10.3,41.11c0,0,8.09-5.86,16.02-0.99c7.93,4.86,5.37,23.91-20.2,28.98
			C267.7,150.25,252.1,131.94,252.1,131.94z"/>
		<path class="st6" d="M269.77,136.83c-4.49-9.93-12.66-20.56-12.74-20.66l0.45-0.34c0.08,0.11,8.28,10.78,12.8,20.77L269.77,136.83
			z"/>
		
			<rect x="267.05" y="115.44" transform="matrix(0.1701 -0.9854 0.9854 0.1701 123.943 378.6254)" class="st6" width="39.45" height="0.56"/>
		<path class="st7" d="M159.6,166.75c0,0-6.68-14.65-20.45-14.64c-13.77,0-15.77,14.55-7.71,25.34c0,0-13.22-9.18-32.23-8.44
			s-33.05,14.78-28.92,30.48c4.13,15.7,25.34,19.28,31.4,17.63c0,0-20.93,14.87-12.67,28.37c8.26,13.5,34.16,0,34.16,0L159.6,166.75
			z"/>
		<path class="st6" d="M131.8,204.89c-0.24-0.1-23.67-9.76-35.66-10.95l0.11-1.12c12.15,1.21,35.74,10.93,35.98,11.03L131.8,204.89z
			"/>
		<path class="st6" d="M96.53,204.82l-0.66-0.91c4.7-3.45,13.99-6.9,14.38-7.05l0.39,1.05C110.54,197.96,101.11,201.47,96.53,204.82
			z"/>
		<path class="st6" d="M121.01,200.54c-0.13-0.36-3.23-8.92-3.5-12.39l1.12-0.09c0.26,3.33,3.41,12.01,3.44,12.1L121.01,200.54z"/>
		<path class="st6" d="M101,239.14l-0.57-0.97c11.67-6.81,20.93-8.19,21.02-8.2l0.16,1.11C121.53,231.1,112.47,232.46,101,239.14z"
			/>
		<path class="st6" d="M151.2,182.07c-0.37-0.4-9.08-9.9-11.46-17.63l1.07-0.33c2.3,7.48,11.12,17.1,11.21,17.2L151.2,182.07z"/>
		<g>
			<path class="st5" d="M92.65,270.74l-0.92-6.85c-3.58-0.5-7.45-0.8-11.62-0.81c-11.34-0.04-22.48,2.02-31.74,5.78l-0.41,4.85
				l-2.33-3.66c-1.55,0.71-3.03,1.48-4.45,2.3l1.47,8.97l-5.36-6.47c-4.21,3.04-7.46,6.51-9.46,10.44c-1.98,3.9-2.62,8.12-1.7,12.59
				c0.79,3.86,2.56,7.12,5.02,9.82c1.23,1.35,2.62,2.55,4.18,3.63c1.57,1.09,3.3,2.03,5.16,2.84c7.45,3.26,17.15,4.46,27.62,3.69
				l2.48-7.87l3.45,7.25c2.37-0.34,4.77-0.77,7.16-1.3l-0.67-4.71l3.92,3.94c0.93-0.24,1.85-0.49,2.77-0.75
				c16.58-4.79,27.05-12.66,33.36-19.37c6.31-6.71,8.48-12.25,8.48-12.25s-9.53-13.45-32.94-18.15L92.65,270.74z"/>
		</g>
		
			<rect x="43.75" y="289.56" transform="matrix(0.9826 -0.1856 0.1856 0.9826 -52.3989 20.4395)" class="st6" width="78.46" height="1.12"/>
		<path class="st6" d="M70.36,293.06c-5.49-0.32-16.38-5.07-16.84-5.27l0.45-1.03c0.11,0.05,11.17,4.87,16.46,5.18L70.36,293.06z"/>
		<path class="st6" d="M74.78,301.7l-1.09-0.27c1.17-4.7,7.25-10.97,7.51-11.24l0.8,0.78C81.95,291.03,75.88,297.29,74.78,301.7z"/>
		<path class="st6" d="M100.59,287.33c-6.31-1.44-12.89-8.12-13.17-8.4l0.8-0.79c0.07,0.07,6.64,6.72,12.62,8.09L100.59,287.33z"/>
		<g>
			<path class="st5" d="M401.99,337.14l-1.48,6.58c3.11,1.67,6.54,3.26,10.35,4.68c10.37,3.88,21.25,5.77,30.99,5.46l2.02-4.3
				l0.9,4.14c1.66-0.13,3.27-0.32,4.85-0.6l1.69-8.71l2.71,7.73c4.88-1.35,9.03-3.43,12.19-6.34c3.14-2.89,5.15-6.54,5.82-10.94
				c0.58-3.8,0.07-7.38-1.26-10.68c-0.67-1.65-1.54-3.22-2.6-4.74c-1.07-1.53-2.33-2.98-3.76-4.35
				c-5.71-5.51-14.18-9.89-24.02-12.74l-4.94,6.36l-0.71-7.8c-2.28-0.49-4.62-0.91-6.99-1.24l-0.99,4.54l-2.25-4.93
				c-0.93-0.1-1.86-0.18-2.79-0.25c-16.79-1.23-29.04,2.42-37.09,6.42c-8.05,4-11.91,8.34-11.91,8.34s4.16,15.53,23.99,27.76
				L401.99,337.14z"/>
		</g>
		
			<rect x="416.84" y="284.4" transform="matrix(0.1676 -0.9858 0.9858 0.1676 29.3182 680.0704)" class="st6" width="1.12" height="76.55"/>
		<path class="st6" d="M442.8,335.6c-0.08-0.08-8.56-8.24-13.3-10.31l0.45-1.03c4.92,2.15,13.28,10.19,13.63,10.53L442.8,335.6z"/>
		<path class="st6" d="M419.06,323.23l-0.48-1.01c0.08-0.04,7.74-3.71,10.24-7.36l0.93,0.63
			C427.07,319.39,419.38,323.07,419.06,323.23z"/>
		<path class="st6" d="M408.53,331.87c-0.04-0.08-3.79-8.4-8.8-11.68l0.62-0.94c5.28,3.46,9.05,11.8,9.21,12.16L408.53,331.87z"/>
		<g>
			
				<rect x="320.74" y="406.4" transform="matrix(0.3592 -0.9332 0.9332 0.3592 -161.6479 579.7386)" class="st7" width="41.25" height="2.37"/>
		</g>
		<g>
			
				<rect x="355" y="386.96" transform="matrix(0.9332 -0.3592 0.3592 0.9332 -122.6462 155.1665)" class="st7" width="2.37" height="41.25"/>
		</g>
		<g>
			<rect x="342.6" y="403.21" class="st7" width="12.81" height="2.37"/>
		</g>
		<g>
			<rect x="339.65" y="411.67" class="st7" width="18.56" height="2.37"/>
		</g>
		<path class="st8" d="M89.89,426.88c0,0,0.36,1.41,1.34,2.75c0.97,1.34,2.45,3,2.63,3.72c0.18,0.72-0.69,1.37-1.52,1.08
			c-0.83-0.29-6.82-3-8.23-4.08c-1.41-1.08-1.8-1.48-1.77-1.73s1.75-3.27,2.25-4.02C85.09,423.86,88.84,423.88,89.89,426.88z"/>
		<path class="st8" d="M105.48,418.88c0,0,0.99,1.07,2.49,1.78c1.49,0.71,3.59,1.46,4.09,2.01c0.5,0.55,0.05,1.53-0.81,1.68
			c-0.87,0.14-7.42,0.63-9.18,0.35c-1.75-0.28-2.29-0.44-2.38-0.68c-0.09-0.24-0.02-3.71,0.05-4.6
			C99.82,418.52,103.13,416.75,105.48,418.88z"/>
		<path class="st9" d="M105.76,366.24c0,0,2.89,19.37,3.01,24.44c0.12,5.07-3.01,28.53-3.01,28.53h-6.11c0,0,0.6-11.43,0.6-13.22
			c0-1.79-0.6-17.4-0.6-17.4l0.6-21.73C100.24,366.87,103.82,364.67,105.76,366.24z"/>
		<path class="st9" d="M91.62,366.92c0,0-1.91,4.97-1.32,15.21c0.6,10.24,1.09,12.63,1.09,12.63s-6.85,26.64-7.75,29.82
			c0,0,3.18,2.29,6.66,2.49c0,0,7.26-17.89,9.84-24.26c2.58-6.36,3.33-10.84,3.35-16.4c0.03-5.57,0.62-20.58,0.62-20.58
			L91.62,366.92z"/>
		<path class="st6" d="M100.99,401.42l-0.54-0.16c1.92-6.27,2.87-13.35,2.91-21.66l0.56,0C103.88,387.96,102.92,395.1,100.99,401.42
			z"/>
		<path class="st10" d="M110.54,363.45c0,0-12.6-2.18-17.16-4.7c-4.56-2.53-4-4.77-3.37-6.39c0.63-1.61,2.6-5.05,2.6-5.05l4.46,3.19
			l-0.11,1l-0.76,1.74c0,0,1.46,0.92,3.66,2.14c2.2,1.22,11.15,5.32,11.15,5.32S113.18,362.5,110.54,363.45z"/>
		<path class="st10" d="M110.2,363.35c1.03,1.11,2.37,1.7,2.37,1.7c0.1,0.85,0.59,1.21,0.87,1.18c0.28-0.03,0.28-1.31,0.28-1.31
			c0.24,0.59,1.21,1.18,1.34,0.82c0.13-0.36,0-0.95,0-0.95s0.39,0.52,0.69,0.52c0.29,0,0.65-0.26,0.52-0.92
			c-0.13-0.65-0.52-1.64-0.92-2.16c-0.39-0.52-0.62-1.05-1.47-1.24c-0.85-0.2-1.15-0.07-2.13-0.16c-0.98-0.1-2.46,0-2.46,0
			L110.2,363.35z"/>
		<path class="st11" d="M100.92,323.43c0,0-1.68-3.65-6.41-2.27c-4.73,1.38-3.25,5.82-6.31,7.69c-3.06,1.87-7.59,2.86-8.78,8.09
			c-1.18,5.23,2.47,5.62,0,8.78c-2.47,3.16-3.35,5.42-0.69,8.68c2.66,3.25,7.35,2.27,10.28,0.69c2.93-1.58,15.75-7.59,15.75-7.59
			s2.97-3.15,0-6.51c-2.97-3.36-2.17-8.48-2.17-8.48s1.08-0.2,1.48-3.16C104.47,326.39,103.52,322.53,100.92,323.43z"/>
		<path class="st10" d="M333.32,75.68l1.65-1.2c0,0,5.67,6.92,14.94,11.59c9.27,4.67,12.45,6.46,13.29,6.61
			c0.84,0.15,4.83,0.84,6.21,2.6c1.38,1.76,1.53,2.76,1.23,2.83c-0.31,0.08-1.84-2.15-1.84-2.15s1.53,1.98,1.38,2.71
			s-1.01-0.52-1.32-0.83c-0.31-0.31-1.08-1.2-1.08-1.2s1.63,2.12,1.69,2.77c0.06,0.65-1.01-0.18-1.84-1.11
			c-0.83-0.92-1.75-1.35-1.97-1.08c-0.22,0.28-0.31,1.41-0.65,1.2c-0.34-0.22-0.4-1.08-0.55-1.69c-0.55-0.01-3.05-0.91-7.54-1.81
			c-4.5-0.9-22.49-8.8-26.59-13.89C326.22,75.96,333.32,75.68,333.32,75.68z"/>
		<g>
			<path class="st7" d="M447.28,260.29L447.28,260.29L447.28,260.29c1.58-1.86,2.55-3.9,2.85-6.06c0.21-2.07-0.28-4.24-1.44-6.34
				c0,0,0.53,0.56,1.32,1.4c0.78,0.85,1.87,1.94,2.87,3.1c1.91,2.41,3.82,4.82,3.82,4.82c-1.65,1.92-2.57,3.94-3.07,6.13
				c-0.46,2.17-0.32,4.37,0.5,6.52l0,0c1.78-1.63,2.96-3.52,3.48-5.59c0.26-1.04,0.36-2.12,0.29-3.22
				c-0.07-1.11-0.28-2.26-0.79-3.33c0,0,0.27,0.34,0.66,0.84c0.38,0.52,0.83,1.25,1.31,1.96c0.95,1.43,1.89,2.86,1.89,2.86
				c0.02,1.24,0.19,2.39,0.51,3.46c0.27,1.1,0.63,2.15,1.17,3.1c1.07,1.91,2.73,3.48,4.97,4.71h0l0,0c0.24-2.45-0.23-4.78-1.29-6.79
				c-0.54-1-1.2-1.93-2.04-2.73c-0.89-0.76-1.92-1.42-3.06-1.94c0,0-0.47-0.72-1.18-1.79c-0.36-0.54-0.77-1.16-1.21-1.83
				c-0.22-0.34-0.45-0.68-0.68-1.03c-0.26-0.33-0.53-0.67-0.79-1.01c-2.13-2.69-4.26-5.38-4.26-5.38c3.75,2.86,8.48,3.36,12.95,1.51
				l0,0h0c-1.99-1.9-4.34-2.98-6.6-3.33c-2.29-0.33-4.55,0.09-6.78,1.32c0,0-2.11-2.25-4.22-4.5c-1.02-1.16-2.22-2.14-3.06-2.93
				c-0.86-0.78-1.43-1.29-1.43-1.29c1.06,0.56,2.15,0.96,3.25,1.21c1.11,0.24,2.23,0.36,3.3,0.38c2.17,0.01,4.39-0.59,6.51-1.83h0
				c-1.12-0.82-2.27-1.45-3.41-1.89c-1.13-0.45-2.39-0.59-3.54-0.6c-2.35,0.01-4.57,0.78-6.59,2.28c0,0-0.57-0.52-1.43-1.29
				c-0.91-0.71-2.13-1.65-3.35-2.6c-1.22-0.94-2.43-1.9-3.42-2.5c-0.97-0.64-1.61-1.06-1.61-1.06c1.13,0.39,2.27,0.62,3.41,0.71
				c1.11,0.13,2.19,0.13,3.28-0.03c2.17-0.32,4.3-1.23,6.23-2.76l0,0l0,0c-2.5-1.26-4.93-1.85-7.26-1.5
				c-2.33,0.35-4.43,1.45-6.22,3.22c0,0-0.64-0.42-1.61-1.06c-0.97-0.63-2.34-1.34-3.68-2.11c-0.67-0.38-1.35-0.75-1.98-1.11
				c-0.65-0.31-1.26-0.6-1.78-0.85c-1.04-0.5-1.74-0.83-1.74-0.83c2.34,0.46,4.64,0.28,6.72-0.3c2.1-0.63,4.08-1.84,5.77-3.63l0,0
				c-1.33-0.46-2.62-0.72-3.86-0.81c-0.62-0.04-1.22-0.04-1.81,0.02c-0.6,0.08-1.18,0.2-1.75,0.37c-2.25,0.67-4.16,2.05-5.66,4.06
				c0,0-0.3-0.14-0.81-0.39c-0.53-0.22-1.29-0.52-2.2-0.89c-1.8-0.78-4.28-1.64-6.78-2.45c-2.51-0.75-5.05-1.41-6.99-1.77
				c-1.93-0.4-3.24-0.53-3.24-0.53l-0.03,0.32c0,0,0.91,0.1,2.27,0.34c1.36,0.23,3.16,0.65,4.95,1.1c1.77,0.51,3.56,0.99,4.85,1.48
				c1.31,0.45,2.18,0.75,2.18,0.75c-0.34,2.48-0.09,4.84,0.68,6.85c0.79,1.97,2.02,3.8,3.78,5.21h0l0,0
				c0.67-2.33,0.7-4.56,0.07-6.61c-0.61-2.1-2-3.77-3.92-5.22c0,0,0.71,0.29,1.78,0.72c1.06,0.44,2.51,0.98,3.88,1.68
				c1.38,0.67,2.78,1.31,3.8,1.84c1.01,0.56,1.68,0.94,1.68,0.94c-0.72,2.42-0.8,4.75-0.32,6.83c0.46,2.12,1.41,4.11,2.98,5.73l0,0
				c1-2.2,1.35-4.39,1.01-6.5c-0.17-1.05-0.51-2.09-1.01-3.08c-0.53-0.95-1.24-1.83-2.1-2.66c0,0,0.67,0.38,1.68,0.94
				c1.03,0.52,2.28,1.43,3.57,2.26c2.62,1.62,5.01,3.55,5.01,3.55c-1.06,2.29-1.48,4.58-1.3,6.71c0.19,2.13,0.81,4.29,2.13,6.13v0
				c1.31-2.04,1.97-4.17,1.95-6.32c-0.02-1.07-0.18-2.16-0.55-3.2c-0.4-1-0.97-1.99-1.7-2.93c0,0,0.61,0.47,1.52,1.17
				c0.94,0.67,2.08,1.71,3.21,2.74c1.14,1.03,2.28,2.06,3.14,2.83c0.44,0.37,0.74,0.75,0.98,0.99c0.23,0.25,0.36,0.39,0.36,0.39
				c-1.38,2.12-2.13,4.35-2.27,6.51c-0.07,1.08,0.02,2.14,0.26,3.18C446.47,258.15,446.77,259.26,447.28,260.29z"/>
		</g>
		<g>
			<path class="st8" d="M96.05,119.85L96.05,119.85L96.05,119.85c-2.07,2.03-3.41,4.35-3.99,6.85c-0.61,2.52-0.35,5.16,0.71,7.8
				c0,0-0.54-0.74-1.35-1.85c-0.83-1.1-1.86-2.61-2.88-4.14c-1.02-1.52-2.05-3.04-2.81-4.18c-0.39-0.56-0.69-1.05-0.9-1.4
				c-0.21-0.34-0.33-0.54-0.33-0.54c2.15-2.11,3.56-4.53,4.21-7.06c0.33-1.27,0.47-2.56,0.41-3.87c-0.02-1.33-0.19-2.68-0.58-4.03v0
				l0,0c-2.24,1.84-3.79,4.03-4.6,6.49c-0.75,2.43-0.68,5.07,0.15,7.81c0,0-1.06-1.74-2.13-3.48c-0.53-0.87-1.08-1.73-1.45-2.4
				c-0.37-0.67-0.61-1.12-0.61-1.12c0.2-2.99-0.41-5.6-1.61-7.92c-1.13-2.34-2.98-4.32-5.55-5.94l0,0l0,0
				c-0.46,2.91-0.07,5.73,1.05,8.19c1.18,2.43,3.22,4.42,5.78,5.86c0,0,0.12,0.22,0.34,0.62c0.21,0.39,0.51,0.96,0.92,1.6
				c0.8,1.31,1.86,3.05,2.93,4.79c1.03,1.76,2.2,3.44,3.05,4.71c0.85,1.27,1.42,2.12,1.42,2.12c-2.11-1.9-4.58-3.06-7.11-3.6
				c-2.53-0.54-5.25-0.36-8,0.59l0,0v0c1.08,1.18,2.23,2.15,3.44,2.91c1.22,0.75,2.54,1.24,3.87,1.55c2.67,0.6,5.46,0.33,8.23-0.8
				c0,0,0.51,0.76,1.28,1.9c0.81,1.11,1.89,2.6,2.97,4.08c2.12,3,4.42,5.86,4.42,5.86c-1.13-0.87-2.32-1.56-3.55-2.08
				c-1.21-0.54-2.46-0.89-3.74-1.06c-2.57-0.34-5.27,0.04-7.95,1.2h0h0c2.32,2.14,4.86,3.48,7.55,3.9c2.7,0.41,5.47-0.04,8.18-1.34
				c0,0,0.56,0.72,1.41,1.81c0.83,1.1,2,2.51,3.17,3.92c1.17,1.41,2.34,2.83,3.21,3.89c0.9,1.04,1.5,1.73,1.5,1.73
				c-4.67-3.25-10.07-3.73-15.31-1.09v0v0c2.42,1.98,5.06,3.14,7.73,3.43c2.69,0.28,5.45-0.32,8.09-1.75c0,0,0.6,0.69,1.5,1.73
				c0.89,1.05,2.11,2.42,3.35,3.77c1.23,1.36,2.47,2.72,3.39,3.74c0.94,1,1.57,1.67,1.57,1.67c-4.8-3.05-10.24-3.25-15.32-0.38l0,0
				l0,0c4.98,3.75,10.71,4.07,15.86,0.95c0,0,1.07,1.13,2.68,2.83c1.64,1.67,3.79,3.92,6.02,6.11c2.2,2.21,4.46,4.36,6.16,5.96
				c1.7,1.61,2.86,2.65,2.86,2.65l0.25-0.29c0,0-3.26-2.95-6.41-6.04c-1.59-1.52-3.13-3.1-4.31-4.25c-1.16-1.18-1.93-1.96-1.93-1.96
				c1.65-2.51,2.5-5.17,2.55-7.8c0.08-2.66-0.64-5.3-2.14-7.81l0,0l0,0c-3.42,4.68-3.81,10.11-0.96,15.06c0,0-2.57-2.62-5.06-5.3
				c-1.27-1.33-2.5-2.68-3.42-3.7c-0.92-1.02-1.54-1.7-1.54-1.7c3.48-4.86,3.86-10.46,1.09-15.57v0l0,0
				c-3.64,4.52-4.23,9.91-1.61,14.99c0,0-0.61-0.68-1.53-1.71c-0.9-1.04-2.1-2.42-3.3-3.81c-1.21-1.37-2.38-2.79-3.25-3.85
				c-0.87-1.06-1.46-1.77-1.46-1.77c1.87-2.36,2.93-4.91,3.24-7.54c0.33-2.64-0.12-5.33-1.38-7.93l0,0l0,0
				c-1.93,2.16-3.11,4.57-3.52,7.1c-0.4,2.52-0.07,5.21,1.16,7.77c0,0-0.58-0.71-1.46-1.77c-0.85-1.08-1.97-2.53-3.1-3.97
				c-2.29-2.86-4.41-5.85-4.41-5.85c1.99-2.25,3.22-4.75,3.66-7.33C97.32,125.23,97.13,122.5,96.05,119.85z"/>
		</g>
		<path class="st10" d="M283.14,84.98c-0.92-0.55-1.42-1.15-1.42-1.15s-0.32-0.69-0.88-1.17c-0.56-0.48-1.39-0.6-1.39-0.6
			s0.54,1.83,1.14,2.3c0.3,0.23,0.57,0.11,0.78-0.08c0.41,1.02,1.07,1.8,1.07,1.8S284.07,85.53,283.14,84.98z"/>
		<circle class="st12" cx="253.39" cy="274.62" r="142.94"/>
		<path class="st13" d="M282.14,374.7c-70.57,0-127.78-57.21-127.78-127.78c0-47.56,25.99-89.05,64.53-111.05
			c-62.28,15.43-108.45,71.69-108.45,138.74c0,78.95,64,142.94,142.94,142.94c65.2,0,120.2-43.66,137.38-103.34
			C368.23,350.53,328.01,374.7,282.14,374.7z"/>
		<path class="st10" d="M301.84,85.27c0,0-3.41,3.07-4.55,3.07c-1.14,0-12.51-3.4-14.66-3.86c-2.14-0.45-2.03,0.23-2.88,0.79
			c-0.85,0.56,1.81,2.27,1.81,2.27s10.15,5.18,15.4,6.42c5.25,1.24,9.45-3.01,9.45-3.01S307.79,85.44,301.84,85.27z"/>
		<path class="st2" d="M261.01,88.39c0,0,7.98,0.87,13.49-0.53c0,0,3.42,5.73,4.71,7.85l-0.56,2.73c0,0-4.67,5.91-12.88,6.26
			C265.77,104.71,259.77,96.42,261.01,88.39z"/>
		<g>
			<path class="st2" d="M273.53,98.07c-1.64,0-2.86-0.65-2.93-0.69l0.57-1.04c0.02,0.01,2.07,1.09,4.17,0.18
				c1.86-0.8,3.26-2.88,4.15-6.17c1.01-3.75,0.51-6.74-1.46-8.65c-2.3-2.23-5.95-2.44-8.56-1.65c-5.33,1.61-4.79,9.1-4.79,9.17
				l-1.18,0.1c-0.01-0.08-0.63-8.52,5.62-10.4c3.53-1.06,7.43-0.29,9.72,1.94c1.6,1.56,3.21,4.52,1.78,9.81
				c-0.99,3.67-2.62,6.01-4.84,6.95C275,97.95,274.23,98.07,273.53,98.07z"/>
		</g>
		<path class="st10" d="M279.73,83.6c0,0-1.03-0.4-1.44,0.3c-0.43,0.73,1.29,1.3,2.74,1.15C282.48,84.92,281.18,83.86,279.73,83.6z"
			/>
		<path class="st10" d="M279.7,84.63c0,0-1.01-0.32-1.7,0.27c-0.69,0.59,1.53,1.43,3.23,1.28C282.92,86.03,281.4,84.9,279.7,84.63z"
			/>
		<path class="st8" d="M312.03,168.92c0,0-0.4,1.58-1.49,3.08c-1.09,1.49-2.75,3.35-2.95,4.16c-0.2,0.81,0.77,1.53,1.7,1.21
			c0.93-0.32,7.63-3.35,9.21-4.56c1.58-1.21,2.02-1.66,1.98-1.94s-1.96-3.66-2.51-4.49C317.4,165.54,313.2,165.57,312.03,168.92z"/>
		<path class="st10" d="M279.5,85.59c0,0-0.89-0.31-1.51,0.33c-0.62,0.64,1.35,1.5,2.86,1.34C282.37,87.09,281.66,85.7,279.5,85.59z
			"/>
		<path class="st2" d="M261.86,96.73c0,0-21.99-4.96-22.8-4.97c-0.81-0.01-3.55-0.51-4.87,1.31c0,0,0.2,1.12,1.42,1.72
			c1.22,0.61,2.84-0.6,2.84-0.6l26.57,9.36C265.02,103.56,266.71,98.87,261.86,96.73z"/>
		<path class="st2" d="M236.38,95.25L236.38,95.25c-0.33,0-0.63-0.07-0.89-0.2c-1.33-0.66-1.56-1.87-1.57-1.92l-0.05-0.27l0.27-0.05
			c0.01,0,0.33-0.06,0.83-0.06c0.97,0,2.39,0.22,3.66,1.24l0.28,0.23l-0.29,0.22C238.57,94.46,237.5,95.25,236.38,95.25z
			 M234.56,93.31c0.14,0.33,0.46,0.88,1.18,1.23c0.19,0.09,0.4,0.14,0.64,0.14c0.6,0,1.22-0.3,1.58-0.51
			c-1.05-0.72-2.19-0.88-2.99-0.88C234.81,93.3,234.68,93.31,234.56,93.31z"/>
		<polygon class="st5" points="377.29,388.34 337.67,388.34 344.36,380.64 383.98,380.64 		"/>
		<path class="st14" d="M234.19,93.07c0,0-15.6,15.58-13.52,34.21h18.88c0,0-4.66-23.03-1.1-33.08
			C238.45,94.2,236.86,92.69,234.19,93.07z"/>
		<path class="st9" d="M310.51,105.83c0,0-15.26,12.06-17,16.23c-1.75,4.17,6.89,13.09,6.89,13.09s8.15,29,10.96,33.85
			c0,0,4.66-1.26,6.89-2.62c0,0-2.72-26.19-3.98-29.68c0,0,19.79-18.51,23.18-24C340.84,107.23,312.86,103.93,310.51,105.83z"/>
		<path class="st8" d="M320.62,153.55c0,0,0.35,1.59,0.04,3.42c-0.3,1.82-0.95,4.23-0.77,5.04c0.18,0.81,1.37,1.03,2.06,0.32
			c0.69-0.71,5.32-6.42,6.18-8.21c0.86-1.79,1.06-2.39,0.9-2.62c-0.16-0.23-3.39-2.39-4.26-2.89
			C323.9,148.11,320.16,150.02,320.62,153.55z"/>
		<path class="st6" d="M300.11,135.17c-0.2-6.45,10.59-16.84,11.05-17.28l0.39,0.41c-0.11,0.11-11.06,10.66-10.87,16.86
			L300.11,135.17z"/>
		<path class="st9" d="M301.56,136.6l18.8,17.12c0,0,2.69-2.83,4.11-5.08c0,0-6.85-13.34-9.68-16.06
			C311.96,129.87,301.56,136.6,301.56,136.6z"/>
		<path class="st8" d="M358.78,378.01c0,0-1.04,1.26-2.66,2.15s-3.91,1.87-4.43,2.52c-0.52,0.65,0.05,1.72,1.02,1.82
			s8.33,0.2,10.27-0.23s2.53-0.64,2.61-0.92c0.08-0.27-0.23-4.14-0.37-5.14C365.08,377.22,361.27,375.46,358.78,378.01z"/>
		<g>
			<g>
				<path class="st2" d="M230.36,130.65l-1.14,0.03c0,0-0.01-0.45-0.11-1.27c-0.09-0.82-0.28-1.99-0.57-3.38
					c-0.6-2.78-1.73-6.43-3.31-9.89c-1.58-3.46-3.47-6.78-5.14-9.1c-0.77-1.2-1.54-2.12-2.04-2.78c-0.51-0.66-0.8-1.04-0.8-1.04
					l0.89-0.72c0,0,0.3,0.38,0.81,1.06c0.51,0.68,1.29,1.61,2.08,2.84c1.7,2.36,3.64,5.75,5.24,9.28c1.61,3.54,2.77,7.27,3.38,10.12
					c0.3,1.43,0.49,2.64,0.59,3.49C230.35,130.13,230.36,130.65,230.36,130.65z"/>
			</g>
			<path class="st3" d="M217.22,96.79c1.68,1.89,1.75,4.46,0.2,5.7c-1.56,1.25-4,0.89-5.47-0.78c-1.57-1.58-1.75-4.06-0.39-5.52
				C212.9,94.74,215.45,95,217.22,96.79z"/>
			<path class="st2" d="M216.53,99.16c0,0-0.42-0.34-1.04-0.66c-0.64-0.3-1.46-0.59-2.2-0.55c-0.05,0.74,0.21,1.54,0.48,2.15
				c0.24,0.63,0.5,1.09,0.5,1.09c-2.19,0.23-3.58,1.69-3.58,1.69c1.96,1.39,3.9,1.52,5.28,1.38c1.39-0.14,2.3-0.67,2.3-0.67
				s0.74-0.75,1.17-2.14c0.44-1.39,0.45-3.37-0.97-5.84C218.48,95.62,216.98,96.92,216.53,99.16z"/>
		</g>
		<path class="st8" d="M380.05,362.69c0,0,0.11,1.63-0.47,3.39c-0.57,1.76-1.57,4.04-1.51,4.87c0.06,0.83,1.21,1.22,1.99,0.63
			c0.78-0.6,6.22-5.55,7.34-7.19c1.12-1.64,1.41-2.2,1.28-2.46c-0.13-0.26-3-2.87-3.78-3.49
			C384.11,357.81,380.13,359.14,380.05,362.69z"/>
		<g>
			<path class="st8" d="M199.27,110.32c0,0,0.44,11.18,10.87,19.21s20.22,4.75,20.22,4.75s0.68-10.31-9.75-18.34
				C210.19,107.9,199.27,110.32,199.27,110.32z"/>
			
				<rect x="216.71" y="107.11" transform="matrix(0.6104 -0.7921 0.7921 0.6104 -13.6556 220.1882)" class="st6" width="0.56" height="33.74"/>
			
				<rect x="206.92" y="120.9" transform="matrix(0.9995 -0.0311 0.0311 0.9995 -3.6705 6.5983)" class="st6" width="6.32" height="0.56"/>
			
				<rect x="210.31" y="113.35" transform="matrix(0.9746 -0.224 0.224 0.9746 -20.75 50.1454)" class="st6" width="0.56" height="6.32"/>
			
				<rect x="213.79" y="126.2" transform="matrix(0.9995 -0.0313 0.0313 0.9995 -3.8533 6.8542)" class="st6" width="6.32" height="0.56"/>
			
				<rect x="217.19" y="118.65" transform="matrix(0.9746 -0.224 0.224 0.9746 -21.7566 51.8011)" class="st6" width="0.56" height="6.32"/>
			
				<rect x="220.67" y="131.5" transform="matrix(0.9995 -0.0311 0.0311 0.9995 -3.9949 7.0338)" class="st6" width="6.32" height="0.56"/>
			
				<rect x="224.07" y="123.95" transform="matrix(0.9746 -0.224 0.224 0.9746 -22.7676 53.4724)" class="st6" width="0.56" height="6.32"/>
		</g>
		<path class="st7" d="M247.49,110.07c0,0-8.9,0.35-15.3,8.65c-6.4,8.3-3.78,16.11-3.78,16.11s8.21,0.54,14.61-7.76
			C249.42,118.77,247.49,110.07,247.49,110.07z"/>
		<g>
			<g>
				<path class="st8" d="M179.26,129.47l5.88-9.45c-1.98-8.06-5.18-17.18-10.35-26.35c-4.16-7.3-8.99-13.4-14.2-18.51l-7.95,5.58
					c0,0,1.05-2.26,2.16-4.51c1.11-2.23,2.22-4.46,2.22-4.46c-6.22-5.52-12.52-9.77-18.14-12.96c-2.87-1.58-5.39-2.91-7.73-3.93
					c-2.32-1.03-4.36-1.75-5.97-2.14c-1.37,1.88-2.91,4.92-4.25,9c-0.7,2.06-1.23,4.3-1.7,6.78c-0.45,2.46-0.86,5.21-1.03,8.04
					c0,0,2.48,1,4.97,2.01c2.47,0.96,4.93,1.93,4.93,1.93s-2.51,0.1-5.01,0.19c-2.52,0.07-5.03,0.14-5.03,0.14
					c-0.11,11.99,2.77,26.22,10.66,39.51c1.42,2.43,2.93,4.7,4.5,6.84c1.56,2.14,3.15,4.17,4.8,6.04c0,0,3.51-0.22,7.01-0.43
					c3.49-0.24,6.99-0.48,6.99-0.48l-8.81,6.43c7.15,7,14.31,11.7,19.65,14.67c2.67,1.49,4.89,2.53,6.45,3.21
					c1.55,0.67,2.46,1.02,2.46,1.02l8.24-5.71l8.24-5.71c0,0,0.05-0.52,0.05-1.54c0.01-1.02-0.01-2.5-0.11-4.39
					c-0.2-3.76-0.71-9.08-1.95-15.3L179.26,129.47z"/>
			</g>
			<g>
				<path class="st6" d="M182.58,150.15c-3.11-4.55-10.76-15.8-20.13-30.36c-9.39-14.56-20.53-32.41-30.43-50.45
					c7.27,19.29,17.17,38.14,25.91,53.22c8.74,15.11,16.35,26.48,19.54,31.14l2.56-1.77L182.58,150.15z"/>
			</g>
		</g>
		<g>
			<g>
				<path class="st7" d="M190.88,138.99l6.15-3.7c1.23-5.22,2.07-11.41,1.77-18.22c-0.25-5.43-1.29-10.39-2.8-14.87l-6.2,0.93
					c0,0,1.28-0.99,2.56-1.98c1.28-0.97,2.56-1.95,2.56-1.95c-1.99-5.01-4.43-9.32-6.79-12.78c-2.36-3.45-4.59-6.04-6.27-7.39
					c-2.63,1.41-7.04,5.44-10.74,11.8c0,0,1.15,1.28,2.3,2.56c1.15,1.26,2.31,2.51,2.31,2.51s-1.48-0.66-2.95-1.32
					c-1.48-0.67-2.95-1.35-2.95-1.35c-3.49,6.85-5.95,15.81-5.29,25.71c0.22,3.61,0.81,6.97,1.57,10.09l8.31,3.57l-6.94,1.11
					c2.06,6.1,4.78,10.9,6.97,14.17c1.09,1.64,2.06,2.89,2.75,3.74c0.69,0.84,1.11,1.31,1.11,1.31l6.41-0.84l6.41-0.84
					c0,0,0.72-1.2,1.71-3.43c0.99-2.22,2.26-5.43,3.38-9.37L190.88,138.99z"/>
			</g>
			<g>
				<path class="st6" d="M186.69,151.84c-0.44-3.53-1.51-12.24-2.63-23.35c-1.13-11.12-2.31-24.64-2.91-37.9
					c-1.29,13.23-1.11,26.94-0.5,38.17c0.59,11.24,1.6,20,2.06,23.61l1.99-0.26L186.69,151.84z"/>
			</g>
		</g>
		<path class="st7" d="M365.11,194.64c0,0,9.47-26.31,8.28-51.81c-1.18-25.5,6.31-44.65,18.54-43.16
			c12.23,1.49,22.88,47.64-23.67,97.73L365.11,194.64z"/>
		<path class="st6" d="M369.2,193.68l-0.95-0.6c0.17-0.27,17.18-27.69,17.84-57.93l1.12,0.02
			C386.55,165.73,369.37,193.4,369.2,193.68z"/>
		<path class="st8" d="M367.24,197.76c0,0,16.97-8.85,34.38-10.4s29.71-8.4,27.57-16.56s-34.43-11.13-64.12,25.07L367.24,197.76z"/>
		<path class="st6" d="M368.12,195.63l-0.72-0.86c0.17-0.14,17.4-14.38,38.11-17.65l0.18,1.11
			C385.29,181.45,368.29,195.49,368.12,195.63z"/>
		<g>
			<path class="st7" d="M444.05,193.38c-5.02-0.52-11.17-1.09-18.01-0.84c-6.83,0.28-14.29,1.53-22.07,5.02
				c-7.78,3.47-12.02,9.7-14.42,15.16c-2.39,5.45-2.9,10.1-2.9,10.1s3.59,3.03,9.35,5c5.74,1.97,13.69,2.87,21.93-1.36
				c8.21-4.25,14.17-10.14,18.32-16.15C440.41,204.33,442.7,198.13,444.05,193.38z"/>
			<path class="st6" d="M386.71,222.98l-0.13-0.32c0,0,3.12-1.25,7.74-3.25c4.62-2,10.75-4.75,16.8-7.68
				c6.05-2.92,12-6.03,16.41-8.48c2.21-1.21,4.02-2.26,5.29-3.01c1.27-0.74,1.99-1.16,1.99-1.16l0.18,0.3c0,0-0.73,0.42-2,1.17
				c-1.27,0.75-3.08,1.81-5.3,3.01c-4.41,2.45-10.37,5.57-16.42,8.48c-6.05,2.93-12.18,5.69-16.81,7.69
				C389.84,221.73,386.71,222.98,386.71,222.98z"/>
			<path class="st6" d="M420.04,207.41c-0.02-0.08-0.18-1,0.08-2.64c0.25-1.64,0.94-3.96,2.57-6.84l0.3,0.18
				c-1.59,2.82-2.26,5.1-2.51,6.71c-0.13,0.8-0.15,1.43-0.14,1.86c0.01,0.43,0.05,0.66,0.05,0.66L420.04,207.41z"/>
			<path class="st6" d="M411.34,211.87l0.26-0.24c0,0,0.2,0.21,0.6,0.52c0.4,0.31,1.02,0.73,1.89,1.17
				c1.73,0.87,4.45,1.84,8.43,2.09l-0.03,0.35c-4.06-0.25-6.82-1.23-8.57-2.12C412.16,212.76,411.4,211.93,411.34,211.87z"/>
			<path class="st6" d="M395.18,219.29l0.27-0.22c0,0,0.22,0.25,0.66,0.63c0.45,0.38,1.14,0.88,2.11,1.43
				c1.94,1.09,5.01,2.31,9.56,2.8l-0.04,0.35c-4.62-0.5-7.72-1.72-9.69-2.82C396.07,220.34,395.24,219.37,395.18,219.29z"/>
			<path class="st6" d="M402.11,216.09c-0.02-0.11-0.19-1.51,0.32-3.92c0.51-2.4,1.69-5.82,4.32-9.98l0.29,0.19
				c-2.58,4.11-3.75,7.51-4.25,9.88c-0.25,1.19-0.33,2.13-0.35,2.77c-0.02,0.64,0.03,1,0.03,1L402.11,216.09z"/>
			<path class="st6" d="M426.08,204.31l0.25-0.25c0,0,0.47,0.45,1.51,0.92c1.04,0.46,2.67,0.95,5.01,1.01l-0.01,0.35
				c-2.43-0.07-4.1-0.57-5.17-1.05C426.6,204.82,426.12,204.35,426.08,204.31z"/>
		</g>
		<g>
			<path class="st8" d="M429.44,258.13c-1.87-8.16-5.6-20.6-17.08-29.89c-11.47-9.28-25.71-2.82-25.71-2.82s-2.56,15.4,9.52,24.11
				C408.23,258.24,421.17,258.55,429.44,258.13z"/>
			<polygon class="st6" points="386.56,225.54 386.74,225.31 422.33,252.52 422.16,252.75 			"/>
			<path class="st6" d="M411.03,244.01c0.05-0.04,0.69-0.5,2.01-0.88c1.32-0.38,3.33-0.68,6.11-0.39l-0.03,0.29
				c-2.72-0.28-4.69,0.02-5.99,0.39c-0.65,0.19-1.13,0.39-1.45,0.55c-0.32,0.16-0.48,0.28-0.48,0.28L411.03,244.01z"/>
			<path class="st6" d="M404.51,239.13l0.27,0.1c0,0-0.08,0.23-0.16,0.64c-0.08,0.42-0.16,1.04-0.17,1.84
				c-0.01,1.62,0.27,3.99,1.47,7.05l-0.27,0.11c-1.22-3.12-1.51-5.52-1.5-7.16C404.16,240.08,404.48,239.2,404.51,239.13z"/>
			<path class="st6" d="M392.73,230.13l0.27,0.1c0,0-0.1,0.26-0.19,0.74s-0.19,1.19-0.2,2.11c-0.02,1.85,0.3,4.57,1.67,8.07
				l-0.27,0.11c-1.39-3.56-1.72-6.3-1.7-8.17C392.33,231.21,392.7,230.21,392.73,230.13z"/>
			<path class="st6" d="M397.84,233.93c0.08-0.06,1.03-0.74,3.01-1.3c1.98-0.56,4.97-1,9.12-0.57l-0.03,0.29
				c-4.09-0.42-7.06,0.02-9.02,0.58c-0.98,0.28-1.7,0.58-2.18,0.82c-0.48,0.24-0.73,0.41-0.73,0.41L397.84,233.93z"/>
			<path class="st6" d="M415.48,247.51l0.27,0.1c0,0-0.18,0.51-0.19,1.47c0,0.95,0.17,2.35,0.87,4.15l-0.27,0.11
				c-0.73-1.86-0.91-3.3-0.9-4.28C415.27,248.08,415.46,247.56,415.48,247.51z"/>
		</g>
		<path class="st5" d="M96.51,339.22c0,0-0.4-0.57-2.71,0.46c-2.31,1.03-7.64,8.07-9.22,11.83c0,0,3.15,2.85,5.34,4.07
			c0,0,1.97-1.64,3.08-2.24c0,0,0.08,6.86-0.77,10.92c-0.85,4.07-1.68,6.55-1.68,6.55s7.14,3.34,16.42,1.52
			c0,0,0.12-9.77,0.42-13.53c0.3-3.76,2.06-7.95,1.09-11.47c-0.97-3.52-5.12-4.83-8.48-8.27L96.51,339.22z"/>
		<path class="st10" d="M103.16,330.32c0,0-0.16-2.86-1.8-4.9c-1.63-2.04-5.23-1.31-6.7,1.8c-1.06,2.24-1.18,3.86-1.17,4.61
			c-0.3-0.24-0.77-0.4-1.41,0.04c-1.1,0.75,0.56,3.38,2.23,2.92c0.45,0.93,1.41,1.7,1.41,1.7c0,2.12,0.43,2.69,0.43,2.69
			c1.55,1.88,3.38,3.73,4.6,2.92c1.23-0.82-0.24-1.96-0.65-2.61c-0.41-0.65,0.11-0.99,0.11-0.99
			C103.89,338,103.16,330.32,103.16,330.32z"/>
		<path class="st11" d="M100.56,326.97c0,0-0.95,3.58-3.09,4.37c0,0,0.66-0.67,0.78-1.03c0,0-2.73,2.55-4.25,2.31
			c0,0-0.97-0.42-1.27-3.82c-0.3-3.4,3.28-5.34,3.28-5.34h4.06l2.85,3.28l0.29,2.31C103.22,329.03,101.41,329.03,100.56,326.97z"/>
		<path class="st10" d="M103.5,367.53c0,0-12.6-2.18-17.16-4.7c-4.56-2.53-4-4.77-3.37-6.39c0.63-1.61,2.6-5.05,2.6-5.05l4.46,3.19
			l-0.11,1l-0.76,1.74c0,0,1.46,0.92,3.66,2.14c2.2,1.22,11.15,5.32,11.15,5.32S106.13,366.58,103.5,367.53z"/>
		<g>
			<path class="st2" d="M125.29,390.56l-2.55-13.85c-0.2-1.07-0.9-1.97-1.89-2.42l-15.2-6.86l0.83-1.83l15.2,6.86
				c1.59,0.72,2.73,2.17,3.04,3.88l2.55,13.85L125.29,390.56z"/>
		</g>
		<path class="st11" d="M132.47,382.33c0,0,3.09-2.11,4.64-2.33c1.55-0.22,1.99,1.44,3.09,1.16s1.99-1.18,1.99-1.18l2.21,1.17
			c0,0,0.22-0.61,1.77,0c1.55,0.61,0.66-0.05,1.55,0.61c0.88,0.66,2.21,0.56,2.21,0.56s1.1-0.32,2.21,0c1.1,0.32,2.75-0.54,5.3,0
			c2.55,0.54,4.86-0.54,6.18,0c1.32,0.54,1.99,2.47,3.09,1.95c1.1-0.52,2.87-1.95,2.87-1.95l1.77,3.09c0,0,0.66-1.43,1.55,0
			c0.88,1.43,2.87,2.31,2.87,2.31s0.44,0.28,1.1,1.35c0.66,1.08,1.19,4.05,1.19,4.05v1.33l-33.22-1.33l-13.91-7.71L132.47,382.33z"
			/>
		<g>
			<path class="st2" d="M130.09,385.75l-2.55-13.85c-0.2-1.07-0.9-1.97-1.89-2.41l-15.2-6.86l0.83-1.83l15.2,6.86
				c1.59,0.72,2.73,2.17,3.04,3.88l2.55,13.85L130.09,385.75z"/>
		</g>
		<path class="st2" d="M127.47,382.33c0,0-2.81,8.73-3.55,10.21c-0.74,1.48,1.78,6.8,1.78,6.8l26.48,13.02l25.88-17.9L127.47,382.33
			z"/>
		<path class="st2" d="M122.52,424.74c-0.81,0-1.47-0.18-2-0.53c-1.34-0.87-1.81-2.73-1.54-6.03c0.54-6.47,5.03-24.42,5.22-25.18
			l1.09,0.27c-0.05,0.19-4.66,18.63-5.19,25c-0.23,2.8,0.1,4.38,1.03,5c1.41,0.92,4.7-0.03,10.05-2.92
			c10.05-5.43,17.56-10.38,17.63-10.43l0.62,0.94c-0.08,0.05-7.62,5.03-17.72,10.48C127.45,423.64,124.52,424.74,122.52,424.74z"/>
		<path class="st11" d="M178.07,400.26c0,0-1.59,1.77-1.68,2.87c-0.09,1.1,1.68,0,1.68,0s0.88,1.2,1.77,0.49
			c0.88-0.71,0-1.57,0-1.57l0.39-1.79H178.07z"/>
		<g>
			<g>
				<path class="st2" d="M254.14,425.43l-1.5,1.16c0,0-0.48-0.65-1.33-1.79c-0.83-1.14-2-2.77-3.35-4.77
					c-2.71-3.99-6.15-9.42-9.29-15.03c-3.15-5.6-5.95-11.4-7.88-15.82c-0.91-2.24-1.67-4.1-2.21-5.4c-0.48-1.33-0.75-2.09-0.75-2.09
					l1.78-0.65c0,0,0.27,0.75,0.74,2.05c0.53,1.29,1.28,3.12,2.18,5.33c1.91,4.37,4.68,10.1,7.8,15.65
					c3.1,5.56,6.51,10.94,9.2,14.89c1.33,1.98,2.49,3.59,3.31,4.72C253.67,424.8,254.14,425.43,254.14,425.43z"/>
			</g>
			<path class="st3" d="M232.06,372.2c0.55,1.78,0.33,3.6-0.26,5.13c-0.61,1.52-1.76,2.77-3.32,3.33c-1.56,0.56-3.25,0.29-4.73-0.63
				c-1.49-0.91-2.62-2.56-3.24-4.56c-0.15-0.5-0.25-1-0.32-1.5c-0.04-0.5-0.03-1,0.01-1.48c0.09-0.96,0.33-1.86,0.7-2.64
				c0.75-1.56,2.04-2.65,3.66-2.97c1.63-0.32,3.28,0.15,4.62,1.11c0.67,0.48,1.26,1.09,1.74,1.8c0.24,0.35,0.45,0.73,0.63,1.14
				C231.76,371.33,231.93,371.75,232.06,372.2z"/>
			<path class="st2" d="M229.29,375.07c0,0-0.4-0.76-1.09-1.65c-0.34-0.45-0.76-0.93-1.22-1.38c-0.44-0.45-0.93-0.86-1.48-1.15
				c-0.36,0.51-0.61,1.12-0.8,1.75c-0.16,0.62-0.23,1.26-0.27,1.84c-0.07,1.15,0.02,2.05,0.02,2.05c-1.76-0.65-3.44-0.74-4.67-0.65
				c-1.23,0.09-2.02,0.35-2.02,0.35c2.19,4.23,5.18,5.82,7.48,6.41c2.31,0.59,4.01,0.19,4.01,0.19s1.54-0.85,2.98-2.72
				c1.44-1.87,2.72-4.71,2.58-8.7c0,0-0.81,0.19-1.91,0.73C231.81,372.7,230.42,373.59,229.29,375.07z"/>
		</g>
		<path class="st11" d="M182.93,403.85c0,0-1.32,2.6-1.1,3.26c0.22,0.66,1.1,0,1.1,0s1.32,0.59,1.99,0.29
			c0.66-0.29,1.77-1.74,1.77-1.74h-2.44L182.93,403.85z"/>
		<path class="st11" d="M189.78,421.33c0,0-5.55-0.59-5.53,0c0.01,0.59,0,2.28,0,2.28s-1.14-1.4-2.44,0
			c-1.3,1.4-1.57,3.61-1.57,3.61s-0.35,1.32-1.92,1.54c-1.56,0.22-1.92,1.55-1.92,1.55s3.39,1.1,5.41,1.32c2.01,0.22,3.78,0,3.78,0
			s2.21-0.25,4.2,0.1c1.99,0.34,4.2,0.79,6.18,1.01c1.99,0.22,5.52-1.55,5.52-1.55s6.18-0.22,8.61,0.22
			c2.43,0.44,5.08-0.66,5.08-0.66l0.88-1.99c0,0-1.77-0.39-2.87-1.85s-2.43-5.29-3.31-5.58c-0.88-0.29-3.31-2.29-3.31-2.29
			s-2.21-3.41-2.43-5.56c-0.22-2.15-3.09-3.53-3.09-3.53s-1.32,0.36-2.21,2.19c-0.88,1.84-2.6,1.34-2.6,1.34s-1.15,0.19-1.81,2.11
			c-0.66,1.92-0.88,3.45-0.88,3.45s-2.65-0.9-3.98,0C188.23,419.94,189.78,421.33,189.78,421.33z"/>
		
			<rect x="153.36" y="410.71" transform="matrix(0.843 -0.538 0.538 0.843 -199.172 148.3305)" class="st2" width="2.25" height="9.22"/>
		<g>
			
				<rect x="344.99" y="406.4" transform="matrix(0.3592 -0.9332 0.9332 0.3592 -146.1035 602.3821)" class="st8" width="41.25" height="2.37"/>
		</g>
		<g>
			
				<rect x="379.26" y="386.96" transform="matrix(0.9332 -0.3592 0.3592 0.9332 -121.027 163.8802)" class="st8" width="2.37" height="41.25"/>
		</g>
		<g>
			<rect x="366.85" y="403.21" class="st8" width="12.8" height="2.37"/>
		</g>
		<g>
			<rect x="363.91" y="411.67" class="st8" width="18.56" height="2.37"/>
		</g>
		<path class="st10" d="M358.3,266.4c0,0-3.1,3.03-4.19,6.36c-1.09,3.34,0.54,6.21,3.57,7.06c0,0,0.7,3.49,0.62,4.73
			c0,0,2.33,0.62,3.57,0.47c1.24-0.16,2.33-0.62,2.33-0.62v-4.97c0,0,2.33-2.09,3.03-4.03c0.7-1.94,1.32-6.67-0.93-9
			C364.05,264.07,359.54,265.03,358.3,266.4z"/>
		<path class="st8" d="M324.62,251.33c0,0-0.08,0.35-1.87,0.9c-1.79,0.55-3.07,0.04-3.58,1.49c-0.51,1.45,0.51,4.26-0.6,4.85
			c-1.11,0.6-1.45,1.02-1.45,1.02s2.81,3.58,3.75,5.11c0,0,1.28-1.02,1.7-2.81s3.33-0.93,4-1.53c0.67-0.6,1.38-1.53,1.38-1.53
			S327,252.6,324.62,251.33z"/>
		<path class="st11" d="M362.54,269.61c0,0-3.12-2.18-3.85-4.21c-0.73-2.03,0.15-3.91,1.92-3.7c1.78,0.21,2.72,0.5,2.72,0.5
			s1.66-2.1,4.53,0.58c2.87,2.69,2.51,6.46,2.51,6.46s3.63,1.02,2.18,4.43c-1.45,3.41-4.69,4.52-4.69,4.52s-0.47,2.21-1.7,2.33
			c-1.23,0.12-1.97,0.41-1.97,0.41l0.23-4.14c0,0,1.16,0,1.81-1.38c0.65-1.38-1.38-1.16-1.38-1.16s-1.16-2.1-0.65-2.9
			C364.21,271.35,362.4,270.62,362.54,269.61z"/>
		<path class="st10" d="M347.18,277.61c0,0-5.58-4.38-10.32-10.2c-4.74-5.82-7.65-9.98-7.65-9.98s0-2.42-0.97-4.45
			c-0.97-2.03-1.07-1.65-1.65-2.42c-0.58-0.77-0.58,0.63,0.16,2c0.73,1.37,0.73,1.37,0.73,1.37s-1.9-3.03-2.6-2.93
			c-0.7,0.1,0.13,1.1,0.5,1.63c0.37,0.53,0.5,1.47,0.5,1.47s-1.37-2.1-1.83-1.73c-0.47,0.37,0.5,1.63,1.27,2.63
			c0.77,1,0.9,2.57,1.37,3.4c0,0,6.6,17.12,16,24.48S347.18,277.61,347.18,277.61z"/>
		<path class="st10" d="M329.04,257.65c0,0,0.21-1.11,0.29-1.23c0.08-0.12,0.34-1.05,0.53-1.62s-0.09-1.14-0.41-0.86
			c-0.32,0.28-1.05,1.31-1.03,1.93C328.43,256.49,329.04,257.65,329.04,257.65z"/>
		<path class="st10" d="M372.9,294.9c0,0,4.21,5.11,5.82,5.91c1.61,0.81,5.86-2.73,8.05-6.8c2.19-4.07,3.33-7.15,3.33-7.15
			s2.85-2.06,3.65-4.03c0,0,0.29-0.88,0-1.08c-0.29-0.2-1.13,1.23-1.57,1.77c0,0,1.28-2.22,1.08-2.71c-0.2-0.49-2.02,2.07-2.02,2.07
			s1.43-2.61,0.94-2.66c-0.49-0.05-1.87,2.32-1.87,2.32s-0.05-1.63-0.54-1.53c-0.49,0.1-0.35,1.92-0.35,1.92s-0.49,2.27-0.79,3.01
			c-0.3,0.74-6.51,7.84-7.3,8.04c0,0-2.51-3.55-4.83-4.24C374.18,289.05,372.9,294.9,372.9,294.9z"/>
		<path class="st9" d="M351.36,310.73c0,0,5.83,61.81,6.85,67.01c0,0,5.53,0.67,7.41,0c0,0-0.41-37.63,0-41.5
			c0.41-3.87,3.75-23.62,2.55-26.29C366.97,307.28,351.36,310.73,351.36,310.73z"/>
		<path class="st9" d="M369.64,309.68c0,0,2.08,24.72,3.11,28.51c1.03,3.79,12.21,19.78,12.21,19.78l-4.9,4.96
			c0,0-10.14-10.28-13.08-14.01c-2.94-3.74-8.01-19.35-8.01-19.35S361.9,305.81,369.64,309.68z"/>
		<path class="st2" d="M283.08,170.12c-5.69-1.77-9.81-2.32-13.15-4.2c-3.34-1.88-6.67-3.27-9.22-3.16c-2.55,0.11-7.85-1.28-10.99,0
			c-3.14,1.28-6.46,7.75-11.28,8.93c-4.81,1.18-16.9-1.37-20.27-3.53c-3.38-2.16-4.33-6.47-3.36-8.63c0.97-2.16,1.36-6.01,1.17-7.42
			c-0.2-1.41,4.9-4.18,6.67-6.03c1.76-1.85,3.44-7.89-0.74-10.91c-20.02,4.5-38.45,13.19-54.31,25.12c0,0.01,0.13,1.41,1.3,3.37
			c1.18,1.96-0.71,3.14-0.65,3.73c0.06,0.59,1.11,0.52,0.19,1.63c-0.92,1.11,0.02,0.92-0.84,1.7c-0.86,0.78-1.64,1.57-2.23,1.96
			c-0.59,0.39-0.39,1.57-1.57,2.94c-1.18,1.37-3.34,2.55-3.34,4.71c0,2.16-3.34,5.1-3.73,6.28c-0.39,1.18-3.73,5.69-3.92,8.63
			c-0.2,2.94-0.2,6.08,0,7.85c0.2,1.77,0.29,3.73-0.15,5.89c-0.44,2.16-0.83,4.12-1.03,8.04c-0.2,3.92,1.37,5.69,5.1,6.87
			s10.78,4.51,12.55,7.06c1.77,2.55,2.75,5.69,4.13,6.08c1.37,0.39,2.55,4.51,7.06,7.65c4.51,3.14,12.95,3.54,16.68,7.56
			s10.59,13.81,12.36,19.22c1.77,5.4,4.71,7.39,7.85,10.03c3.14,2.63,7.06,5.58,10.01,5.77c2.94,0.2,4.14-1.04,4.03-2.09
			s-3.84-4.19-4.43-4.97c-0.59-0.78-1.77-6.08-3.53-9.81c-1.77-3.73-1.96-3.88-1.37-5.67c0.59-1.79,1.77-5.71,3.53-6.69
			c1.77-0.98,3.14-0.27,4.32-2c1.18-1.73,1.59-2.71,1.48-3.79c-0.11-1.08-1.88-1.75-3.64-1.91c-1.77-0.16-2.35-1.72-4.71-2.12
			c-2.35-0.39-5.69-1.37-6.47-2.75c-0.78-1.37-2.55-1.77-3.73-1.57c-1.18,0.2-4.71,0.78-7.06-1.57s-2.55-6.87-2.94-9.22
			c-0.39-2.35-0.78-3.14-0.2-4.9c0.59-1.77,0.59-3.15,3.34-4.42c2.75-1.27,7.26-2.26,10.01,0c2.75,2.26,8.24,0.5,9.42-0.88
			c1.18-1.37,4.51-5.49,7.26-5.69c2.75-0.2,7.26,0,9.03-1.57c1.77-1.57,8.44-4.88,9.61-7.54c1.18-2.66,5.69-10.38,5.69-12.9
			c0-2.52,8.24-7.42,10.59-6.64c2.35,0.78,5.49-2.94,6.67-2.94c1.18,0,4.71,0.59,6.67-1.77c1.96-2.35,3.53-3.94,5.1-6.19
			C287.59,175.42,288.77,171.88,283.08,170.12z"/>
		<path class="st2" d="M270.85,355.07c0,0-6.62-4.14-12.24-6.51c-5.62-2.37-9.76-10.74-11.24-12.47c-1.48-1.73-2.66-16.82,0-19.48
			c2.66-2.66,5.34-7.1,7.55-10.65c2.21-3.55,3.1-5.92,2.21-7.4c-0.89-1.48-0.89-9.88,0-11.3c0.89-1.42,5.32-4.08,7.4-3.79
			c2.07,0.3,8.58-1.52,11.24-0.02c2.66,1.5,12.72,6.82,17.16,7.12c4.44,0.3,8.87,4.15,12.42,2.07c3.55-2.07,8.76,0.3,11.78,4.73
			c3.02,4.44,6.57,8.95,11.59,11.87c5.03,2.92,4.59,5.58,7.47,6.17c2.88,0.59,9.32,2.35,12.8,4.73c3.49,2.39,2.34,5.32-0.54,8.87
			c-2.88,3.55-6.46,9.17-8.81,12.72c-2.35,3.55-1.49,8.87,0,10.35c1.49,1.48,0.31,7.69-1.76,9.47c-2.07,1.77-6.51,4.73-8.28,7.99
			c-1.77,3.25-1.6,5.67-5.68,7.12c-4.08,1.46-13.25,5.6-18.87,6.93s-10.35,1.65-14.2,4.89c-3.85,3.24-4.39,12.06-8.01,13.57
			c-3.62,1.51-14.48,8.31-18.62,7.87c-4.14-0.44-4.14-1.27-1.77-4.26c2.36-2.99,8.35-8.25,11.72-13.05
			c3.37-4.8-1.07-9.43,1.89-11.37c2.96-1.94,3.48-7.71,4.4-9.41C281.39,370.16,281.14,360.71,270.85,355.07z"/>
		<path class="st2" d="M355.84,222.82c0.59,1.21,3.75,2.59,6.11,3.77c2.37,1.18,4.59-0.64,5.55-3.77c0.96-3.13,5.1-3.72,7.27-2.54
			c2.17,1.18,4.54,1.77,6.11,1.38c1.56-0.39,4.58-1.55,4.66-1.58c-9.03-21.86-23.32-40.99-41.29-55.81c0,0-1.62,2.38-4.19,4.74
			c-2.56,2.36-3.2,4.13-3.87,5.51c-0.67,1.38-2.64,7.3-1.85,9.86c0.79,2.56,0.46,4.34,3.39,6.51c2.93,2.17,5.53,2.91,4.23,6.88
			c-1.3,3.97-0.32,8.21-1.7,10.33c-1.38,2.12-1.54,6.26,1.7,9.02c3.23,2.76,7.38,2.17,8.36,2.37
			C351.3,219.68,355.25,221.61,355.84,222.82z"/>
		<path class="st2" d="M258.61,256.02c0,0,0,2.71-1.97,4.49c-1.97,1.77-3.94,4.93-1.97,5.32c1.97,0.39,6.11,0.98,7.1,1.57
			c0.99,0.6,6.11,3.36,7.49,2.37c1.38-0.99,2.37-3.35,3.75-3.55s1.77-3.69,2.96-4.81c1.18-1.11,5.32-5.06,5.72-8.21
			c0.39-3.16,0.79-7.89,0-9.07s-6.31-1.97-6.9-3.55c-0.59-1.58-4.11-2.76-6.79-1.18c-2.68,1.58-3.86,5.13-4.26,7.69
			C263.34,249.66,258.41,251.53,258.61,256.02z"/>
		<g>
			<g>
				<path class="st2" d="M343.41,172.29l-1.62-1.22c0,0,0.48-0.64,1.28-1.89c0.8-1.23,1.89-3.05,3.11-5.28
					c2.43-4.46,5.27-10.66,7.55-17.06c2.28-6.4,4.14-12.96,5.2-17.95c0.62-2.48,0.93-4.58,1.23-6.04c0.28-1.46,0.44-2.3,0.44-2.3
					l2,0.34c0,0-0.16,0.85-0.44,2.33c-0.3,1.48-0.62,3.61-1.25,6.12c-1.08,5.05-2.96,11.7-5.27,18.19
					c-2.32,6.5-5.2,12.79-7.68,17.34c-1.24,2.28-2.36,4.14-3.19,5.41C343.96,171.57,343.41,172.29,343.41,172.29z"/>
			</g>
			<path class="st3" d="M369.21,113.11c-0.6,4.38-3.98,7.43-7.46,6.82c-3.5-0.61-5.85-4.35-5.29-8.36c0.4-4.04,3.6-7.11,7.14-6.86
				C367.13,104.95,369.65,108.72,369.21,113.11z"/>
			<path class="st2" d="M365.21,114.88c0,0-0.04-0.96-0.31-2.16c-0.31-1.21-0.85-2.65-1.74-3.63c-1.07,0.78-1.88,2.05-2.42,3.12
				c-0.57,1.07-0.89,1.94-0.89,1.94c-2.85-2.72-6.43-2.96-6.43-2.96c0.4,4.39,2.42,7.18,4.26,8.89c1.83,1.7,3.61,2.3,3.61,2.3
				s1.88,0.1,4.23-0.95c2.34-1.04,5.05-3.29,6.73-7.95C372.24,113.48,368.76,112.91,365.21,114.88z"/>
		</g>
		<path class="st2" d="M316.6,72.56c0,0-1.7,0.37-5.03,2.29c-3.33,1.92-10.8,9.32-10.8,9.32s2.74,4.96,6.21,7.62
			c0,0,4.07-1.85,5.1-2.59c0,0,2.07,9.98-2.07,16.12c0,0,2.37,2.81,6.29,3.4c3.92,0.59,8.06,0.52,11.46,2.96
			c3.4,2.44,8.95,2.22,11.32,0c0,0,2-7.69,0-14.87c-2-7.17-4.88-11.17-4.88-11.17l1.26,0.96c0,0,4.29-4.66,4.51-8.28
			c0,0-4.96-5.1-8.51-7.03c-3.55-1.92-7.43-1.26-10.37,0C318.15,72.56,316.6,72.56,316.6,72.56z"/>
		<path class="st10" d="M308.89,63.42c0.03,0.33,0.88,4.39,2.86,6.37c1.98,1.98,3.52,0.77,4.06,0.99c0.55,0.22,0.88,1.76,0.88,2.86
			c0,1.1,1.76,2.2,3.41,0.99c1.65-1.21,0.77-6.81,0.77-6.81s0.91-1.87,0.23-4.39c0,0,0.84-2.09,0.25-3.3
			c-0.59-1.21-1.47-0.88-1.91,0c0,0-2.09-3.84-5.16-3.19C311.19,57.6,308.45,59.24,308.89,63.42z"/>
		<path class="st11" d="M323.17,61.11c-0.99-1.32-0.33-4.72-1.61-6.7c-1.28-1.98-3.99-1.32-3.99-1.32s-0.66-2.97-3.19-2.53
			c-2.53,0.44-4.83,3.84-4.83,3.84s-1.32-0.44-3.73,0c-2.42,0.44-5.16,2.09-4.17,4.5c0.99,2.42,4.72,2.28,4.72,2.28
			s-0.99,4.75,2.48,3.43c0.1-0.04,0.19-0.09,0.29-0.14c-0.15-0.57-0.23-0.98-0.24-1.07c-0.32-3,1.02-4.7,2.94-5.66l0,0l0,0
			c0.75-0.37,1.58-0.64,2.44-0.83c3.08-0.66,5.16,3.19,5.16,3.19c0.44-0.88,1.32-1.21,1.91,0c0.59,1.21-0.25,3.3-0.25,3.3
			c0.37,1.38,0.26,2.56,0.09,3.35c0.12,0.02,0.25,0.06,0.37,0.06C324.77,66.82,324.15,62.43,323.17,61.11z"/>
		<path class="st11" d="M309.12,64.49c0,0,3.78-1.6,4.05-7.26c0,0,1.16,3.53,6.25,2.9c0,0-0.4-4.72-4.59-5.9
			c-4.19-1.18-7.26,5.81-7.26,5.81S307.04,62.83,309.12,64.49z"/>
		<path class="st6" d="M316.11,150.13c-0.79-6.66-2.11-13.3-2.12-13.36l0.55-0.11c0.01,0.07,1.33,6.73,2.13,13.41L316.11,150.13z"/>
		<path class="st10" d="M110.87,360.65c0,0,1.17,0.02,1.82,0.14c0.65,0.11,1.07,1.04,1.26,1.41c0.18,0.37-0.63,0.33-1.04-0.18
			s-0.49-0.65-0.49-0.65s-0.62-0.13-0.97,0c-0.35,0.13-0.78-0.29-0.85-0.58C110.53,360.49,110.87,360.65,110.87,360.65z"/>
		<path class="st10" d="M103.16,367.42c1.03,1.11,2.37,1.7,2.37,1.7c0.1,0.85,0.59,1.21,0.86,1.18c0.28-0.03,0.28-1.31,0.28-1.31
			c0.24,0.59,1.21,1.18,1.34,0.82s0-0.95,0-0.95s0.39,0.52,0.69,0.52c0.29,0,0.65-0.26,0.52-0.92c-0.13-0.65-0.52-1.64-0.92-2.16
			c-0.39-0.52-0.62-1.05-1.47-1.24c-0.85-0.2-1.15-0.07-2.13-0.16c-0.98-0.1-2.46,0-2.46,0L103.16,367.42z"/>
		<path class="st10" d="M103.5,365.39v-0.53c0,0,2.39-0.73,2.87-0.56c0.48,0.17,0.92,0.84,1.18,1.09
			C107.81,365.64,103.5,365.39,103.5,365.39z"/>
		<circle class="st9" cx="161.21" cy="427.86" r="10.3"/>
		<path class="st6" d="M161.21,432.46c-2.54,0-4.6-2.06-4.6-4.6c0-2.54,2.06-4.6,4.6-4.6c2.54,0,4.6,2.06,4.6,4.6
			C165.81,430.39,163.75,432.46,161.21,432.46z M161.21,423.82c-2.23,0-4.04,1.81-4.04,4.04c0,2.23,1.81,4.04,4.04,4.04
			c2.23,0,4.04-1.81,4.04-4.04C165.25,425.63,163.44,423.82,161.21,423.82z"/>
		<path class="st2" d="M284.71,260.28c0,0-2.33,2.11-3.96,4.43c-1.63,2.32,2.79,1.16,3.96,1.39c1.16,0.23,1.4,1.91,3.72,1.31
			c2.33-0.61,0.23,0.09,2.33-0.61c2.09-0.7,2.79-0.47,4.89-0.7c2.1-0.23,1.68-1.75,2.82-3.09c1.14-1.33,1.19-2.5,0-3.66
			c-1.19-1.16-1.89,2.33-4.22,0c-2.33-2.33-2.25-4.33-4.38-3.33c-2.13,1-1.58,1.35-2.56,2.22
			C286.34,259.12,284.71,260.28,284.71,260.28z"/>
		<path class="st8" d="M360.46,282.3c0,0-6.79,0.47-12.53-5.35c0,0-3.8,3.1-5.97,7.14c0,0,4.19,4.89,8.92,7.14
			c0,0-2.14,18.03-1.01,24.28c0,0,7.53,1.4,12.18,1.71c4.65,0.31,10.4-1.16,10.4-1.16l-1.32-22.27l1.32,1.55
			c0,0,4.81-4.42,4.89-6.83c0,0-6.86-6.44-9.83-7.45C364.53,280.05,363.35,282.54,360.46,282.3z"/>
		<path class="st6" d="M365.72,346.35l-0.56-0.01c0.01-0.51,0.21-12.42,0.56-14.07c0.34-1.61,2.41-12.86,2.44-12.97l0.55,0.1
			c-0.02,0.11-2.09,11.36-2.44,12.99C365.93,333.99,365.72,346.23,365.72,346.35z"/>
		<path class="st5" d="M276.74,434.6h-11.48c0,0-6.29-42.09,0-50.98C271.54,374.73,284.73,377.76,276.74,434.6z"/>
		<path class="st5" d="M261.53,434.6h-10.25c0,0-13.44-4.19-19.88-14.44c-6.44-10.25,3.11-14.6,10.1-10.21
			C248.48,414.33,261.53,434.6,261.53,434.6z"/>
		<path class="st8" d="M265.25,434.6h-6.29c0,0-14.91-14.72-16.77-32.52c-1.86-17.8,12.35-12.02,18.64,3.61
			c6.29,15.63,6.99,28.91,6.99,28.91H265.25z"/>
		<path class="st5" d="M280.46,434.6h10.25c0,0,13.44-4.19,19.88-14.44c6.44-10.25-3.11-14.6-10.1-10.21
			C293.51,414.33,280.46,434.6,280.46,434.6z"/>
		<path class="st8" d="M276.74,434.6h6.29c0,0,14.91-14.72,16.77-32.52c1.86-17.8-12.35-12.02-18.64,3.61
			c-6.29,15.63-6.99,28.91-6.99,28.91H276.74z"/>
		<polygon class="st6" points="312.05,247.84 312.66,246.6 313.45,247.73 314.69,248.34 313.56,249.13 312.95,250.37 312.16,249.24 
			310.91,248.63 		"/>
		<polygon class="st6" points="333.86,252.98 334.23,252.23 334.71,252.92 335.47,253.29 334.78,253.77 334.41,254.53 
			333.93,253.84 333.17,253.47 		"/>
		<polygon class="st6" points="337.38,242.8 337.75,242.05 338.23,242.74 338.99,243.11 338.3,243.59 337.93,244.35 337.44,243.66 
			336.69,243.29 		"/>
		<polygon class="st6" points="306.79,239 307.16,238.25 307.64,238.94 308.4,239.31 307.71,239.79 307.34,240.55 306.85,239.86 
			306.1,239.49 		"/>
		<polygon class="st6" points="311.35,266.9 311.72,266.15 312.21,266.84 312.96,267.21 312.27,267.69 311.9,268.44 311.42,267.75 
			310.66,267.38 		"/>
		<g>
			<path class="st6" d="M233.96,96.18l-0.23-0.16c0.22-0.31,0.35-0.48,0.35-0.48l0.22,0.17C234.3,95.71,234.18,95.87,233.96,96.18z"
				/>
			<path class="st6" d="M226.49,112.27l-0.27-0.06c0.02-0.08,0.04-0.17,0.06-0.25l0.27,0.06
				C226.53,112.11,226.51,112.19,226.49,112.27z M226.83,110.89l-0.27-0.07c0.1-0.38,0.21-0.76,0.33-1.13l0.27,0.08
				C227.04,110.14,226.93,110.51,226.83,110.89z M227.51,108.66l-0.27-0.09c0.13-0.37,0.26-0.74,0.39-1.11l0.26,0.1
				C227.77,107.92,227.64,108.29,227.51,108.66z M228.33,106.47l-0.26-0.11c0.15-0.37,0.3-0.73,0.45-1.09l0.26,0.11
				C228.63,105.74,228.48,106.1,228.33,106.47z M229.26,104.32l-0.25-0.12c0.17-0.36,0.34-0.72,0.51-1.06l0.25,0.12
				C229.6,103.61,229.43,103.96,229.26,104.32z M230.29,102.22l-0.25-0.13c0.19-0.36,0.37-0.7,0.55-1.04l0.25,0.14
				C230.66,101.52,230.48,101.87,230.29,102.22z M231.42,100.17l-0.24-0.14c0.2-0.35,0.4-0.69,0.6-1.01l0.24,0.14
				C231.82,99.48,231.62,99.82,231.42,100.17z M232.63,98.17l-0.24-0.15c0.23-0.37,0.45-0.7,0.64-0.99l0.23,0.16
				C233.07,97.48,232.86,97.81,232.63,98.17z"/>
			<path class="st6" d="M226.25,113.45l-0.28-0.05c0.04-0.19,0.07-0.39,0.11-0.58l0.28,0.06
				C226.32,113.07,226.28,113.26,226.25,113.45z"/>
		</g>
		<g>
			<path class="st6" d="M236.03,96.89l-0.28-0.05c0.07-0.38,0.11-0.58,0.11-0.58l0.27,0.06C236.14,96.31,236.1,96.52,236.03,96.89z"
				/>
			<path class="st6" d="M234.56,110.92c-0.01-0.39-0.02-0.79-0.02-1.18l0.28,0c0,0.39,0.01,0.78,0.02,1.17L234.56,110.92z
				 M234.83,108.57l-0.28,0c0.01-0.39,0.02-0.79,0.03-1.17l0.28,0.01C234.84,107.79,234.83,108.18,234.83,108.57z M234.91,106.24
				l-0.28-0.02c0.02-0.4,0.05-0.79,0.07-1.17l0.28,0.02C234.96,105.45,234.93,105.84,234.91,106.24z M235.08,103.9l-0.28-0.02
				c0.04-0.4,0.07-0.79,0.11-1.17l0.28,0.03C235.15,103.11,235.11,103.5,235.08,103.9z M235.32,101.57l-0.28-0.03
				c0.05-0.41,0.1-0.8,0.15-1.17l0.28,0.04C235.42,100.78,235.37,101.17,235.32,101.57z M235.63,99.25l-0.28-0.04
				c0.06-0.43,0.13-0.82,0.18-1.16l0.28,0.05C235.76,98.44,235.7,98.83,235.63,99.25z"/>
			<path class="st6" d="M234.71,113.44c-0.02-0.2-0.03-0.39-0.05-0.59l0.28-0.02c0.01,0.2,0.03,0.39,0.05,0.59L234.71,113.44z"/>
		</g>
		<path class="st6" d="M230.22,117.39c-0.01-0.19-0.03-0.39-0.03-0.58l0.28-0.01c0.01,0.19,0.02,0.38,0.03,0.57L230.22,117.39z
			 M230.15,115.68c0-0.15,0-0.3,0-0.45c0-0.23,0-0.45,0.01-0.68l0.28,0.01c0,0.22-0.01,0.45-0.01,0.67c0,0.15,0,0.3,0,0.45
			L230.15,115.68z M230.48,113.44l-0.28-0.01c0.02-0.38,0.05-0.75,0.08-1.13l0.28,0.02C230.53,112.69,230.5,113.06,230.48,113.44z
			 M230.67,111.21l-0.28-0.03c0.04-0.38,0.09-0.75,0.15-1.12l0.28,0.04C230.76,110.46,230.71,110.83,230.67,111.21z M230.99,108.99
			l-0.28-0.05c0.07-0.38,0.14-0.74,0.21-1.11l0.28,0.06C231.13,108.25,231.06,108.62,230.99,108.99z M231.44,106.79l-0.27-0.06
			c0.09-0.37,0.18-0.74,0.27-1.1l0.27,0.07C231.61,106.06,231.53,106.42,231.44,106.79z M232,104.62l-0.27-0.08
			c0.11-0.37,0.21-0.73,0.32-1.08l0.27,0.08C232.21,103.9,232.11,104.25,232,104.62z M232.67,102.48l-0.27-0.09
			c0.13-0.37,0.25-0.73,0.38-1.06l0.26,0.1C232.92,101.76,232.79,102.11,232.67,102.48z M233.44,100.38l-0.26-0.1
			c0.15-0.38,0.29-0.73,0.43-1.04l0.26,0.11C233.73,99.65,233.59,100,233.44,100.38z M234.32,98.31l-0.25-0.12
			c0.3-0.65,0.49-1.01,0.5-1.02l0.25,0.13C234.8,97.31,234.61,97.67,234.32,98.31z"/>
		<path class="st5" d="M92.84,352.47c-0.12-0.07-0.25-0.14-0.37-0.22c-1.99-1.27-3.84-2.7-6.02-3.65c-0.09-0.04-0.16-0.09-0.25-0.14
			c-0.69,1.11-1.26,2.17-1.63,3.04c0,0,3.15,2.85,5.34,4.07c0,0,1.34-1.12,2.44-1.85C92.49,353.3,92.65,352.88,92.84,352.47z"/>
	</g>
</g>
</svg>
