<?xml version="1.0" encoding="utf-8"?>
<!-- Generator: Adobe Illustrator 25.1.0, SVG Export Plug-In . SVG Version: 6.00 Build 0)  -->
<svg version="1.1" id="Capa_1" xmlns="http://www.w3.org/2000/svg" xmlns:xlink="http://www.w3.org/1999/xlink" x="0px" y="0px"
	 viewBox="0 0 500 500" style="enable-background:new 0 0 500 500;" xml:space="preserve">
<style type="text/css">
	.st0{display:none;fill:#FFFFFF;}
	.st1{fill:#F4A640;}
	.st2{fill:#ADCFD8;}
	.st3{fill:#55769F;}
	.st4{fill:#DAEEF7;}
	.st5{fill:#FEB546;}
	.st6{fill:#FF5B7E;}
	.st7{fill:#E03268;}
	.st8{fill:#07085B;}
	.st9{fill:#02CCC0;}
	.st10{fill:#06BFAD;}
	.st11{opacity:0.5;fill:#55769F;}
	.st12{fill:#C4DFE8;}
	.st13{fill:#FFC0BB;}
	.st14{opacity:0.6;fill:#FC8D84;}
	.st15{fill:#050645;}
	.st16{fill:#FFFFFF;}
	.st17{fill:#F99893;}
	.st18{fill:#333333;}
	.st19{fill:#6F747A;}
	.st20{fill:#CDD6E0;}
	.st21{fill:#D9D9D9;}
</style>
<g>
	
		<rect x="69.81" y="55.23" transform="matrix(-1 -1.224647e-16 1.224647e-16 -1 527.5988 505.858)" class="st0" width="387.99" height="395.4"/>
	<g>
		<g>
			<path class="st1" d="M267.59,352.95l40.01,16.38l49.53-125.68l-33.82-13.84c-3.42-1.4-7.3,0.29-8.68,3.78L267.59,352.95z"/>
			<g>
				<polygon class="st2" points="262.88,348.27 339.49,362.11 358.59,252.34 281.98,238.5 				"/>
				<polygon class="st3" points="301.19,254.02 335.4,260.2 335.54,259.41 301.33,253.23 				"/>
				<polygon class="st3" points="294.35,250.73 342.93,259.51 343.07,258.73 294.49,249.95 				"/>
				<polygon class="st3" points="287.39,260 346.34,270.65 346.48,269.87 287.53,259.22 				"/>
				<polygon class="st3" points="286.74,263.77 345.68,274.41 345.82,273.63 286.88,262.98 				"/>
				<polygon class="st3" points="285.43,271.29 344.37,281.94 344.51,281.16 285.57,270.51 				"/>
				<polygon class="st3" points="284.77,275.06 343.72,285.71 343.86,284.93 284.91,274.28 				"/>
				<polygon class="st3" points="284.12,278.82 343.07,289.47 343.2,288.69 284.26,278.04 				"/>
				<polygon class="st3" points="281.24,295.38 340.18,306.03 340.32,305.25 281.38,294.6 				"/>
				<polygon class="st3" points="280.56,299.29 339.51,309.94 339.64,309.15 280.7,298.5 				"/>
				<polygon class="st3" points="279.88,303.19 338.83,313.84 338.96,313.06 280.02,302.41 				"/>
				<polygon class="st3" points="279.2,307.09 338.15,317.74 338.28,316.96 279.34,306.31 				"/>
				<polygon class="st3" points="278.52,311 337.47,321.65 337.6,320.86 278.66,310.21 				"/>
				<polygon class="st3" points="277.84,314.9 336.79,325.55 336.93,324.77 277.98,314.12 				"/>
				<polygon class="st3" points="277.16,318.8 336.11,329.45 336.25,328.67 277.3,318.02 				"/>
			</g>
			<g>
				<polygon class="st4" points="265.18,343.57 340.42,363.75 368.26,255.94 293.02,235.76 				"/>
				<polygon class="st3" points="310.92,252.82 344.52,261.84 344.72,261.07 311.12,252.06 				"/>
				<polygon class="st3" points="304.37,248.98 352.09,261.78 352.28,261.01 304.57,248.21 				"/>
				<polygon class="st3" points="296.69,257.64 354.58,273.17 354.78,272.4 296.89,256.87 				"/>
				<polygon class="st3" points="295.74,261.34 353.63,276.86 353.83,276.09 295.94,260.57 				"/>
				<polygon class="st3" points="293.83,268.73 351.72,284.26 351.92,283.49 294.03,267.96 				"/>
				<polygon class="st3" points="292.87,272.43 350.77,287.96 350.96,287.19 293.07,271.66 				"/>
				<polygon class="st3" points="291.92,276.13 349.81,291.65 350.01,290.88 292.12,275.36 				"/>
				<polygon class="st3" points="287.72,292.39 345.61,307.92 345.81,307.15 287.92,291.62 				"/>
				<polygon class="st3" points="286.73,296.22 344.62,311.75 344.82,310.98 286.93,295.45 				"/>
				<polygon class="st3" points="285.74,300.06 343.63,315.58 343.83,314.82 285.94,299.29 				"/>
				<polygon class="st3" points="284.75,303.89 342.64,319.42 342.84,318.65 284.95,303.12 				"/>
				<polygon class="st3" points="283.76,307.73 341.65,323.25 341.85,322.48 283.96,306.96 				"/>
				<polygon class="st3" points="282.77,311.56 340.66,327.09 340.86,326.32 282.97,310.79 				"/>
				<polygon class="st3" points="281.78,315.39 339.67,330.92 339.87,330.15 281.98,314.62 				"/>
			</g>
			<path class="st5" d="M282.77,359.16l80.55,32.97l46.98-119.22l-67.69-42.55c-3.8-2.39-8.8-0.71-10.47,3.51L282.77,359.16z"/>
		</g>
		<g>
			<path class="st6" d="M379.72,346.65l14.59-4.36c2.57-10.82,4.11-20.04,4.11-20.04c-17.61,0.72-31.16,6.22-41.59,14.02
				l-2.16,17.68l-4.66-11.85c-24.61,23.92-27.49,60.84-27.49,60.84s49.53-19.75,58.97-27.89c3.64-3.14,7-11.73,9.74-21.09
				C386.33,351.26,379.72,346.65,379.72,346.65z"/>
			<path class="st7" d="M398.43,322.25c0,0-57.96,46.34-75.89,80.69c0,0,49.53-19.75,58.97-27.89c3.64-3.14,7-11.73,9.74-21.09
				c-4.93-2.7-11.53-7.31-11.53-7.31l14.59-4.36C396.89,331.47,398.43,322.25,398.43,322.25z"/>
			<path class="st6" d="M408.38,367.73c-10.29-3.02-19.97-3.47-28.89-2.24c-1.67,3.9-3.76,8.52-3.76,8.52l-2.34-7.41
				c-33.45,7.67-54.77,37.85-54.77,37.85c22.43,6.96,39.66,5.8,52.74,0.98c0.09-2.84,0.16-7.07,0.16-7.07l3.98,5.36
				c6.14-2.81,11.24-6.42,15.46-10.27c-2.09-2.78-4.36-5.98-4.36-5.98l8.23,2.14C404.76,378.87,408.38,367.73,408.38,367.73z"/>
			<path class="st7" d="M371.36,405.45c0.09-2.84,0.16-7.07,0.16-7.07l3.98,5.36c6.14-2.81,11.24-6.42,15.46-10.27
				c-2.09-2.78-4.36-5.98-4.36-5.98l8.23,2.14c9.94-10.76,13.56-21.9,13.56-21.9c-39.71,6.19-89.76,36.74-89.76,36.74
				C341.05,411.43,358.28,410.27,371.36,405.45z"/>
		</g>
		<g>
			<path class="st7" d="M155.32,277.31h-5.51c0.9-0.63,2.03-1,3.26-1h138c7.22,0,13.07,5.29,13.07,11.81v7.5
				c0,6.52-5.85,11.81-13.07,11.81l-136.45-0.04L155.32,277.31z"/>
			<path class="st5" d="M292.56,295.62v-7.5c0-6.52-5.85-11.81-13.07-11.81h2.96c7.22,0,13.07,5.29,13.07,11.81v7.5
				c0,6.52-5.85,11.81-13.07,11.81l-2.92,0C286.73,307.41,292.56,302.13,292.56,295.62z"/>
			<path class="st5" d="M260.24,295.62v-7.5c0-6.52-5.85-11.81-13.07-11.81h2.96c7.22,0,13.07,5.29,13.07,11.81v7.5
				c0,6.52-5.85,11.81-13.07,11.81l-2.92,0C254.41,307.41,260.24,302.13,260.24,295.62z"/>
			<path class="st6" d="M233.66,276.34c6.9,0,12.5,5.06,12.5,11.29v8.48c0,6.24-5.6,11.29-12.5,11.29h-85.91v-1.9h0.35l21.84-1.87
				l4.41-15.64c0,0-8.52-8.64-9.08-8.87c-0.56-0.22-17.18-0.9-17.18-0.9l-0.35,0v-1.89H233.66z"/>
			<path class="st4" d="M153.33,291.81c0-9.15-5.23-13.58-5.23-13.58h83.81c6.34,0,11.48,4.64,11.48,10.37v6.53
				c0,5.73-5.14,10.37-11.48,10.37h-83.81C148.09,305.51,153.33,303.33,153.33,291.81z"/>
			<path class="st4" d="M243.38,288.61v6.53c0,0.86-0.12,1.69-0.33,2.49c-2.83-6.25-8.24-12.26-18.56-14.2
				c-24.08-4.52-76.4-5.19-76.4-5.19h83.81C238.24,278.23,243.38,282.88,243.38,288.61z"/>
		</g>
		<g>
			<path class="st8" d="M157.59,339.52h-6.23c1.02-0.79,2.3-1.26,3.68-1.26h156.19c8.17,0,14.8,6.62,14.8,14.78v9.39
				c0,8.16-6.62,14.78-14.8,14.78l-154.44-0.05L157.59,339.52z"/>
			<path class="st3" d="M246.26,338.3c7.81,0,14.15,6.33,14.15,14.14v10.61c0,7.81-6.33,14.14-14.15,14.14h-97.23v-2.37h0.4
				l24.72-2.34l5-19.58c0,0-9.64-10.82-10.27-11.1c-0.63-0.28-19.44-1.13-19.44-1.13l-0.4,0v-2.36H246.26z"/>
			<path class="st4" d="M155.34,357.67c0-11.45-5.92-17-5.92-17h94.85c7.18,0,13,5.81,13,12.98v8.17c0,7.17-5.82,12.98-13,12.98
				h-94.85C149.41,374.81,155.34,372.08,155.34,357.67z"/>
			<path class="st4" d="M257.26,353.65v8.17c0,1.07-0.13,2.12-0.38,3.11c-3.2-7.82-9.33-15.35-21-17.77
				c-27.25-5.65-86.47-6.49-86.47-6.49h94.85C251.45,340.67,257.26,346.48,257.26,353.65z"/>
		</g>
		<g>
			<path class="st9" d="M331.17,308.35h6.24c-1.02-0.62-2.3-1-3.69-1H177.47c-8.17,0-14.8,5.25-14.8,11.73v7.45
				c0,6.48,6.63,11.73,14.8,11.73l154.5-0.04L331.17,308.35z"/>
			<path class="st10" d="M242.46,307.38c-7.82,0-14.16,5.02-14.16,11.22v8.42c0,6.19,6.34,11.22,14.16,11.22h97.27v-1.88h-0.4
				l-24.73-1.86l-5-15.54c0,0,9.65-8.59,10.28-8.81c0.63-0.22,19.45-0.89,19.45-0.89l0.4,0v-1.87H242.46z"/>
			<path class="st4" d="M333.42,322.75c0-9.08,5.92-13.49,5.92-13.49h-94.89c-7.18,0-13,4.61-13,10.3v6.48c0,5.69,5.82,10.3,13,10.3
				h94.89C339.35,336.35,333.42,334.19,333.42,322.75z"/>
			<path class="st4" d="M231.45,319.57v6.48c0,0.85,0.13,1.68,0.38,2.47c3.2-6.21,9.33-12.18,21.01-14.1
				c27.26-4.49,86.5-5.15,86.5-5.15h-94.89C237.27,309.26,231.45,313.88,231.45,319.57z"/>
			<path class="st11" d="M191.29,326.53v-7.45c0-6.48,6.63-11.73,14.8-11.73h-14.84c-8.17,0-14.8,5.25-14.8,11.73v7.45
				c0,6.48,6.63,11.73,14.8,11.73l14.64,0C197.82,338.17,191.29,332.96,191.29,326.53z"/>
		</g>
		<path class="st5" d="M341.46,378.41h7.82c-1.28-0.7-2.88-1.11-4.62-1.11H148.78c-10.25,0-18.56,5.87-18.56,13.11v8.32
			c0,7.24,8.31,13.11,18.56,13.11l193.69-0.05L341.46,378.41z"/>
		<path class="st1" d="M230.25,377.32c-9.8,0-17.75,5.61-17.75,12.53v9.41c0,6.92,7.95,12.53,17.75,12.53H352.2v-2.1h-0.5l-31-2.07
			l-6.27-17.36c0,0,12.09-9.59,12.88-9.84c0.79-0.25,24.38-1,24.38-1l0.5,0v-2.09H230.25z"/>
		<path class="st4" d="M344.29,394.5c0-10.15,7.43-15.07,7.43-15.07H232.75c-9,0-16.3,5.15-16.3,11.51v7.24
			c0,6.36,7.3,11.51,16.3,11.51h118.96C351.71,409.69,344.29,407.28,344.29,394.5z"/>
		<path class="st4" d="M216.45,390.94v7.24c0,0.95,0.17,1.88,0.48,2.76c4.01-6.93,11.7-13.61,26.34-15.76
			c34.18-5.01,108.45-5.76,108.45-5.76H232.75C223.75,379.43,216.45,384.58,216.45,390.94z"/>
		<path class="st12" d="M109.08,415.4h283.31c1.05,0,1.91-0.85,1.91-1.91v0c0-1.05-0.85-1.91-1.91-1.91H109.08
			c-1.05,0-1.91,0.85-1.91,1.91l0,0C107.18,414.55,108.03,415.4,109.08,415.4z"/>
		<polygon class="st1" points="396.03,286.08 341.19,254.11 333.78,269.07 389.89,299.33 		"/>
		<path class="st9" d="M350.96,170.53c0,0,0.43,4.35,3.8,4.65c-3.37,0.3-3.8,4.65-3.8,4.65s-0.43-4.35-3.8-4.65
			C350.53,174.88,350.96,170.53,350.96,170.53z"/>
		<path class="st6" d="M410.3,297.25c0,0,0.65,6.52,5.7,6.97c-5.05,0.45-5.7,6.97-5.7,6.97s-0.65-6.52-5.7-6.97
			C409.66,303.77,410.3,297.25,410.3,297.25z"/>
		<path class="st5" d="M394.47,134.99c0,0,0.58,5.79,5.06,6.19c-4.48,0.4-5.06,6.19-5.06,6.19s-0.58-5.79-5.06-6.19
			C393.9,140.78,394.47,134.99,394.47,134.99z"/>
		<path class="st5" d="M127.61,322.92c0,0,0.39,3.9,3.4,4.17c-3.02,0.27-3.4,4.17-3.4,4.17s-0.39-3.9-3.4-4.17
			C127.23,326.82,127.61,322.92,127.61,322.92z"/>
		<path class="st6" d="M374.33,213.41c0,0,0.39,3.89,3.4,4.16c-3.01,0.27-3.4,4.16-3.4,4.16s-0.39-3.89-3.4-4.16
			C373.94,217.3,374.33,213.41,374.33,213.41z"/>
		<path class="st6" d="M321.92,111.36c0,0,0.39,3.89,3.4,4.16c-3.01,0.27-3.4,4.16-3.4,4.16s-0.39-3.89-3.4-4.16
			C321.53,115.25,321.92,111.36,321.92,111.36z"/>
		<path class="st6" d="M164.11,160.85c0,0,0.51,5.09,4.45,5.44c-3.94,0.35-4.45,5.44-4.45,5.44s-0.51-5.09-4.45-5.44
			C163.6,165.94,164.11,160.85,164.11,160.85z"/>
		<path class="st6" d="M130.22,248.98c0,0,0.74,7.45,6.51,7.97c-5.77,0.52-6.51,7.97-6.51,7.97s-0.74-7.45-6.51-7.97
			C129.48,256.43,130.22,248.98,130.22,248.98z"/>
		<path class="st6" d="M306.71,181.26c0,0,0.58,5.79,5.06,6.19c-4.48,0.4-5.06,6.19-5.06,6.19s-0.58-5.79-5.06-6.19
			C306.13,187.05,306.71,181.26,306.71,181.26z"/>
		<path class="st9" d="M415.36,243.76c0,0,0.58,5.79,5.06,6.19c-4.48,0.4-5.06,6.19-5.06,6.19s-0.58-5.79-5.06-6.19
			C414.79,249.55,415.36,243.76,415.36,243.76z"/>
		<path class="st9" d="M133.82,124.95c0,0,0.41,4.12,3.6,4.41c-3.19,0.29-3.6,4.41-3.6,4.41s-0.41-4.12-3.6-4.41
			C133.41,129.08,133.82,124.95,133.82,124.95z"/>
		<path class="st9" d="M176.46,226.91c0,0,0.66,6.61,5.77,7.06c-5.11,0.46-5.77,7.06-5.77,7.06s-0.66-6.61-5.77-7.06
			C175.8,233.51,176.46,226.91,176.46,226.91z"/>
		<path class="st5" d="M119.71,183.9c0,0,0.45,5.24,3.94,5.6c-3.49,0.36-3.94,5.6-3.94,5.6s-0.45-5.24-3.94-5.6
			C119.26,189.14,119.71,183.9,119.71,183.9z"/>
		<path class="st5" d="M203.34,100.13c0,0,0.45,5.26,3.95,5.62c-3.5,0.36-3.95,5.62-3.95,5.62s-0.45-5.26-3.95-5.62
			C202.89,105.38,203.34,100.13,203.34,100.13z"/>
		<g>
			<g>
				<path class="st4" d="M258.74,205.6l8.85,0.72l-2.86,7.29l-4.47-0.37l-1.86,6.08c-0.45-0.21-0.79-0.37-0.85-0.42
					c-0.14-0.09-0.63-3.11-1.06-5.96L258.74,205.6z"/>
				<path class="st7" d="M263.79,272.68v3.18c0,0.26,0.21,0.48,0.47,0.48h7.28c0.53,0,0.73-0.7,0.28-0.99l-4.09-2.66
					C267.74,272.68,266.13,273.88,263.79,272.68z"/>
				<path class="st13" d="M249.5,137.94c-0.11,0.04-0.22-0.05-0.19-0.17c0.18-0.88,0.74-3.66,0.53-3.76
					c-0.25-0.12-0.81,2.36-1.06,2.39c-0.25,0.03,0.35-2.37,0.06-2.45c-0.29-0.08-0.76,2.12-0.9,2.13c-0.13,0.01,0.1-2.15-0.04-2.31
					c-0.14-0.15-0.67,2.13-0.83,2.18c-0.16,0.06-0.31-1.64-0.45-1.64c-0.14,0-0.24-0.03-0.98,3.88c0,0-0.04,1.43-0.29,1.77
					l0.55,1.15l1.72,0.06c0,0,3.73-3.44,3.7-3.65C251.3,137.33,251.13,137.28,249.5,137.94z"/>
				<path class="st13" d="M267.18,138.8c0.08,0.09,0.22,0.06,0.25-0.06c0.23-0.87,0.98-3.6,1.21-3.6c0.27,0.01-0.34,2.47-0.12,2.62
					c0.21,0.14,0.75-2.27,1.04-2.21c0.29,0.06-0.27,2.25-0.16,2.32c0.11,0.07,0.87-1.97,1.06-2.03c0.19-0.07-0.36,2.2-0.24,2.33
					s1.01-1.32,1.14-1.25c0.13,0.06,0.23,0.08-0.87,3.91c0,0-0.6,1.3-0.53,1.71l-1.01,0.77l-1.56-0.75c0,0-1.78-4.8-1.66-4.97
					C265.85,137.42,266.01,137.46,267.18,138.8z"/>
				<polygon class="st13" points="253.53,170.15 253.55,176.84 247.17,175.84 248.24,168.31 				"/>
				<path class="st14" d="M247.75,171.78l0.49-3.46l5.29,2.47l0,1.32C252.26,172.42,249.87,172.7,247.75,171.78z"/>
				<path class="st7" d="M242,272.33v3.49c0,0.29-0.23,0.52-0.51,0.52h-8.01c-0.58,0-0.8-0.77-0.31-1.09l4.49-2.92
					C237.66,272.33,239.42,273.64,242,272.33z"/>
				<g>
					<g>
						<g>
							<path class="st8" d="M234.68,213.09c0.02-0.75-1.89,1.45-1.85,0.86c0.75-12.38,24.48-2,24.48-2l5.79,4.33l6.54,57.38
								c0,0-3.55,1.05-5.89,0.19l-14.49-49.17l-1.78-0.7C247.5,223.99,239.57,218.35,234.68,213.09z"/>
						</g>
					</g>
				</g>
				<g>
					<g>
						<g>
							<path class="st10" d="M232.8,214.45c-0.01,0.14-0.01,0.29-0.02,0.45C232.79,214.75,232.8,214.6,232.8,214.45z"/>
						</g>
						<g>
							<path class="st10" d="M232.78,214.91c-0.01,0.15-0.01,0.31-0.02,0.48C232.77,215.22,232.78,215.06,232.78,214.91z"/>
						</g>
						<g>
							<path class="st10" d="M232.77,215.45c0,0.17-0.01,0.34-0.01,0.52C232.76,215.79,232.76,215.62,232.77,215.45z"/>
						</g>
						<g>
							<path class="st10" d="M232.83,213.95c-0.01,0.13-0.02,0.27-0.02,0.41C232.81,214.22,232.82,214.08,232.83,213.95z"/>
						</g>
						<g>
							<path class="st8" d="M232.83,211.14c4.89,5.26,14.66,12.85,14.66,12.85l1.78,0.7l-1.78-0.7l-5.51,49.68
								c0,0-3.93,0.76-6.17-0.48C235.82,273.19,232.51,225.9,232.83,211.14z"/>
						</g>
						<g>
							<path class="st10" d="M269.65,273.66c0,0-1.53,0.45-3.24,0.52C268.12,274.12,269.65,273.66,269.65,273.66L269.65,273.66z"/>
						</g>
						<g>
							<path class="st10" d="M264.45,274.05c0.16,0.03,0.32,0.06,0.48,0.08C264.77,274.11,264.61,274.08,264.45,274.05z"/>
						</g>
						<g>
							<path class="st10" d="M266.41,274.18c-0.41,0.02-0.83,0.01-1.24-0.03C265.58,274.19,266,274.2,266.41,274.18z"/>
						</g>
					</g>
				</g>
				<path class="st15" d="M263.11,216.28l0.93,8.19c-2.47,0.97-8.49,2.02-13.03-8.1c-1.43-3.19-1.8-5.49-1.54-7.13
					c4.35,1.18,7.84,2.71,7.84,2.71L263.11,216.28z"/>
				<path class="st4" d="M241.33,182.86c0.27,0,4.39-9.5,4.39-9.5c3.52,2.51,8.29,0.77,8.29,0.77s19.21,35.82,6.33,41.41
					c-12.88,5.59-25.03-1.21-25.03-1.21s-2.74-7.26-2.74-7.54C232.56,206.5,241.06,182.86,241.33,182.86z"/>
				<path class="st3" d="M266.36,142.63c0,0,0.83,17-0.73,20.11c-5.18,10.33-11.63,11.38-11.63,11.38s-2.22,36.15-0.39,44.81
					c0,0,6.08,1.91,15.03-2.37c0,0-6.85-28.02-6.49-31.56c0,0,10.96-9.96,11.33-21.69c0.37-11.73-2.65-22.16-2.65-22.16
					L266.36,142.63z"/>
				<path class="st3" d="M236.81,217.63c0,0,0.69-13.45,3.7-26.21c3.01-12.76,5.21-18.06,5.21-18.06
					c-4.04-4.54-3.37-8.64-3.02-13.97c0.41-6.14,6.3-18.43,6.3-18.43l-3.97-2.65c-19.05,23.32-8.5,41.9-8.5,41.9
					s-7.13,25.7-8.09,33.52C228.45,213.72,232.24,215.95,236.81,217.63z"/>
				<path class="st16" d="M261.97,184.96c-0.23-0.17-0.5-0.42-0.77-0.74c-0.81-0.99-1.23-2.11-1.52-3.36
					c0.18,0.53,0.64,2.08,1.63,3.26c0.44,0.51,0.68,0.69,0.89,0.83c-0.03,0.03-0.05,0.05-0.05,0.05c0,0.02,0,0.05-0.01,0.07
					c-0.25,0.05-0.7,0.07-1.45-0.35c-0.47-0.25-0.83-0.56-1.22-0.89c0.25,0.18,0.77,0.57,1.26,0.8
					C261.09,184.81,261.59,184.99,261.97,184.96z"/>
				<path class="st16" d="M236.68,180.12c0.33-0.21,0.61-0.51,0.87-0.82c0.81-0.97,1.25-2.11,1.63-3.26
					c-0.29,1.24-0.7,2.36-1.52,3.36c-0.26,0.32-0.53,0.57-0.77,0.74c0.18,0.01,0.39-0.02,0.54-0.06c0.24-0.06,0.47-0.15,0.69-0.26
					c0.46-0.22,0.91-0.55,1.26-0.8c-0.34,0.3-0.73,0.63-1.22,0.89c-0.22,0.12-0.45,0.23-0.7,0.3c-0.25,0.06-0.5,0.12-0.78,0.04
					l-0.15-0.04L236.68,180.12z"/>
				<polygon class="st8" points="244.37,156.49 243.99,161.08 244.7,161.54 246.02,155.95 				"/>
				<path class="st17" d="M245.33,160.61c0.2,1.04-0.31,2.01-1.12,2.17c-0.82,0.16-1.64-0.55-1.83-1.59
					c-0.2-1.04,0.31-2.01,1.12-2.17C244.32,158.86,245.14,159.57,245.33,160.61z"/>
				<path class="st13" d="M244.16,164.86c-0.21-1.33-0.18-2.69-0.06-3.86c0.02-0.25,0.04-0.5,0.04-0.75
					c0.02-1.02,0.23-2.06,0.67-3.08c1.41-3.3,4.84-5.3,8.34-4.86c4.72,0.6,7.83,5.12,6.92,9.74c0.55-0.18,1.11-0.13,1.56,0.19
					c0.85,0.62,0.93,2,0.17,3.08c-0.76,1.09-2.06,1.47-2.91,0.85c-0.12-0.09-0.22-0.19-0.31-0.3c-1.17,3.85-4.93,6.25-8.71,5.41
					C247,170.64,244.63,168.21,244.16,164.86z"/>
				<path class="st18" d="M252.88,161.18c-0.19,0.47,0.15,0.99,0.66,0.99c0.28,0,0.54-0.18,0.64-0.44c0.19-0.48-0.15-0.99-0.66-0.99
					C253.24,160.74,252.99,160.92,252.88,161.18z"/>
				<path class="st18" d="M246.91,160.27c-0.19,0.48,0.15,0.99,0.66,0.99c0.28,0,0.54-0.18,0.64-0.45c0.18-0.48-0.15-0.99-0.66-0.99
					C247.27,159.83,247.01,160.01,246.91,160.27z"/>
				<path class="st17" d="M251.95,166.19c-0.37,0.19-0.79,0.33-1.13,0.39c-0.39,0.08-0.79,0.1-1.17,0.05
					c-0.39-0.05-0.76-0.19-1.1-0.39c-0.34-0.21-0.64-0.47-0.92-0.77c0.28,0.4,0.53,0.63,0.86,0.87c0.34,0.23,0.7,0.37,1.14,0.44
					c0.41,0.06,0.82,0.02,1.22-0.08C251.24,166.58,251.62,166.42,251.95,166.19z"/>
				<path class="st8" d="M252.32,159.73c0.37-0.07,0.71-0.11,1.05-0.11c0.34-0.01,0.66,0.03,0.98,0.12c0.31,0.09,0.62,0.21,0.9,0.4
					c0.38,0.22,0.66,0.49,0.86,0.63c-0.13-0.33-0.33-0.72-0.62-0.95c-0.27-0.28-0.63-0.47-1.01-0.57c-0.38-0.11-0.78-0.11-1.16-0.02
					C252.94,159.31,252.59,159.47,252.32,159.73z"/>
				<path class="st8" d="M249.53,159.26c-0.18-0.34-0.46-0.61-0.78-0.82c-0.33-0.21-0.71-0.33-1.1-0.36
					c-0.39-0.02-0.79,0.04-1.14,0.21c-0.34,0.13-0.66,0.43-0.88,0.7c0.25-0.07,0.57-0.23,1.01-0.32c0.33-0.09,0.65-0.1,0.97-0.08
					c0.32,0.02,0.64,0.09,0.96,0.21C248.89,158.93,249.2,159.08,249.53,159.26z"/>
				<path class="st17" d="M250.74,160.16c-0.33,0.31-0.63,0.66-0.92,1.01c-0.29,0.36-0.55,0.73-0.79,1.12
					c-0.13,0.24-0.3,0.56-0.34,0.83c-0.02,0.15-0.01,0.3,0.23,0.54c0.16,0.17,0.34,0.32,0.53,0.45c0.19,0.13,0.38,0.25,0.59,0.34
					c-0.34-0.3-0.69-0.59-0.96-0.94c-0.04-0.05-0.13-0.18-0.15-0.24c-0.01-0.05,0.01-0.16,0.05-0.26c0.07-0.2,0.18-0.39,0.29-0.58
					c0.22-0.39,0.47-0.76,0.72-1.14C250.25,160.93,250.5,160.55,250.74,160.16z"/>
				<path class="st8" d="M245.21,151.59c0,0-2.37-0.46,0.55-1.92c2.92-1.46,10.06-2.3,13.8,0.96c0,0,1.26-1.64,2.39-0.92
					c1.13,0.72-1.18,1.52-1.18,1.52s1.58,0.31,1.88,1.2c0.22,0.66-0.74,0.46-1.26,0.32c0.86,0.36,3.38,2.79,0.1,9.42
					c-0.58-0.28-4.33-5.73-4.33-5.73s-7.54,2.52-6.16,0.43c0,0-8.78,2.25-6.65-1.81C244.36,155.06,241.12,154.56,245.21,151.59z"/>
				<path class="st8" d="M261.5,162.16c0,0-0.57-0.44-1.44-0.12c-0.87,0.33-1.42,2.31-1.42,2.31s-2.84,2.37-1.46-7.97
					c1.36-10.16,3.25,1.69,3.25,1.69L261.5,162.16z"/>
			</g>
		</g>
		<g>
			<path class="st5" d="M265.65,130.36l-13-0.94c-0.66-0.05-1.15-0.63-1.11-1.3l0,0c0.05-0.67,0.62-1.18,1.28-1.13l13,0.94
				c0.66,0.05,1.15,0.63,1.11,1.3l0,0C266.88,129.9,266.31,130.41,265.65,130.36z"/>
			<polygon class="st5" points="261.91,90.46 266.45,101.81 278.2,104.43 269.01,112.34 270.2,124.54 259.97,118.08 248.96,123 
				251.83,111.09 243.83,101.93 255.83,101.04 			"/>
			<g>
				<g>
					<polygon class="st1" points="261.91,90.46 260.74,107.11 266.45,101.81 					"/>
					<polygon class="st1" points="278.2,104.43 260.74,107.11 269.01,112.34 					"/>
					<polygon class="st1" points="260.74,107.11 255.83,101.04 243.83,101.93 					"/>
					<polygon class="st1" points="248.96,123 260.74,107.11 251.83,111.09 					"/>
					<polygon class="st1" points="270.2,124.54 260.74,107.11 259.97,118.08 					"/>
				</g>
			</g>
			<polygon class="st19" points="268.51,137.94 248.76,136.5 249.25,129.43 269.01,130.86 			"/>
			<polygon class="st20" points="248.81,135.73 248.76,136.5 268.51,137.94 268.57,137.16 			"/>
			<polygon class="st20" points="249.27,129.23 249.21,130 268.97,131.44 269.02,130.66 			"/>
			<path class="st1" d="M268.84,131.2l-19.46-1.41c-0.49-0.04-0.86-0.47-0.83-0.97l0,0c0.04-0.5,0.46-0.88,0.96-0.84l19.46,1.41
				c0.49,0.04,0.86,0.47,0.83,0.97l0,0C269.76,130.85,269.33,131.23,268.84,131.2z"/>
			<path class="st19" d="M268.77,139.6l-20.76-1.51c-0.13-0.01-0.23-0.13-0.22-0.26l0.09-1.33c0.01-0.13,0.12-0.24,0.26-0.23
				l20.76,1.51c0.13,0.01,0.23,0.13,0.22,0.26l-0.09,1.33C269.02,139.51,268.9,139.61,268.77,139.6z"/>
			<path class="st5" d="M262.44,135.62l-7.51-0.55c-0.93-0.07-1.64-0.89-1.57-1.85l0,0c0.07-0.95,0.88-1.67,1.81-1.6l7.51,0.55
				c0.93,0.07,1.64,0.89,1.57,1.85l0,0C264.19,134.97,263.38,135.69,262.44,135.62z"/>
			<path class="st21" d="M254.97,134.5c-0.67-0.05-1.16-0.68-1.03-1.37c0.11-0.58,0.66-0.96,1.24-0.92l7.42,0.54
				c0.58,0.04,1.07,0.5,1.1,1.09c0.03,0.7-0.54,1.26-1.21,1.21L254.97,134.5z"/>
			<path class="st5" d="M261.36,128.35l-4.18-0.3l0.03-0.39c0.11-1.61,0.29-4.94,2.77-9.57l0,0c1.89,5.29,1.52,8.27,1.41,9.87
				L261.36,128.35z"/>
		</g>
	</g>
</g>
</svg>
