<?xml version="1.0" encoding="utf-8"?>
<!-- Generator: Adobe Illustrator 25.1.0, SVG Export Plug-In . SVG Version: 6.00 Build 0)  -->
<svg version="1.1" id="Capa_1" xmlns="http://www.w3.org/2000/svg" xmlns:xlink="http://www.w3.org/1999/xlink" x="0px" y="0px"
	 viewBox="0 0 500 500" style="enable-background:new 0 0 500 500;" xml:space="preserve">
<style type="text/css">
	.st0{fill:url(#SVGID_1_);}
	.st1{fill:url(#SVGID_2_);}
	.st2{fill:#BDD0FB;}
	.st3{fill:url(#SVGID_3_);}
	.st4{fill:#91B3FA;}
	.st5{fill:#7D97F4;}
	.st6{fill:url(#SVGID_4_);}
	.st7{filter:url(#Adobe_OpacityMaskFilter);}
	.st8{filter:url(#Adobe_OpacityMaskFilter_1_);}
	.st9{mask:url(#SVGID_5_);fill:url(#SVGID_6_);}
	.st10{opacity:0.53;fill:url(#SVGID_7_);}
	.st11{fill:url(#SVGID_8_);}
	.st12{fill:url(#SVGID_9_);}
	.st13{fill:url(#SVGID_10_);}
	.st14{fill:url(#SVGID_11_);}
	.st15{fill:url(#SVGID_12_);}
	.st16{opacity:0.78;fill:#FFFFFF;}
	.st17{fill:url(#SVGID_13_);}
	.st18{fill:url(#SVGID_14_);}
	.st19{fill:url(#SVGID_15_);}
	.st20{fill:#FFFFFF;}
	.st21{fill:url(#SVGID_16_);}
	.st22{fill:url(#SVGID_17_);}
	.st23{fill:url(#SVGID_18_);}
	.st24{fill:url(#SVGID_19_);}
	.st25{fill:url(#SVGID_20_);}
	.st26{fill:url(#SVGID_21_);}
	.st27{fill:url(#SVGID_22_);}
	.st28{fill:url(#SVGID_23_);}
	.st29{fill:url(#SVGID_24_);}
	.st30{fill:url(#SVGID_25_);}
	.st31{fill:url(#SVGID_26_);}
	.st32{fill:url(#SVGID_27_);}
	.st33{fill:url(#SVGID_28_);}
	.st34{fill:url(#SVGID_29_);}
	.st35{fill:url(#SVGID_30_);}
	.st36{fill:url(#SVGID_31_);}
	.st37{fill:url(#SVGID_32_);}
	.st38{fill:url(#SVGID_33_);}
	.st39{fill:url(#SVGID_34_);}
	.st40{fill:url(#SVGID_35_);}
	.st41{fill:url(#SVGID_36_);}
	.st42{fill:url(#SVGID_37_);}
	.st43{fill:url(#SVGID_38_);}
	.st44{fill:url(#SVGID_39_);}
	.st45{fill:url(#SVGID_40_);}
	.st46{fill:url(#SVGID_41_);}
	.st47{fill:url(#SVGID_42_);}
	.st48{fill:url(#SVGID_43_);}
	.st49{fill:url(#SVGID_44_);}
	.st50{fill:url(#SVGID_45_);}
	.st51{fill:url(#SVGID_46_);}
	.st52{fill:url(#SVGID_47_);}
	.st53{fill:url(#SVGID_48_);}
	.st54{fill:url(#SVGID_49_);}
	.st55{fill:url(#SVGID_50_);}
	.st56{fill:url(#SVGID_51_);}
	.st57{fill:url(#SVGID_52_);}
	.st58{fill:url(#SVGID_53_);}
	.st59{fill:url(#SVGID_54_);}
	.st60{fill:url(#SVGID_55_);}
	.st61{fill:url(#SVGID_56_);}
	.st62{fill:url(#SVGID_57_);}
	.st63{fill:url(#SVGID_58_);}
	.st64{fill:url(#SVGID_59_);}
	.st65{fill:url(#SVGID_60_);}
	.st66{fill:url(#SVGID_61_);}
	.st67{fill:url(#SVGID_62_);}
	.st68{fill:url(#SVGID_63_);}
</style>
<g>
	<linearGradient id="SVGID_1_" gradientUnits="userSpaceOnUse" x1="453.1961" y1="473.0756" x2="208.608" y2="212.7077">
		<stop  offset="0" style="stop-color:#DAE3FE"/>
		<stop  offset="1" style="stop-color:#E9EFFD"/>
	</linearGradient>
	<path class="st0" d="M378.31,369.89c-8.93,9.4-16.92,14.92-23.03,19.09c-59.65,40.67-127.83,28.95-148.91,24.94
		c-34.01-6.46-62.72-11.02-87.39-33.78c-56.05-51.71-53.33-159.59-10.5-226.42c5.08-7.92,47.84-72.66,116.18-81.78
		c1.67-0.22,2.92-0.35,4.01-0.47c10.57-1.14,76.08-7.18,129.49,38.52c7.65,6.54,19.95,18.34,31.36,36.34
		C431.23,212.13,431.37,314.04,378.31,369.89z"/>
	<g>
		<linearGradient id="SVGID_2_" gradientUnits="userSpaceOnUse" x1="323.7721" y1="296.2546" x2="401.3836" y2="296.2546">
			<stop  offset="0" style="stop-color:#4F52FF"/>
			<stop  offset="1" style="stop-color:#4042E2"/>
		</linearGradient>
		<path class="st1" d="M345.96,197.56l30.42-7.23c0,0,20.34-1.87,23.09,16.6s1.95,127.85,1.09,150.41
			c-0.28,7.44-0.25,14.31,0.37,20.3c1.29,12.48-8.24,23.38-20.53,23.6l-56.64,1L345.96,197.56z"/>
		<g>
			<path class="st2" d="M329.78,411.12c0,0,6.08-87.03,49.31-140.08c0.56-0.69,1.54-0.52,1.84,0.33
				C385.63,284.81,412.11,371.24,329.78,411.12z"/>
			<linearGradient id="SVGID_3_" gradientUnits="userSpaceOnUse" x1="331.4665" y1="351.5097" x2="377.2194" y2="351.5097">
				<stop  offset="0" style="stop-color:#DAE3FE"/>
				<stop  offset="1" style="stop-color:#E9EFFD"/>
			</linearGradient>
			<path class="st3" d="M377.22,296.3c-0.36,5.08-1.08,10.09-1.92,15.09c-0.86,4.99-1.88,9.96-3.07,14.89
				c-2.38,9.85-5.36,19.57-9.02,29.02c-1.85,4.72-3.8,9.4-5.99,13.97c-1.06,2.3-2.25,4.54-3.38,6.8c-1.21,2.23-2.38,4.47-3.69,6.63
				c-5.06,8.76-10.99,17.01-17.75,24.44c-0.2,0.22-0.54,0.23-0.76,0.03c-0.2-0.19-0.23-0.51-0.06-0.73l0.01-0.01
				c6.02-7.97,11.44-16.35,16.15-25.14c1.21-2.18,2.29-4.43,3.45-6.64c1.07-2.25,2.19-4.48,3.19-6.77c0.5-1.14,1.05-2.26,1.53-3.42
				l1.48-3.44c0.49-1.15,0.94-2.31,1.41-3.47c0.48-1.15,0.92-2.32,1.36-3.49c0.91-2.32,1.76-4.68,2.62-7.02
				c0.82-2.36,1.64-4.73,2.4-7.11c1.58-4.75,2.98-9.56,4.33-14.39c1.32-4.83,2.56-9.7,3.66-14.6c1.13-4.89,2.13-9.83,2.98-14.77
				l0-0.02c0.05-0.3,0.33-0.5,0.62-0.44C377.05,295.77,377.24,296.02,377.22,296.3z"/>
		</g>
		<g>
			<path class="st4" d="M335.13,401.6c0,0,44.56-76.55,93.05-77.75c0.86-0.02,1.51,0.79,1.34,1.65
				C427.46,335.5,413.02,387.88,335.13,401.6z"/>
			<path class="st2" d="M417.92,335.99c-2.94,3.15-5.96,6.18-9.03,9.18c-1.55,1.48-3.1,2.96-4.66,4.43
				c-1.58,1.45-3.14,2.92-4.73,4.35c-6.36,5.74-12.92,11.25-19.66,16.53c-3.34,2.67-6.8,5.19-10.22,7.76l-5.22,3.72
				c-0.87,0.62-1.74,1.24-2.62,1.85l-2.67,1.78c-7.05,4.84-14.41,9.18-21.82,13.4c-0.26,0.15-0.58,0.05-0.73-0.21
				c-0.14-0.26-0.05-0.59,0.2-0.74l0.01-0.01l5.47-3.28l2.73-1.64c0.9-0.56,1.79-1.15,2.69-1.72l5.37-3.44
				c1.77-1.18,3.52-2.39,5.28-3.58l2.64-1.8l2.6-1.86l5.19-3.72c3.39-2.58,6.83-5.09,10.15-7.76c3.36-2.62,6.65-5.33,9.95-8.04
				l4.88-4.14l4.82-4.22c1.6-1.41,3.17-2.85,4.76-4.28c1.57-1.44,3.13-2.9,4.69-4.36c3.1-2.93,6.19-5.9,9.15-8.96l0.01-0.01
				c0.21-0.21,0.55-0.22,0.76,0C418.12,335.44,418.12,335.78,417.92,335.99z"/>
		</g>
		<path class="st5" d="M284.11,199.06c0,0,55.4,3.11,92.28-8.73c0,0-24.52-1.72-24.52,56.09c0,44.19,6.42,128.54,0.81,144.56
			c-5.6,16.01-26.56,37.54-56.59,19.04C266.05,391.51,284.11,199.06,284.11,199.06z"/>
		<linearGradient id="SVGID_4_" gradientUnits="userSpaceOnUse" x1="334.7221" y1="174.4662" x2="223.116" y2="-57.5242">
			<stop  offset="0" style="stop-color:#4042E2"/>
			<stop  offset="1" style="stop-color:#4F52FF"/>
		</linearGradient>
		<path class="st6" d="M269.38,112.41c0,0,61.12,6.8,69-3.78c0,0-6.26-19.04-24.86-17.77S269.38,112.41,269.38,112.41z"/>
		<path class="st4" d="M70.59,133.83c5.33,61.17,16.53,190.55,21.4,253.58c1.09,14.05,12.11,25.15,25.89,26.05
			c49.06,3.22,159.48,9.46,201.86,3.65h0c-9.71-4.89-15.82-15.01-15.73-26.07l2.25-282.82c0.08-9.99,9.83-17.17,18.99-13.67
			c5.77,2.21,10.15,6.92,13.14,14.07c-4-11.91-10.29-20.62-24.86-17.77c0,0-142.52,1.46-211.68,5.83
			C83.04,97.88,68.92,114.68,70.59,133.83z"/>
		<defs>
			<filter id="Adobe_OpacityMaskFilter" filterUnits="userSpaceOnUse" x="76.03" y="97.26" width="230.32" height="317.98">
				<feFlood  style="flood-color:white;flood-opacity:1" result="back"/>
				<feBlend  in="SourceGraphic" in2="back" mode="normal"/>
			</filter>
		</defs>
		<mask maskUnits="userSpaceOnUse" x="76.03" y="97.26" width="230.32" height="317.98" id="SVGID_5_">
			<g class="st7">
				<defs>
					<filter id="Adobe_OpacityMaskFilter_1_" filterUnits="userSpaceOnUse" x="76.03" y="97.26" width="230.32" height="317.98">
						<feFlood  style="flood-color:white;flood-opacity:1" result="back"/>
						<feBlend  in="SourceGraphic" in2="back" mode="normal"/>
					</filter>
				</defs>
				<mask maskUnits="userSpaceOnUse" x="76.03" y="97.26" width="230.32" height="317.98" id="SVGID_5_">
					<g class="st8">
					</g>
				</mask>
				<linearGradient id="SVGID_6_" gradientUnits="userSpaceOnUse" x1="278.9634" y1="157.968" x2="-20.1354" y2="540.7227">
					<stop  offset="0" style="stop-color:#FFFFFF"/>
					<stop  offset="1" style="stop-color:#000000"/>
				</linearGradient>
				<path class="st9" d="M105.84,104.79l191.51-7.53c-7.9,59.72-4.57,181.32-1.55,301.17c0.18,7.1,4.26,13.5,10.55,16.54l0,0
					c0,0-127.74,1.5-182.62-2.47c-12.92-0.94-23.47-10.92-25.39-24.01c-7.53-51.35-25.56-183.99-21.81-254.22
					C77.4,118.18,90.08,105.41,105.84,104.79z"/>
			</g>
		</mask>
		<linearGradient id="SVGID_7_" gradientUnits="userSpaceOnUse" x1="278.9634" y1="157.968" x2="-20.1354" y2="540.7227">
			<stop  offset="0" style="stop-color:#FFFFFF"/>
			<stop  offset="1" style="stop-color:#FFFFFF"/>
		</linearGradient>
		<path class="st10" d="M105.84,104.79l191.51-7.53c-7.9,59.72-4.57,181.32-1.55,301.17c0.18,7.1,4.26,13.5,10.55,16.54l0,0
			c0,0-127.74,1.5-182.62-2.47c-12.92-0.94-23.47-10.92-25.39-24.01c-7.53-51.35-25.56-183.99-21.81-254.22
			C77.4,118.18,90.08,105.41,105.84,104.79z"/>
		<g>
			<linearGradient id="SVGID_8_" gradientUnits="userSpaceOnUse" x1="103.2644" y1="207.1492" x2="133.8809" y2="207.1492">
				<stop  offset="0" style="stop-color:#DAE3FE"/>
				<stop  offset="1" style="stop-color:#E9EFFD"/>
			</linearGradient>
			<path class="st11" d="M103.31,197.41l2.24,21.91c0.41,4.02,3.65,7.11,7.6,7.27l12.49,0.49c4.5,0.18,8.25-3.5,8.25-8.11v-23.63
				c0-4.74-3.97-8.48-8.6-8.09l-14.72,1.24C106.12,188.86,102.85,192.88,103.31,197.41z"/>
			<linearGradient id="SVGID_9_" gradientUnits="userSpaceOnUse" x1="142.8693" y1="193.5606" x2="272.6018" y2="193.5606">
				<stop  offset="0" style="stop-color:#DAE3FE"/>
				<stop  offset="1" style="stop-color:#E9EFFD"/>
			</linearGradient>
			<path class="st12" d="M147.23,190.66c20.79-0.66,100.58-3.31,120.73-3.98c2.54-0.08,4.64,2,4.64,4.59l0,0
				c0,2.47-1.91,4.5-4.33,4.59l-120.65,4.57c-2.32,0.09-4.33-1.65-4.63-4l-0.08-0.6C142.57,193.15,144.57,190.74,147.23,190.66z"/>
			<linearGradient id="SVGID_10_" gradientUnits="userSpaceOnUse" x1="145.2476" y1="214.8284" x2="232.3274" y2="214.8284">
				<stop  offset="0" style="stop-color:#DAE3FE"/>
				<stop  offset="1" style="stop-color:#E9EFFD"/>
			</linearGradient>
			<path class="st13" d="M145.92,219.54L145.92,219.54c0.35,0.6,1,0.97,1.69,0.95l82.85-1.84c1.04-0.02,1.87-0.89,1.87-1.95v-5.58
				c0-1.11-0.9-1.99-1.99-1.95l-80.54,3.08C146.22,212.38,144.08,216.39,145.92,219.54z"/>
		</g>
		<g>
			<linearGradient id="SVGID_11_" gradientUnits="userSpaceOnUse" x1="103.2644" y1="267.9461" x2="133.8809" y2="267.9461">
				<stop  offset="0" style="stop-color:#DAE3FE"/>
				<stop  offset="1" style="stop-color:#E9EFFD"/>
			</linearGradient>
			<path class="st14" d="M103.31,258.21l2.24,21.91c0.41,4.02,3.65,7.11,7.6,7.27l12.49,0.49c4.5,0.18,8.25-3.5,8.25-8.11v-23.63
				c0-4.74-3.97-8.48-8.6-8.09l-14.72,1.24C106.12,249.65,102.85,253.68,103.31,258.21z"/>
			<linearGradient id="SVGID_12_" gradientUnits="userSpaceOnUse" x1="142.8693" y1="254.3576" x2="272.6018" y2="254.3576">
				<stop  offset="0" style="stop-color:#DAE3FE"/>
				<stop  offset="1" style="stop-color:#E9EFFD"/>
			</linearGradient>
			<path class="st15" d="M147.23,251.46c20.79-0.66,100.58-3.31,120.73-3.98c2.54-0.08,4.64,2,4.64,4.59v0
				c0,2.47-1.91,4.5-4.33,4.59l-120.65,4.57c-2.32,0.09-4.33-1.65-4.63-4l-0.08-0.6C142.57,253.95,144.57,251.54,147.23,251.46z"/>
			<path class="st16" d="M145.92,280.33L145.92,280.33c0.35,0.6,1,0.97,1.69,0.95l82.85-1.84c1.04-0.02,1.87-0.89,1.87-1.95v-5.58
				c0-1.11-0.9-1.99-1.99-1.95l-80.54,3.08C146.22,273.18,144.08,277.19,145.92,280.33z"/>
		</g>
		<g>
			<linearGradient id="SVGID_13_" gradientUnits="userSpaceOnUse" x1="103.2644" y1="328.743" x2="133.8809" y2="328.743">
				<stop  offset="0" style="stop-color:#DAE3FE"/>
				<stop  offset="1" style="stop-color:#E9EFFD"/>
			</linearGradient>
			<path class="st17" d="M103.31,319l2.24,21.91c0.41,4.02,3.65,7.11,7.6,7.27l12.49,0.49c4.5,0.18,8.25-3.5,8.25-8.11v-23.63
				c0-4.74-3.97-8.48-8.6-8.09l-14.72,1.24C106.12,310.45,102.85,314.48,103.31,319z"/>
			<linearGradient id="SVGID_14_" gradientUnits="userSpaceOnUse" x1="142.8693" y1="315.1545" x2="272.6018" y2="315.1545">
				<stop  offset="0" style="stop-color:#DAE3FE"/>
				<stop  offset="1" style="stop-color:#E9EFFD"/>
			</linearGradient>
			<path class="st18" d="M147.23,312.25c20.79-0.66,100.58-3.31,120.73-3.98c2.54-0.08,4.64,2,4.64,4.59l0,0
				c0,2.47-1.91,4.5-4.33,4.59l-120.65,4.57c-2.32,0.09-4.33-1.65-4.63-4l-0.08-0.6C142.57,314.74,144.57,312.34,147.23,312.25z"/>
			<linearGradient id="SVGID_15_" gradientUnits="userSpaceOnUse" x1="145.2476" y1="336.4222" x2="232.3274" y2="336.4222">
				<stop  offset="0" style="stop-color:#DAE3FE"/>
				<stop  offset="1" style="stop-color:#E9EFFD"/>
			</linearGradient>
			<path class="st19" d="M145.92,341.13L145.92,341.13c0.35,0.6,1,0.97,1.69,0.95l82.85-1.84c1.04-0.02,1.87-0.89,1.87-1.95v-5.58
				c0-1.11-0.9-1.99-1.99-1.95l-80.54,3.08C146.22,333.97,144.08,337.98,145.92,341.13z"/>
		</g>
		<path class="st20" d="M344.68,325.42c-0.51,0-0.92-0.41-0.93-0.93c0-0.03-0.06-3.03-0.34-13.31c-0.01-0.53,0.39-0.96,0.91-0.98
			c0.5-0.03,0.94,0.4,0.96,0.92c0.28,10.29,0.34,13.3,0.34,13.33c0.01,0.53-0.4,0.96-0.91,0.97
			C344.69,325.42,344.68,325.42,344.68,325.42z"/>
		<path class="st20" d="M344,300.33c-0.5,0-0.92-0.41-0.93-0.92c-0.2-6.69-0.51-14.09-0.84-21.92c-0.45-10.58-0.91-21.52-1.15-32.06
			c-0.64-27.82,3.85-38.5,7.73-42.56c2.11-2.21,3.88-2.27,4.07-2.27c0.51,0,0.93,0.43,0.93,0.95c0,0.52-0.41,0.94-0.91,0.95
			c-0.21,0.02-10.92,1.22-9.96,42.88c0.24,10.52,0.7,21.45,1.15,32.03c0.33,7.84,0.64,15.24,0.84,21.94
			c0.02,0.53-0.39,0.96-0.9,0.98C344.02,300.33,344.01,300.33,344,300.33z"/>
		<linearGradient id="SVGID_16_" gradientUnits="userSpaceOnUse" x1="248.1771" y1="315.5669" x2="206.5825" y2="422.061">
			<stop  offset="0" style="stop-color:#09005D"/>
			<stop  offset="1" style="stop-color:#1A0F91"/>
		</linearGradient>
		<path class="st21" d="M208.89,402.92c-0.95,0-1.89-0.46-2.89-1.39c-3.67-3.44-4.62-8.74-4.88-13.77
			c-1.69,1.94-3.43,3.82-5.14,5.69l-0.95-0.91c2.01-2.19,4.05-4.41,6.02-6.7c-0.16-6.9,0.15-13.87,0.93-20.72
			c0.48-4.2,1.16-8.65,2.95-12.71c0.57-1.29,1.51-3.15,3.14-4.31c1.69-1.21,3.91-1.34,5.4-0.32c1.67,1.15,2.12,3.32,2.31,4.85
			c1.14,9.02-2.31,17.29-5.4,22.63c-2.3,3.97-5.07,7.6-8.01,11.06c0.15,5.15,0.85,10.8,4.51,14.24c0.77,0.72,1.44,1.07,2.07,1.04
			c1.03-0.04,1.87-1.06,2.55-2.06c3.1-4.53,5.5-9.44,7.19-14.65c0.2-1.57,0.63-3.1,1.28-4.54l1.22,0.44
			c-0.35,1.49-0.76,2.95-1.23,4.4c-0.17,1.47-0.12,2.98,0.17,4.44c0.15,0.78,0.79,3.33,2.64,3.69c1.38,0.27,2.82-0.8,4.41-3.27
			l6.51-10.11l-0.82,3.62c-0.29,1.28-0.78,4.33,0.97,5.06c0.99,0.42,2.04-0.19,3.26-0.89c1.21-0.7,2.46-1.42,3.88-1.22l0.67,0.09
			l-0.11,0.68c-0.07,0.39-0.59,3.81,1.15,4.2c0.8,0.18,1.46-0.38,2.46-1.33c0.79-0.74,1.6-1.51,2.68-1.78l0.31,1.29
			c-0.74,0.18-1.4,0.81-2.1,1.46c-0.99,0.93-2.11,1.99-3.63,1.65c-1.98-0.45-2.47-2.72-2.25-4.95c-0.78,0.12-1.58,0.57-2.41,1.05
			c-1.32,0.76-2.82,1.62-4.39,0.96c-1.3-0.55-2.01-1.87-2.06-3.75l-3.02,4.68c-1.22,1.89-3.13,4.35-5.74,3.84
			c-1.79-0.35-3.16-2.12-3.67-4.74c-0.07-0.36-0.13-0.73-0.17-1.1c-1.6,4.05-3.64,7.9-6.11,11.52c-0.81,1.19-1.95,2.56-3.57,2.62
			C208.96,402.92,208.92,402.92,208.89,402.92z M211.15,348.4c-0.85,0-1.72,0.33-2.34,0.78c-1.36,0.97-2.19,2.61-2.7,3.76
			c-1.71,3.89-2.38,8.22-2.84,12.32c-0.72,6.31-1.03,12.71-0.95,19.06c2.55-3.07,4.93-6.28,6.93-9.74
			c2.99-5.17,6.32-13.14,5.23-21.79c-0.26-2.03-0.81-3.28-1.75-3.92C212.26,348.54,211.71,348.4,211.15,348.4z"/>
		<path class="st16" d="M265.97,163.29l-152.56,4.62c-5.48,0.17-10.08-4.18-10.35-9.77l-0.56-11.65
			c-0.28-5.76,4.14-10.63,9.79-10.78l153.32-4.14c5.73-0.15,10.43,4.61,10.33,10.46l-0.2,11.17
			C275.63,158.68,271.34,163.12,265.97,163.29z"/>
	</g>
	<g>
		
			<linearGradient id="SVGID_17_" gradientUnits="userSpaceOnUse" x1="-3883.3027" y1="-11907.1084" x2="-3875.8994" y2="-11907.1084" gradientTransform="matrix(-0.9813 0.1926 -0.1926 -0.9813 -5886.1064 -10650.6064)">
			<stop  offset="0" style="stop-color:#FEBBBA"/>
			<stop  offset="1" style="stop-color:#FF928E"/>
		</linearGradient>
		<path class="st22" d="M217.91,286.03c0,0-5.09-3.41-5.79-2.62c-0.25,0.28-0.84,1.23-1.38,2.27c-0.38,0.73-0.27,1.63,0.3,2.23
			l1.31,1.38c1.25,1.32,3.37,1.22,4.47-0.22C217.37,288.34,217.82,287.35,217.91,286.03z"/>
		<g>
			<g>
				
					<linearGradient id="SVGID_18_" gradientUnits="userSpaceOnUse" x1="-1078.3372" y1="278.4494" x2="-1044.6429" y2="278.4494" gradientTransform="matrix(1 0 0 1 1290.1023 0)">
					<stop  offset="0" style="stop-color:#FEBBBA"/>
					<stop  offset="1" style="stop-color:#FF928E"/>
				</linearGradient>
				<path class="st23" d="M223.1,279.56c0,0-1.75-4.69-3.79-4.26c-2.04,0.43-4.27,2.03-4.27,2.03l-3.28,4.53c0,0,9.2,3.7,12.43,1.58
					c0,0,9.4,1.66,21.26-0.33c-1.72-3.7-2.74-7.41-3.34-10.29C236.11,276.29,229.63,278.88,223.1,279.56z"/>
				<linearGradient id="SVGID_19_" gradientUnits="userSpaceOnUse" x1="312.5768" y1="163.5518" x2="291.7361" y2="204.6463">
					<stop  offset="0" style="stop-color:#09005D"/>
					<stop  offset="1" style="stop-color:#1A0F91"/>
				</linearGradient>
				<path class="st24" d="M272.87,245.51c0,0-13.45,17.3-30.75,27.3c0.6,2.88,1.62,6.58,3.34,10.29c8.97-1.5,19.36-5.09,28.17-13.07
					L272.87,245.51z"/>
			</g>
			<linearGradient id="SVGID_20_" gradientUnits="userSpaceOnUse" x1="345.4147" y1="180.2133" x2="324.5053" y2="221.4431">
				<stop  offset="0" style="stop-color:#09005D"/>
				<stop  offset="1" style="stop-color:#1A0F91"/>
			</linearGradient>
			<path class="st25" d="M289.64,322.2c-2.63-12.76-5.26-20.15-14.07-44.34c-2.77-7.61-5.29-15.31-4.07-23.34l1.37-9.01
				c0,0,17.12-5.92,36.09-0.25c0,0,25.89,11.48,8.3,68.21C309.34,322.52,300.07,325.1,289.64,322.2z"/>
			
				<linearGradient id="SVGID_21_" gradientUnits="userSpaceOnUse" x1="-1002.9172" y1="244.0123" x2="-1008.3981" y2="227.5698" gradientTransform="matrix(1 0 0 1 1290.1023 0)">
				<stop  offset="0" style="stop-color:#FEBBBA"/>
				<stop  offset="1" style="stop-color:#FF928E"/>
			</linearGradient>
			<path class="st26" d="M275.78,234.01l4.44,10.89c0.28,0.69,0.89,1.18,1.61,1.3c2.56,0.45,8.75,1.15,12.81-1.58
				c0.48-0.33,0.61-1,0.28-1.48l-8.2-12.02L275.78,234.01z"/>
			<g>
				<linearGradient id="SVGID_22_" gradientUnits="userSpaceOnUse" x1="274.5878" y1="223.8159" x2="293.8939" y2="232.2098">
					<stop  offset="0" style="stop-color:#FEBBBA"/>
					<stop  offset="1" style="stop-color:#FF928E"/>
				</linearGradient>
				<path class="st27" d="M280.37,217.35c-0.19,0.18-7.87,15.58-7.87,15.58l8.71,4.29l9.4-13.5
					C290.62,223.72,283.49,214.34,280.37,217.35z"/>
				
					<linearGradient id="SVGID_23_" gradientUnits="userSpaceOnUse" x1="3426.0293" y1="4500.627" x2="3449.5173" y2="4500.627" gradientTransform="matrix(-0.6854 -0.7281 -0.7281 0.6854 5913.7061 -354.7482)">
					<stop  offset="0" style="stop-color:#09005D"/>
					<stop  offset="1" style="stop-color:#1A0F91"/>
				</linearGradient>
				<path class="st28" d="M286.66,225.34l-4.34,7.39c-0.07,0.11-0.14,0.21-0.24,0.3c-0.52,0.49-2.29,1.92-3.65-0.03
					c-1.17-1.66-2.26-3.17-3.43-3.79c-0.68-0.36-1.53-0.07-1.87,0.63c-0.72,1.45-2.1,4.4-2.97,7.2c-0.22,0.7,0.14,1.45,0.8,1.73
					c1.76,0.73,5.25,2.05,8.34,2.48c0.51,0.07,1.01-0.15,1.31-0.57c1.33-1.86,5.08-7.06,6.36-8.36c1.19-1.21,3.38-0.75,4.37-0.46
					c0.38,0.11,0.77,0.06,1.11-0.15c1-0.62,2.75-2.15,1.15-4.75c-0.4-0.65-0.2-1.51,0.43-1.93c1.12-0.75,2.34-2.16,1.18-4.45
					c-1.17-2.31-3.26-2.52-4.69-2.34c-0.63,0.08-1.27-0.26-1.51-0.86c-0.11-0.27-0.32-0.49-0.72-0.58
					c-0.75-0.15-1.24-0.85-1.09-1.62c0.25-1.31,0.06-3.01-1.99-4.16c-3.76-2.11-7.05,1.33-7.88,4.23c-0.84,2.9,3.36,4.95,6.01,5.29
					c1.94,0.25,3,2.41,3.43,3.54C286.92,224.51,286.88,224.97,286.66,225.34z"/>
				<linearGradient id="SVGID_24_" gradientUnits="userSpaceOnUse" x1="273.3533" y1="226.7154" x2="292.7437" y2="235.146">
					<stop  offset="0" style="stop-color:#FEBBBA"/>
					<stop  offset="1" style="stop-color:#FF928E"/>
				</linearGradient>
				<path class="st29" d="M285.14,234.55c0,0,1.87-4.49,4.01-4.31c2.14,0.18,3.82,2.36,1.17,4.8
					C287.02,238.09,285.14,234.55,285.14,234.55z"/>
			</g>
			<g>
				
					<linearGradient id="SVGID_25_" gradientUnits="userSpaceOnUse" x1="1232.3462" y1="435.8518" x2="1256.4806" y2="435.8518" gradientTransform="matrix(-1 0 0 1 1543.7585 0)">
					<stop  offset="0" style="stop-color:#4042E2"/>
					<stop  offset="1" style="stop-color:#4F52FF"/>
				</linearGradient>
				<path class="st30" d="M287.96,434.66c4.13,0.36,11.31,0.96,16.97,1.21c3.4,0.15,5.36-0.19,6.49-0.65c0,0.13-0.01,0.25-0.01,0.37
					c-0.03,0.61-0.51,1.09-1.11,1.13c-10.69,0.61-19.19,0.21-22.22,0.02c-0.63-0.04-1-0.73-0.68-1.28
					C287.56,435.19,287.75,434.92,287.96,434.66z"/>
				<linearGradient id="SVGID_26_" gradientUnits="userSpaceOnUse" x1="369.7193" y1="413.1532" x2="282.2509" y2="438.0837">
					<stop  offset="0" style="stop-color:#09005D"/>
					<stop  offset="1" style="stop-color:#1A0F91"/>
				</linearGradient>
				<path class="st31" d="M304.93,435.87c-5.66-0.25-12.83-0.85-16.97-1.21c4.06-5.09,16.97-8.53,16.97-8.53h3.64
					c2.51,3.69,2.87,7.2,2.84,9.09C310.28,435.68,308.33,436.02,304.93,435.87z"/>
				
					<linearGradient id="SVGID_27_" gradientUnits="userSpaceOnUse" x1="1234.5743" y1="424.2779" x2="1241.3726" y2="424.2779" gradientTransform="matrix(-1 0 0 1 1543.7585 0)">
					<stop  offset="0" style="stop-color:#FEBBBA"/>
					<stop  offset="1" style="stop-color:#FF928E"/>
				</linearGradient>
				<path class="st32" d="M309.18,420.06l-0.34,6.89c-0.04,0.75-0.58,1.37-1.32,1.48c-0.73,0.11-1.7,0.12-2.74-0.23
					c-0.64-0.22-1.11-0.76-1.23-1.43l-1.18-6.71H309.18z"/>
			</g>
			<g>
				<g>
					
						<linearGradient id="SVGID_28_" gradientUnits="userSpaceOnUse" x1="1184.2322" y1="435.3203" x2="1193.4808" y2="435.3203" gradientTransform="matrix(-1 0 0 1 1543.7585 0)">
						<stop  offset="0" style="stop-color:#4042E2"/>
						<stop  offset="1" style="stop-color:#4F52FF"/>
					</linearGradient>
					<path class="st33" d="M356.51,435.82c1.79-0.26,2.6-1.21,2.94-2.22c0,0.01,0,0.02,0.01,0.03c0.26,1.07-0.35,2.18-1.57,2.71
						c-1.48,0.64-3.09,0.75-4.35,0.7c-1.35-0.06-2.58-0.63-3.26-1.54l-0.01-0.01C351.63,436.17,353.52,436.25,356.51,435.82z"/>
					<linearGradient id="SVGID_29_" gradientUnits="userSpaceOnUse" x1="320.6837" y1="407.8757" x2="375.5981" y2="443.6339">
						<stop  offset="0" style="stop-color:#09005D"/>
						<stop  offset="1" style="stop-color:#1A0F91"/>
					</linearGradient>
					<path class="st34" d="M348.06,420.02h3.01c4.58-0.1,7.45,9.76,8.39,13.58c-0.34,1.02-1.15,1.97-2.94,2.22
						c-2.99,0.43-4.89,0.35-6.24-0.34c-2.47-3.32-3.7-8.19-4.29-11.03C345.32,421.22,348.06,420.02,348.06,420.02z"/>
				</g>
				
					<linearGradient id="SVGID_30_" gradientUnits="userSpaceOnUse" x1="1191.3557" y1="418.4906" x2="1199.4801" y2="418.4906" gradientTransform="matrix(-1 0 0 1 1543.7585 0)">
					<stop  offset="0" style="stop-color:#FEBBBA"/>
					<stop  offset="1" style="stop-color:#FF928E"/>
				</linearGradient>
				<path class="st35" d="M350.68,413.62l1.67,6.78c0.2,0.83-0.18,1.69-0.94,2.08c-0.93,0.49-2.25,1-3.46,0.85
					c-0.57-0.07-1.04-0.48-1.23-1.02l-2.45-7.13L350.68,413.62z"/>
			</g>
			
				<linearGradient id="SVGID_31_" gradientUnits="userSpaceOnUse" x1="-1143.3661" y1="430.166" x2="-1017.6307" y2="256.3309" gradientTransform="matrix(-1 0 0 1 -789.2414 0)">
				<stop  offset="0" style="stop-color:#09005D"/>
				<stop  offset="1" style="stop-color:#1A0F91"/>
			</linearGradient>
			<path class="st36" d="M352.67,415.58c-2.08,1.88-8.83,2.13-8.83,2.13c-24.32-59.62-34.47-76.03-34.47-76.03
				c3.51,22.5,0.76,80.27,0.76,80.27c-4.01,1.81-9.19,0-9.19,0c-0.33-36.84-5.41-76.43-11.96-101.76
				c16.44-0.38,25.38-4.04,28.23-6.34C330.92,336.4,352.67,415.58,352.67,415.58z"/>
			<g>
				
					<linearGradient id="SVGID_32_" gradientUnits="userSpaceOnUse" x1="-1998.6462" y1="988.1185" x2="-1999.4115" y2="917.4639" gradientTransform="matrix(0.9919 -0.127 0.127 0.9919 2180.8313 -826.4324)">
					<stop  offset="0" style="stop-color:#FF928E"/>
					<stop  offset="1" style="stop-color:#FE7062"/>
				</linearGradient>
				<path class="st37" d="M284.85,336.84l3.03,19.21c0.53,3.35,3.57,5.67,6.88,5.26l45.28-5.64c2.22-0.28,3.89-2.16,3.94-4.43
					c0.1-4.96-0.09-13.8-2.13-21.85L284.85,336.84z"/>
				<path class="st20" d="M296.28,360.03c-0.07,0-0.14-0.06-0.15-0.13c-0.01-0.08,0.05-0.16,0.13-0.17l1.18-0.15
					c0.09-0.01,0.16,0.05,0.17,0.13c0.01,0.08-0.05,0.16-0.13,0.17l-1.18,0.15C296.29,360.03,296.28,360.03,296.28,360.03z
					 M293.52,359.98c-0.01,0-0.02,0-0.04,0c-0.39-0.1-0.78-0.24-1.15-0.42c-0.07-0.04-0.11-0.13-0.07-0.2
					c0.04-0.08,0.13-0.11,0.2-0.07c0.35,0.17,0.72,0.3,1.09,0.4c0.08,0.02,0.13,0.1,0.11,0.18
					C293.65,359.93,293.59,359.98,293.52,359.98z M300.22,359.54c-0.07,0-0.14-0.06-0.15-0.13c-0.01-0.08,0.05-0.16,0.13-0.17
					l1.18-0.15c0.08-0.01,0.16,0.05,0.17,0.13c0.01,0.08-0.05,0.16-0.13,0.17l-1.18,0.15C300.23,359.54,300.23,359.54,300.22,359.54
					z M304.16,359.05c-0.07,0-0.14-0.06-0.15-0.13c-0.01-0.08,0.05-0.16,0.13-0.17l1.18-0.15c0.09-0.01,0.16,0.05,0.17,0.13
					c0.01,0.08-0.05,0.16-0.13,0.17l-1.18,0.15C304.18,359.05,304.17,359.05,304.16,359.05z M308.11,358.56
					c-0.07,0-0.14-0.06-0.15-0.13c-0.01-0.08,0.05-0.16,0.13-0.17l1.18-0.15c0.09-0.01,0.16,0.05,0.17,0.13
					c0.01,0.08-0.05,0.16-0.13,0.17l-1.18,0.15C308.12,358.56,308.11,358.56,308.11,358.56z M312.05,358.07
					c-0.07,0-0.14-0.06-0.15-0.13c-0.01-0.08,0.05-0.16,0.13-0.17l1.18-0.15c0.09-0.01,0.16,0.05,0.17,0.13s-0.05,0.16-0.13,0.17
					l-1.18,0.15C312.06,358.07,312.05,358.07,312.05,358.07z M290.25,357.8c-0.04,0-0.09-0.02-0.12-0.06
					c-0.25-0.33-0.46-0.68-0.64-1.06c-0.04-0.08-0.01-0.17,0.07-0.2c0.07-0.04,0.16-0.01,0.2,0.07c0.17,0.36,0.37,0.69,0.61,1.01
					c0.05,0.07,0.04,0.16-0.03,0.21C290.32,357.79,290.29,357.8,290.25,357.8z M315.99,357.58c-0.07,0-0.14-0.06-0.15-0.13
					c-0.01-0.08,0.05-0.16,0.13-0.17l1.18-0.15c0.09-0.01,0.16,0.05,0.17,0.13c0.01,0.08-0.05,0.16-0.13,0.17l-1.18,0.15
					C316,357.58,316,357.58,315.99,357.58z M319.93,357.08c-0.07,0-0.14-0.06-0.15-0.13c-0.01-0.08,0.05-0.16,0.13-0.17l1.18-0.15
					c0.08-0.01,0.16,0.05,0.17,0.13c0.01,0.08-0.05,0.16-0.13,0.17l-1.18,0.15C319.95,357.08,319.94,357.08,319.93,357.08z
					 M323.88,356.59c-0.07,0-0.14-0.06-0.15-0.13c-0.01-0.08,0.05-0.16,0.13-0.17l1.18-0.15c0.09-0.01,0.16,0.05,0.17,0.13
					c0.01,0.08-0.05,0.16-0.13,0.17l-1.18,0.15C323.89,356.59,323.88,356.59,323.88,356.59z M327.82,356.1
					c-0.07,0-0.14-0.06-0.15-0.13c-0.01-0.08,0.05-0.16,0.13-0.17l1.18-0.15c0.09-0.01,0.16,0.05,0.17,0.13
					c0.01,0.08-0.05,0.16-0.13,0.17l-1.18,0.15C327.83,356.1,327.82,356.1,327.82,356.1z M331.76,355.61
					c-0.07,0-0.14-0.06-0.15-0.13c-0.01-0.08,0.05-0.16,0.13-0.17l1.18-0.15c0.09-0.01,0.16,0.05,0.17,0.13
					c0.01,0.08-0.05,0.16-0.13,0.17l-1.18,0.15C331.77,355.61,331.77,355.61,331.76,355.61z M335.7,355.12
					c-0.07,0-0.14-0.06-0.15-0.13c-0.01-0.08,0.05-0.16,0.13-0.17l1.18-0.15c0.09-0.01,0.16,0.05,0.17,0.13
					c0.01,0.08-0.05,0.16-0.13,0.17l-1.18,0.15C335.72,355.12,335.71,355.12,335.7,355.12z M339.63,354.53
					c-0.06,0-0.12-0.04-0.14-0.1c-0.03-0.08,0.01-0.17,0.09-0.19c0.36-0.13,0.71-0.31,1.02-0.53c0.07-0.05,0.16-0.03,0.21,0.04
					c0.05,0.07,0.03,0.16-0.04,0.21c-0.34,0.24-0.71,0.43-1.1,0.57C339.66,354.53,339.64,354.53,339.63,354.53z M288.94,354.03
					c-0.07,0-0.14-0.05-0.15-0.13l-0.19-1.2c-0.01-0.08,0.04-0.16,0.12-0.17c0.08-0.01,0.16,0.04,0.17,0.13l0.19,1.2
					c0.01,0.08-0.04,0.16-0.12,0.17C288.96,354.03,288.95,354.03,288.94,354.03z M342.3,351.74c-0.01,0-0.03,0-0.04-0.01
					c-0.08-0.03-0.12-0.11-0.1-0.19c0.12-0.37,0.18-0.76,0.19-1.15c0-0.08,0.07-0.15,0.15-0.15c0,0,0,0,0,0
					c0.08,0,0.15,0.07,0.15,0.16c-0.01,0.42-0.08,0.84-0.2,1.24C342.43,351.7,342.37,351.74,342.3,351.74z M288.31,350.03
					c-0.07,0-0.14-0.05-0.15-0.13l-0.19-1.2c-0.01-0.08,0.04-0.16,0.12-0.17c0.08-0.02,0.16,0.04,0.17,0.13l0.19,1.2
					c0.01,0.08-0.04,0.16-0.12,0.17C288.33,350.03,288.32,350.03,288.31,350.03z M342.51,347.7c-0.08,0-0.15-0.07-0.15-0.15
					c0-0.39-0.01-0.8-0.02-1.22c0-0.08,0.06-0.15,0.15-0.16c0.09-0.01,0.15,0.07,0.15,0.15c0.01,0.42,0.01,0.83,0.02,1.22
					C342.66,347.63,342.6,347.7,342.51,347.7C342.52,347.7,342.52,347.7,342.51,347.7z M287.68,346.02c-0.07,0-0.14-0.05-0.15-0.13
					l-0.19-1.2c-0.01-0.08,0.04-0.16,0.12-0.17c0.08-0.01,0.16,0.04,0.17,0.13l0.19,1.2c0.01,0.08-0.04,0.16-0.12,0.17
					C287.7,346.02,287.69,346.02,287.68,346.02z M342.4,343.65c-0.08,0-0.14-0.06-0.15-0.14c-0.02-0.4-0.04-0.8-0.07-1.21
					c-0.01-0.08,0.06-0.16,0.14-0.16c0.1,0.01,0.15,0.06,0.16,0.14c0.03,0.41,0.05,0.82,0.07,1.22
					C342.55,343.57,342.49,343.64,342.4,343.65C342.4,343.65,342.4,343.65,342.4,343.65z M287.05,342.02
					c-0.07,0-0.14-0.05-0.15-0.13l-0.19-1.2c-0.01-0.08,0.04-0.16,0.12-0.17c0.08-0.01,0.16,0.04,0.17,0.13l0.19,1.2
					c0.01,0.08-0.04,0.16-0.12,0.17C287.07,342.02,287.06,342.02,287.05,342.02z M342.11,339.6c-0.08,0-0.14-0.06-0.15-0.14
					c-0.04-0.4-0.08-0.8-0.12-1.21c-0.01-0.08,0.05-0.16,0.13-0.17c0.08-0.01,0.15,0.05,0.16,0.13c0.05,0.41,0.09,0.81,0.12,1.21
					c0.01,0.08-0.05,0.16-0.13,0.17C342.12,339.6,342.11,339.6,342.11,339.6z M286.42,338.02c-0.07,0-0.14-0.05-0.15-0.13
					l-0.21-1.36l1.09-0.14c0.08-0.01,0.16,0.05,0.17,0.13c0.01,0.08-0.05,0.16-0.13,0.17l-0.79,0.1l0.16,1.05
					c0.01,0.08-0.04,0.16-0.12,0.17C286.44,338.01,286.43,338.02,286.42,338.02z M289.93,336.33c-0.07,0-0.14-0.06-0.15-0.13
					c-0.01-0.08,0.05-0.16,0.13-0.17l1.18-0.15c0.09-0.01,0.16,0.05,0.17,0.13c0.01,0.08-0.05,0.16-0.13,0.17l-1.18,0.15
					C289.94,336.33,289.94,336.33,289.93,336.33z M293.87,335.82c-0.07,0-0.14-0.06-0.15-0.13c-0.01-0.08,0.05-0.16,0.13-0.17
					l1.18-0.15c0.09-0.01,0.16,0.05,0.17,0.13c0.01,0.08-0.05,0.16-0.13,0.17l-1.18,0.15C293.88,335.82,293.88,335.82,293.87,335.82
					z M341.62,335.58c-0.07,0-0.14-0.05-0.15-0.13c-0.06-0.4-0.12-0.8-0.19-1.2c-0.01-0.08,0.04-0.16,0.12-0.18
					c0.09-0.01,0.16,0.04,0.17,0.12c0.07,0.4,0.13,0.8,0.19,1.2c0.01,0.08-0.04,0.16-0.12,0.17
					C341.64,335.58,341.63,335.58,341.62,335.58z M297.81,335.3c-0.07,0-0.14-0.06-0.15-0.13c-0.01-0.08,0.05-0.16,0.13-0.17
					l1.18-0.15c0.09-0.01,0.16,0.05,0.17,0.13c0.01,0.08-0.05,0.16-0.13,0.17l-1.18,0.15C297.82,335.3,297.82,335.3,297.81,335.3z
					 M301.75,334.79c-0.07,0-0.14-0.06-0.15-0.13c-0.01-0.08,0.05-0.16,0.13-0.17l1.18-0.15c0.09-0.01,0.16,0.05,0.17,0.13
					c0.01,0.08-0.05,0.16-0.13,0.17l-1.18,0.15C301.76,334.79,301.75,334.79,301.75,334.79z M305.69,334.27
					c-0.07,0-0.14-0.06-0.15-0.13c-0.01-0.08,0.05-0.16,0.13-0.17l1.18-0.15c0.09-0.01,0.16,0.05,0.17,0.13
					c0.01,0.08-0.05,0.16-0.13,0.17l-1.18,0.15C305.7,334.27,305.69,334.27,305.69,334.27z M309.63,333.76
					c-0.07,0-0.14-0.06-0.15-0.13c-0.01-0.08,0.05-0.16,0.13-0.17l1.18-0.15c0.09-0.01,0.16,0.05,0.17,0.13
					c0.01,0.08-0.05,0.16-0.13,0.17l-1.18,0.15C309.64,333.76,309.63,333.76,309.63,333.76z M313.57,333.24
					c-0.07,0-0.14-0.06-0.15-0.13c-0.01-0.08,0.05-0.16,0.13-0.17l1.18-0.15c0.08-0.01,0.16,0.05,0.17,0.13
					c0.01,0.08-0.05,0.16-0.13,0.17l-1.18,0.15C313.58,333.24,313.57,333.24,313.57,333.24z M317.51,332.73
					c-0.07,0-0.14-0.06-0.15-0.13c-0.01-0.08,0.05-0.16,0.13-0.17l1.18-0.15c0.09-0.01,0.16,0.05,0.17,0.13
					c0.01,0.08-0.05,0.16-0.13,0.17l-1.18,0.15C317.52,332.73,317.51,332.73,317.51,332.73z M321.45,332.21
					c-0.07,0-0.14-0.06-0.15-0.13c-0.01-0.08,0.05-0.16,0.13-0.17l1.18-0.15c0.09-0.01,0.16,0.05,0.17,0.13
					c0.01,0.08-0.05,0.16-0.13,0.17l-1.18,0.15C321.46,332.21,321.45,332.21,321.45,332.21z M325.39,331.7
					c-0.07,0-0.14-0.06-0.15-0.13c-0.01-0.08,0.05-0.16,0.13-0.17l1.18-0.15c0.09-0.01,0.16,0.05,0.17,0.13
					c0.01,0.08-0.05,0.16-0.13,0.17l-1.18,0.15C325.4,331.7,325.39,331.7,325.39,331.7z M340.9,331.59c-0.07,0-0.13-0.05-0.15-0.12
					c-0.08-0.4-0.17-0.79-0.27-1.18c-0.02-0.08,0.03-0.16,0.11-0.18c0.08-0.02,0.16,0.03,0.18,0.11c0.09,0.4,0.18,0.79,0.27,1.19
					c0.02,0.08-0.03,0.16-0.11,0.18C340.92,331.59,340.91,331.59,340.9,331.59z M329.33,331.18c-0.07,0-0.14-0.06-0.15-0.13
					c-0.01-0.08,0.05-0.16,0.13-0.17l1.18-0.15c0.09-0.01,0.16,0.05,0.17,0.13c0.01,0.08-0.05,0.16-0.13,0.17l-1.18,0.15
					C329.34,331.18,329.33,331.18,329.33,331.18z M333.27,330.67c-0.07,0-0.14-0.06-0.15-0.13c-0.01-0.08,0.05-0.16,0.13-0.17
					l1.18-0.15c0.09-0.01,0.16,0.05,0.17,0.13c0.01,0.08-0.05,0.16-0.13,0.17l-1.18,0.15C333.28,330.67,333.27,330.67,333.27,330.67
					z M337.2,330.15c-0.07,0-0.14-0.06-0.15-0.13c-0.01-0.08,0.05-0.16,0.13-0.17l1.18-0.15c0.09-0.01,0.16,0.05,0.17,0.13
					c0.01,0.08-0.05,0.16-0.13,0.17l-1.18,0.15C337.22,330.15,337.21,330.15,337.2,330.15z"/>
				
					<linearGradient id="SVGID_33_" gradientUnits="userSpaceOnUse" x1="-2010.8652" y1="902.7626" x2="-2011.2053" y2="894.5161" gradientTransform="matrix(0.9919 -0.127 0.127 0.9919 2180.8313 -826.4324)">
					<stop  offset="0" style="stop-color:#E1473D"/>
					<stop  offset="1" style="stop-color:#E9605A"/>
				</linearGradient>
				<path class="st38" d="M296.35,321.1l-0.05-1.51c0.11-0.38,0.4-0.67,0.77-0.78c1.38-0.41,4.83-1.27,6.67-0.21l0.47,1.7
					L296.35,321.1z"/>
				
					<linearGradient id="SVGID_34_" gradientUnits="userSpaceOnUse" x1="-2011.2837" y1="890.3506" x2="-2009.5756" y2="914.0942" gradientTransform="matrix(0.9919 -0.127 0.127 0.9919 2180.8313 -826.4324)">
					<stop  offset="0" style="stop-color:#E1473D"/>
					<stop  offset="1" style="stop-color:#E9605A"/>
				</linearGradient>
				<path class="st39" d="M300.57,319.1c-0.31,0.12-0.64,0.17-0.98,0.13c-0.41-0.05-0.73-0.37-0.78-0.78l-0.58-4.66l2.32-0.3
					l0.58,4.66C301.19,318.55,300.96,318.95,300.57,319.1z"/>
				
					<linearGradient id="SVGID_35_" gradientUnits="userSpaceOnUse" x1="-1988.223" y1="901.7562" x2="-1988.5631" y2="893.5098" gradientTransform="matrix(0.9919 -0.127 0.127 0.9919 2180.8313 -826.4324)">
					<stop  offset="0" style="stop-color:#E1473D"/>
					<stop  offset="1" style="stop-color:#E9605A"/>
				</linearGradient>
				<path class="st40" d="M318.84,318.17l-0.05-1.51c0.11-0.38,0.4-0.67,0.77-0.78c1.38-0.41,4.83-1.27,6.67-0.21l0.47,1.7
					L318.84,318.17z"/>
				
					<linearGradient id="SVGID_36_" gradientUnits="userSpaceOnUse" x1="-1988.7031" y1="888.6351" x2="-1986.9949" y2="912.3803" gradientTransform="matrix(0.9919 -0.127 0.127 0.9919 2180.8313 -826.4324)">
					<stop  offset="0" style="stop-color:#E1473D"/>
					<stop  offset="1" style="stop-color:#E9605A"/>
				</linearGradient>
				<path class="st41" d="M323.06,316.16c-0.31,0.12-0.64,0.17-0.98,0.13c-0.41-0.05-0.73-0.37-0.78-0.78l-0.65-5.15l2.32-0.3
					l0.64,5.15C323.68,315.61,323.45,316.01,323.06,316.16z"/>
				
					<linearGradient id="SVGID_37_" gradientUnits="userSpaceOnUse" x1="-1997.9513" y1="877.0832" x2="-2000.2594" y2="894.0099" gradientTransform="matrix(0.9919 -0.127 0.127 0.9919 2180.8313 -826.4324)">
					<stop  offset="0" style="stop-color:#E1473D"/>
					<stop  offset="1" style="stop-color:#E9605A"/>
				</linearGradient>
				<path class="st42" d="M298.14,314.95l24.87-4.11c0.57-0.09,1-0.58,1.02-1.16c0.04-0.82,0.01-2.03-0.33-3.24
					c-0.38-1.38-1.7-2.27-3.1-2.12c-4.67,0.5-16.53,2.05-22.74,5.54c-0.66,0.37-1.09,1.04-1.18,1.8c-0.08,0.72-0.07,1.67,0.26,2.6
					C297.13,314.75,297.63,315.04,298.14,314.95z"/>
				<linearGradient id="SVGID_38_" gradientUnits="userSpaceOnUse" x1="300.7926" y1="309.1623" x2="292.9299" y2="264.5083">
					<stop  offset="0" style="stop-color:#FEBBBA"/>
					<stop  offset="1" style="stop-color:#FF928E"/>
				</linearGradient>
				<path class="st43" d="M297.53,313.98c-0.18,0-0.34-0.13-0.39-0.31c-0.01-0.04-0.23-1.04-0.1-2.05c0.11-0.83,0.65-1.55,1.4-1.89
					c1.35-0.6,3.95-1.67,6.14-2.02c0.22-0.03,0.42,0.12,0.45,0.34c0.03,0.22-0.11,0.43-0.33,0.46c-2.19,0.35-4.89,1.49-5.95,1.96
					c-0.5,0.22-0.86,0.7-0.93,1.25c-0.12,0.86,0.08,1.74,0.08,1.75c0.05,0.22-0.08,0.44-0.3,0.49
					C297.59,313.97,297.56,313.98,297.53,313.98z"/>
				
					<linearGradient id="SVGID_39_" gradientUnits="userSpaceOnUse" x1="-1997.3132" y1="890.2479" x2="-2005.7839" y2="969.308" gradientTransform="matrix(0.9919 -0.127 0.127 0.9919 2180.8313 -826.4324)">
					<stop  offset="0" style="stop-color:#FF928E"/>
					<stop  offset="1" style="stop-color:#FE7062"/>
				</linearGradient>
				<path class="st44" d="M284.69,322.04c8.05-1.16,42.91-6.09,53.2-6.17c0.89-0.01,1.68,0.55,1.98,1.4
					c0.95,2.69,2.96,8.95,3.61,15.34c0.09,0.87-0.44,1.68-1.26,1.95l-22.58,7.49l-8.22,1.07l-25.28-1.78
					c-0.89-0.06-1.63-0.73-1.78-1.62c-0.56-3.18-1.75-10.67-1.51-15.62C282.89,323.06,283.67,322.19,284.69,322.04z"/>
				<path class="st20" d="M311.38,341.22l-1.22-0.08c-0.08-0.01-0.14-0.08-0.14-0.16c0.01-0.08,0.08-0.14,0.16-0.14l1.19,0.08
					l0.64-0.09c0.09-0.01,0.16,0.05,0.17,0.13c0.01,0.08-0.05,0.16-0.13,0.17L311.38,341.22z M307.4,340.94c0,0-0.01,0-0.01,0
					l-1.19-0.08c-0.08-0.01-0.14-0.08-0.14-0.16c0.01-0.08,0.08-0.14,0.16-0.14l1.19,0.08c0.08,0.01,0.14,0.08,0.14,0.16
					C307.54,340.88,307.48,340.94,307.4,340.94z M314.79,340.77c-0.07,0-0.14-0.06-0.15-0.13c-0.01-0.08,0.05-0.16,0.13-0.17
					l1.18-0.15c0.09-0.01,0.16,0.05,0.17,0.13c0.01,0.08-0.05,0.16-0.13,0.17l-1.18,0.15C314.8,340.77,314.79,340.77,314.79,340.77z
					 M303.44,340.66c0,0-0.01,0-0.01,0l-1.19-0.08c-0.08-0.01-0.14-0.08-0.14-0.16c0.01-0.08,0.08-0.14,0.16-0.14l1.19,0.08
					c0.08,0.01,0.14,0.08,0.14,0.16C303.58,340.6,303.52,340.66,303.44,340.66z M299.48,340.38c0,0-0.01,0-0.01,0l-1.19-0.08
					c-0.08-0.01-0.14-0.08-0.14-0.16c0.01-0.08,0.08-0.14,0.16-0.14l1.19,0.08c0.08,0.01,0.14,0.08,0.14,0.16
					C299.62,340.32,299.55,340.38,299.48,340.38z M318.73,340.26c-0.07,0-0.14-0.06-0.15-0.13c-0.01-0.08,0.05-0.16,0.13-0.17
					l0.47-0.06l0.65-0.22c0.08-0.02,0.16,0.02,0.19,0.1c0.03,0.08-0.02,0.17-0.1,0.19l-0.68,0.23l-0.5,0.07
					C318.74,340.26,318.73,340.26,318.73,340.26z M295.51,340.1c0,0-0.01,0-0.01,0l-1.19-0.08c-0.08-0.01-0.14-0.08-0.14-0.16
					c0.01-0.08,0.08-0.13,0.16-0.14l1.19,0.08c0.08,0.01,0.14,0.08,0.14,0.16C295.66,340.04,295.59,340.1,295.51,340.1z
					 M291.55,339.83c0,0-0.01,0-0.01,0l-1.19-0.08c-0.08-0.01-0.14-0.08-0.14-0.16c0.01-0.08,0.08-0.14,0.16-0.14l1.19,0.08
					c0.08,0.01,0.14,0.08,0.14,0.16C291.7,339.76,291.63,339.83,291.55,339.83z M287.59,339.55c0,0-0.01,0-0.01,0l-1.19-0.08
					c-0.08-0.01-0.14-0.08-0.14-0.16c0.01-0.08,0.09-0.14,0.16-0.14l1.19,0.08c0.08,0.01,0.14,0.08,0.14,0.16
					C287.73,339.48,287.67,339.55,287.59,339.55z M322.52,339.09c-0.06,0-0.12-0.04-0.14-0.11c-0.03-0.08,0.02-0.17,0.1-0.19
					l1.13-0.38c0.08-0.02,0.16,0.02,0.19,0.1c0.03,0.08-0.02,0.17-0.1,0.19l-1.13,0.38C322.55,339.09,322.54,339.09,322.52,339.09z
					 M326.3,337.84c-0.06,0-0.12-0.04-0.14-0.11c-0.03-0.08,0.02-0.17,0.1-0.19l1.13-0.38c0.08-0.02,0.16,0.02,0.19,0.1
					c0.03,0.08-0.02,0.17-0.1,0.19l-1.13,0.38C326.33,337.84,326.32,337.84,326.3,337.84z M285.87,336.73
					c-0.07,0-0.14-0.05-0.15-0.13c-0.06-0.38-0.12-0.79-0.18-1.21c-0.01-0.08,0.04-0.16,0.13-0.17c0.08-0.01,0.16,0.04,0.17,0.13
					c0.06,0.42,0.12,0.82,0.18,1.2c0.01,0.08-0.04,0.16-0.12,0.17C285.89,336.73,285.88,336.73,285.87,336.73z M330.08,336.59
					c-0.06,0-0.12-0.04-0.14-0.11c-0.03-0.08,0.02-0.17,0.1-0.19l1.13-0.38c0.08-0.02,0.16,0.02,0.19,0.1
					c0.03,0.08-0.02,0.17-0.1,0.19l-1.13,0.38C330.11,336.58,330.09,336.59,330.08,336.59z M333.86,335.33
					c-0.06,0-0.12-0.04-0.14-0.11c-0.03-0.08,0.02-0.17,0.1-0.19l1.13-0.38c0.08-0.02,0.16,0.02,0.19,0.1
					c0.03,0.08-0.02,0.17-0.1,0.19l-1.13,0.38C333.89,335.33,333.87,335.33,333.86,335.33z M337.63,334.08
					c-0.06,0-0.12-0.04-0.14-0.11c-0.03-0.08,0.02-0.17,0.1-0.19l1.13-0.38c0.08-0.02,0.16,0.02,0.19,0.1
					c0.03,0.08-0.02,0.17-0.1,0.19l-1.13,0.38C337.66,334.08,337.65,334.08,337.63,334.08z M341.41,332.83
					c-0.06,0-0.12-0.04-0.14-0.11c-0.02-0.06,0-0.12,0.04-0.16c-0.04-0.35-0.08-0.69-0.13-1.04c-0.01-0.08,0.05-0.16,0.13-0.17
					c0.08-0.01,0.16,0.05,0.17,0.13c0.05,0.38,0.1,0.77,0.14,1.15l0.01,0.12l-0.17,0.06C341.44,332.82,341.43,332.83,341.41,332.83z
					 M285.32,332.71c-0.07,0-0.14-0.06-0.15-0.13c-0.05-0.4-0.09-0.8-0.14-1.21c-0.01-0.08,0.05-0.16,0.13-0.17
					c0.09,0,0.16,0.05,0.16,0.13c0.04,0.41,0.09,0.81,0.14,1.21c0.01,0.08-0.05,0.16-0.13,0.17
					C285.33,332.71,285.33,332.71,285.32,332.71z M340.88,328.86c-0.07,0-0.13-0.05-0.15-0.12c-0.07-0.4-0.15-0.8-0.23-1.19
					c-0.02-0.08,0.03-0.16,0.11-0.18c0.08-0.02,0.16,0.04,0.18,0.12c0.08,0.39,0.16,0.79,0.24,1.2c0.02,0.08-0.04,0.16-0.12,0.18
					C340.9,328.86,340.89,328.86,340.88,328.86z M284.93,328.68c-0.08,0-0.14-0.06-0.15-0.14c-0.03-0.41-0.05-0.82-0.07-1.22
					c0-0.08,0.06-0.16,0.14-0.16c0.09-0.02,0.15,0.06,0.16,0.14c0.02,0.4,0.04,0.8,0.07,1.21c0.01,0.08-0.06,0.16-0.14,0.16
					C284.94,328.68,284.94,328.68,284.93,328.68z M340.01,324.9c-0.07,0-0.13-0.05-0.14-0.11c-0.1-0.4-0.2-0.79-0.3-1.17
					c-0.02-0.08,0.02-0.16,0.1-0.19c0.08-0.02,0.16,0.03,0.18,0.11c0.1,0.38,0.2,0.78,0.31,1.18c0.02,0.08-0.03,0.16-0.11,0.19
					C340.03,324.9,340.02,324.9,340.01,324.9z M284.84,324.62C284.84,324.62,284.84,324.62,284.84,324.62
					c-0.09,0-0.15-0.07-0.15-0.16l0.01-0.26c0.01-0.14,0.11-0.26,0.25-0.28l0.73-0.11c0.08-0.02,0.16,0.05,0.17,0.13
					c0.01,0.08-0.05,0.16-0.13,0.17l-0.73,0.11l0,0.25C284.98,324.56,284.92,324.62,284.84,324.62z M288.46,323.73
					c-0.07,0-0.14-0.06-0.15-0.13c-0.01-0.08,0.05-0.16,0.13-0.17l1.18-0.17c0.09-0.01,0.16,0.05,0.17,0.13
					c0.01,0.08-0.05,0.16-0.13,0.17l-1.18,0.17C288.47,323.73,288.47,323.73,288.46,323.73z M292.4,323.17
					c-0.07,0-0.14-0.06-0.15-0.13c-0.01-0.08,0.05-0.16,0.13-0.17l1.18-0.16c0.08-0.01,0.16,0.05,0.17,0.13
					c0.01,0.08-0.05,0.16-0.13,0.17l-1.18,0.16C292.41,323.17,292.4,323.17,292.4,323.17z M296.33,322.63
					c-0.07,0-0.14-0.06-0.15-0.13c-0.01-0.08,0.05-0.16,0.13-0.17l1.18-0.16c0.08-0.01,0.16,0.05,0.17,0.13
					c0.01,0.08-0.05,0.16-0.13,0.17l-1.18,0.16C296.35,322.63,296.34,322.63,296.33,322.63z M300.27,322.1
					c-0.07,0-0.14-0.06-0.15-0.13c-0.01-0.08,0.05-0.16,0.13-0.17l1.18-0.16c0.08-0.01,0.16,0.05,0.17,0.13
					c0.01,0.08-0.05,0.16-0.13,0.17l-1.18,0.16C300.29,322.1,300.28,322.1,300.27,322.1z M304.21,321.57
					c-0.07,0-0.14-0.06-0.15-0.13c-0.01-0.08,0.05-0.16,0.13-0.17l1.18-0.16c0.09-0.01,0.16,0.05,0.17,0.13
					c0.01,0.08-0.05,0.16-0.13,0.17l-1.18,0.16C304.23,321.57,304.22,321.57,304.21,321.57z M308.18,321.06l-0.04-0.3l1.18-0.15
					c0.08-0.01,0.16,0.05,0.17,0.13c0.01,0.08-0.05,0.16-0.13,0.17L308.18,321.06z M338.92,321c-0.06,0-0.12-0.04-0.14-0.11
					c-0.13-0.41-0.25-0.8-0.36-1.16c-0.03-0.08,0.02-0.17,0.09-0.19c0.08-0.03,0.16,0.02,0.19,0.1c0.12,0.36,0.24,0.75,0.37,1.16
					c0.02,0.08-0.02,0.17-0.1,0.19C338.95,320.99,338.94,321,338.92,321z M308.15,320.91L308.15,320.91L308.15,320.91z
					 M312.1,320.56c-0.07,0-0.14-0.06-0.15-0.13c-0.01-0.08,0.05-0.16,0.13-0.17l1.18-0.15c0.08-0.01,0.16,0.05,0.17,0.13
					c0.01,0.08-0.05,0.16-0.13,0.17l-1.18,0.15C312.11,320.56,312.1,320.56,312.1,320.56z M316.04,320.08
					c-0.07,0-0.14-0.06-0.15-0.13c-0.01-0.08,0.05-0.16,0.13-0.17l1.18-0.14c0.09-0.01,0.16,0.05,0.17,0.13
					c0.01,0.08-0.05,0.16-0.13,0.17l-1.18,0.14C316.05,320.08,316.04,320.08,316.04,320.08z M319.98,319.61
					c-0.07,0-0.14-0.06-0.15-0.14c-0.01-0.08,0.05-0.16,0.13-0.17l1.18-0.13c0.08-0.01,0.16,0.05,0.16,0.13
					c0.01,0.08-0.05,0.16-0.13,0.17l-1.18,0.13C320,319.61,319.99,319.61,319.98,319.61z M323.93,319.17
					c-0.08,0-0.14-0.06-0.15-0.14c-0.01-0.08,0.05-0.16,0.13-0.17l1.19-0.13c0.08-0.01,0.15,0.05,0.16,0.14
					c0.01,0.08-0.05,0.16-0.13,0.17l-1.18,0.13C323.94,319.17,323.94,319.17,323.93,319.17z M327.88,318.77
					c-0.08,0-0.14-0.06-0.15-0.14c-0.01-0.08,0.05-0.16,0.13-0.17c0.4-0.04,0.8-0.08,1.19-0.11c0.09-0.01,0.15,0.05,0.16,0.14
					c0.01,0.08-0.05,0.16-0.13,0.17c-0.39,0.04-0.78,0.07-1.19,0.11C327.89,318.77,327.89,318.77,327.88,318.77z M331.84,318.41
					c-0.08,0-0.14-0.06-0.15-0.14c-0.01-0.08,0.05-0.16,0.14-0.16c0.41-0.03,0.81-0.06,1.19-0.09c0.1,0.01,0.15,0.06,0.16,0.14
					c0.01,0.08-0.06,0.16-0.14,0.16c-0.38,0.03-0.78,0.06-1.19,0.09C331.85,318.41,331.85,318.41,331.84,318.41z M335.8,318.14
					c-0.08,0-0.14-0.06-0.15-0.14c0-0.08,0.06-0.16,0.14-0.16c0.43-0.02,0.82-0.04,1.19-0.05c0,0,0,0,0,0
					c0.08,0,0.15,0.07,0.15,0.15c0,0.08-0.06,0.15-0.14,0.16C336.63,318.1,336.24,318.12,335.8,318.14
					C335.81,318.14,335.81,318.14,335.8,318.14z"/>
				
					<linearGradient id="SVGID_40_" gradientUnits="userSpaceOnUse" x1="-1996.7314" y1="900.009" x2="-2000.0671" y2="926.438" gradientTransform="matrix(0.9919 -0.127 0.127 0.9919 2180.8313 -826.4324)">
					<stop  offset="0" style="stop-color:#E1473D"/>
					<stop  offset="1" style="stop-color:#E9605A"/>
				</linearGradient>
				<path class="st45" d="M319.31,345.68l-7.2,0.94c-0.94,0.12-1.83-0.49-2.06-1.43l-1.72-6.97c-0.27-1.11,0.47-2.21,1.58-2.36
					l8.65-1.13c1.09-0.14,2.07,0.7,2.11,1.82l0.27,7.16C320.99,344.7,320.28,345.56,319.31,345.68z"/>
				
					<linearGradient id="SVGID_41_" gradientUnits="userSpaceOnUse" x1="-2003.7808" y1="920.7431" x2="-1994.2792" y2="920.7431" gradientTransform="matrix(0.9919 -0.127 0.127 0.9919 2180.8313 -826.4324)">
					<stop  offset="0" style="stop-color:#FF928E"/>
					<stop  offset="1" style="stop-color:#FE7062"/>
				</linearGradient>
				<path class="st46" d="M318.26,344.5l-5.48,0.72c-0.72,0.09-1.39-0.37-1.57-1.09l-1.31-5.3c-0.21-0.84,0.36-1.69,1.21-1.8
					l6.58-0.86c0.83-0.11,1.58,0.53,1.61,1.38l0.2,5.45C319.54,343.75,319,344.4,318.26,344.5z"/>
			</g>
			<linearGradient id="SVGID_42_" gradientUnits="userSpaceOnUse" x1="320.5807" y1="292.1865" x2="301.8968" y2="328.117">
				<stop  offset="0" style="stop-color:#FEBBBA"/>
				<stop  offset="1" style="stop-color:#FF928E"/>
			</linearGradient>
			<path class="st47" d="M313.98,288.11c1.7,7.17,1.74,14.18,1.49,16.73c-0.1,0.96-0.86,1.71-1.8,1.78
				c-1.07,0.08-2.54,0.18-3.84,0.25c-1.44,0.08-3.03-0.84-4.09-1.62c-0.54-0.4-1.25,0.22-0.94,0.83c0.52,1.05,1.43,1.87,2.34,2.57
				c0.54,0.42,2.35,1.17,2.22,2c-0.04,0.26-0.19,0.49-0.36,0.69c-1,1.23-2.52,1.88-4.02,2.35c-0.19,0.06-0.39,0.12-0.52,0.27
				c-0.04,0.99,2.94,2.09,3.71,2.35c1.15,0.39,2.37,0.56,3.58,0.43c3-0.32,5.76-2.43,7.38-4.98c4.32-6.81,6.55-15.03,7.36-21.32
				C322.46,286.35,316.4,287.38,313.98,288.11z"/>
			<g>
				<linearGradient id="SVGID_43_" gradientUnits="userSpaceOnUse" x1="358.4836" y1="186.5871" x2="337.5057" y2="227.9518">
					<stop  offset="0" style="stop-color:#09005D"/>
					<stop  offset="1" style="stop-color:#1A0F91"/>
				</linearGradient>
				<path class="st48" d="M326.48,291.09c3.2-24.69-15.43-43.68-15.43-43.68l-11.09,13.2c8.42,10.71,12.42,20.53,14.25,28.24
					C316.63,288.13,322.46,286.99,326.48,291.09z"/>
				<linearGradient id="SVGID_44_" gradientUnits="userSpaceOnUse" x1="366.1431" y1="206.8064" x2="245.4195" y2="343.3457">
					<stop  offset="0" style="stop-color:#4042E2"/>
					<stop  offset="1" style="stop-color:#4F52FF"/>
				</linearGradient>
				<path class="st49" d="M313.94,288.73c-0.31,0-0.59-0.21-0.67-0.54c-2.25-9.51-7-18.92-14.11-27.97
					c-0.24-0.3-0.19-0.74,0.11-0.99c0.3-0.24,0.73-0.19,0.97,0.11c7.24,9.22,12.08,18.81,14.38,28.52c0.09,0.38-0.14,0.76-0.51,0.85
					C314.04,288.73,313.99,288.73,313.94,288.73z"/>
			</g>
		</g>
		<g>
			<g>
				
					<linearGradient id="SVGID_45_" gradientUnits="userSpaceOnUse" x1="-1142.1604" y1="429.3689" x2="-1126.3279" y2="429.3689" gradientTransform="matrix(1 0 0 1 1290.1023 0)">
					<stop  offset="0" style="stop-color:#09005D"/>
					<stop  offset="1" style="stop-color:#1A0F91"/>
				</linearGradient>
				<path class="st50" d="M163.77,435.13c0-0.12-0.01-0.24-0.04-0.37c-1.78-7.22-10.63-11.72-10.63-11.72l-3.51,0.28
					c-2.02,6.36-1.76,10.27-1.43,12c0.01,0.05,0.02,0.1,0.04,0.14C151.09,435.74,157.05,435.91,163.77,435.13z"/>
				
					<linearGradient id="SVGID_46_" gradientUnits="userSpaceOnUse" x1="-1102.4915" y1="410.799" x2="-1160.1471" y2="456.0704" gradientTransform="matrix(1 0 0 1 1290.1023 0)">
					<stop  offset="0" style="stop-color:#4042E2"/>
					<stop  offset="1" style="stop-color:#4F52FF"/>
				</linearGradient>
				<path class="st51" d="M148.2,435.47c0.16,0.58,0.58,1.03,1.11,1.15c4.12,0.88,10.66,0.17,13.4-0.19
					c0.61-0.08,1.05-0.65,1.06-1.3C157.05,435.91,151.09,435.74,148.2,435.47z"/>
				
					<linearGradient id="SVGID_47_" gradientUnits="userSpaceOnUse" x1="-1137.7336" y1="410.9718" x2="-1140.8198" y2="437.906" gradientTransform="matrix(1 0 0 1 1290.1023 0)">
					<stop  offset="0" style="stop-color:#A22B25"/>
					<stop  offset="1" style="stop-color:#C0423C"/>
				</linearGradient>
				<path class="st52" d="M148.19,417.99l1.49,7.3c0.11,0.54,0.51,0.94,1,0.98c0.6,0.06,1.45,0.09,2.3-0.04
					c0.77-0.11,1.3-0.91,1.16-1.76l-1.03-6.48H148.19z"/>
				
					<linearGradient id="SVGID_48_" gradientUnits="userSpaceOnUse" x1="-1092.2819" y1="423.8163" x2="-1149.9327" y2="469.0839" gradientTransform="matrix(1 0 0 1 1290.1023 0)">
					<stop  offset="0" style="stop-color:#4042E2"/>
					<stop  offset="1" style="stop-color:#4F52FF"/>
				</linearGradient>
				<path class="st53" d="M178.96,435.38c-3.87-0.11-5.88-0.58-6.91-1.01c0,0.39,0,0.79,0.01,1.21c0.01,0.44,0.33,0.8,0.73,0.79
					l21.27-0.14c0.68,0,1.08-0.81,0.78-1.44C192.05,435.02,184.95,435.55,178.96,435.38z"/>
				
					<linearGradient id="SVGID_49_" gradientUnits="userSpaceOnUse" x1="-1118.0518" y1="429.7798" x2="-1095.2612" y2="429.7798" gradientTransform="matrix(1 0 0 1 1290.1023 0)">
					<stop  offset="0" style="stop-color:#09005D"/>
					<stop  offset="1" style="stop-color:#1A0F91"/>
				</linearGradient>
				<path class="st54" d="M194.84,434.79c-0.03-0.06-0.05-0.11-0.08-0.16c-1.88-2.68-6.66-8.02-16.11-10.33l-4.53-0.15
					c0,0-2.02,3.58-2.06,10.22c1.04,0.43,3.04,0.9,6.91,1.01C184.95,435.55,192.05,435.02,194.84,434.79z"/>
				
					<linearGradient id="SVGID_50_" gradientUnits="userSpaceOnUse" x1="-941.0316" y1="393.8083" x2="-944.1189" y2="420.7516" gradientTransform="matrix(0.998 -0.0629 0.0629 0.998 1090.9532 -38.3988)">
					<stop  offset="0" style="stop-color:#A22B25"/>
					<stop  offset="1" style="stop-color:#C0423C"/>
				</linearGradient>
				<path class="st55" d="M173.07,417.34c0.07,0.34,1.02,5.54,1.38,7.55c0.09,0.48,0.45,0.83,0.89,0.85
					c0.78,0.04,2.03,0.05,3.11-0.25c0.58-0.16,0.97-0.77,0.93-1.44l-0.51-8.22L173.07,417.34z"/>
				<linearGradient id="SVGID_51_" gradientUnits="userSpaceOnUse" x1="151.3043" y1="441.7528" x2="174.1727" y2="274.3964">
					<stop  offset="0" style="stop-color:#4F52FF"/>
					<stop  offset="1" style="stop-color:#4042E2"/>
				</linearGradient>
				<path class="st56" d="M169.63,321.41c0,0,6.24,43.77,10.74,95.86c0.08,0.97-0.67,1.81-1.61,2.02c-1.38,0.3-3.4,0.65-5.07,0.6
					c-0.89-0.03-1.64-0.7-1.79-1.6c-1.53-9.18-12.48-58.47-15.35-69.32c0,0-3.3,46.08-2.24,69.99c0.03,0.59-0.4,1.11-0.98,1.18
					c-0.88,0.1-2.28,0.18-4.07-0.01c-0.68-0.07-1.23-0.6-1.32-1.29c-1.09-7.77-7.38-54.04-7.11-87.37
					c0.02-1.88,2.16-17.32,2.16-17.32L169.63,321.41z"/>
			</g>
			
				<linearGradient id="SVGID_52_" gradientUnits="userSpaceOnUse" x1="-402.4421" y1="-115.9356" x2="-499.6715" y2="-17.2375" gradientTransform="matrix(0.991 -0.1339 0.1339 0.991 891.0647 -71.5434)">
				<stop  offset="0" style="stop-color:#FF928E"/>
				<stop  offset="1" style="stop-color:#FE7062"/>
			</linearGradient>
			<path class="st57" d="M142.05,323.93c-0.64-0.23-1.09-0.83-1.16-1.52c-0.83-8.22-4.85-59.18,20.51-80.14
				c0,0,1.45-3.89,13.41,5.67c11.95,9.55,5.55,19.56,2.69,33.37c-3.46,16.71-9.54,30.36-6.85,40.65c0.19,0.71-0.18,1.45-0.85,1.71
				C160.51,327.16,151.26,327.27,142.05,323.93z"/>
			<linearGradient id="SVGID_53_" gradientUnits="userSpaceOnUse" x1="161.3469" y1="257.6696" x2="177.9551" y2="220.3012">
				<stop  offset="0" style="stop-color:#A22B25"/>
				<stop  offset="1" style="stop-color:#C0423C"/>
			</linearGradient>
			<path class="st58" d="M171.29,227.01c-0.01,0.73-10.13,15.41-10.13,15.41s1.82,3.66,10.49,6.62l7.49-15.72L171.29,227.01z"/>
			<g>
				<linearGradient id="SVGID_54_" gradientUnits="userSpaceOnUse" x1="155.9161" y1="199.3696" x2="179.3384" y2="235.0885">
					<stop  offset="0" style="stop-color:#A22B25"/>
					<stop  offset="1" style="stop-color:#C0423C"/>
				</linearGradient>
				<path class="st59" d="M179.26,218.59c0,0,3.6,8.45,3.84,12.89c0.24,4.44,1.18,7.31-3.84,8.21c-5.02,0.89-9.25-1.66-11.55-6.08
					c0,0-3.59-6.81-2.79-9.6C165.73,221.22,179.26,218.59,179.26,218.59z"/>
				<linearGradient id="SVGID_55_" gradientUnits="userSpaceOnUse" x1="158.0991" y1="205.5309" x2="175.772" y2="226.2299">
					<stop  offset="0" style="stop-color:#09005D"/>
					<stop  offset="1" style="stop-color:#1A0F91"/>
				</linearGradient>
				<path class="st60" d="M169.43,230.43l0.29-0.13c0.36-0.16,0.52-0.61,0.34-0.97c-0.71-1.4-2.09-4.6-0.31-5.35
					c2.3-0.96,11.4-2.86,13.37-6.16c1.89-3.17,0.22-7.26-2.3-8.43c-0.17-0.08-0.37-0.02-0.45,0.15l-0.21,0.4
					c-0.14,0.28-0.54,0.24-0.63-0.07l0,0c-0.08-0.29-0.46-0.35-0.61-0.09c-0.6,0.99-2.23,2.59-6.59,3.41
					c-6.2,1.17-10.29,3.73-10.39,8.1c-0.01,0.28-0.3,0.43-0.53,0.29c-0.46-0.28-1.19-0.42-2.17,0.42c-1.7,1.46-1.01,5.25,2.73,8.37
					c0.18,0.15,0.18,0.43-0.02,0.56c-0.68,0.45-1.68,1.52,0.93,2.95c2.7,1.47,4.72,1.35,5.5,1.22c0.19-0.03,0.32-0.22,0.28-0.42
					l-0.83-3.84c-0.05-0.22,0.12-0.42,0.33-0.42H169.43z"/>
				<linearGradient id="SVGID_56_" gradientUnits="userSpaceOnUse" x1="149.8111" y1="203.3097" x2="173.3036" y2="239.1358">
					<stop  offset="0" style="stop-color:#A22B25"/>
					<stop  offset="1" style="stop-color:#C0423C"/>
				</linearGradient>
				<path class="st61" d="M169.59,231.24c0,0-1.37-5.4-3.74-3.89c-2.37,1.51,1.23,6.05,3.14,6.25L169.59,231.24z"/>
			</g>
			<g>
				<linearGradient id="SVGID_57_" gradientUnits="userSpaceOnUse" x1="288.0541" y1="154.9425" x2="191.4198" y2="253.0365">
					<stop  offset="0" style="stop-color:#FF928E"/>
					<stop  offset="1" style="stop-color:#FE7062"/>
				</linearGradient>
				<path class="st62" d="M178.65,252.37l0.7,19.15c1.98,0.7,3.87,1.24,5.67,1.64c1.12-3.7,3.6-8.23,5.63-11.61
					C183.19,258.87,178.65,252.37,178.65,252.37z"/>
				<linearGradient id="SVGID_58_" gradientUnits="userSpaceOnUse" x1="229.4802" y1="250.6973" x2="185.0898" y2="272.779">
					<stop  offset="0" style="stop-color:#A22B25"/>
					<stop  offset="1" style="stop-color:#C0423C"/>
				</linearGradient>
				<path class="st63" d="M215.84,252.05c-10.22,11.27-18.49,11.93-25.2,9.51c-2.03,3.37-4.5,7.91-5.63,11.61
					c27.29,6.14,33.71-19.47,33.71-19.47L215.84,252.05z"/>
				<linearGradient id="SVGID_59_" gradientUnits="userSpaceOnUse" x1="228.6959" y1="244.9151" x2="213.5513" y2="260.7328">
					<stop  offset="0" style="stop-color:#A22B25"/>
					<stop  offset="1" style="stop-color:#C0423C"/>
				</linearGradient>
				<path class="st64" d="M217.91,250.85c0,0,1.18-1.29,3.36-0.89c2.18,0.41,4.12,1.18,5.47,0c1.36-1.18,1.83,0.4,1.83,0.4
					l-4.06,3.16L217.91,250.85z"/>
				<linearGradient id="SVGID_60_" gradientUnits="userSpaceOnUse" x1="229.5445" y1="250.2395" x2="185.3526" y2="272.2225">
					<stop  offset="0" style="stop-color:#A22B25"/>
					<stop  offset="1" style="stop-color:#C0423C"/>
				</linearGradient>
				<path class="st65" d="M215.48,253.06c0,0,0.81-3.44,3.24-2.97s7.95,3.54,9.37,2.97s3.24-1.92,4.17-1.44l-1.64,2.09
					c0,0,4.22-2.49,4.95-0.96l-7.03,4.04C228.54,256.79,218.26,255.73,215.48,253.06z"/>
			</g>
			<linearGradient id="SVGID_61_" gradientUnits="userSpaceOnUse" x1="248.0404" y1="288.0184" x2="119.7578" y2="264.8214">
				<stop  offset="0" style="stop-color:#A22B25"/>
				<stop  offset="1" style="stop-color:#C0423C"/>
			</linearGradient>
			<path class="st66" d="M167.31,277.43c0,0,19.21,16.43,39.95,9.26c1.29-0.44,2.69-0.35,3.89,0.3l5.96,3.22
				c2.5,1.35,5.6,0.46,7.06-2.02c0.83-1.42,1.54-3.03,1.68-4.58l-11.67-4.82l0.86-1.46c0,0-5.7-0.49-7.19,3.68
				c0,0-10.85,4.61-29.15-15.95C178.7,265.06,170.4,272.27,167.31,277.43z"/>
			<linearGradient id="SVGID_62_" gradientUnits="userSpaceOnUse" x1="203.9958" y1="187.3044" x2="84.0544" y2="413.7111">
				<stop  offset="0" style="stop-color:#E1473D"/>
				<stop  offset="1" style="stop-color:#E9605A"/>
			</linearGradient>
			<path class="st67" d="M166.27,277.26c-0.06,0-0.13-0.02-0.18-0.06c-8.09-5.58-11.89-14.59-11.93-14.68
				c-0.07-0.17,0.01-0.37,0.17-0.44c0.17-0.07,0.36,0.01,0.43,0.18c0.04,0.09,3.77,8.92,11.69,14.39c0.15,0.1,0.19,0.31,0.09,0.47
				C166.48,277.21,166.38,277.26,166.27,277.26z"/>
			<linearGradient id="SVGID_63_" gradientUnits="userSpaceOnUse" x1="203.9742" y1="188.0412" x2="84.4783" y2="413.607">
				<stop  offset="0" style="stop-color:#E1473D"/>
				<stop  offset="1" style="stop-color:#E9605A"/>
			</linearGradient>
			<path class="st68" d="M178.32,264.78c-0.11,0-0.21-0.05-0.28-0.15c-0.02-0.04-2.5-3.97-7.2-12.57c-1.45-2.65-3.35-4.32-5.65-4.98
				c-3.82-1.09-7.49,1-7.53,1.02c-0.16,0.09-0.36,0.04-0.45-0.13c-0.09-0.16-0.03-0.37,0.12-0.46c0.16-0.09,3.94-2.25,8.03-1.09
				c2.48,0.71,4.52,2.49,6.06,5.3c4.69,8.58,7.16,12.5,7.18,12.54c0.1,0.16,0.05,0.36-0.1,0.46
				C178.44,264.76,178.38,264.78,178.32,264.78z"/>
		</g>
	</g>
</g>
</svg>
