<?xml version="1.0" encoding="utf-8"?>
<!-- Generator: Adobe Illustrator 25.1.0, SVG Export Plug-In . SVG Version: 6.00 Build 0)  -->
<svg version="1.1" id="Capa_1" xmlns="http://www.w3.org/2000/svg" xmlns:xlink="http://www.w3.org/1999/xlink" x="0px" y="0px"
	 viewBox="0 0 500 500" style="enable-background:new 0 0 500 500;" xml:space="preserve">
<style type="text/css">
	.st0{clip-path:url(#SVGID_2_);}
	.st1{opacity:0.8;fill:#B28A7C;}
	.st2{enable-background:new    ;}
	.st3{fill:#FFF8EF;}
	.st4{fill:#EEE8DE;}
	.st5{fill:#C5BBAC;}
	.st6{fill:#D5CBBD;}
	.st7{fill:url(#SVGID_3_);}
	.st8{fill:#3D3D89;}
	.st9{fill:#6666C4;}
	.st10{fill:url(#SVGID_4_);}
	.st11{fill:#5454AC;}
	.st12{fill:#4A4A9B;}
	.st13{fill:#D87B5C;}
	.st14{fill:#FF9E7C;}
	.st15{fill:#F38F6E;}
	.st16{opacity:0.7;fill:#C5BBAC;}
	.st17{fill:url(#SVGID_5_);}
	.st18{fill:url(#SVGID_6_);}
	.st19{fill:#9A92FF;}
</style>
<g id="_x31_">
	<g>
		<defs>
			<ellipse id="SVGID_1_" cx="250" cy="250" rx="201.16" ry="196.89"/>
		</defs>
		<use xlink:href="#SVGID_1_"  style="overflow:visible;fill:#FF9E7C;"/>
		<clipPath id="SVGID_2_">
			<use xlink:href="#SVGID_1_"  style="overflow:visible;"/>
		</clipPath>
		<g class="st0">
			<path class="st1" d="M174.28,208.25L4.53,301.4l137.17,77.51c2.48,1.4,5.3,2.14,8.17,2.14h12.42l9.46,5.34
				c2.48,1.4,5.3,2.14,8.17,2.14h8l12.86,7.27h18.17l7.98,4.51c3.9,2.2,8.32,3.36,12.82,3.36h27.32L174.28,208.25z"/>
			<g id="_x38__1_">
				<g>
					<g>
						<g class="st2">
							<path class="st3" d="M227.67,251.84L117.14,314.3c-0.95,0.54-1.81,0.59-2.43,0.23l152.65,86.56c0.62,0.35,1.48,0.3,2.43-0.23
								l110.53-62.46L227.67,251.84z"/>
							<path id="Cube_face_-_right_2_" class="st4" d="M373.45,338.15l-108.08,61.07v-18.66c0-4.89,2.67-9.42,7-11.86l101.08-57.12
								V338.15z"/>
							<g>
								<path class="st5" d="M113.16,317.13c-1.01-0.57-1.63-1.79-1.63-3.51l104.88,54.69l48.11,32.06
									c0.01,1.72,0.35,2.78,1.36,3.35L113.16,317.13z"/>
								<path class="st4" d="M264.48,381.99l-55.33-26.95l-97.66-59.8c-0.01-3.47,2.49-7.72,5.59-9.46l109.47,45.91l43.52,40.85
									C266.98,374.27,264.47,378.51,264.48,381.99L264.48,381.99z"/>
							</g>
							<polygon class="st3" points="269.73,372.33 117.08,285.77 227.6,223.31 380.26,309.88 							"/>
						</g>
						<path class="st6" d="M248.64,348.08L227.6,223.31l-110.53,62.46c-1.49,0.8-5.59,4.27-5.59,9.46
							c20.78,15.04,134.59,77.1,134.59,77.1c1.42-3.44,5.4-7.12,9.35-8.08h9.1l0.55-6.04L248.64,348.08z"/>
						<polygon class="st6" points="264.48,381.99 111.49,295.23 111.53,313.62 264.52,400.37 						"/>
						<path class="st4" d="M380.26,309.88l0.01,2.45l-110.53,62.46c-1.89,1.07-3.41,3.66-3.41,5.78l0.03,18.39
							c0.01,2.12,1.54,2.98,3.43,1.91l110.53-62.46l0.01,2.46L269.8,403.31c-3.09,1.75-5.61,0.34-5.62-3.13l-0.03-18.39
							c-0.01-3.47,2.49-7.72,5.59-9.46L380.26,309.88z"/>
					</g>
					<g>
						<g class="st2">
							<linearGradient id="SVGID_3_" gradientUnits="userSpaceOnUse" x1="122.3614" y1="292.5003" x2="369.1678" y2="292.5003">
								<stop  offset="9.852219e-03" style="stop-color:#7B7BE6"/>
								<stop  offset="1" style="stop-color:#9481FF"/>
							</linearGradient>
							<path class="st7" d="M227.32,223.05l-102.7,58.03c-0.88,0.5-1.68,0.55-2.26,0.22l141.84,80.43c0.58,0.33,1.38,0.28,2.26-0.22
								l102.7-58.03L227.32,223.05z"/>
							<path id="Cube_face_-_right_105_" class="st4" d="M362.79,303.25L262.36,360v-17.34c0-4.55,2.48-8.75,6.5-11.02l93.92-53.07
								V303.25z"/>
							<g>
								<path class="st8" d="M120.93,283.72c-0.93-0.53-1.51-1.66-1.52-3.26l97.46,50.82l44.7,29.79c0,1.6,0.33,2.58,1.26,3.12
									L120.93,283.72z"/>
								<path class="st9" d="M261.53,343.98l-51.41-25.04l-90.75-55.57c-0.01-3.23,2.32-7.17,5.19-8.79l101.72,42.66l40.44,37.95
									C263.85,336.81,261.52,340.76,261.53,343.98L261.53,343.98z"/>
							</g>
							<linearGradient id="SVGID_4_" gradientUnits="userSpaceOnUse" x1="124.5648" y1="265.7802" x2="369.109" y2="265.7802">
								<stop  offset="9.852219e-03" style="stop-color:#7B7BE6"/>
								<stop  offset="1" style="stop-color:#9481FF"/>
							</linearGradient>
							<polygon class="st10" points="266.41,335.01 124.56,254.58 227.26,196.55 369.11,276.98 							"/>
						</g>
						<path class="st11" d="M246.81,312.48l-19.55-115.93l-102.7,58.03c-1.38,0.74-5.19,3.97-5.19,8.79
							c19.31,13.98,125.06,71.64,125.06,71.64c1.32-3.2,5.02-6.62,8.68-7.51h8.45l0.51-5.62L246.81,312.48z"/>
						<polygon class="st12" points="261.53,343.98 119.38,263.37 119.41,280.46 261.56,361.07 						"/>
						<path class="st9" d="M369.11,276.98l0.01,2.28l-102.7,58.03c-1.76,0.99-3.17,3.4-3.17,5.37l0.03,17.09
							c0.01,1.97,1.43,2.76,3.19,1.77l102.7-58.03l0.01,2.28l-102.7,58.03c-2.87,1.62-5.21,0.32-5.22-2.91l-0.03-17.09
							c-0.01-3.23,2.32-7.17,5.19-8.79L369.11,276.98z"/>
					</g>
					<g>
						<g class="st2">
							<g>
								<path class="st13" d="M359.19,270.43l-134.8-76.4c1.43-0.81,2.59-2.78,2.58-4.38l134.8,76.4
									C361.78,267.65,360.61,269.62,359.19,270.43L359.19,270.43z"/>
							</g>
							<path class="st13" d="M226.19,173.11c0.47,0.26,0.76,0.83,0.76,1.62l0.03,14.92l134.8,76.4l0.34-16.54L226.19,173.11z"/>
							<polygon class="st14" points="261.57,325.59 126.77,249.19 224.39,194.03 359.19,270.43 							"/>
							<polygon class="st13" points="261.48,322.57 256.23,322.56 126.77,249.19 224.39,194.03 303.14,259.9 							"/>
							<polygon id="Cube_face_-_left_106_" class="st6" points="131.54,227.54 261.52,301 261.52,322.53 131.54,249.08 							"/>
							<path class="st4" d="M358.61,264.74l-0.03-14.92c0-0.8-0.29-1.36-0.76-1.62L261.52,301v21.53l94.54-53.43
								C357.48,268.28,358.62,266.33,358.61,264.74C358.61,264.74,358.61,264.74,358.61,264.74z"/>
							<polygon class="st13" points="261.58,327.45 126.77,251.05 126.77,249.19 261.57,325.59 							"/>
							<path class="st14" d="M227.36,171.14c-0.77-0.44-1.84-0.38-3.02,0.29l-97.62,55.16l134.8,76.4l100.64-55.45L227.36,171.14z"
								/>
							<path class="st15" d="M359.14,247.83c2.34-1.32,4.25-0.26,4.25,2.37l0.03,14.92c0.01,2.63-1.89,5.84-4.23,7.17l-97.62,55.16
								l-0.01-1.86l97.62-55.16c1.43-0.81,2.59-2.78,2.58-4.38l-0.03-14.92c0-1.6-1.17-2.26-2.6-1.45l-97.62,55.16l-0.01-1.86
								L359.14,247.83z"/>
							<polygon class="st13" points="261.53,304.84 126.73,228.44 126.72,226.59 261.52,302.99 							"/>
						</g>
						<polygon class="st13" points="130.33,224.55 250.03,292.19 261.9,292.19 239.54,264.32 182.42,195.11 						"/>
					</g>
					<g class="st2">
						<path class="st3" d="M235.4,173.14l-88.67,50.1c-0.82,0.46-1.56,0.51-2.1,0.2l116.88,66.31c0.54,0.31,1.28,0.26,2.1-0.2
							l88.67-50.1L235.4,173.14z"/>
						<path id="Cube_face_-_right_181_" class="st4" d="M346.36,239.23l-86.55,48.91v-4.79c0-4.22,2.3-8.12,6.04-10.24l80.52-45.5
							V239.23z"/>
						<g>
							<path class="st5" d="M143.3,225.69c-0.87-0.49-1.41-1.54-1.41-3.03l75.67,38.88l41.51,27.59c0,1.49,0.3,2.4,1.17,2.89
								L143.3,225.69z"/>
							<path class="st4" d="M259.04,284.58l-47.74-23.26l-69.43-43.22c-0.01-3,2.15-6.66,4.82-8.17l79.62,31.23l37.56,35.25
								C261.19,277.92,259.03,281.58,259.04,284.58L259.04,284.58z"/>
							<polygon class="st6" points="259.04,284.58 141.86,218.1 141.89,222.67 259.07,289.14 							"/>
						</g>
						<polygon class="st3" points="263.57,276.25 146.68,209.94 235.35,159.84 352.23,226.14 						"/>
						<path class="st4" d="M352.23,226.14l0.01,2.11l-88.67,50.1c-1.63,0.92-2.95,3.16-2.94,4.99l0.03,4.56
							c0.01,1.83,1.33,2.57,2.96,1.65l88.67-50.1l0.01,2.12l-88.67,50.1c-2.67,1.51-4.84,0.29-4.85-2.7l-0.03-4.56
							c-0.01-3,2.15-6.66,4.82-8.17L352.23,226.14z"/>
					</g>
				</g>
				<g>
					<path class="st6" d="M266.71,344.18c5.75-2.93,19.18-10.43,26.59-15.03C286,332.87,272.55,340.55,266.71,344.18z"/>
					<path class="st9" d="M281.25,335.8l-6.03,3.47c21.12,0.04,27.93,13.68,30.31,20.18l6.3-3.37
						C311.82,356.07,301.44,335.01,281.25,335.8z"/>
				</g>
				<g>
					<path class="st6" d="M326.86,276.66c7.26-3.7,20.63-11.39,25.48-14.4C347.33,264.81,333.91,272.29,326.86,276.66z"/>
					<path class="st14" d="M339.06,269.86l-4.34,2.5c15.19,0.03,17.78,16.19,19.93,21.71l4.53-2.43
						C359.19,291.64,354.9,270.82,339.06,269.86z"/>
				</g>
			</g>
			<path class="st16" d="M216.88,170.27l-70.2,39.67c-2.67,1.51-4.83,5.17-4.82,8.17c0,0,0.03,4.56,0.03,4.56
				c0,1.49,0.54,2.54,1.41,3.03l46.25,26.24c1.76-4.21,5.35-6.13,10.57-6.01h53.42l0.29-30.55l21.36-12.15L216.88,170.27z"/>
			<g id="_x39_">
				<linearGradient id="SVGID_5_" gradientUnits="userSpaceOnUse" x1="184.7734" y1="192.907" x2="323.2743" y2="192.907">
					<stop  offset="0" style="stop-color:#3D3D89"/>
					<stop  offset="1" style="stop-color:#4A4A9B"/>
				</linearGradient>
				<path class="st17" d="M301.58,167.91c-27.38,15.47-71.78,15.47-99.17,0c-13.53-7.64-20.37-17.64-20.54-27.65v66.77
					c0.16,10.02,7.01,20.01,20.54,27.65c27.38,15.47,71.78,15.47,99.17,0c13.86-7.83,20.7-18.12,20.54-28.38v-66.77
					C322.28,149.79,315.43,160.08,301.58,167.91z"/>
				<g class="st2">
					<g>
						<polygon class="st9" points="363.32,149.19 363.3,154.44 254.72,216.2 254.73,210.96 						"/>
					</g>
					<g>
						<polygon class="st12" points="254.73,210.96 254.72,216.2 145.42,154.44 145.43,149.19 						"/>
					</g>
					<g>
						<linearGradient id="SVGID_6_" gradientUnits="userSpaceOnUse" x1="145.4345" y1="149.1943" x2="363.3164" y2="149.1943">
							<stop  offset="9.852219e-03" style="stop-color:#7B7BE6"/>
							<stop  offset="1" style="stop-color:#9481FF"/>
						</linearGradient>
						<polygon class="st18" points="363.32,149.19 254.73,210.96 145.43,149.19 254.02,87.43 						"/>
					</g>
				</g>
				<g>
					<g>
						<path class="st19" d="M254.91,148.25c-0.35-0.59-1.12-0.79-1.72-0.45l-53.17,30.04c-1.32,0.75-2.14,2.14-2.14,3.63v0.93
							c0.85,0.17,1.69,0.39,2.52,0.65v-1.58c0-0.61,0.34-1.19,0.88-1.5l53.17-30.04C255.06,149.6,255.26,148.85,254.91,148.25z"/>
						<path class="st9" d="M199.16,242.05c-1.72-0.52-5.72,7.19-5.72,14.68c0,0.54,0.51,1.01,1.15,0.83
							c0.04,0.68,0.04,1.34,0.92,1.34c0.1,0,0.13,0.01,0.33-0.08c0.02,1.01,1.11,1.18,1.59,0.62c0.03,1.14,1.58,1.23,1.77,0.19
							c0.2,1.07,1.78,0.91,1.77-0.17c0.26,0.05,0.49,0.07,0.8-0.22c0.58,0.54,1.46,0.15,1.51-0.57c0.02-0.29,0.02-0.56,0.04-0.84
							C206.79,259.01,202.03,241.3,199.16,242.05z"/>
						<path class="st9" d="M198.23,179.92c-0.2,0.49-0.34,1.01-0.34,1.55v61.53c0,1.02,2.52,0.95,2.52,0v-61.53
							c0-0.11,0.02-0.21,0.04-0.32C199.63,180.88,198.87,180.5,198.23,179.92z"/>
					</g>
					<path class="st19" d="M253.53,151.3c3.08,0.47,6.24-0.57,7.07-2.31c0.83-1.74-1-3.53-4.08-4c-3.08-0.47-6.24,0.57-7.07,2.31
						C248.62,149.05,250.45,150.83,253.53,151.3z"/>
				</g>
			</g>
			<g>
				<g>
					<polygon class="st4" points="172.35,373.76 175.95,373.2 169.61,396.17 166,396.72 					"/>
				</g>
				<g>
					<polygon class="st4" points="178.99,349.71 182.6,349.16 176.59,370.9 172.98,371.46 					"/>
				</g>
				<g>
					<polygon class="st4" points="185.62,325.67 189.23,325.12 183.23,346.86 179.62,347.42 					"/>
				</g>
				<g>
					<polygon class="st3" points="172.98,371.46 176.59,370.9 199.39,383.78 195.78,384.34 					"/>
				</g>
				<g>
					<polygon class="st4" points="192.27,301.62 195.87,301.07 189.87,322.82 186.26,323.37 					"/>
				</g>
				<g>
					<polygon class="st3" points="179.62,347.42 183.23,346.86 206.03,359.75 202.42,360.3 					"/>
				</g>
				<g>
					<polygon class="st4" points="198.9,277.59 202.51,277.03 196.51,298.78 192.9,299.33 					"/>
				</g>
				<g>
					<polygon class="st3" points="186.26,323.37 189.87,322.82 212.67,335.7 209.06,336.25 					"/>
				</g>
				<g>
					<polygon class="st4" points="205.54,253.54 209.15,252.98 203.15,274.73 199.54,275.28 					"/>
				</g>
				<g>
					<polygon class="st3" points="192.9,299.33 196.51,298.78 219.3,311.66 215.7,312.21 					"/>
				</g>
				<g>
					<polygon class="st4" points="212.18,229.5 215.79,228.95 209.79,250.69 206.18,251.25 					"/>
				</g>
				<g>
					<polygon class="st3" points="199.54,275.28 203.15,274.73 225.95,287.61 222.34,288.17 					"/>
				</g>
				<g>
					<polygon class="st4" points="218.82,205.45 222.43,204.9 216.43,226.64 212.82,227.2 					"/>
				</g>
				<g>
					<polygon class="st3" points="206.18,251.25 209.79,250.69 232.58,263.57 228.97,264.13 					"/>
				</g>
				<g>
					<polygon class="st4" points="225.46,181.41 229.07,180.86 223.07,202.61 219.46,203.16 					"/>
				</g>
				<g>
					<polygon class="st3" points="212.82,227.2 216.43,226.64 239.22,239.53 235.62,240.08 					"/>
				</g>
				<g>
					<polygon class="st3" points="219.46,203.16 223.07,202.61 245.86,215.49 242.25,216.04 					"/>
				</g>
				<g>
					<polygon class="st3" points="223.41,180.25 227.02,179.7 229.07,180.86 225.46,181.41 					"/>
				</g>
				<g>
					<polygon class="st3" points="248.26,194.3 251.87,193.74 253.92,194.9 250.31,195.46 					"/>
				</g>
				<g>
					<path class="st6" d="M248.26,194.3l-6.01,21.75l-22.8-12.88l6-21.75l-2.05-1.16l-59.46,215.31l2.05,1.16l6.34-22.97l22.8,12.88
						l-6.34,22.97l2.05,1.16l59.46-215.31L248.26,194.3z M195.78,384.34l-22.8-12.88l6.01-21.75l22.8,12.88L195.78,384.34z
						 M202.42,360.3l-22.8-12.88l6.01-21.75l22.8,12.88L202.42,360.3z M209.06,336.25l-22.8-12.88l6.01-21.75l22.8,12.88
						L209.06,336.25z M215.69,312.21l-22.8-12.88l6.01-21.75l22.8,12.88L215.69,312.21z M222.34,288.17l-22.8-12.88l6.01-21.75
						l22.8,12.88L222.34,288.17z M228.97,264.13l-22.8-12.88l6.01-21.75l22.8,12.88L228.97,264.13z M235.62,240.08l-22.8-12.88
						l6.01-21.75l22.8,12.88L235.62,240.08z"/>
				</g>
				<g>
					<polygon class="st4" points="250.31,195.46 253.92,194.9 194.46,410.21 190.85,410.77 					"/>
				</g>
			</g>
		</g>
	</g>
</g>
</svg>
