<?xml version="1.0" encoding="utf-8"?>
<!-- Generator: Adobe Illustrator 25.1.0, SVG Export Plug-In . SVG Version: 6.00 Build 0)  -->
<svg version="1.1" xmlns="http://www.w3.org/2000/svg" xmlns:xlink="http://www.w3.org/1999/xlink" x="0px" y="0px"
	 viewBox="0 0 500 500" style="enable-background:new 0 0 500 500;" xml:space="preserve">
<style type="text/css">
	.st0{display:none;}
	.st1{display:inline;fill:#FFFFFF;}
	.st2{fill:#D2F5FC;}
	.st3{fill:#2B2C84;}
	.st4{fill:#FFFFFF;}
	.st5{fill:#FFD234;}
	.st6{fill:#FF9A00;}
	.st7{fill:#008489;}
	.st8{fill:#004D47;}
	.st9{fill:#F15381;}
	.st10{fill:#0052FF;}
	.st11{fill:#EBEBEB;}
	.st12{fill:#FF769B;}
	.st13{fill:#FFC7CA;}
	.st14{fill:#009AFF;}
	.st15{fill:#ECAF0B;}
	.st16{display:inline;}
	.st17{fill:#1D262D;}
</style>
<g id="BACKGROUND" class="st0">
	<rect class="st1" width="500" height="500"/>
</g>
<g id="OBJECTS">
	<g>
		<path class="st2" d="M445.41,298.91c-2.31-8.5-5.91-17.59-10.63-27.02c0.01-0.02,0.02-0.04,0.03-0.07
			c1.83-3.76,3.41-7.82,4.33-12.27c0.92-4.43,1.12-9.33,0.07-14.17c-0.5-2.42-1.36-4.77-2.42-7c-0.24-0.58-0.57-1.09-0.87-1.62
			l-0.93-1.59l-0.23-0.39l-0.22-0.33l-0.45-0.65l-0.9-1.31c-2.45-3.43-5.06-6.73-7.88-9.79c-11.23-12.32-24.47-22.46-38.5-31.63
			c-10.87-7.07-22.31-13.46-34.18-19.29c-56.85-48.23-128.94-80.47-187-55.08c-14.53,6.35-26.68,16.34-36.75,28.87
			c-10.86,4.54-21.03,10.44-29.95,17.7c-6.24,5.05-11.86,10.89-16.52,17.27c-4.64,6.4-8.34,13.32-11.12,20.41
			c-2.79,7.1-4.67,14.36-5.84,21.55c-1.18,7.2-1.65,14.33-1.64,21.29c0.02,6.97,0.52,13.77,1.36,20.37
			c0.83,6.61,2.03,13.02,3.47,19.22c1.44,6.2,3.08,12.21,4.91,18c1.84,5.79,3.84,11.38,5.93,16.78c3.62,9.21,7.55,17.83,11.64,25.88
			c5.31,36.92,16.4,64.43,29.85,68.56c4.47,1.37,11.99,2.08,21.8,2.15c7.19,6.85,20.07,16.38,41.5,13.12
			c3.21-0.33,7.05-0.95,11.42-2c4.85-1.16,10.34-2.83,16.4-4.98c6.06-2.14,12.68-4.8,19.83-7.89c7.12-3.06,14.75-6.56,22.87-10.44
			c32.1-5.9,65.58-13.87,95.41-23.74C409.53,359.22,454.44,332.13,445.41,298.91z M88.14,311.89c-1.52-4.42-2.98-8.95-4.33-13.6
			c-1.6-5.6-3.03-11.36-4.25-17.28c-1.23-5.92-2.22-11.99-2.86-18.2c-0.65-6.2-0.99-12.53-0.88-18.93
			c0.22-12.77,2.25-25.92,7.29-38.18c2.51-6.12,5.77-12,9.8-17.4c4.06-5.4,8.88-10.28,14.37-14.61c2.12-1.68,4.32-3.28,6.59-4.8
			C92.78,209.6,85.96,264.47,88.14,311.89z M210.03,415.66c-0.5,0.22-0.99,0.42-1.48,0.63c-6.93,2.87-36.62,14-54,1.71
			c-1.25-1.01-2.54-2.12-3.87-3.31c17.78-0.4,41.16-2.47,67.01-6.1c3.57-0.5,7.18-1.03,10.84-1.59
			C221.84,410.31,215.66,413.22,210.03,415.66z M426.07,256.14c-8.26-13.66-18.54-27.72-30.34-41.49c0.87,0.67,1.75,1.33,2.6,2
			c3,2.43,5.98,4.88,8.76,7.46c2.82,2.55,5.48,5.2,8,7.91c2.54,2.7,4.81,5.54,6.92,8.41l0.77,1.09l0.38,0.54l0.19,0.27
			c0.06,0.09,0.09,0.16,0.14,0.24l0.54,0.92c0.18,0.31,0.4,0.6,0.52,0.93c0.6,1.26,1.11,2.54,1.39,3.89
			C426.49,250.77,426.51,253.41,426.07,256.14z"/>
		<path class="st2" d="M134.1,108.16c3.82,6.61-2.15,17.2-13.32,23.65c-11.17,6.45-23.32,6.32-27.14-0.29
			c-3.82-6.61,2.15-17.2,13.32-23.65C118.13,101.42,130.28,101.55,134.1,108.16z"/>
		<path class="st2" d="M233.6,93.97c-0.64,4.33-7.1,6.95-14.41,5.87c-7.32-1.09-12.72-5.48-12.08-9.81
			c0.64-4.33,7.1-6.95,14.41-5.87C228.84,85.25,234.25,89.64,233.6,93.97z"/>
		<path class="st2" d="M292.14,418.19c1.79,5.79-4.7,12.93-14.49,15.95c-9.79,3.02-19.17,0.77-20.96-5.02
			c-1.79-5.79,4.7-12.93,14.49-15.95C280.97,410.16,290.35,412.4,292.14,418.19z"/>
		<path class="st2" d="M326.45,403.73c1.07,3.46-2.81,7.72-8.65,9.52c-5.84,1.8-11.45,0.46-12.51-3c-1.07-3.46,2.81-7.72,8.65-9.52
			C319.78,398.93,325.38,400.27,326.45,403.73z"/>
	</g>
	<g>
		<path class="st3" d="M414.69,106.13h-7.67c-0.55-1.74-1.24-3.41-2.08-5.01l5.43-5.43c1.35-1.35,1.35-3.54,0-4.88L402,82.44
			c-1.35-1.35-3.53-1.35-4.88,0l-5.43,5.43c-1.59-0.83-3.27-1.53-5.01-2.08v-7.67c0-1.91-1.54-3.45-3.45-3.45h-11.84
			c-1.91,0-3.45,1.54-3.45,3.45v7.67c-1.74,0.55-3.42,1.25-5.01,2.08l0,0l-5.43-5.43c-1.35-1.35-3.53-1.35-4.88,0l-8.37,8.37
			c-1.35,1.35-1.35,3.53,0,4.88l5.43,5.43c-0.83,1.59-1.53,3.26-2.08,5.01h-7.67c-1.91,0-3.45,1.55-3.45,3.45v11.84
			c0,1.91,1.54,3.45,3.45,3.45h7.67c0.55,1.74,1.25,3.42,2.08,5.01l-5.43,5.43c-1.35,1.35-1.35,3.53,0,4.88l8.37,8.37
			c1.35,1.35,3.53,1.35,4.88,0l5.43-5.43c1.59,0.83,3.27,1.53,5.01,2.08v7.67c0,1.91,1.54,3.45,3.45,3.45h11.84
			c1.91,0,3.45-1.54,3.45-3.45v-7.67c1.74-0.55,3.42-1.25,5.01-2.08l5.43,5.43c1.35,1.35,3.53,1.35,4.88,0l8.37-8.37
			c1.35-1.35,1.35-3.54,0-4.88l-5.43-5.43c0.83-1.59,1.53-3.27,2.08-5.01h7.67c1.91,0,3.45-1.54,3.45-3.45v-11.84
			C418.14,107.67,416.6,106.13,414.69,106.13z M377.31,130.93c-8.52,0-15.43-6.91-15.43-15.43c0-8.52,6.91-15.43,15.43-15.43
			c8.52,0,15.43,6.91,15.43,15.43C392.75,124.02,385.84,130.93,377.31,130.93z"/>
		<g>
			<g>
				<path class="st4" d="M377.31,142.49c-14.89,0-27-12.11-27-27s12.11-27,27-27c14.89,0,27,12.11,27,27S392.2,142.49,377.31,142.49
					z M377.31,91.15c-13.42,0-24.35,10.92-24.35,24.35c0,13.42,10.92,24.35,24.35,24.35c13.43,0,24.35-10.92,24.35-24.35
					C401.66,102.07,390.74,91.15,377.31,91.15z"/>
			</g>
		</g>
	</g>
	<g>
		<path class="st5" d="M321.41,110.15h-5.38c-0.38-1.22-0.87-2.39-1.45-3.51l3.8-3.8c0.94-0.95,0.94-2.48,0-3.42l-5.87-5.86
			c-0.94-0.95-2.47-0.95-3.42,0l-3.8,3.8c-1.12-0.58-2.29-1.07-3.51-1.46v-5.38c0-1.34-1.08-2.42-2.42-2.42h-8.29
			c-1.34,0-2.42,1.08-2.42,2.42v5.38c-1.22,0.38-2.39,0.87-3.51,1.46l0,0l-3.8-3.8c-0.94-0.95-2.47-0.95-3.42,0l-5.87,5.86
			c-0.94,0.94-0.94,2.47,0,3.42l3.8,3.8c-0.58,1.12-1.07,2.29-1.45,3.51h-5.38c-1.34,0-2.42,1.08-2.42,2.42v8.29
			c0,1.34,1.08,2.42,2.42,2.42h5.38c0.38,1.22,0.87,2.39,1.45,3.51l-3.8,3.8c-0.94,0.94-0.94,2.47,0,3.42l5.87,5.86
			c0.94,0.94,2.47,0.94,3.42,0l3.8-3.8c1.12,0.58,2.29,1.07,3.51,1.45v5.37c0,1.34,1.08,2.42,2.42,2.42h8.29
			c1.34,0,2.42-1.08,2.42-2.42v-5.37c1.22-0.38,2.39-0.87,3.51-1.45l3.8,3.8c0.94,0.94,2.47,0.94,3.42,0l5.87-5.86
			c0.94-0.95,0.94-2.48,0-3.42l-3.8-3.8c0.58-1.12,1.07-2.29,1.45-3.51h5.38c1.34,0,2.42-1.08,2.42-2.42v-8.29
			C323.83,111.24,322.75,110.15,321.41,110.15z M295.23,127.53c-5.97,0-10.81-4.84-10.81-10.81c0-5.97,4.84-10.81,10.81-10.81
			s10.81,4.84,10.81,10.81C306.04,122.69,301.2,127.53,295.23,127.53z"/>
		<g>
			<g>
				<path class="st4" d="M295.23,135.63c-10.43,0-18.91-8.48-18.91-18.91c0-10.43,8.48-18.91,18.91-18.91s18.91,8.48,18.91,18.91
					C314.14,127.15,305.66,135.63,295.23,135.63z M295.23,99.66c-9.4,0-17.05,7.65-17.05,17.05s7.65,17.05,17.05,17.05
					s17.05-7.65,17.05-17.05S304.63,99.66,295.23,99.66z"/>
			</g>
		</g>
	</g>
	<g>
		<path class="st6" d="M411.79,383.4h-7.52c-0.54-1.71-1.22-3.34-2.03-4.9l5.32-5.32c1.32-1.32,1.32-3.46,0-4.78l-8.2-8.2
			c-1.32-1.32-3.46-1.32-4.78,0l-5.32,5.32c-1.56-0.82-3.2-1.5-4.91-2.04v-7.52c0-1.87-1.51-3.38-3.38-3.38h-11.6
			c-1.87,0-3.38,1.51-3.38,3.38v7.52c-1.71,0.54-3.35,1.22-4.91,2.04l0,0l-5.32-5.32c-1.32-1.32-3.46-1.32-4.78,0l-8.2,8.2
			c-1.32,1.32-1.32,3.46,0,4.78l5.32,5.32c-0.82,1.56-1.5,3.2-2.03,4.9h-7.52c-1.87,0-3.38,1.52-3.38,3.38v11.6
			c0,1.87,1.51,3.38,3.38,3.38h7.52c0.54,1.71,1.22,3.35,2.03,4.91l-5.32,5.32c-1.32,1.32-1.32,3.46,0,4.78l8.2,8.2
			c1.32,1.32,3.46,1.32,4.78,0l5.32-5.32c1.56,0.81,3.2,1.5,4.91,2.03v7.52c0,1.87,1.51,3.38,3.38,3.38h11.6
			c1.87,0,3.38-1.51,3.38-3.38v-7.52c1.71-0.54,3.35-1.22,4.91-2.03l5.32,5.32c1.32,1.32,3.46,1.32,4.78,0l8.2-8.2
			c1.32-1.32,1.32-3.46,0-4.78l-5.32-5.32c0.81-1.56,1.5-3.2,2.03-4.91h7.52c1.87,0,3.38-1.51,3.38-3.38v-11.6
			C415.17,384.92,413.66,383.4,411.79,383.4z M375.16,407.7c-8.35,0-15.12-6.77-15.12-15.12c0-8.35,6.77-15.12,15.12-15.12
			c8.35,0,15.12,6.77,15.12,15.12C390.28,400.93,383.51,407.7,375.16,407.7z"/>
		<g>
			<g>
				<path class="st4" d="M375.16,419.03c-14.59,0-26.45-11.87-26.45-26.45c0-14.59,11.87-26.45,26.45-26.45
					c14.58,0,26.45,11.87,26.45,26.45C401.61,407.17,389.75,419.03,375.16,419.03z M375.16,368.73c-13.15,0-23.85,10.7-23.85,23.85
					c0,13.15,10.7,23.85,23.85,23.85c13.15,0,23.85-10.7,23.85-23.85C399.02,379.43,388.32,368.73,375.16,368.73z"/>
			</g>
		</g>
	</g>
	<g>
		<path class="st7" d="M130.31,137.73h-6.18c-0.44-1.4-1-2.75-1.67-4.03l4.37-4.37c1.08-1.09,1.08-2.85,0-3.93l-6.74-6.74
			c-1.08-1.09-2.84-1.09-3.93,0l-4.37,4.37c-1.28-0.67-2.63-1.23-4.03-1.68v-6.18c0-1.54-1.24-2.78-2.78-2.78h-9.53
			c-1.54,0-2.78,1.24-2.78,2.78v6.18c-1.4,0.44-2.75,1-4.03,1.68h0l-4.37-4.37c-1.08-1.09-2.84-1.09-3.93,0l-6.74,6.74
			c-1.08,1.08-1.08,2.84,0,3.93l4.37,4.37c-0.67,1.28-1.23,2.63-1.67,4.03h-6.18c-1.54,0-2.78,1.25-2.78,2.78v9.53
			c0,1.54,1.24,2.78,2.78,2.78h6.18c0.44,1.4,1,2.75,1.67,4.03l-4.37,4.37c-1.08,1.08-1.08,2.84,0,3.93l6.74,6.74
			c1.08,1.08,2.84,1.08,3.93,0l4.37-4.37c1.28,0.67,2.63,1.23,4.03,1.67v6.18c0,1.54,1.24,2.78,2.78,2.78h9.53
			c1.54,0,2.78-1.24,2.78-2.78v-6.18c1.4-0.44,2.75-1,4.03-1.67l4.37,4.37c1.08,1.08,2.84,1.08,3.93,0l6.74-6.74
			c1.08-1.09,1.08-2.85,0-3.93l-4.37-4.37c0.67-1.28,1.23-2.63,1.67-4.03h6.18c1.54,0,2.78-1.24,2.78-2.78v-9.53
			C133.09,138.98,131.85,137.73,130.31,137.73z M100.21,157.7c-6.86,0-12.43-5.56-12.43-12.43c0-6.86,5.56-12.43,12.43-12.43
			c6.86,0,12.43,5.56,12.43,12.43C112.64,152.14,107.07,157.7,100.21,157.7z"/>
		<g>
			<g>
				<path class="st4" d="M100.21,167.02c-11.99,0-21.74-9.75-21.74-21.74c0-11.99,9.75-21.74,21.74-21.74
					c11.99,0,21.74,9.75,21.74,21.74C121.95,157.26,112.2,167.02,100.21,167.02z M100.21,125.67c-10.81,0-19.61,8.79-19.61,19.61
					c0,10.81,8.79,19.6,19.61,19.6c10.81,0,19.61-8.79,19.61-19.6C119.81,134.46,111.02,125.67,100.21,125.67z"/>
			</g>
		</g>
	</g>
	<g>
		<g>
			<path class="st4" d="M170.77,150.92c-7.51,0-13.62-6.11-13.62-13.62v-6.27h4.48v6.27c0,5.04,4.1,9.14,9.14,9.14
				c5.04,0,9.14-4.1,9.14-9.14V117.5c0-7.51,6.11-13.62,13.62-13.62h5c7.51,0,13.62,6.11,13.62,13.62v50.46h-4.48V117.5
				c0-5.04-4.1-9.14-9.14-9.14h-5c-5.04,0-9.14,4.1-9.14,9.14v19.81C184.4,144.81,178.28,150.92,170.77,150.92z"/>
		</g>
		<g>
			<path class="st6" d="M181.22,86.35c0-12.57-10.63-22.66-23.39-21.78c-10.69,0.74-19.38,9.35-20.22,20.03
				c-0.4,5.12,0.97,9.89,3.55,13.79c4.4,6.64,6.74,14.42,6.74,22.38v0h22.94l0,0c0-7.9,2.23-15.69,6.65-22.24
				C179.85,95.05,181.22,90.86,181.22,86.35z"/>
			<path class="st4" d="M161.75,86.58v5.62h-0.79h-3.15h-0.79v-5.62h-7.76v7.65H155v29.35h2.02V94.23h0.79h3.15h0.79v29.35h2.02
				V94.23h5.74v-7.65H161.75z M155,92.21h-3.71v-3.6H155V92.21z M167.49,92.21h-3.71v-3.6h3.71V92.21z"/>
			<g>
				<rect x="153.99" y="131.68" class="st8" width="10.8" height="5.17"/>
				<path class="st7" d="M166.09,134.05h-13.41c-2.63,0-4.77-2.13-4.77-4.77v-8.51h22.94v8.51
					C170.86,131.91,168.73,134.05,166.09,134.05z"/>
			</g>
		</g>
	</g>
	<g>
		<polygon class="st9" points="380.38,199.09 349.63,204.73 356.38,212.65 335.93,230.05 312.15,203.5 271.67,237.67 278.41,245.65 
			311.14,218.03 334.94,244.61 363.15,220.61 369.89,228.53 		"/>
		<polygon class="st10" points="364.29,170.91 339.8,175.4 345.17,181.71 328.89,195.57 309.95,174.42 277.7,201.63 283.07,207.99 
			309.14,185.99 328.1,207.16 350.57,188.05 355.94,194.36 		"/>
	</g>
	<g>
		<path class="st4" d="M429.59,216.78c-1.24,0-2.24,1-2.24,2.24v2.24c0,1.24,1,2.24,2.24,2.24c1.24,0,2.24-1,2.24-2.24v-2.24
			C431.83,217.78,430.83,216.78,429.59,216.78z"/>
		<path class="st4" d="M429.59,271.8c-1.24,0-2.24,1-2.24,2.24v4.8c0,1.24,1,2.24,2.24,2.24c1.24,0,2.24-1,2.24-2.24v-4.8
			C431.83,272.81,430.83,271.8,429.59,271.8z"/>
		<path class="st4" d="M429.59,233.41c-1.24,0-2.24,1-2.24,2.24v4.8c0,1.24,1,2.24,2.24,2.24c1.24,0,2.24-1,2.24-2.24v-4.8
			C431.83,234.42,430.83,233.41,429.59,233.41z"/>
		<path class="st4" d="M429.59,252.61c-1.24,0-2.24,1-2.24,2.24v4.8c0,1.24,1,2.24,2.24,2.24c1.24,0,2.24-1,2.24-2.24v-4.8
			C431.83,253.61,430.83,252.61,429.59,252.61z"/>
		<path class="st4" d="M429.59,291c-1.24,0-2.24,1-2.24,2.24c-1.24,0-2.24,1-2.24,2.24c0,1.24,1,2.24,2.24,2.24h4.48v-4.48
			C431.83,292,430.83,291,429.59,291z"/>
		<path class="st4" d="M367.6,293.24h-3.98c-1.24,0-2.24,1-2.24,2.24c0,1.24,1,2.24,2.24,2.24h3.98c1.24,0,2.24-1,2.24-2.24
			C369.84,294.24,368.84,293.24,367.6,293.24z"/>
		<path class="st4" d="M383.54,293.24h-3.98c-1.24,0-2.24,1-2.24,2.24c0,1.24,1,2.24,2.24,2.24h3.98c1.24,0,2.24-1,2.24-2.24
			C385.77,294.24,384.77,293.24,383.54,293.24z"/>
		<path class="st4" d="M399.47,293.24h-3.98c-1.24,0-2.24,1-2.24,2.24c0,1.24,1,2.24,2.24,2.24h3.98c1.24,0,2.24-1,2.24-2.24
			C401.71,294.24,400.71,293.24,399.47,293.24z"/>
		<path class="st4" d="M415.4,293.24h-3.98c-1.24,0-2.24,1-2.24,2.24c0,1.24,1,2.24,2.24,2.24h3.98c1.24,0,2.24-1,2.24-2.24
			C417.64,294.24,416.64,293.24,415.4,293.24z"/>
		<path class="st4" d="M351.67,293.24h-2.24c-1.24,0-2.24,1-2.24,2.24c0,1.24,1,2.24,2.24,2.24h2.24c1.24,0,2.24-1,2.24-2.24
			C353.91,294.24,352.9,293.24,351.67,293.24z"/>
	</g>
	<g>
		
			<rect x="39.68" y="243.79" transform="matrix(0.9574 -0.2888 0.2888 0.9574 -77.1065 38.2314)" class="st10" width="102.62" height="73.19"/>
		<g>
			
				<rect x="47.25" y="256.34" transform="matrix(0.9574 -0.2888 0.2888 0.9574 -78.0825 38.6902)" class="st4" width="89.62" height="55.18"/>
			<g>
				<path class="st4" d="M107.63,245.15c0.38,1.24-0.33,2.56-1.57,2.93c-1.24,0.38-2.56-0.33-2.93-1.57
					c-0.38-1.24,0.33-2.56,1.57-2.93C105.94,243.2,107.25,243.9,107.63,245.15z"/>
				<path class="st4" d="M116.58,242.44c0.38,1.24-0.33,2.56-1.57,2.93c-1.24,0.38-2.56-0.33-2.93-1.57
					c-0.38-1.24,0.33-2.56,1.57-2.93C114.89,240.5,116.21,241.2,116.58,242.44z"/>
				<path class="st4" d="M125.54,239.74c0.38,1.24-0.33,2.56-1.57,2.93c-1.24,0.38-2.56-0.33-2.93-1.57
					c-0.38-1.24,0.33-2.56,1.57-2.93C123.85,237.79,125.16,238.5,125.54,239.74z"/>
			</g>
		</g>
		<g>
			
				<rect x="64.59" y="293.58" transform="matrix(0.9574 -0.2889 0.2889 0.9574 -84.6044 33.0962)" class="st5" width="10.46" height="19.18"/>
			
				<rect x="80.51" y="280.16" transform="matrix(0.9574 -0.2889 0.2889 0.9574 -81.2645 37.3012)" class="st5" width="10.46" height="27.61"/>
			
				<rect x="98.89" y="283.37" transform="matrix(0.9574 -0.2888 0.2888 0.9574 -80.1484 42.546)" class="st5" width="10.46" height="19.04"/>
			
				<rect x="112.54" y="254.58" transform="matrix(0.9574 -0.2888 0.2888 0.9574 -74.7339 45.773)" class="st5" width="10.46" height="43.18"/>
		</g>
		<g>
			<g>
				<path class="st11" d="M52.07,273.76c0.31,1.02-0.27,2.1-1.29,2.41c-1.02,0.31-2.1-0.27-2.41-1.29c-0.31-1.02,0.27-2.1,1.29-2.41
					C50.69,272.16,51.77,272.74,52.07,273.76z"/>
				
					<rect x="54.03" y="269.15" transform="matrix(0.9574 -0.2888 0.2888 0.9574 -75.1983 30.2325)" class="st11" width="21.62" height="1.51"/>
			</g>
			<g>
				<path class="st11" d="M53.66,279.03c0.31,1.02-0.27,2.1-1.29,2.41c-1.02,0.31-2.1-0.27-2.41-1.29c-0.31-1.02,0.27-2.1,1.29-2.41
					C52.28,277.43,53.36,278.01,53.66,279.03z"/>
				
					<rect x="55.62" y="274.42" transform="matrix(0.9574 -0.2888 0.2888 0.9574 -76.6521 30.9159)" class="st11" width="21.62" height="1.51"/>
			</g>
		</g>
	</g>
	<g>
		<path class="st4" d="M171.43,200.03c0-0.04,0.03-0.08,0.03-0.13v-23.57c0-0.04-0.02-0.07-0.02-0.11
			c-0.01-0.08-0.02-0.15-0.04-0.22c-0.02-0.08-0.05-0.15-0.09-0.21c-0.02-0.03-0.02-0.07-0.04-0.1c-0.02-0.03-0.05-0.04-0.07-0.07
			c-0.05-0.06-0.11-0.12-0.17-0.17c-0.05-0.04-0.11-0.08-0.17-0.11c-0.07-0.04-0.14-0.06-0.21-0.08c-0.07-0.02-0.14-0.04-0.21-0.04
			c-0.04,0-0.07-0.02-0.11-0.02h-34.52c-0.04,0-0.07,0.02-0.1,0.02c-0.08,0.01-0.15,0.02-0.22,0.04c-0.07,0.02-0.14,0.05-0.2,0.08
			c-0.06,0.03-0.12,0.07-0.17,0.12c-0.06,0.05-0.12,0.1-0.17,0.16c-0.02,0.03-0.05,0.04-0.07,0.07c-0.02,0.03-0.02,0.07-0.04,0.1
			c-0.04,0.07-0.07,0.14-0.09,0.21c-0.02,0.07-0.04,0.15-0.04,0.22c0,0.04-0.02,0.07-0.02,0.11v8.32h-9.87
			c-0.01,0-0.02,0.01-0.04,0.01c-0.09,0-0.17,0.03-0.25,0.05c-0.06,0.02-0.12,0.02-0.18,0.05c-0.06,0.03-0.11,0.07-0.17,0.11
			c-0.07,0.05-0.14,0.09-0.2,0.15c-0.01,0.01-0.02,0.01-0.03,0.02c-0.04,0.04-0.05,0.09-0.08,0.14c-0.05,0.07-0.09,0.14-0.12,0.21
			c-0.03,0.08-0.04,0.16-0.05,0.24c-0.01,0.05-0.03,0.1-0.03,0.16v23.58c0,0.63,0.51,1.14,1.14,1.14h34.52
			c0.63,0,1.14-0.51,1.14-1.14v-4.58c0.01-0.08,0.01-0.15,0-0.23v-3.52h9.87c0.17,0,0.33-0.04,0.47-0.11
			c0.04-0.02,0.07-0.05,0.11-0.07c0.1-0.06,0.2-0.14,0.28-0.23c0.02-0.02,0.04-0.02,0.05-0.04c0.03-0.04,0.03-0.08,0.06-0.12
			c0.04-0.07,0.08-0.14,0.1-0.21C171.41,200.18,171.42,200.11,171.43,200.03z M160.44,191.09v-5.31c0-0.06-0.02-0.1-0.03-0.16
			c-0.01-0.08-0.02-0.16-0.05-0.24c-0.03-0.08-0.08-0.14-0.12-0.21c-0.03-0.04-0.04-0.1-0.08-0.14c-0.01-0.01-0.02-0.01-0.03-0.02
			c-0.06-0.06-0.13-0.11-0.2-0.15c-0.01-0.01-0.03-0.02-0.04-0.03l9.28-6.34v19.13L160.44,191.09z M125.92,188.29l10.41,9.05
			l-10.41,5.41V188.29z M139.08,196.7C139.08,196.7,139.08,196.69,139.08,196.7l-11.25-9.77h7.93c0.01,0,0.01,0,0.02,0
			s0.01,0,0.02,0h13.8c0.01,0,0.02,0,0.03,0c0.01,0,0.02,0,0.04,0h6.56L145,196.69c0,0,0,0,0,0l-2.96,2.57L139.08,196.7z
			 M156.11,184.64H150l-10.51-7.17h27.13L156.11,184.64z M158.16,188.29v14.45l-10.41-5.4L158.16,188.29z M136.93,178.49l9.01,6.15
			h-9.01V178.49z M125.92,208.22v-2.9l12.27-6.38l3.1,2.69c0.21,0.19,0.48,0.28,0.75,0.28c0.27,0,0.53-0.09,0.75-0.28l3.1-2.69
			l12.27,6.36v2.91H125.92z M160.44,193.94l6.43,4.81h-6.43V193.94z"/>
	</g>
	<g>
		<g>
			<path class="st12" d="M151.78,386.94l4.58-13.24c-0.23,0.44,13,5.66,13,5.66l-10.61-11.28c0,0-0.02,0.04-0.05,0.1l0.05-0.1
				l-37.46-10.25L151.78,386.94z M158.06,369.41l0.01-0.01C158.06,369.41,158.06,369.41,158.06,369.41z"/>
			<polygon class="st9" points="169.36,379.35 161.43,363.27 121.3,357.83 158.75,368.08 			"/>
			<polygon class="st12" points="161.43,363.27 169.66,353.04 121.3,357.83 			"/>
		</g>
		<g>
			<g>
				<path class="st4" d="M177.7,380.6c-0.33,0.12-0.7,0.12-1.04-0.04c-1.31-0.62-2.04-1.01-2.07-1.03
					c-0.65-0.35-0.89-1.17-0.54-1.82c0.35-0.65,1.17-0.89,1.82-0.54c0.01,0,0.7,0.38,1.93,0.96c0.67,0.32,0.96,1.12,0.64,1.79
					C178.29,380.24,178.02,380.48,177.7,380.6z"/>
			</g>
			<g>
				<path class="st4" d="M228.23,385.09c-0.66,0.25-1.32,0.48-1.98,0.69c-0.71,0.23-1.46-0.16-1.69-0.86
					c-0.23-0.71,0.15-1.44,0.86-1.69c1.34-0.44,2.69-0.92,4-1.61c0.66-0.33,1.47-0.09,1.81,0.57c0.34,0.66,0.09,1.47-0.57,1.81
					C229.86,384.42,229.04,384.78,228.23,385.09z M217.46,387.75c-0.09,0.04-0.19,0.06-0.3,0.07c-1.51,0.2-3.07,0.34-4.64,0.41
					c-0.74,0.04-1.37-0.54-1.41-1.28c-0.04-0.74,0.54-1.37,1.28-1.41c1.49-0.07,2.98-0.2,4.42-0.39c0.74-0.1,1.41,0.42,1.51,1.16
					C218.4,386.95,218.03,387.54,217.46,387.75z M237.67,378.54c-0.47,0.18-1.02,0.08-1.4-0.29c-0.54-0.51-0.55-1.36-0.04-1.9
					c0.97-1.01,1.93-2.13,2.86-3.34c0.45-0.59,1.3-0.7,1.88-0.24c0.59,0.45,0.7,1.3,0.24,1.88c-0.99,1.29-2.02,2.48-3.05,3.56
					C238.02,378.36,237.85,378.47,237.67,378.54z M203.85,387.91c-0.19,0.07-0.39,0.1-0.6,0.08c-1.5-0.15-3.05-0.35-4.59-0.6
					c-0.73-0.12-1.23-0.81-1.11-1.54c0.12-0.73,0.81-1.23,1.54-1.11c1.49,0.24,2.97,0.44,4.42,0.58c0.74,0.07,1.28,0.73,1.21,1.47
					C204.66,387.31,204.31,387.73,203.85,387.91z M245.59,367.47c-0.36,0.13-0.77,0.12-1.13-0.08c-0.65-0.36-0.88-1.18-0.52-1.83
					c0.7-1.25,1.4-2.59,2.08-3.97c0.33-0.67,1.13-0.94,1.8-0.61s0.94,1.13,0.61,1.8c-0.7,1.42-1.42,2.8-2.14,4.09
					C246.13,367.16,245.87,367.36,245.59,367.47z M190.47,385.33c-0.26,0.1-0.55,0.12-0.84,0.04c-1.47-0.41-2.95-0.88-4.41-1.37
					c-0.7-0.24-1.08-1-0.84-1.7c0.24-0.7,1-1.08,1.7-0.84c1.42,0.48,2.85,0.93,4.27,1.33c0.71,0.2,1.13,0.94,0.93,1.66
					C191.17,384.87,190.86,385.19,190.47,385.33z M251.36,355.12c-0.3,0.11-0.64,0.12-0.96-0.01c-0.69-0.27-1.03-1.05-0.76-1.74
					c0.53-1.35,1.07-2.77,1.59-4.22c0.25-0.7,1.02-1.06,1.72-0.81c0.7,0.25,1.06,1.02,0.81,1.72c-0.53,1.48-1.07,2.92-1.62,4.3
					C251.99,354.72,251.7,354.99,251.36,355.12z M255.79,342.21c-0.27,0.1-0.56,0.12-0.86,0.03c-0.71-0.21-1.11-0.96-0.9-1.67
					c0.44-1.47,0.85-2.92,1.25-4.34c0.2-0.72,0.93-1.14,1.65-0.94c0.72,0.2,1.14,0.94,0.94,1.65c-0.4,1.44-0.82,2.91-1.26,4.41
					C256.48,341.75,256.17,342.06,255.79,342.21z"/>
			</g>
		</g>
	</g>
	<g>
		<g>
			<g>
				<g>
					<path class="st13" d="M254.38,257.25c0,0,9.03,45.23,43.96,58.44c0,0,5.82-4.7,9.85-3.81c4.03,0.9,11.42,9.63,11.42,9.63
						h-22.84c0,0-37.39-3.58-56.65-40.08L239,267.77L254.38,257.25z"/>
					<path class="st9" d="M234.67,218.74c0,0,22.69,28.88,25.38,36.5c0,0-14.33,11.87-18.81,15.9c0,0-16.99-33.29-14.11-42.54
						C229.82,219.98,234.67,218.74,234.67,218.74z"/>
					<path class="st12" d="M200.34,211.27c0,0-34.33,4.78-40.3,27.47c-5.97,22.69,40.53,91.06,40.53,91.06h53.81
						c0,0-13.14-106.88-19.7-111.06C228.1,214.56,219.45,207.39,200.34,211.27z"/>
					<g>
						<path class="st13" d="M218.85,198.14l-1.29,20.98c-4.85,2.99-22.29-2.78-22.29-2.78l2.38-23.04L218.85,198.14z"/>
						<g>
							<path class="st13" d="M238.11,168.58c0,0-0.63,43.78-24.63,38.07c-28.21-6.72-15.23-47.02-15.23-47.02L238.11,168.58z"/>
							<path class="st13" d="M198.25,180.82c0,0-1.94-4.33-5.08-2.54c-3.13,1.79-3.88,14.06,4.48,15.02L198.25,180.82z"/>
						</g>
						<path class="st3" d="M193.17,178.28c0,0,4.63-0.75,6.19,3.51l2.46-15.9c0,0,15.73,4.48,24.32,0c0,0,6.52,8.6,11.48,9.45
							c4.95,0.85,12.29-19.53,0-23.56c0,0-27.39-33.59-43.01,0c0,0-10.25,0.67-11.59,12.99c-1.34,12.32,8.02,20.8,8.02,20.8
							S190.79,179.48,193.17,178.28z"/>
					</g>
					<g>
						<path class="st13" d="M198.03,294.42c0,0,30.45,31.12,60.46,31.12c30,0,31.35,0,31.35,0h28.21c0,0-13.88-18.14-20.6-15.56
							c-6.72,2.58-11.2,6.38-11.2,6.38s-42.84-8.12-69.56-39.89C216.69,276.48,203.73,276.51,198.03,294.42z"/>
						<path class="st9" d="M160.04,238.74c0,0,0.6,42.39,37.02,61.5c0,0,14.48-21.55,19.63-23.76c0,0-17.9-40.67-29.78-48.49
							C180.86,224.01,168.4,225.3,160.04,238.74z"/>
					</g>
				</g>
				<path class="st3" d="M256.77,325.54c0,0-1.49,1.57-1.34,4.25H352c0,0-1.04-4.03-2.39-4.25H256.77z"/>
				<polygon class="st10" points="318.04,329.8 343.2,251.87 381.41,251.87 356.03,329.8 				"/>
				<path class="st4" d="M361.72,287.99c-0.75,3.06-2.91,5.17-4.83,4.7c-1.92-0.47-2.88-3.33-2.13-6.4c0.75-3.06,2.91-5.17,4.83-4.7
					C361.51,282.06,362.46,284.93,361.72,287.99z"/>
			</g>
			<path class="st14" d="M396.96,339.65H113.42l0,0c0-5.44,4.41-9.85,9.85-9.85h263.83C392.55,329.8,396.96,334.21,396.96,339.65
				L396.96,339.65z"/>
			<g>
				<path class="st6" d="M197.49,329.8h-45.5c-4.7,0-8.51-3.81-8.51-8.51l0,0c0-4.7,3.81-8.51,8.51-8.51h45.5V329.8z"/>
				<path class="st4" d="M197.49,325.04H151.3c-2.07,0-3.75-1.68-3.75-3.75l0,0c0-2.07,1.68-3.75,3.75-3.75h46.19V325.04z"/>
			</g>
			<g>
				<path class="st7" d="M197.49,312.78h-45.5c-4.7,0-8.51-3.81-8.51-8.51l0,0c0-4.7,3.81-8.51,8.51-8.51h45.5V312.78z"/>
				<path class="st4" d="M197.49,308.02H151.3c-2.07,0-3.75-1.68-3.75-3.75l0,0c0-2.07,1.68-3.75,3.75-3.75h46.19V308.02z"/>
			</g>
		</g>
		<path class="st6" d="M147.86,233.2l0.49,1.57l0.49-1.57c0.63-2.02,1.95-3.71,3.68-4.74l0,0l0,0c-1.73-1.02-3.05-2.71-3.68-4.74
			l-0.49-1.57l-0.49,1.57c-0.63,2.02-1.95,3.71-3.68,4.74l0,0l0,0C145.92,229.49,147.23,231.18,147.86,233.2z"/>
		<path class="st6" d="M249.67,212.54l0.93,2.97l0.93-2.97c1.2-3.82,3.68-7.02,6.96-8.96l0,0l0,0c-3.28-1.94-5.76-5.13-6.96-8.96
			l-0.93-2.97l-0.93,2.97c-1.2,3.82-3.68,7.02-6.96,8.96l0,0l0,0C245.99,205.52,248.47,208.72,249.67,212.54z"/>
		<path class="st6" d="M315.17,275.95l0.93,2.97l0.93-2.97c1.2-3.82,3.68-7.02,6.96-8.96l0,0l0,0c-3.28-1.94-5.76-5.13-6.96-8.96
			l-0.93-2.97l-0.93,2.97c-1.2,3.82-3.68,7.02-6.96,8.96l0,0l0,0C311.49,268.93,313.97,272.12,315.17,275.95z"/>
		<path class="st6" d="M299.79,295.25l0.61,1.95l0.61-1.95c0.78-2.5,2.41-4.6,4.56-5.87l0,0l0,0c-2.15-1.27-3.78-3.36-4.56-5.87
			l-0.61-1.95l-0.61,1.95c-0.78,2.5-2.41,4.6-4.56,5.87l0,0l0,0C297.38,290.65,299.01,292.74,299.79,295.25z"/>
		<path class="st6" d="M261.48,175.29l0.61,1.95l0.61-1.95c0.78-2.5,2.41-4.6,4.56-5.87l0,0l0,0c-2.15-1.27-3.78-3.36-4.56-5.87
			l-0.61-1.94l-0.61,1.94c-0.78,2.5-2.41,4.6-4.56,5.87l0,0l0,0C259.07,170.69,260.7,172.78,261.48,175.29z"/>
		<path class="st6" d="M106.63,222.85l0.86,2.74l0.86-2.74c1.1-3.53,3.4-6.48,6.42-8.26l0,0l0,0c-3.03-1.79-5.32-4.74-6.42-8.26
			l-0.86-2.74l-0.86,2.74c-1.1,3.53-3.4,6.48-6.42,8.26l0,0l0,0C103.24,216.37,105.53,219.32,106.63,222.85z"/>
	</g>
	<g>
		<g>
			<rect x="394.96" y="162.97" class="st5" width="66.28" height="81.23"/>
			<path class="st15" d="M468.7,171.79v5.88h-7.46v-14.69C465.48,163.67,468.7,167.35,468.7,171.79z"/>
		</g>
		<g>
			<g>
				<g>
					<rect x="402.45" y="186.47" class="st15" width="10.49" height="10.49"/>
				</g>
				<g>
					<rect x="418.14" y="186.47" class="st3" width="35.6" height="2.62"/>
					<rect x="418.14" y="194.35" class="st3" width="35.6" height="2.62"/>
				</g>
			</g>
			<g>
				<rect x="402.45" y="210.21" class="st15" width="10.49" height="10.5"/>
				<g>
					<rect x="418.14" y="210.21" class="st3" width="35.6" height="2.62"/>
					<rect x="418.14" y="218.09" class="st3" width="35.6" height="2.62"/>
				</g>
			</g>
		</g>
		<g>
			<polygon class="st4" points="408.6,193.89 404.23,190.12 405.99,188.09 408.23,190.03 412.79,184.28 414.9,185.95 			"/>
		</g>
		<g>
			<polygon class="st4" points="408.6,217.03 404.23,213.26 405.99,211.23 408.23,213.16 412.79,207.42 414.9,209.09 			"/>
		</g>
	</g>
</g>
<g id="DESIGNED_BY_FREEPIK" class="st0">
	<g class="st16">
		<g id="XMLID_1_">
			<g id="XMLID_20_">
				<path id="XMLID_28_" class="st17" d="M260.1,472.47c-0.43,0.44-0.8,0.93-1.11,1.45l-0.46-0.24c-0.07-0.3-0.35-0.5-0.66-0.47
					c-0.33,0.04-0.57,0.34-0.53,0.67c0.04,0.33,0.34,0.57,0.67,0.53c0.07-0.01,0.13-0.03,0.18-0.05l0.45,0.23
					c-0.25,0.55-0.43,1.14-0.54,1.74l0.75,0.13c0.23-1.31,0.85-2.51,1.79-3.47L260.1,472.47z"/>
				<path id="XMLID_27_" class="st17" d="M265.59,470.17c-0.17,0-0.34,0.01-0.51,0.02l-0.07-0.63c0.19-0.15,0.3-0.39,0.27-0.64
					c-0.05-0.39-0.4-0.67-0.8-0.63s-0.67,0.4-0.63,0.79c0.03,0.25,0.19,0.46,0.4,0.56l0.07,0.63c-0.71,0.12-1.4,0.33-2.06,0.65
					l0.33,0.68c0.93-0.45,1.94-0.67,3-0.67c0.5,0,0.99,0.05,1.48,0.16l0.16-0.74C266.69,470.23,266.14,470.17,265.59,470.17z"/>
				<path id="XMLID_26_" class="st17" d="M272.19,472.71c0.33-0.04,0.57-0.34,0.53-0.67c-0.04-0.33-0.34-0.57-0.67-0.53
					c-0.31,0.04-0.54,0.3-0.53,0.61l-0.42,0.36c-0.42-0.43-0.89-0.81-1.41-1.14l-0.4,0.64c1.13,0.71,2.02,1.73,2.56,2.92l0.69-0.31
					c-0.25-0.55-0.57-1.07-0.94-1.54l0.4-0.35C272.06,472.72,272.13,472.72,272.19,472.71z"/>
				<path id="XMLID_25_" class="st17" d="M265.04,480.38c-0.39,0.02-0.77,0.04-1.16,0.04c-0.88,0-1.73-0.06-2.48-0.18
					c-0.39-0.06-0.85-0.15-1.27-0.29c1.05,1.86,3.07,3.13,5.39,3.13c2.86,0,5.26-1.92,5.95-4.5c-0.68,0.45-1.51,0.83-2.46,1.12
					C267.84,480.05,266.46,480.29,265.04,480.38z"/>
				<path id="XMLID_21_" class="st17" d="M265.59,471.68c-3.35,0-6.08,2.67-6.08,5.94c0,0.43,0.05,0.85,0.14,1.26
					c0.67,0.48,2.71,0.89,5.35,0.73c2.88-0.17,5.3-0.96,6.67-2.16c-0.01-0.19-0.02-0.39-0.04-0.58
					C271.24,473.92,268.65,471.68,265.59,471.68z M263.43,478.2c-1.02,0-1.85-0.83-1.85-1.85c0-1.02,0.83-1.85,1.85-1.85
					c1.02,0,1.85,0.83,1.85,1.85C265.28,477.37,264.45,478.2,263.43,478.2z M268.17,477.29c-0.75,0-1.36-0.61-1.36-1.36
					s0.61-1.36,1.36-1.36s1.36,0.61,1.36,1.36S268.92,477.29,268.17,477.29z"/>
			</g>
			<path id="XMLID_18_" class="st17" d="M281.6,473.55c-0.29-0.12-0.81-0.31-1.38-0.24c-0.55,0.07-0.84,0.34-0.84,1.01v0.87h2.23
				v1.72h-2.23v5.46h-1.93v-5.46h-1.34v-1.72h1.34v-0.89c0-1.68,0.9-2.78,2.57-2.78c0.64,0,1.16,0.12,1.59,0.31L281.6,473.55z"/>
			<path id="XMLID_16_" class="st17" d="M286.3,476.88c-0.18-0.03-0.36-0.05-0.53-0.05c-0.9,0-1.51,0.55-1.51,1.61v3.91h-1.93v-7.17
				h1.87v0.78c0.45-0.67,1.14-0.98,2.02-0.98c0.41,0,0.85,0.13,1.09,0.34L286.3,476.88z"/>
			<path id="XMLID_13_" class="st17" d="M293.97,478.76c0,0.22-0.02,0.49-0.04,0.65h-5.08c0.21,1.04,0.93,1.49,1.84,1.49
				c0.62,0,1.29-0.25,1.81-0.69l1.13,1.24c-0.81,0.75-1.85,1.09-3.06,1.09c-2.2,0-3.72-1.5-3.72-3.75c0-2.26,1.48-3.8,3.63-3.8
				C292.54,474.99,293.96,476.53,293.97,478.76z M288.85,478.09h3.18c-0.18-0.92-0.73-1.44-1.56-1.44
				C289.55,476.66,289.02,477.21,288.85,478.09z"/>
			<path id="XMLID_10_" class="st17" d="M301.62,478.76c0,0.22-0.02,0.49-0.04,0.65h-5.08c0.21,1.04,0.93,1.49,1.84,1.49
				c0.62,0,1.29-0.25,1.81-0.69l1.13,1.24c-0.81,0.75-1.85,1.09-3.06,1.09c-2.2,0-3.72-1.5-3.72-3.75c0-2.26,1.48-3.8,3.63-3.8
				C300.2,474.99,301.61,476.53,301.62,478.76z M296.5,478.09h3.18c-0.18-0.92-0.73-1.44-1.56-1.44
				C297.21,476.66,296.67,477.21,296.5,478.09z"/>
			<path id="XMLID_7_" class="st17" d="M309.96,478.77c0,2.15-1.5,3.77-3.47,3.77c-0.96,0-1.64-0.38-2.11-0.93v3.71h-1.92v-10.13
				h1.89v0.79c0.47-0.58,1.15-0.98,2.14-0.98C308.47,474.99,309.96,476.61,309.96,478.77z M304.29,478.77
				c0,1.13,0.75,1.98,1.84,1.98c1.14,0,1.85-0.88,1.85-1.98s-0.71-1.98-1.85-1.98C305.03,476.79,304.29,477.63,304.29,478.77z"/>
			<path id="XMLID_4_" class="st17" d="M313.07,472.84c0,0.7-0.54,1.23-1.24,1.23s-1.23-0.53-1.23-1.23c0-0.7,0.53-1.24,1.23-1.24
				S313.07,472.14,313.07,472.84z M312.81,482.36h-1.93v-7.17h1.93V482.36z"/>
			<path id="XMLID_2_" class="st17" d="M316.03,477.74l2.7-2.55h2.37l-3.48,3.38l3.5,3.8h-2.38l-2.72-2.9v2.9h-1.93V471.7h1.93
				V477.74z"/>
		</g>
		<g>
			<path class="st17" d="M184.41,482.29v-1.05c-0.53,0.72-1.39,1.23-2.39,1.23c-1.85,0-3.15-1.41-3.15-3.71
				c0-2.26,1.29-3.72,3.15-3.72c0.95,0,1.82,0.47,2.39,1.25v-3.76h1.1v9.77H184.41z M184.41,480.37v-3.21
				c-0.4-0.62-1.25-1.14-2.12-1.14c-1.42,0-2.27,1.17-2.27,2.74c0,1.57,0.85,2.72,2.27,2.72
				C183.17,481.49,184.02,480.99,184.41,480.37z"/>
			<path class="st17" d="M186.93,478.75c0-2.05,1.46-3.71,3.49-3.71c2.14,0,3.4,1.67,3.4,3.79v0.28h-5.73
				c0.09,1.33,1.03,2.45,2.55,2.45c0.81,0,1.63-0.32,2.18-0.89l0.53,0.72c-0.7,0.7-1.66,1.08-2.81,1.08
				C188.44,482.47,186.93,480.96,186.93,478.75z M190.4,475.95c-1.51,0-2.26,1.27-2.31,2.36h4.64
				C192.72,477.25,192.01,475.95,190.4,475.95z"/>
			<path class="st17" d="M194.61,481.35l0.57-0.79c0.47,0.54,1.36,1.01,2.33,1.01c1.08,0,1.67-0.51,1.67-1.22
				c0-1.71-4.38-0.66-4.38-3.28c0-1.1,0.95-2.04,2.64-2.04c1.2,0,2.05,0.45,2.62,1.03l-0.51,0.76c-0.42-0.51-1.2-0.89-2.11-0.89
				c-0.97,0-1.57,0.48-1.57,1.11c0,1.55,4.38,0.53,4.38,3.28c0,1.19-0.95,2.14-2.78,2.14C196.31,482.47,195.32,482.12,194.61,481.35
				z"/>
			<path class="st17" d="M201.48,473.47c0-0.41,0.34-0.75,0.73-0.75c0.41,0,0.75,0.34,0.75,0.75c0,0.41-0.34,0.73-0.75,0.73
				C201.81,474.21,201.48,473.88,201.48,473.47z M201.67,482.29v-7.07h1.1v7.07H201.67z"/>
			<path class="st17" d="M204.58,484.11l0.56-0.82c0.59,0.7,1.29,0.97,2.3,0.97c1.17,0,2.27-0.57,2.27-2.12v-1.01
				c-0.51,0.72-1.38,1.26-2.37,1.26c-1.85,0-3.15-1.38-3.15-3.66c0-2.27,1.29-3.68,3.15-3.68c0.95,0,1.8,0.47,2.37,1.25v-1.07h1.1
				v6.87c0,2.34-1.64,3.08-3.37,3.08C206.24,485.16,205.42,484.93,204.58,484.11z M209.71,480.26v-3.09
				c-0.38-0.62-1.23-1.14-2.11-1.14c-1.42,0-2.27,1.13-2.27,2.69c0,1.55,0.85,2.7,2.27,2.7
				C208.48,481.41,209.33,480.87,209.71,480.26z"/>
			<path class="st17" d="M217.41,482.29v-4.63c0-1.24-0.63-1.64-1.58-1.64c-0.86,0-1.68,0.53-2.09,1.1v5.17h-1.1v-7.07h1.1v1.03
				c0.5-0.59,1.46-1.2,2.52-1.2c1.48,0,2.26,0.75,2.26,2.29v4.96H217.41z"/>
			<path class="st17" d="M219.93,478.75c0-2.05,1.46-3.71,3.49-3.71c2.14,0,3.4,1.67,3.4,3.79v0.28h-5.73
				c0.09,1.33,1.03,2.45,2.55,2.45c0.81,0,1.63-0.32,2.18-0.89l0.53,0.72c-0.7,0.7-1.66,1.08-2.81,1.08
				C221.44,482.47,219.93,480.96,219.93,478.75z M223.4,475.95c-1.51,0-2.26,1.27-2.31,2.36h4.64
				C225.72,477.25,225.02,475.95,223.4,475.95z"/>
			<path class="st17" d="M233.35,482.29v-1.05c-0.53,0.72-1.39,1.23-2.39,1.23c-1.85,0-3.15-1.41-3.15-3.71
				c0-2.26,1.29-3.72,3.15-3.72c0.95,0,1.82,0.47,2.39,1.25v-3.76h1.1v9.77H233.35z M233.35,480.37v-3.21
				c-0.4-0.62-1.25-1.14-2.12-1.14c-1.42,0-2.27,1.17-2.27,2.74c0,1.57,0.85,2.72,2.27,2.72
				C232.1,481.49,232.95,480.99,233.35,480.37z"/>
			<path class="st17" d="M239.69,482.29v-9.77h1.1v3.76c0.57-0.78,1.42-1.25,2.39-1.25c1.85,0,3.15,1.46,3.15,3.72
				c0,2.3-1.3,3.71-3.15,3.71c-1,0-1.86-0.51-2.39-1.23v1.05H239.69z M242.9,481.49c1.44,0,2.29-1.16,2.29-2.72
				c0-1.57-0.85-2.74-2.29-2.74c-0.86,0-1.73,0.53-2.11,1.14v3.21C241.17,480.99,242.04,481.49,242.9,481.49z"/>
			<path class="st17" d="M247.53,484.06c0.16,0.07,0.43,0.12,0.6,0.12c0.48,0,0.81-0.16,1.05-0.75l0.47-1.07l-2.96-7.15h1.19
				l2.36,5.8l2.34-5.8h1.2l-3.54,8.51c-0.42,1.03-1.14,1.42-2.08,1.44c-0.23,0-0.6-0.04-0.81-0.1L247.53,484.06z"/>
		</g>
	</g>
</g>
</svg>
